%TF.GenerationSoftware,KiCad,Pcbnew,6.0.7+dfsg-1~bpo11+1*%
%TF.CreationDate,2022-10-03T05:52:26+00:00*%
%TF.ProjectId,0101-SERIAL-CP2102N,30313031-2d53-4455-9249-414c2d435032,V1.0*%
%TF.SameCoordinates,Original*%
%TF.FileFunction,Copper,L2,Inr*%
%TF.FilePolarity,Positive*%
%FSLAX46Y46*%
G04 Gerber Fmt 4.6, Leading zero omitted, Abs format (unit mm)*
G04 Created by KiCad (PCBNEW 6.0.7+dfsg-1~bpo11+1) date 2022-10-03 05:52:26*
%MOMM*%
%LPD*%
G01*
G04 APERTURE LIST*
G04 Aperture macros list*
%AMRoundRect*
0 Rectangle with rounded corners*
0 $1 Rounding radius*
0 $2 $3 $4 $5 $6 $7 $8 $9 X,Y pos of 4 corners*
0 Add a 4 corners polygon primitive as box body*
4,1,4,$2,$3,$4,$5,$6,$7,$8,$9,$2,$3,0*
0 Add four circle primitives for the rounded corners*
1,1,$1+$1,$2,$3*
1,1,$1+$1,$4,$5*
1,1,$1+$1,$6,$7*
1,1,$1+$1,$8,$9*
0 Add four rect primitives between the rounded corners*
20,1,$1+$1,$2,$3,$4,$5,0*
20,1,$1+$1,$4,$5,$6,$7,0*
20,1,$1+$1,$6,$7,$8,$9,0*
20,1,$1+$1,$8,$9,$2,$3,0*%
G04 Aperture macros list end*
%TA.AperFunction,ComponentPad*%
%ADD10RoundRect,0.350000X-0.650000X0.350000X-0.650000X-0.350000X0.650000X-0.350000X0.650000X0.350000X0*%
%TD*%
%TA.AperFunction,ComponentPad*%
%ADD11RoundRect,0.350000X-0.700000X0.350000X-0.700000X-0.350000X0.700000X-0.350000X0.700000X0.350000X0*%
%TD*%
%TA.AperFunction,ComponentPad*%
%ADD12R,1.700000X1.700000*%
%TD*%
%TA.AperFunction,ComponentPad*%
%ADD13O,1.700000X1.700000*%
%TD*%
%TA.AperFunction,ViaPad*%
%ADD14C,0.700000*%
%TD*%
%TA.AperFunction,ViaPad*%
%ADD15C,0.500000*%
%TD*%
%TA.AperFunction,Conductor*%
%ADD16C,0.350000*%
%TD*%
%TA.AperFunction,Conductor*%
%ADD17C,0.200000*%
%TD*%
G04 APERTURE END LIST*
D10*
%TO.N,GND*%
%TO.C,J1*%
X2950000Y12975000D03*
D11*
X6930000Y22025000D03*
X6930000Y12975000D03*
D10*
X2950000Y22025000D03*
%TD*%
D12*
%TO.N,/RTS{slash}BOOT*%
%TO.C,J2*%
X13525000Y21300000D03*
D13*
%TO.N,/DTR{slash}RESET*%
X16065000Y21300000D03*
%TO.N,VBUS*%
X13525000Y18760000D03*
%TO.N,GND*%
X16065000Y18760000D03*
%TO.N,VDD*%
X13525000Y16220000D03*
%TO.N,/CTS*%
X16065000Y16220000D03*
%TO.N,/RXD*%
X13525000Y13680000D03*
%TO.N,/TXD*%
X16065000Y13680000D03*
%TD*%
D14*
%TO.N,VDD*%
X15800000Y23750000D03*
X10800000Y25500000D03*
X10800000Y9500000D03*
D15*
X5450000Y16500000D03*
X5450000Y17100000D03*
D14*
X15800000Y11250000D03*
D15*
X4850000Y17100000D03*
X4850000Y16500000D03*
%TO.N,GND*%
X19050000Y23750000D03*
X1800000Y19500000D03*
X1800000Y18500000D03*
X19050000Y14750000D03*
X15800000Y26500000D03*
X8800000Y23750000D03*
X12300000Y11500000D03*
X11800000Y8500000D03*
X11800000Y23750000D03*
X15550000Y12150000D03*
X19050000Y20250000D03*
X19050000Y15750000D03*
X1800000Y17500000D03*
X5800000Y15550000D03*
X7550000Y26750000D03*
X3050000Y19000000D03*
X14550000Y11250000D03*
X3050000Y18000000D03*
X6550000Y16000000D03*
X16800000Y15000000D03*
X11800000Y26500000D03*
X14300000Y23000000D03*
X19050000Y11250000D03*
X15800000Y8500000D03*
X15300000Y23000000D03*
X1800000Y16500000D03*
X1800000Y15500000D03*
X9800000Y23750000D03*
X14800000Y14500000D03*
X19050000Y19250000D03*
%TO.N,VBUS*%
X10200000Y21300000D03*
X9350000Y13700000D03*
X9600000Y21300000D03*
X10800000Y21300000D03*
X9950000Y13700000D03*
X10550000Y13700000D03*
D14*
%TO.N,/RTS{slash}BOOT*%
X9300000Y10500000D03*
X1300000Y10500000D03*
%TO.N,/D-*%
X6285542Y17925000D03*
%TO.N,/D+*%
X6285542Y17075000D03*
%TO.N,Net-(R3-Pad2)*%
X11950000Y20200000D03*
X5800000Y19500000D03*
%TO.N,/RTS*%
X11150000Y13000000D03*
X12050000Y14350000D03*
%TD*%
D16*
%TO.N,VDD*%
X7550000Y9500000D02*
X10800000Y9500000D01*
X14050000Y25500000D02*
X15800000Y23750000D01*
X4850000Y12200000D02*
X7550000Y9500000D01*
X4850000Y16500000D02*
X4850000Y12200000D01*
X4850000Y22800000D02*
X4850000Y17100000D01*
X7550000Y25500000D02*
X4850000Y22800000D01*
X14050000Y9500000D02*
X10800000Y9500000D01*
X4850000Y16500000D02*
X4850000Y17100000D01*
X14050000Y9500000D02*
X15800000Y11250000D01*
X10800000Y25500000D02*
X14050000Y25500000D01*
X7550000Y25500000D02*
X10800000Y25500000D01*
D17*
%TO.N,Net-(R3-Pad2)*%
X11300000Y22400000D02*
X11950000Y21750000D01*
X7300000Y19500000D02*
X8650000Y20850000D01*
X11950000Y21750000D02*
X11950000Y20200000D01*
X8650000Y21750000D02*
X9300000Y22400000D01*
X5800000Y19500000D02*
X7300000Y19500000D01*
X8650000Y20850000D02*
X8650000Y21750000D01*
X9300000Y22400000D02*
X11300000Y22400000D01*
%TD*%
%TA.AperFunction,Conductor*%
%TO.N,GND*%
G36*
X8653332Y27129498D02*
G01*
X8699825Y27075842D01*
X8701115Y27072667D01*
X8701476Y27071320D01*
X8787324Y26881795D01*
X8790190Y26877505D01*
X8846090Y26793828D01*
X8902901Y26708786D01*
X9045119Y26556918D01*
X9210178Y26430247D01*
X9393668Y26332159D01*
X9398545Y26330503D01*
X9398548Y26330502D01*
X9585802Y26266931D01*
X9590686Y26265273D01*
X9795969Y26231377D01*
X10004031Y26231377D01*
X10209314Y26265273D01*
X10214198Y26266931D01*
X10401452Y26330502D01*
X10401455Y26330503D01*
X10406332Y26332159D01*
X10589822Y26430247D01*
X10754881Y26556918D01*
X10897099Y26708786D01*
X10953911Y26793828D01*
X11009810Y26877505D01*
X11012676Y26881795D01*
X11063341Y26993646D01*
X11098524Y27071320D01*
X11099686Y27070793D01*
X11137922Y27123337D01*
X11204100Y27149046D01*
X11214789Y27149500D01*
X13730879Y27149500D01*
X13799000Y27129498D01*
X13835703Y27086810D01*
X13838428Y27088529D01*
X13914930Y26967280D01*
X14022388Y26872377D01*
X14152163Y26811447D01*
X14261009Y26794500D01*
X14335940Y26794500D01*
X14365456Y26798727D01*
X14383318Y26800000D01*
X15215934Y26800000D01*
X15235318Y26798500D01*
X15261009Y26794500D01*
X15335940Y26794500D01*
X15365456Y26798727D01*
X15383318Y26800000D01*
X16215934Y26800000D01*
X16235318Y26798500D01*
X16261009Y26794500D01*
X16335940Y26794500D01*
X16365456Y26798727D01*
X16383318Y26800000D01*
X17215934Y26800000D01*
X17235318Y26798500D01*
X17261009Y26794500D01*
X17335940Y26794500D01*
X17365456Y26798727D01*
X17383318Y26800000D01*
X18215934Y26800000D01*
X18235318Y26798500D01*
X18261009Y26794500D01*
X18335940Y26794500D01*
X18377339Y26800429D01*
X18433032Y26808404D01*
X18433035Y26808405D01*
X18441918Y26809677D01*
X18572428Y26869016D01*
X18600192Y26892939D01*
X18674237Y26956740D01*
X18674240Y26956743D01*
X18681037Y26962600D01*
X18759015Y27082905D01*
X18761990Y27080977D01*
X18797533Y27121644D01*
X18865739Y27141355D01*
X18879309Y27140564D01*
X18930421Y27134805D01*
X18957928Y27128526D01*
X19068407Y27089868D01*
X19093820Y27077631D01*
X19192943Y27015349D01*
X19214998Y26997759D01*
X19297759Y26914998D01*
X19315349Y26892943D01*
X19377631Y26793820D01*
X19389868Y26768407D01*
X19428526Y26657928D01*
X19434805Y26630420D01*
X19447692Y26516043D01*
X19447830Y26513583D01*
X19444191Y26500000D01*
X19448484Y26483978D01*
X19448484Y26471315D01*
X19449500Y26463598D01*
X19449500Y18814789D01*
X19429498Y18746668D01*
X19375842Y18700175D01*
X19372667Y18698885D01*
X19371320Y18698524D01*
X19181795Y18612676D01*
X19177505Y18609810D01*
X19013074Y18499964D01*
X19013070Y18499961D01*
X19008786Y18497099D01*
X18952398Y18444294D01*
X18876222Y18372958D01*
X18856918Y18354881D01*
X18730247Y18189822D01*
X18632159Y18006332D01*
X18630503Y18001455D01*
X18630502Y18001452D01*
X18597168Y17903263D01*
X18565273Y17809314D01*
X18531377Y17604031D01*
X18531377Y17395969D01*
X18565273Y17190686D01*
X18566931Y17185803D01*
X18566931Y17185802D01*
X18613193Y17049535D01*
X18632159Y16993668D01*
X18730247Y16810178D01*
X18856918Y16645119D01*
X18860682Y16641595D01*
X18860683Y16641593D01*
X18893416Y16610940D01*
X19008786Y16502901D01*
X19013070Y16500039D01*
X19013074Y16500036D01*
X19124132Y16425845D01*
X19181795Y16387324D01*
X19186495Y16385195D01*
X19186497Y16385194D01*
X19371320Y16301476D01*
X19370793Y16300314D01*
X19423337Y16262078D01*
X19449046Y16195900D01*
X19449500Y16185211D01*
X19449500Y8536402D01*
X19448484Y8528685D01*
X19448484Y8516022D01*
X19444191Y8500000D01*
X19447830Y8486417D01*
X19447692Y8483957D01*
X19434805Y8369580D01*
X19428526Y8342072D01*
X19389868Y8231593D01*
X19377631Y8206180D01*
X19315349Y8107057D01*
X19297759Y8085002D01*
X19214998Y8002241D01*
X19192943Y7984651D01*
X19093820Y7922369D01*
X19068407Y7910132D01*
X18957928Y7871474D01*
X18930422Y7865195D01*
X18917798Y7863772D01*
X18878548Y7859350D01*
X18808618Y7871599D01*
X18757881Y7917322D01*
X18685070Y8032720D01*
X18577612Y8127623D01*
X18447837Y8188553D01*
X18338991Y8205500D01*
X18264060Y8205500D01*
X18236129Y8201500D01*
X18234544Y8201273D01*
X18216682Y8200000D01*
X17384066Y8200000D01*
X17364682Y8201500D01*
X17343795Y8204752D01*
X17338991Y8205500D01*
X17264060Y8205500D01*
X17236129Y8201500D01*
X17234544Y8201273D01*
X17216682Y8200000D01*
X16384066Y8200000D01*
X16364682Y8201500D01*
X16343795Y8204752D01*
X16338991Y8205500D01*
X16264060Y8205500D01*
X16236129Y8201500D01*
X16234544Y8201273D01*
X16216682Y8200000D01*
X15384066Y8200000D01*
X15364682Y8201500D01*
X15343795Y8204752D01*
X15338991Y8205500D01*
X15264060Y8205500D01*
X15236129Y8201500D01*
X15234544Y8201273D01*
X15216682Y8200000D01*
X14384066Y8200000D01*
X14364682Y8201500D01*
X14343795Y8204752D01*
X14338991Y8205500D01*
X14264060Y8205500D01*
X14234544Y8201273D01*
X14166968Y8191596D01*
X14166965Y8191595D01*
X14158082Y8190323D01*
X14027572Y8130984D01*
X14020768Y8125122D01*
X14020769Y8125122D01*
X13925763Y8043260D01*
X13925760Y8043257D01*
X13918963Y8037400D01*
X13840985Y7917095D01*
X13840155Y7917633D01*
X13798688Y7870202D01*
X13731036Y7850500D01*
X11114789Y7850500D01*
X11046668Y7870502D01*
X11000175Y7924158D01*
X10998885Y7927333D01*
X10998524Y7928680D01*
X10912676Y8118205D01*
X10888477Y8154429D01*
X10799964Y8286926D01*
X10799961Y8286930D01*
X10797099Y8291214D01*
X10654881Y8443082D01*
X10489822Y8569753D01*
X10306332Y8667841D01*
X10301455Y8669497D01*
X10301452Y8669498D01*
X10114198Y8733069D01*
X10114197Y8733069D01*
X10109314Y8734727D01*
X9904031Y8768623D01*
X9695969Y8768623D01*
X9490686Y8734727D01*
X9485803Y8733069D01*
X9485802Y8733069D01*
X9298548Y8669498D01*
X9298545Y8669497D01*
X9293668Y8667841D01*
X9110178Y8569753D01*
X8945119Y8443082D01*
X8802901Y8291214D01*
X8800039Y8286930D01*
X8800036Y8286926D01*
X8711523Y8154429D01*
X8687324Y8118205D01*
X8685195Y8113505D01*
X8685194Y8113503D01*
X8634796Y8002241D01*
X8601476Y7928680D01*
X8600314Y7929207D01*
X8562078Y7876663D01*
X8495900Y7850954D01*
X8485211Y7850500D01*
X5869121Y7850500D01*
X5801000Y7870502D01*
X5764297Y7913190D01*
X5761572Y7911471D01*
X5704301Y8002241D01*
X5685070Y8032720D01*
X5577612Y8127623D01*
X5447837Y8188553D01*
X5338991Y8205500D01*
X5264060Y8205500D01*
X5236129Y8201500D01*
X5234544Y8201273D01*
X5216682Y8200000D01*
X4384066Y8200000D01*
X4364682Y8201500D01*
X4343795Y8204752D01*
X4338991Y8205500D01*
X4264060Y8205500D01*
X4236129Y8201500D01*
X4234544Y8201273D01*
X4216682Y8200000D01*
X3384066Y8200000D01*
X3364682Y8201500D01*
X3343795Y8204752D01*
X3338991Y8205500D01*
X3264060Y8205500D01*
X3236129Y8201500D01*
X3234544Y8201273D01*
X3216682Y8200000D01*
X2384066Y8200000D01*
X2364682Y8201500D01*
X2343795Y8204752D01*
X2338991Y8205500D01*
X2264060Y8205500D01*
X2236129Y8201500D01*
X2234544Y8201273D01*
X2216682Y8200000D01*
X1384066Y8200000D01*
X1364682Y8201500D01*
X1343795Y8204752D01*
X1338991Y8205500D01*
X1264060Y8205500D01*
X1234544Y8201273D01*
X1166968Y8191596D01*
X1166965Y8191595D01*
X1158082Y8190323D01*
X1027572Y8130984D01*
X1020768Y8125122D01*
X1020769Y8125122D01*
X925763Y8043260D01*
X925760Y8043257D01*
X918963Y8037400D01*
X840985Y7917095D01*
X838010Y7919023D01*
X802467Y7878356D01*
X734261Y7858645D01*
X720691Y7859436D01*
X669579Y7865195D01*
X642072Y7871474D01*
X531593Y7910132D01*
X506180Y7922369D01*
X407057Y7984651D01*
X385002Y8002241D01*
X302241Y8085002D01*
X284651Y8107057D01*
X222369Y8206180D01*
X210132Y8231593D01*
X171474Y8342072D01*
X165195Y8369580D01*
X152308Y8483957D01*
X152170Y8486417D01*
X155809Y8500000D01*
X151516Y8516022D01*
X151516Y8528685D01*
X150500Y8536402D01*
X150500Y10506177D01*
X794391Y10506177D01*
X795555Y10497275D01*
X795555Y10497272D01*
X796814Y10487646D01*
X812980Y10364021D01*
X870720Y10232797D01*
X876497Y10225924D01*
X876498Y10225923D01*
X883792Y10217246D01*
X962970Y10123052D01*
X970447Y10118075D01*
X1063119Y10056387D01*
X1082313Y10043610D01*
X1219157Y10000858D01*
X1228129Y10000694D01*
X1228132Y10000693D01*
X1293463Y9999496D01*
X1362499Y9998230D01*
X1371533Y10000693D01*
X1492158Y10033579D01*
X1492160Y10033580D01*
X1500817Y10035940D01*
X1622991Y10110955D01*
X1719200Y10217246D01*
X1781710Y10346267D01*
X1805496Y10487646D01*
X1805647Y10500000D01*
X1785323Y10641918D01*
X1725984Y10772428D01*
X1707598Y10793766D01*
X1638260Y10874237D01*
X1638257Y10874240D01*
X1632400Y10881037D01*
X1512095Y10959015D01*
X1374739Y11000093D01*
X1365763Y11000148D01*
X1365762Y11000148D01*
X1305555Y11000516D01*
X1231376Y11000969D01*
X1093529Y10961572D01*
X972280Y10885070D01*
X966338Y10878342D01*
X966337Y10878341D01*
X946835Y10856259D01*
X877377Y10777612D01*
X816447Y10647837D01*
X794391Y10506177D01*
X150500Y10506177D01*
X150500Y12581085D01*
X1800000Y12581085D01*
X1800369Y12574271D01*
X1805789Y12524379D01*
X1809414Y12509133D01*
X1853767Y12390823D01*
X1862299Y12375237D01*
X1937430Y12274991D01*
X1949991Y12262430D01*
X2050237Y12187299D01*
X2065823Y12178767D01*
X2184133Y12134414D01*
X2199379Y12130789D01*
X2249271Y12125369D01*
X2256085Y12125000D01*
X2677885Y12125000D01*
X2693124Y12129475D01*
X2694329Y12130865D01*
X2696000Y12138548D01*
X2696000Y12143115D01*
X3204000Y12143115D01*
X3208475Y12127876D01*
X3209865Y12126671D01*
X3217548Y12125000D01*
X3643915Y12125000D01*
X3650729Y12125369D01*
X3700621Y12130789D01*
X3715867Y12134414D01*
X3834177Y12178767D01*
X3849763Y12187299D01*
X3950009Y12262430D01*
X3962570Y12274991D01*
X4037701Y12375237D01*
X4046233Y12390823D01*
X4090586Y12509133D01*
X4094211Y12524379D01*
X4099631Y12574271D01*
X4100000Y12581085D01*
X4100000Y12702885D01*
X4095525Y12718124D01*
X4094135Y12719329D01*
X4086452Y12721000D01*
X3222115Y12721000D01*
X3206876Y12716525D01*
X3205671Y12715135D01*
X3204000Y12707452D01*
X3204000Y12143115D01*
X2696000Y12143115D01*
X2696000Y12702885D01*
X2691525Y12718124D01*
X2690135Y12719329D01*
X2682452Y12721000D01*
X1818115Y12721000D01*
X1802876Y12716525D01*
X1801671Y12715135D01*
X1800000Y12707452D01*
X1800000Y12581085D01*
X150500Y12581085D01*
X150500Y13247115D01*
X1800000Y13247115D01*
X1804475Y13231876D01*
X1805865Y13230671D01*
X1813548Y13229000D01*
X2677885Y13229000D01*
X2693124Y13233475D01*
X2694329Y13234865D01*
X2696000Y13242548D01*
X2696000Y13247115D01*
X3204000Y13247115D01*
X3208475Y13231876D01*
X3209865Y13230671D01*
X3217548Y13229000D01*
X4081885Y13229000D01*
X4097124Y13233475D01*
X4098329Y13234865D01*
X4100000Y13242548D01*
X4100000Y13368915D01*
X4099631Y13375729D01*
X4094211Y13425621D01*
X4090586Y13440867D01*
X4046233Y13559177D01*
X4037701Y13574763D01*
X3962570Y13675009D01*
X3950009Y13687570D01*
X3849763Y13762701D01*
X3834177Y13771233D01*
X3715867Y13815586D01*
X3700621Y13819211D01*
X3650729Y13824631D01*
X3643915Y13825000D01*
X3222115Y13825000D01*
X3206876Y13820525D01*
X3205671Y13819135D01*
X3204000Y13811452D01*
X3204000Y13247115D01*
X2696000Y13247115D01*
X2696000Y13806885D01*
X2691525Y13822124D01*
X2690135Y13823329D01*
X2682452Y13825000D01*
X2256085Y13825000D01*
X2249271Y13824631D01*
X2199379Y13819211D01*
X2184133Y13815586D01*
X2065823Y13771233D01*
X2050237Y13762701D01*
X1949991Y13687570D01*
X1937430Y13675009D01*
X1862299Y13574763D01*
X1853767Y13559177D01*
X1809414Y13440867D01*
X1805789Y13425621D01*
X1800369Y13375729D01*
X1800000Y13368915D01*
X1800000Y13247115D01*
X150500Y13247115D01*
X150500Y16412410D01*
X4344500Y16412410D01*
X4345249Y16397168D01*
X4345398Y16395660D01*
X4345399Y16395640D01*
X4346428Y16385194D01*
X4347670Y16372588D01*
X4347897Y16371055D01*
X4347900Y16371034D01*
X4349679Y16359042D01*
X4349682Y16359022D01*
X4349909Y16357495D01*
X4361628Y16298576D01*
X4370477Y16269403D01*
X4389292Y16223980D01*
X4403663Y16197095D01*
X4430008Y16157668D01*
X4449345Y16134106D01*
X4484106Y16099345D01*
X4483913Y16099152D01*
X4520162Y16039865D01*
X4524500Y16007087D01*
X4524500Y12219710D01*
X4524020Y12208728D01*
X4520736Y12171193D01*
X4523590Y12160544D01*
X4530491Y12134790D01*
X4532870Y12124058D01*
X4539412Y12086955D01*
X4544923Y12077410D01*
X4546115Y12074134D01*
X4547592Y12070966D01*
X4550446Y12060316D01*
X4556770Y12051285D01*
X4572055Y12029456D01*
X4577961Y12020185D01*
X4591293Y11997094D01*
X4596806Y11987545D01*
X4605251Y11980459D01*
X4625682Y11963315D01*
X4633785Y11955889D01*
X7305889Y9283785D01*
X7313315Y9275682D01*
X7337545Y9246806D01*
X7347094Y9241293D01*
X7370185Y9227961D01*
X7379456Y9222055D01*
X7410316Y9200446D01*
X7420966Y9197592D01*
X7424134Y9196115D01*
X7427410Y9194923D01*
X7436955Y9189412D01*
X7470699Y9183462D01*
X7474058Y9182870D01*
X7484785Y9180492D01*
X7521193Y9170736D01*
X7532169Y9171696D01*
X7532172Y9171696D01*
X7558743Y9174021D01*
X7569724Y9174500D01*
X10361036Y9174500D01*
X10429157Y9154498D01*
X10450409Y9135802D01*
X10450503Y9135907D01*
X10457190Y9129928D01*
X10462970Y9123052D01*
X10582313Y9043610D01*
X10719157Y9000858D01*
X10728129Y9000694D01*
X10728132Y9000693D01*
X10793463Y8999496D01*
X10862499Y8998230D01*
X10871533Y9000693D01*
X10992158Y9033579D01*
X10992160Y9033580D01*
X11000817Y9035940D01*
X11122991Y9110955D01*
X11142995Y9133055D01*
X11203538Y9170137D01*
X11236410Y9174500D01*
X14030290Y9174500D01*
X14041272Y9174020D01*
X14067820Y9171697D01*
X14067822Y9171697D01*
X14078807Y9170736D01*
X14115215Y9180492D01*
X14125942Y9182870D01*
X14129301Y9183462D01*
X14163045Y9189412D01*
X14172590Y9194923D01*
X14175866Y9196115D01*
X14179034Y9197592D01*
X14189684Y9200446D01*
X14220544Y9222055D01*
X14229815Y9227961D01*
X14252906Y9241293D01*
X14262455Y9246806D01*
X14286685Y9275683D01*
X14294111Y9283785D01*
X15722562Y10712236D01*
X15784874Y10746262D01*
X15813964Y10749120D01*
X15862499Y10748230D01*
X15951256Y10772428D01*
X15992158Y10783579D01*
X15992160Y10783580D01*
X16000817Y10785940D01*
X16122991Y10860955D01*
X16219200Y10967246D01*
X16281710Y11096267D01*
X16305496Y11237646D01*
X16305647Y11250000D01*
X16285323Y11391918D01*
X16225984Y11522428D01*
X16207598Y11543766D01*
X16138260Y11624237D01*
X16138257Y11624240D01*
X16132400Y11631037D01*
X16012095Y11709015D01*
X15874739Y11750093D01*
X15865763Y11750148D01*
X15865762Y11750148D01*
X15805555Y11750516D01*
X15731376Y11750969D01*
X15593529Y11711572D01*
X15472280Y11635070D01*
X15377377Y11527612D01*
X15316447Y11397837D01*
X15294391Y11256177D01*
X15294729Y11253591D01*
X15274838Y11188785D01*
X15258774Y11169100D01*
X13952079Y9862405D01*
X13889767Y9828379D01*
X13862984Y9825500D01*
X11238008Y9825500D01*
X11169887Y9845502D01*
X11142556Y9869250D01*
X11132400Y9881037D01*
X11012095Y9959015D01*
X10874739Y10000093D01*
X10865763Y10000148D01*
X10865762Y10000148D01*
X10805555Y10000516D01*
X10731376Y10000969D01*
X10593529Y9961572D01*
X10472280Y9885070D01*
X10457287Y9868093D01*
X10397203Y9830275D01*
X10362845Y9825500D01*
X9604099Y9825500D01*
X9535978Y9845502D01*
X9489485Y9899158D01*
X9479381Y9969432D01*
X9508875Y10034012D01*
X9538171Y10058875D01*
X9615340Y10106256D01*
X9615346Y10106261D01*
X9622991Y10110955D01*
X9719200Y10217246D01*
X9781710Y10346267D01*
X9805496Y10487646D01*
X9805647Y10500000D01*
X9785323Y10641918D01*
X9725984Y10772428D01*
X9707598Y10793766D01*
X9638260Y10874237D01*
X9638257Y10874240D01*
X9632400Y10881037D01*
X9512095Y10959015D01*
X9374739Y11000093D01*
X9365763Y11000148D01*
X9365762Y11000148D01*
X9305555Y11000516D01*
X9231376Y11000969D01*
X9093529Y10961572D01*
X8972280Y10885070D01*
X8966338Y10878342D01*
X8966337Y10878341D01*
X8946835Y10856259D01*
X8877377Y10777612D01*
X8816447Y10647837D01*
X8794391Y10506177D01*
X8795555Y10497275D01*
X8795555Y10497272D01*
X8796814Y10487646D01*
X8812980Y10364021D01*
X8870720Y10232797D01*
X8876497Y10225924D01*
X8876498Y10225923D01*
X8883792Y10217246D01*
X8962970Y10123052D01*
X8970447Y10118075D01*
X9063119Y10056387D01*
X9108742Y10001990D01*
X9117713Y9931562D01*
X9087183Y9867465D01*
X9026847Y9830048D01*
X8993300Y9825500D01*
X7737016Y9825500D01*
X7668895Y9845502D01*
X7647921Y9862405D01*
X5212405Y12297921D01*
X5178379Y12360233D01*
X5175500Y12387016D01*
X5175500Y12581085D01*
X5730000Y12581085D01*
X5730369Y12574271D01*
X5735789Y12524379D01*
X5739414Y12509133D01*
X5783767Y12390823D01*
X5792299Y12375237D01*
X5867430Y12274991D01*
X5879991Y12262430D01*
X5980237Y12187299D01*
X5995823Y12178767D01*
X6114133Y12134414D01*
X6129379Y12130789D01*
X6179271Y12125369D01*
X6186085Y12125000D01*
X6657885Y12125000D01*
X6673124Y12129475D01*
X6674329Y12130865D01*
X6676000Y12138548D01*
X6676000Y12143115D01*
X7184000Y12143115D01*
X7188475Y12127876D01*
X7189865Y12126671D01*
X7197548Y12125000D01*
X7673915Y12125000D01*
X7680729Y12125369D01*
X7730621Y12130789D01*
X7745867Y12134414D01*
X7864177Y12178767D01*
X7879763Y12187299D01*
X7980009Y12262430D01*
X7992570Y12274991D01*
X8067701Y12375237D01*
X8076233Y12390823D01*
X8120586Y12509133D01*
X8124211Y12524379D01*
X8129631Y12574271D01*
X8130000Y12581085D01*
X8130000Y12702885D01*
X8125525Y12718124D01*
X8124135Y12719329D01*
X8116452Y12721000D01*
X7202115Y12721000D01*
X7186876Y12716525D01*
X7185671Y12715135D01*
X7184000Y12707452D01*
X7184000Y12143115D01*
X6676000Y12143115D01*
X6676000Y12702885D01*
X6671525Y12718124D01*
X6670135Y12719329D01*
X6662452Y12721000D01*
X5748115Y12721000D01*
X5732876Y12716525D01*
X5731671Y12715135D01*
X5730000Y12707452D01*
X5730000Y12581085D01*
X5175500Y12581085D01*
X5175500Y13247115D01*
X5730000Y13247115D01*
X5734475Y13231876D01*
X5735865Y13230671D01*
X5743548Y13229000D01*
X6657885Y13229000D01*
X6673124Y13233475D01*
X6674329Y13234865D01*
X6676000Y13242548D01*
X6676000Y13247115D01*
X7184000Y13247115D01*
X7188475Y13231876D01*
X7189865Y13230671D01*
X7197548Y13229000D01*
X8111885Y13229000D01*
X8127124Y13233475D01*
X8128329Y13234865D01*
X8130000Y13242548D01*
X8130000Y13368915D01*
X8129631Y13375729D01*
X8124211Y13425621D01*
X8120586Y13440867D01*
X8076233Y13559177D01*
X8067701Y13574763D01*
X7992570Y13675009D01*
X7980009Y13687570D01*
X7963424Y13700000D01*
X8924258Y13700000D01*
X8925809Y13690209D01*
X8925809Y13690207D01*
X8927426Y13680000D01*
X8945095Y13568438D01*
X9005567Y13449755D01*
X9099755Y13355567D01*
X9218438Y13295095D01*
X9350000Y13274258D01*
X9481562Y13295095D01*
X9592797Y13351772D01*
X9662574Y13364876D01*
X9707203Y13351772D01*
X9818438Y13295095D01*
X9950000Y13274258D01*
X10081562Y13295095D01*
X10192797Y13351772D01*
X10262574Y13364876D01*
X10307203Y13351772D01*
X10418438Y13295095D01*
X10428231Y13293544D01*
X10550000Y13274258D01*
X10549756Y13272720D01*
X10607357Y13255807D01*
X10653850Y13202151D01*
X10663736Y13130425D01*
X10644391Y13006177D01*
X10645555Y12997275D01*
X10645555Y12997272D01*
X10651481Y12951960D01*
X10662980Y12864021D01*
X10720720Y12732797D01*
X10726497Y12725924D01*
X10726498Y12725923D01*
X10750489Y12697382D01*
X10812970Y12623052D01*
X10932313Y12543610D01*
X11069157Y12500858D01*
X11078129Y12500694D01*
X11078132Y12500693D01*
X11143463Y12499496D01*
X11212499Y12498230D01*
X11221533Y12500693D01*
X11342158Y12533579D01*
X11342160Y12533580D01*
X11350817Y12535940D01*
X11472991Y12610955D01*
X11531512Y12675608D01*
X11563178Y12710593D01*
X11569200Y12717246D01*
X11631710Y12846267D01*
X11655496Y12987646D01*
X11655647Y13000000D01*
X11635323Y13141918D01*
X11575984Y13272428D01*
X11543688Y13309909D01*
X11488260Y13374237D01*
X11488257Y13374240D01*
X11482400Y13381037D01*
X11362095Y13459015D01*
X11224739Y13500093D01*
X11215763Y13500148D01*
X11215762Y13500148D01*
X11182278Y13500352D01*
X11090965Y13500910D01*
X11022969Y13521328D01*
X10976805Y13575267D01*
X10967287Y13646619D01*
X10968687Y13655454D01*
X10975742Y13700000D01*
X10954905Y13831562D01*
X10894433Y13950245D01*
X10800245Y14044433D01*
X10727613Y14081441D01*
X10690396Y14100404D01*
X10690395Y14100404D01*
X10681562Y14104905D01*
X10550000Y14125742D01*
X10418438Y14104905D01*
X10409605Y14100404D01*
X10409604Y14100404D01*
X10307203Y14048228D01*
X10237426Y14035124D01*
X10192797Y14048228D01*
X10090396Y14100404D01*
X10090395Y14100404D01*
X10081562Y14104905D01*
X9950000Y14125742D01*
X9818438Y14104905D01*
X9809605Y14100404D01*
X9809604Y14100404D01*
X9707203Y14048228D01*
X9637426Y14035124D01*
X9592797Y14048228D01*
X9490396Y14100404D01*
X9490395Y14100404D01*
X9481562Y14104905D01*
X9350000Y14125742D01*
X9218438Y14104905D01*
X9209605Y14100404D01*
X9209604Y14100404D01*
X9172387Y14081441D01*
X9099755Y14044433D01*
X9005567Y13950245D01*
X8945095Y13831562D01*
X8924258Y13700000D01*
X7963424Y13700000D01*
X7879763Y13762701D01*
X7864177Y13771233D01*
X7745867Y13815586D01*
X7730621Y13819211D01*
X7680729Y13824631D01*
X7673915Y13825000D01*
X7202115Y13825000D01*
X7186876Y13820525D01*
X7185671Y13819135D01*
X7184000Y13811452D01*
X7184000Y13247115D01*
X6676000Y13247115D01*
X6676000Y13806885D01*
X6671525Y13822124D01*
X6670135Y13823329D01*
X6649217Y13827879D01*
X6649653Y13829883D01*
X6598162Y13845002D01*
X6551669Y13898658D01*
X6541565Y13968932D01*
X6571059Y14033512D01*
X6618065Y14067409D01*
X6620815Y14068548D01*
X6690233Y14097302D01*
X6810451Y14189549D01*
X6902698Y14309767D01*
X6921922Y14356177D01*
X11544391Y14356177D01*
X11545555Y14347275D01*
X11545555Y14347272D01*
X11549462Y14317397D01*
X11562980Y14214021D01*
X11620720Y14082797D01*
X11626497Y14075924D01*
X11626498Y14075923D01*
X11707190Y13979928D01*
X11712970Y13973052D01*
X11747232Y13950245D01*
X11824730Y13898658D01*
X11832313Y13893610D01*
X11969157Y13850858D01*
X11978129Y13850694D01*
X11978132Y13850693D01*
X12043463Y13849496D01*
X12112499Y13848230D01*
X12121533Y13850693D01*
X12242158Y13883579D01*
X12242160Y13883580D01*
X12250817Y13885940D01*
X12258464Y13890635D01*
X12258468Y13890637D01*
X12342859Y13942453D01*
X12411376Y13961051D01*
X12479071Y13939654D01*
X12524452Y13885054D01*
X12534002Y13821034D01*
X12519757Y13694037D01*
X12536175Y13498517D01*
X12590258Y13309909D01*
X12606024Y13279231D01*
X12677123Y13140887D01*
X12677126Y13140883D01*
X12679944Y13135399D01*
X12801818Y12981631D01*
X12806511Y12977637D01*
X12806512Y12977636D01*
X12940010Y12864021D01*
X12951238Y12854465D01*
X12956616Y12851459D01*
X12956618Y12851458D01*
X12992932Y12831163D01*
X13122513Y12758743D01*
X13309118Y12698111D01*
X13503946Y12674879D01*
X13510081Y12675351D01*
X13510083Y12675351D01*
X13693434Y12689459D01*
X13693438Y12689460D01*
X13699576Y12689932D01*
X13888556Y12742697D01*
X14063689Y12831163D01*
X14083022Y12846267D01*
X14213453Y12948171D01*
X14218303Y12951960D01*
X14244968Y12982851D01*
X14342485Y13095827D01*
X14342485Y13095828D01*
X14346509Y13100489D01*
X14443425Y13271091D01*
X14505358Y13457268D01*
X14529949Y13651929D01*
X14530341Y13680000D01*
X14528965Y13694037D01*
X15059757Y13694037D01*
X15076175Y13498517D01*
X15130258Y13309909D01*
X15146024Y13279231D01*
X15217123Y13140887D01*
X15217126Y13140883D01*
X15219944Y13135399D01*
X15341818Y12981631D01*
X15346511Y12977637D01*
X15346512Y12977636D01*
X15480010Y12864021D01*
X15491238Y12854465D01*
X15496616Y12851459D01*
X15496618Y12851458D01*
X15532932Y12831163D01*
X15662513Y12758743D01*
X15849118Y12698111D01*
X16043946Y12674879D01*
X16050081Y12675351D01*
X16050083Y12675351D01*
X16233434Y12689459D01*
X16233438Y12689460D01*
X16239576Y12689932D01*
X16428556Y12742697D01*
X16603689Y12831163D01*
X16623022Y12846267D01*
X16753453Y12948171D01*
X16758303Y12951960D01*
X16784968Y12982851D01*
X16882485Y13095827D01*
X16882485Y13095828D01*
X16886509Y13100489D01*
X16983425Y13271091D01*
X17045358Y13457268D01*
X17069949Y13651929D01*
X17070341Y13680000D01*
X17051194Y13875272D01*
X17049413Y13881171D01*
X17049412Y13881176D01*
X16996265Y14057207D01*
X16994484Y14063106D01*
X16902370Y14236347D01*
X16778361Y14388398D01*
X16627180Y14513465D01*
X16454585Y14606787D01*
X16360868Y14635797D01*
X16273039Y14662985D01*
X16273036Y14662986D01*
X16267152Y14664807D01*
X16261027Y14665451D01*
X16261026Y14665451D01*
X16078147Y14684673D01*
X16078146Y14684673D01*
X16072019Y14685317D01*
X15949383Y14674156D01*
X15882759Y14668093D01*
X15882758Y14668093D01*
X15876618Y14667534D01*
X15870704Y14665793D01*
X15870702Y14665793D01*
X15763839Y14634341D01*
X15688393Y14612136D01*
X15682928Y14609279D01*
X15519972Y14524088D01*
X15519968Y14524085D01*
X15514512Y14521233D01*
X15509712Y14517373D01*
X15509711Y14517373D01*
X15495521Y14505964D01*
X15361600Y14398289D01*
X15235480Y14247984D01*
X15232516Y14242592D01*
X15232513Y14242588D01*
X15207048Y14196267D01*
X15140956Y14076046D01*
X15139095Y14070179D01*
X15139094Y14070177D01*
X15122934Y14019234D01*
X15081628Y13889022D01*
X15059757Y13694037D01*
X14528965Y13694037D01*
X14511194Y13875272D01*
X14509413Y13881171D01*
X14509412Y13881176D01*
X14456265Y14057207D01*
X14454484Y14063106D01*
X14362370Y14236347D01*
X14238361Y14388398D01*
X14087180Y14513465D01*
X13914585Y14606787D01*
X13820868Y14635797D01*
X13733039Y14662985D01*
X13733036Y14662986D01*
X13727152Y14664807D01*
X13721027Y14665451D01*
X13721026Y14665451D01*
X13538147Y14684673D01*
X13538146Y14684673D01*
X13532019Y14685317D01*
X13409383Y14674156D01*
X13342759Y14668093D01*
X13342758Y14668093D01*
X13336618Y14667534D01*
X13330704Y14665793D01*
X13330702Y14665793D01*
X13223839Y14634341D01*
X13148393Y14612136D01*
X13142928Y14609279D01*
X12979972Y14524088D01*
X12979968Y14524085D01*
X12974512Y14521233D01*
X12969712Y14517373D01*
X12969711Y14517373D01*
X12955521Y14505964D01*
X12821600Y14398289D01*
X12817642Y14393572D01*
X12817640Y14393570D01*
X12769783Y14336536D01*
X12710673Y14297209D01*
X12639685Y14296083D01*
X12579358Y14333514D01*
X12548535Y14399662D01*
X12535323Y14491918D01*
X12475984Y14622428D01*
X12437118Y14667534D01*
X12388260Y14724237D01*
X12388257Y14724240D01*
X12382400Y14731037D01*
X12262095Y14809015D01*
X12124739Y14850093D01*
X12115763Y14850148D01*
X12115762Y14850148D01*
X12055555Y14850516D01*
X11981376Y14850969D01*
X11843529Y14811572D01*
X11722280Y14735070D01*
X11627377Y14627612D01*
X11566447Y14497837D01*
X11565066Y14488965D01*
X11549408Y14388398D01*
X11544391Y14356177D01*
X6921922Y14356177D01*
X6960687Y14449764D01*
X6980466Y14600000D01*
X6960687Y14750236D01*
X6902698Y14890233D01*
X6810451Y15010451D01*
X6690233Y15102698D01*
X6550236Y15160687D01*
X6437720Y15175500D01*
X6362280Y15175500D01*
X6249764Y15160687D01*
X6109767Y15102698D01*
X5989549Y15010451D01*
X5897302Y14890233D01*
X5839313Y14750236D01*
X5819534Y14600000D01*
X5839313Y14449764D01*
X5897302Y14309767D01*
X5989549Y14189549D01*
X6109767Y14097302D01*
X6190689Y14063783D01*
X6245969Y14019234D01*
X6268390Y13951871D01*
X6250832Y13883079D01*
X6198869Y13834701D01*
X6156077Y13822111D01*
X6129379Y13819211D01*
X6114133Y13815586D01*
X5995823Y13771233D01*
X5980237Y13762701D01*
X5879991Y13687570D01*
X5867430Y13675009D01*
X5792299Y13574763D01*
X5783767Y13559177D01*
X5739414Y13440867D01*
X5735789Y13425621D01*
X5730369Y13375729D01*
X5730000Y13368915D01*
X5730000Y13247115D01*
X5175500Y13247115D01*
X5175500Y15868500D01*
X5195502Y15936621D01*
X5249158Y15983114D01*
X5301500Y15994500D01*
X5537590Y15994500D01*
X5539132Y15994576D01*
X5539141Y15994576D01*
X5544414Y15994835D01*
X5552832Y15995249D01*
X5554340Y15995398D01*
X5554360Y15995399D01*
X5568014Y15996744D01*
X5577412Y15997670D01*
X5586168Y15998969D01*
X5590957Y15999679D01*
X5590966Y15999681D01*
X5592506Y15999909D01*
X5628593Y16007087D01*
X5648392Y16011025D01*
X5648398Y16011026D01*
X5651427Y16011629D01*
X5654384Y16012526D01*
X5654392Y16012528D01*
X5667962Y16016645D01*
X5680598Y16020478D01*
X5709856Y16032597D01*
X5723164Y16038109D01*
X5723168Y16038111D01*
X5726017Y16039291D01*
X5734084Y16043603D01*
X5750171Y16052201D01*
X5750175Y16052204D01*
X5752902Y16053661D01*
X5792331Y16080007D01*
X5815894Y16099345D01*
X5850655Y16134106D01*
X5869992Y16157668D01*
X5896337Y16197095D01*
X5910708Y16223980D01*
X5929523Y16269403D01*
X5938372Y16298576D01*
X5950091Y16357495D01*
X5950318Y16359022D01*
X5950321Y16359042D01*
X5952100Y16371034D01*
X5952103Y16371055D01*
X5952330Y16372588D01*
X5953572Y16385194D01*
X5954601Y16395640D01*
X5954602Y16395660D01*
X5954751Y16397168D01*
X5955500Y16412410D01*
X5955500Y16482342D01*
X5975502Y16550463D01*
X6029158Y16596956D01*
X6099432Y16607060D01*
X6119068Y16602610D01*
X6204699Y16575858D01*
X6213671Y16575694D01*
X6213674Y16575693D01*
X6279005Y16574496D01*
X6348041Y16573230D01*
X6357075Y16575693D01*
X6477700Y16608579D01*
X6477702Y16608580D01*
X6486359Y16610940D01*
X6608533Y16685955D01*
X6620611Y16699298D01*
X6698720Y16785593D01*
X6704742Y16792246D01*
X6767252Y16921267D01*
X6791038Y17062646D01*
X6791189Y17075000D01*
X6781328Y17143857D01*
X6772138Y17208032D01*
X6772137Y17208035D01*
X6770865Y17216918D01*
X6711526Y17347428D01*
X6650714Y17418004D01*
X6621400Y17482667D01*
X6631699Y17552912D01*
X6652752Y17584807D01*
X6698718Y17635589D01*
X6698723Y17635596D01*
X6704742Y17642246D01*
X6758722Y17753660D01*
X6763337Y17763186D01*
X6763337Y17763187D01*
X6767252Y17771267D01*
X6776452Y17825947D01*
X6778716Y17839405D01*
X6809743Y17903263D01*
X6870369Y17940209D01*
X6902970Y17944500D01*
X7683400Y17944500D01*
X7751521Y17924498D01*
X7772495Y17907595D01*
X10358045Y15322045D01*
X10369349Y15311799D01*
X10370544Y15310819D01*
X10370557Y15310807D01*
X10381593Y15301750D01*
X10388442Y15296129D01*
X10389658Y15295227D01*
X10389662Y15295224D01*
X10399474Y15287946D01*
X10399495Y15287931D01*
X10400702Y15287036D01*
X10450653Y15253660D01*
X10477538Y15239290D01*
X10480399Y15238105D01*
X10520101Y15221660D01*
X10520108Y15221658D01*
X10522958Y15220477D01*
X10533126Y15217393D01*
X10549171Y15212525D01*
X10549178Y15212523D01*
X10552126Y15211629D01*
X10611044Y15199909D01*
X10612546Y15199686D01*
X10612553Y15199685D01*
X10624636Y15197893D01*
X10626140Y15197670D01*
X10641369Y15196170D01*
X10649185Y15195400D01*
X10649196Y15195399D01*
X10650721Y15195249D01*
X10652245Y15195174D01*
X10652260Y15195173D01*
X10664412Y15194576D01*
X10664421Y15194576D01*
X10665963Y15194500D01*
X13734037Y15194500D01*
X13735579Y15194576D01*
X13735588Y15194576D01*
X13747740Y15195173D01*
X13747755Y15195174D01*
X13749279Y15195249D01*
X13750804Y15195399D01*
X13750815Y15195400D01*
X13758631Y15196170D01*
X13773860Y15197670D01*
X13775364Y15197893D01*
X13787447Y15199685D01*
X13787454Y15199686D01*
X13788956Y15199909D01*
X13847874Y15211629D01*
X13850822Y15212523D01*
X13850829Y15212525D01*
X13866874Y15217393D01*
X13877042Y15220477D01*
X13879892Y15221658D01*
X13879899Y15221660D01*
X13919601Y15238105D01*
X13922462Y15239290D01*
X13949347Y15253660D01*
X13999298Y15287036D01*
X14000505Y15287931D01*
X14000526Y15287946D01*
X14010338Y15295224D01*
X14010342Y15295227D01*
X14011558Y15296129D01*
X14018407Y15301750D01*
X14029443Y15310807D01*
X14029456Y15310819D01*
X14030651Y15311799D01*
X14041955Y15322045D01*
X14183436Y15463526D01*
X14194958Y15473721D01*
X14213453Y15488171D01*
X14218303Y15491960D01*
X14255876Y15535489D01*
X14262163Y15542253D01*
X14427955Y15708045D01*
X14438201Y15719349D01*
X14439181Y15720544D01*
X14439193Y15720557D01*
X14452902Y15737261D01*
X14452907Y15737268D01*
X14453871Y15738442D01*
X14454776Y15739662D01*
X14462054Y15749474D01*
X14462069Y15749495D01*
X14462964Y15750702D01*
X14496340Y15800653D01*
X14497800Y15803384D01*
X14509250Y15824806D01*
X14509255Y15824817D01*
X14510709Y15827537D01*
X14529523Y15872958D01*
X14538372Y15902129D01*
X14550091Y15961046D01*
X14552330Y15976140D01*
X14554139Y15994500D01*
X14554600Y15999185D01*
X14554601Y15999196D01*
X14554751Y16000721D01*
X14555258Y16011025D01*
X14555424Y16014412D01*
X14555424Y16014421D01*
X14555500Y16015963D01*
X14555500Y16234037D01*
X15059757Y16234037D01*
X15076175Y16038517D01*
X15130258Y15849909D01*
X15133076Y15844426D01*
X15217123Y15680887D01*
X15217126Y15680883D01*
X15219944Y15675399D01*
X15341818Y15521631D01*
X15491238Y15394465D01*
X15496616Y15391459D01*
X15496618Y15391458D01*
X15532932Y15371163D01*
X15662513Y15298743D01*
X15849118Y15238111D01*
X16043946Y15214879D01*
X16050081Y15215351D01*
X16050083Y15215351D01*
X16233434Y15229459D01*
X16233438Y15229460D01*
X16239576Y15229932D01*
X16428556Y15282697D01*
X16603689Y15371163D01*
X16633515Y15394465D01*
X16753453Y15488171D01*
X16758303Y15491960D01*
X16788084Y15526461D01*
X16882485Y15635827D01*
X16882485Y15635828D01*
X16886509Y15640489D01*
X16983425Y15811091D01*
X17045358Y15997268D01*
X17069949Y16191929D01*
X17070341Y16220000D01*
X17051194Y16415272D01*
X17049413Y16421171D01*
X17049412Y16421176D01*
X16996265Y16597207D01*
X16994484Y16603106D01*
X16902370Y16776347D01*
X16778361Y16928398D01*
X16627180Y17053465D01*
X16454585Y17146787D01*
X16360869Y17175797D01*
X16273039Y17202985D01*
X16273036Y17202986D01*
X16267152Y17204807D01*
X16261027Y17205451D01*
X16261026Y17205451D01*
X16078147Y17224673D01*
X16078146Y17224673D01*
X16072019Y17225317D01*
X15949383Y17214156D01*
X15882759Y17208093D01*
X15882758Y17208093D01*
X15876618Y17207534D01*
X15870704Y17205793D01*
X15870702Y17205793D01*
X15802779Y17185802D01*
X15688393Y17152136D01*
X15682928Y17149279D01*
X15519972Y17064088D01*
X15519968Y17064085D01*
X15514512Y17061233D01*
X15509712Y17057373D01*
X15509711Y17057373D01*
X15475326Y17029727D01*
X15361600Y16938289D01*
X15235480Y16787984D01*
X15232516Y16782592D01*
X15232513Y16782588D01*
X15187399Y16700526D01*
X15140956Y16616046D01*
X15139095Y16610179D01*
X15139094Y16610177D01*
X15121815Y16555706D01*
X15081628Y16429022D01*
X15059757Y16234037D01*
X14555500Y16234037D01*
X14555500Y16434037D01*
X14554751Y16449279D01*
X14552330Y16473860D01*
X14550091Y16488954D01*
X14538372Y16547871D01*
X14535996Y16555706D01*
X14530420Y16574084D01*
X14529523Y16577042D01*
X14510709Y16622463D01*
X14509255Y16625183D01*
X14509250Y16625194D01*
X14497800Y16646616D01*
X14497797Y16646621D01*
X14496340Y16649347D01*
X14462964Y16699298D01*
X14462069Y16700505D01*
X14462054Y16700526D01*
X14454776Y16710338D01*
X14454773Y16710342D01*
X14453871Y16711558D01*
X14452902Y16712739D01*
X14439193Y16729443D01*
X14439181Y16729456D01*
X14438201Y16730651D01*
X14427955Y16741955D01*
X14041955Y17127955D01*
X14030651Y17138201D01*
X14029456Y17139181D01*
X14029443Y17139193D01*
X14012739Y17152902D01*
X14012732Y17152907D01*
X14011558Y17153871D01*
X14010338Y17154776D01*
X14000526Y17162054D01*
X14000505Y17162069D01*
X13999298Y17162964D01*
X13949347Y17196340D01*
X13922462Y17210710D01*
X13907474Y17216918D01*
X13879899Y17228340D01*
X13879892Y17228342D01*
X13877042Y17229523D01*
X13861288Y17234302D01*
X13850829Y17237475D01*
X13850822Y17237477D01*
X13847874Y17238371D01*
X13788956Y17250091D01*
X13787454Y17250314D01*
X13787447Y17250315D01*
X13775364Y17252107D01*
X13775361Y17252107D01*
X13773860Y17252330D01*
X13758631Y17253830D01*
X13750815Y17254600D01*
X13750804Y17254601D01*
X13749279Y17254751D01*
X13747755Y17254826D01*
X13747740Y17254827D01*
X13735588Y17255424D01*
X13735579Y17255424D01*
X13734037Y17255500D01*
X11066600Y17255500D01*
X10998479Y17275502D01*
X10977505Y17292405D01*
X8991955Y19277955D01*
X8990314Y19279443D01*
X8986853Y19282579D01*
X8980651Y19288201D01*
X8979456Y19289181D01*
X8979443Y19289193D01*
X8962739Y19302902D01*
X8962732Y19302907D01*
X8961558Y19303871D01*
X8960338Y19304776D01*
X8950526Y19312054D01*
X8950505Y19312069D01*
X8949298Y19312964D01*
X8899347Y19346340D01*
X8872462Y19360710D01*
X8848568Y19370607D01*
X8829899Y19378340D01*
X8829892Y19378342D01*
X8827042Y19379523D01*
X8816874Y19382607D01*
X8800829Y19387475D01*
X8800822Y19387477D01*
X8797874Y19388371D01*
X8738956Y19400091D01*
X8737454Y19400314D01*
X8737447Y19400315D01*
X8725364Y19402107D01*
X8725361Y19402107D01*
X8723860Y19402330D01*
X8708631Y19403830D01*
X8700815Y19404600D01*
X8700804Y19404601D01*
X8699279Y19404751D01*
X8697755Y19404826D01*
X8697740Y19404827D01*
X8685588Y19405424D01*
X8685579Y19405424D01*
X8684037Y19405500D01*
X7863950Y19405500D01*
X7795829Y19425502D01*
X7749336Y19479158D01*
X7739232Y19549432D01*
X7768726Y19614012D01*
X7774855Y19620595D01*
X8800902Y20646642D01*
X8819995Y20662312D01*
X8820284Y20662505D01*
X8820286Y20662507D01*
X8830601Y20669399D01*
X8866057Y20722464D01*
X8885965Y20752258D01*
X8889379Y20749977D01*
X8919585Y20787443D01*
X8986954Y20809849D01*
X9055741Y20792276D01*
X9104108Y20740303D01*
X9117386Y20686929D01*
X9141876Y19658387D01*
X9142931Y19643631D01*
X9145774Y19619848D01*
X9148228Y19605253D01*
X9160623Y19548271D01*
X9169625Y19520109D01*
X9170807Y19517350D01*
X9170808Y19517346D01*
X9187162Y19479158D01*
X9188400Y19476266D01*
X9202568Y19450320D01*
X9204250Y19447835D01*
X9233894Y19404037D01*
X9235252Y19402030D01*
X9236159Y19400819D01*
X9243224Y19391381D01*
X9243236Y19391365D01*
X9244123Y19390181D01*
X9259374Y19371711D01*
X9260364Y19370622D01*
X9260377Y19370607D01*
X9268192Y19362011D01*
X9269325Y19360765D01*
X10808045Y17822045D01*
X10819349Y17811799D01*
X10820544Y17810819D01*
X10820557Y17810807D01*
X10837261Y17797098D01*
X10838442Y17796129D01*
X10839658Y17795227D01*
X10839662Y17795224D01*
X10849474Y17787946D01*
X10849495Y17787931D01*
X10850702Y17787036D01*
X10900653Y17753660D01*
X10927538Y17739290D01*
X10930399Y17738105D01*
X10970101Y17721660D01*
X10970108Y17721658D01*
X10972958Y17720477D01*
X10983126Y17717393D01*
X10999171Y17712525D01*
X10999178Y17712523D01*
X11002126Y17711629D01*
X11061044Y17699909D01*
X11062546Y17699686D01*
X11062553Y17699685D01*
X11074636Y17697893D01*
X11076140Y17697670D01*
X11091369Y17696170D01*
X11099185Y17695400D01*
X11099196Y17695399D01*
X11100721Y17695249D01*
X11102245Y17695174D01*
X11102260Y17695173D01*
X11114412Y17694576D01*
X11114421Y17694576D01*
X11115963Y17694500D01*
X13734037Y17694500D01*
X13735579Y17694576D01*
X13735588Y17694576D01*
X13747740Y17695173D01*
X13747755Y17695174D01*
X13749279Y17695249D01*
X13750804Y17695399D01*
X13750815Y17695400D01*
X13758631Y17696170D01*
X13773860Y17697670D01*
X13775364Y17697893D01*
X13787447Y17699685D01*
X13787454Y17699686D01*
X13788956Y17699909D01*
X13847874Y17711629D01*
X13850822Y17712523D01*
X13850829Y17712525D01*
X13866874Y17717393D01*
X13877042Y17720477D01*
X13879892Y17721658D01*
X13879899Y17721660D01*
X13919601Y17738105D01*
X13922462Y17739290D01*
X13949347Y17753660D01*
X13999298Y17787036D01*
X14000505Y17787931D01*
X14000526Y17787946D01*
X14010338Y17795224D01*
X14010342Y17795227D01*
X14011558Y17796129D01*
X14012739Y17797098D01*
X14029443Y17810807D01*
X14029456Y17810819D01*
X14030651Y17811799D01*
X14041955Y17822045D01*
X14427955Y18208045D01*
X14438201Y18219349D01*
X14439181Y18220544D01*
X14439193Y18220557D01*
X14452902Y18237261D01*
X14452907Y18237268D01*
X14453871Y18238442D01*
X14454776Y18239662D01*
X14462054Y18249474D01*
X14462069Y18249495D01*
X14462964Y18250702D01*
X14496340Y18300653D01*
X14509062Y18324455D01*
X14509250Y18324806D01*
X14509255Y18324817D01*
X14510709Y18327537D01*
X14529523Y18372958D01*
X14538372Y18402129D01*
X14550091Y18461046D01*
X14552330Y18476140D01*
X14554092Y18494025D01*
X15100923Y18494025D01*
X15129025Y18396020D01*
X15133543Y18384608D01*
X15217546Y18221156D01*
X15224196Y18210838D01*
X15338350Y18066811D01*
X15346873Y18057985D01*
X15486833Y17938871D01*
X15496905Y17931870D01*
X15657334Y17842210D01*
X15668574Y17837299D01*
X15793769Y17796621D01*
X15807867Y17796218D01*
X15811000Y17802590D01*
X15811000Y17810742D01*
X16319000Y17810742D01*
X16322973Y17797211D01*
X16331188Y17796030D01*
X16422430Y17821505D01*
X16433881Y17825947D01*
X16597919Y17908807D01*
X16608276Y17915380D01*
X16753100Y18028530D01*
X16761986Y18036991D01*
X16882070Y18176110D01*
X16889144Y18186138D01*
X16979919Y18345932D01*
X16984913Y18357148D01*
X17028712Y18488811D01*
X17029213Y18502903D01*
X17023024Y18506000D01*
X16337115Y18506000D01*
X16321876Y18501525D01*
X16320671Y18500135D01*
X16319000Y18492452D01*
X16319000Y17810742D01*
X15811000Y17810742D01*
X15811000Y18487885D01*
X15806525Y18503124D01*
X15805135Y18504329D01*
X15797452Y18506000D01*
X15115604Y18506000D01*
X15102073Y18502027D01*
X15100923Y18494025D01*
X14554092Y18494025D01*
X14554395Y18497099D01*
X14554600Y18499185D01*
X14554601Y18499196D01*
X14554751Y18500721D01*
X14554859Y18502903D01*
X14555424Y18514412D01*
X14555424Y18514421D01*
X14555500Y18515963D01*
X14555500Y18984037D01*
X14555402Y18986040D01*
X14554827Y18997740D01*
X14554826Y18997755D01*
X14554751Y18999279D01*
X14552989Y19017168D01*
X15101594Y19017168D01*
X15108153Y19014000D01*
X15792885Y19014000D01*
X15808124Y19018475D01*
X15809329Y19019865D01*
X15811000Y19027548D01*
X15811000Y19032115D01*
X16319000Y19032115D01*
X16323475Y19016876D01*
X16324865Y19015671D01*
X16332548Y19014000D01*
X17014826Y19014000D01*
X17028357Y19017973D01*
X17029449Y19025567D01*
X16995801Y19137015D01*
X16991126Y19148356D01*
X16904846Y19310627D01*
X16898059Y19320843D01*
X16781899Y19463269D01*
X16773255Y19471973D01*
X16631649Y19589120D01*
X16621478Y19595980D01*
X16459809Y19683394D01*
X16448504Y19688146D01*
X16336308Y19722876D01*
X16322205Y19723082D01*
X16319000Y19716327D01*
X16319000Y19032115D01*
X15811000Y19032115D01*
X15811000Y19709586D01*
X15807027Y19723117D01*
X15799232Y19724237D01*
X15694496Y19693411D01*
X15683119Y19688814D01*
X15520247Y19603667D01*
X15509986Y19596953D01*
X15366751Y19481789D01*
X15357992Y19473211D01*
X15239853Y19332419D01*
X15232927Y19322305D01*
X15144383Y19161243D01*
X15139555Y19149979D01*
X15101898Y19031269D01*
X15101594Y19017168D01*
X14552989Y19017168D01*
X14552910Y19017973D01*
X14552485Y19022290D01*
X14552483Y19022305D01*
X14552330Y19023860D01*
X14552036Y19025847D01*
X14550321Y19037405D01*
X14550319Y19037414D01*
X14550091Y19038954D01*
X14538372Y19097871D01*
X14537295Y19101424D01*
X14530420Y19124084D01*
X14529523Y19127042D01*
X14510709Y19172463D01*
X14509255Y19175183D01*
X14509250Y19175194D01*
X14497800Y19196616D01*
X14497797Y19196621D01*
X14496340Y19199347D01*
X14462964Y19249298D01*
X14462069Y19250505D01*
X14462054Y19250526D01*
X14454776Y19260338D01*
X14454773Y19260342D01*
X14453871Y19261558D01*
X14452278Y19263499D01*
X14439193Y19279443D01*
X14439181Y19279456D01*
X14438201Y19280651D01*
X14431358Y19288201D01*
X14428996Y19290807D01*
X14428987Y19290817D01*
X14427955Y19291955D01*
X14041955Y19677955D01*
X14030651Y19688201D01*
X14029456Y19689181D01*
X14029443Y19689193D01*
X14012739Y19702902D01*
X14012732Y19702907D01*
X14011558Y19703871D01*
X14003853Y19709586D01*
X14000526Y19712054D01*
X14000505Y19712069D01*
X13999298Y19712964D01*
X13949347Y19746340D01*
X13922462Y19760710D01*
X13916776Y19763065D01*
X13879899Y19778340D01*
X13879892Y19778342D01*
X13877042Y19779523D01*
X13866874Y19782607D01*
X13850829Y19787475D01*
X13850822Y19787477D01*
X13847874Y19788371D01*
X13788956Y19800091D01*
X13787454Y19800314D01*
X13787447Y19800315D01*
X13775364Y19802107D01*
X13775361Y19802107D01*
X13773860Y19802330D01*
X13758631Y19803830D01*
X13750815Y19804600D01*
X13750804Y19804601D01*
X13749279Y19804751D01*
X13747755Y19804826D01*
X13747740Y19804827D01*
X13735588Y19805424D01*
X13735579Y19805424D01*
X13734037Y19805500D01*
X12516115Y19805500D01*
X12447994Y19825502D01*
X12401501Y19879158D01*
X12391397Y19949432D01*
X12402723Y19986438D01*
X12427795Y20038187D01*
X12431710Y20046267D01*
X12455496Y20187646D01*
X12455555Y20192508D01*
X12455991Y20197363D01*
X12457618Y20197217D01*
X12476369Y20258289D01*
X12530593Y20304118D01*
X12600986Y20313356D01*
X12614144Y20309659D01*
X12616278Y20308233D01*
X12660180Y20299500D01*
X14389820Y20299500D01*
X14433722Y20308233D01*
X14444040Y20315127D01*
X14444042Y20315128D01*
X14473185Y20334601D01*
X14483504Y20341496D01*
X14497670Y20362697D01*
X14509872Y20380958D01*
X14509873Y20380960D01*
X14516767Y20391278D01*
X14525500Y20435180D01*
X14525500Y21314037D01*
X15059757Y21314037D01*
X15076175Y21118517D01*
X15130258Y20929909D01*
X15133076Y20924426D01*
X15217123Y20760887D01*
X15217126Y20760883D01*
X15219944Y20755399D01*
X15341818Y20601631D01*
X15346511Y20597637D01*
X15346512Y20597636D01*
X15444074Y20514605D01*
X15491238Y20474465D01*
X15496616Y20471459D01*
X15496618Y20471458D01*
X15532932Y20451163D01*
X15662513Y20378743D01*
X15849118Y20318111D01*
X16043946Y20294879D01*
X16050081Y20295351D01*
X16050083Y20295351D01*
X16233434Y20309459D01*
X16233438Y20309460D01*
X16239576Y20309932D01*
X16428556Y20362697D01*
X16603689Y20451163D01*
X16633515Y20474465D01*
X16753453Y20568171D01*
X16758303Y20571960D01*
X16769620Y20585070D01*
X16882485Y20715827D01*
X16882485Y20715828D01*
X16886509Y20720489D01*
X16904557Y20752258D01*
X16960082Y20850000D01*
X16983425Y20891091D01*
X17045358Y21077268D01*
X17069949Y21271929D01*
X17070341Y21300000D01*
X17051194Y21495272D01*
X17049413Y21501171D01*
X17049412Y21501176D01*
X16996265Y21677207D01*
X16994484Y21683106D01*
X16902370Y21856347D01*
X16778361Y22008398D01*
X16627180Y22133465D01*
X16454585Y22226787D01*
X16352124Y22258504D01*
X16273039Y22282985D01*
X16273036Y22282986D01*
X16267152Y22284807D01*
X16261027Y22285451D01*
X16261026Y22285451D01*
X16078147Y22304673D01*
X16078146Y22304673D01*
X16072019Y22305317D01*
X15981895Y22297115D01*
X15882759Y22288093D01*
X15882758Y22288093D01*
X15876618Y22287534D01*
X15870704Y22285793D01*
X15870702Y22285793D01*
X15847622Y22279000D01*
X15688393Y22232136D01*
X15682928Y22229279D01*
X15519972Y22144088D01*
X15519968Y22144085D01*
X15514512Y22141233D01*
X15509712Y22137373D01*
X15509711Y22137373D01*
X15478893Y22112595D01*
X15361600Y22018289D01*
X15235480Y21867984D01*
X15232516Y21862592D01*
X15232513Y21862588D01*
X15168605Y21746339D01*
X15140956Y21696046D01*
X15139095Y21690179D01*
X15139094Y21690177D01*
X15123917Y21642332D01*
X15081628Y21509022D01*
X15059757Y21314037D01*
X14525500Y21314037D01*
X14525500Y22164820D01*
X14516767Y22208722D01*
X14509873Y22219040D01*
X14509872Y22219042D01*
X14490399Y22248185D01*
X14483504Y22258504D01*
X14473185Y22265399D01*
X14444042Y22284872D01*
X14444040Y22284873D01*
X14433722Y22291767D01*
X14389820Y22300500D01*
X12660180Y22300500D01*
X12616278Y22291767D01*
X12605960Y22284873D01*
X12605958Y22284872D01*
X12576815Y22265399D01*
X12566496Y22258504D01*
X12559601Y22248185D01*
X12540128Y22219042D01*
X12540127Y22219040D01*
X12533233Y22208722D01*
X12524500Y22164820D01*
X12524500Y20639323D01*
X12504498Y20571202D01*
X12450842Y20524709D01*
X12380568Y20514605D01*
X12315988Y20544099D01*
X12303047Y20557075D01*
X12288259Y20574237D01*
X12282400Y20581037D01*
X12257968Y20596873D01*
X12211684Y20650709D01*
X12200500Y20702605D01*
X12200500Y21712910D01*
X12202921Y21737493D01*
X12202988Y21737830D01*
X12205409Y21750000D01*
X12185966Y21847740D01*
X12144578Y21909683D01*
X12144577Y21909684D01*
X12130601Y21930601D01*
X12120286Y21937493D01*
X12120284Y21937495D01*
X12120001Y21937684D01*
X12100908Y21953353D01*
X11503356Y22550904D01*
X11487686Y22569998D01*
X11487495Y22570284D01*
X11487493Y22570286D01*
X11480601Y22580601D01*
X11427536Y22616057D01*
X11397741Y22635966D01*
X11300000Y22655408D01*
X11287829Y22652987D01*
X11287828Y22652987D01*
X11287496Y22652921D01*
X11262915Y22650500D01*
X9337090Y22650500D01*
X9312507Y22652921D01*
X9300000Y22655409D01*
X9202260Y22635966D01*
X9119399Y22580601D01*
X9112507Y22570286D01*
X9112505Y22570284D01*
X9112316Y22570001D01*
X9096647Y22550908D01*
X8499096Y21953356D01*
X8480002Y21937686D01*
X8479719Y21937497D01*
X8479717Y21937495D01*
X8469399Y21930601D01*
X8449536Y21900873D01*
X8414034Y21847741D01*
X8394592Y21750000D01*
X8397013Y21737830D01*
X8397013Y21737828D01*
X8397079Y21737496D01*
X8399500Y21712915D01*
X8399500Y21005950D01*
X8379498Y20937829D01*
X8362595Y20916855D01*
X7233145Y19787405D01*
X7170833Y19753379D01*
X7144050Y19750500D01*
X6870100Y19750500D01*
X6801979Y19770502D01*
X6755486Y19824158D01*
X6745382Y19894432D01*
X6774876Y19959012D01*
X6793392Y19976459D01*
X6810451Y19989549D01*
X6902698Y20109767D01*
X6960687Y20249764D01*
X6966723Y20295608D01*
X6979388Y20391812D01*
X6980466Y20400000D01*
X6960687Y20550236D01*
X6902698Y20690233D01*
X6810451Y20810451D01*
X6690233Y20902698D01*
X6618065Y20932591D01*
X6562784Y20977139D01*
X6540363Y21044503D01*
X6557921Y21113294D01*
X6609883Y21161672D01*
X6640773Y21168972D01*
X6640502Y21169896D01*
X6673124Y21179475D01*
X6674329Y21180865D01*
X6676000Y21188548D01*
X6676000Y21193115D01*
X7184000Y21193115D01*
X7188475Y21177876D01*
X7189865Y21176671D01*
X7197548Y21175000D01*
X7673915Y21175000D01*
X7680729Y21175369D01*
X7730621Y21180789D01*
X7745867Y21184414D01*
X7864177Y21228767D01*
X7879763Y21237299D01*
X7980009Y21312430D01*
X7992570Y21324991D01*
X8067701Y21425237D01*
X8076233Y21440823D01*
X8120586Y21559133D01*
X8124211Y21574379D01*
X8129631Y21624271D01*
X8130000Y21631085D01*
X8130000Y21752885D01*
X8125525Y21768124D01*
X8124135Y21769329D01*
X8116452Y21771000D01*
X7202115Y21771000D01*
X7186876Y21766525D01*
X7185671Y21765135D01*
X7184000Y21757452D01*
X7184000Y21193115D01*
X6676000Y21193115D01*
X6676000Y21752885D01*
X6671525Y21768124D01*
X6670135Y21769329D01*
X6662452Y21771000D01*
X5748115Y21771000D01*
X5732876Y21766525D01*
X5731671Y21765135D01*
X5730000Y21757452D01*
X5730000Y21631085D01*
X5730369Y21624271D01*
X5735789Y21574379D01*
X5739414Y21559133D01*
X5783767Y21440823D01*
X5792299Y21425237D01*
X5867430Y21324991D01*
X5879991Y21312430D01*
X5980237Y21237299D01*
X5995823Y21228767D01*
X6114133Y21184414D01*
X6129379Y21180789D01*
X6156077Y21177889D01*
X6221639Y21150648D01*
X6262066Y21092285D01*
X6264522Y21021331D01*
X6228227Y20960313D01*
X6190690Y20936218D01*
X6109767Y20902698D01*
X5989549Y20810451D01*
X5897302Y20690233D01*
X5839313Y20550236D01*
X5819534Y20400000D01*
X5820612Y20391812D01*
X5833278Y20295608D01*
X5839313Y20249764D01*
X5867030Y20182851D01*
X5870260Y20175052D01*
X5877849Y20104463D01*
X5846070Y20040976D01*
X5785012Y20004748D01*
X5753082Y20000836D01*
X5731376Y20000969D01*
X5593529Y19961572D01*
X5472280Y19885070D01*
X5466338Y19878342D01*
X5466337Y19878341D01*
X5395942Y19798633D01*
X5335856Y19760814D01*
X5264862Y19761484D01*
X5205501Y19800430D01*
X5176619Y19865286D01*
X5175500Y19882040D01*
X5175500Y22297115D01*
X5730000Y22297115D01*
X5734475Y22281876D01*
X5735865Y22280671D01*
X5743548Y22279000D01*
X6657885Y22279000D01*
X6673124Y22283475D01*
X6674329Y22284865D01*
X6676000Y22292548D01*
X6676000Y22297115D01*
X7184000Y22297115D01*
X7188475Y22281876D01*
X7189865Y22280671D01*
X7197548Y22279000D01*
X8111885Y22279000D01*
X8127124Y22283475D01*
X8128329Y22284865D01*
X8130000Y22292548D01*
X8130000Y22418915D01*
X8129631Y22425729D01*
X8124211Y22475621D01*
X8120586Y22490867D01*
X8076233Y22609177D01*
X8067701Y22624763D01*
X7992570Y22725009D01*
X7980009Y22737570D01*
X7879763Y22812701D01*
X7864177Y22821233D01*
X7745867Y22865586D01*
X7730621Y22869211D01*
X7680729Y22874631D01*
X7673915Y22875000D01*
X7202115Y22875000D01*
X7186876Y22870525D01*
X7185671Y22869135D01*
X7184000Y22861452D01*
X7184000Y22297115D01*
X6676000Y22297115D01*
X6676000Y22856885D01*
X6671525Y22872124D01*
X6670135Y22873329D01*
X6662452Y22875000D01*
X6186085Y22875000D01*
X6179271Y22874631D01*
X6129379Y22869211D01*
X6114133Y22865586D01*
X5995823Y22821233D01*
X5980237Y22812701D01*
X5879991Y22737570D01*
X5867430Y22725009D01*
X5792299Y22624763D01*
X5783767Y22609177D01*
X5739414Y22490867D01*
X5735789Y22475621D01*
X5730369Y22425729D01*
X5730000Y22418915D01*
X5730000Y22297115D01*
X5175500Y22297115D01*
X5175500Y22612984D01*
X5195502Y22681105D01*
X5212405Y22702079D01*
X7647921Y25137595D01*
X7710233Y25171621D01*
X7737016Y25174500D01*
X10361036Y25174500D01*
X10429157Y25154498D01*
X10450409Y25135802D01*
X10450503Y25135907D01*
X10457190Y25129928D01*
X10462970Y25123052D01*
X10582313Y25043610D01*
X10719157Y25000858D01*
X10728129Y25000694D01*
X10728132Y25000693D01*
X10793463Y24999496D01*
X10862499Y24998230D01*
X10871533Y25000693D01*
X10992158Y25033579D01*
X10992160Y25033580D01*
X11000817Y25035940D01*
X11122991Y25110955D01*
X11142995Y25133055D01*
X11203538Y25170137D01*
X11236410Y25174500D01*
X13862984Y25174500D01*
X13931105Y25154498D01*
X13952079Y25137595D01*
X15258576Y23831098D01*
X15292602Y23768786D01*
X15293888Y23756111D01*
X15294391Y23756177D01*
X15312980Y23614021D01*
X15370720Y23482797D01*
X15376497Y23475924D01*
X15376498Y23475923D01*
X15383792Y23467246D01*
X15462970Y23373052D01*
X15582313Y23293610D01*
X15719157Y23250858D01*
X15728129Y23250694D01*
X15728132Y23250693D01*
X15793463Y23249496D01*
X15862499Y23248230D01*
X15871533Y23250693D01*
X15992158Y23283579D01*
X15992160Y23283580D01*
X16000817Y23285940D01*
X16122991Y23360955D01*
X16219200Y23467246D01*
X16281710Y23596267D01*
X16305496Y23737646D01*
X16305647Y23750000D01*
X16285323Y23891918D01*
X16225984Y24022428D01*
X16207598Y24043766D01*
X16138260Y24124237D01*
X16138257Y24124240D01*
X16132400Y24131037D01*
X16012095Y24209015D01*
X15874739Y24250093D01*
X15865763Y24250148D01*
X15865762Y24250148D01*
X15811267Y24250481D01*
X15743270Y24270899D01*
X15722942Y24287384D01*
X14294111Y25716215D01*
X14286684Y25724319D01*
X14269541Y25744749D01*
X14269542Y25744749D01*
X14262455Y25753194D01*
X14252906Y25758707D01*
X14229815Y25772039D01*
X14220544Y25777945D01*
X14198715Y25793230D01*
X14189684Y25799554D01*
X14179034Y25802408D01*
X14175866Y25803885D01*
X14172590Y25805077D01*
X14163045Y25810588D01*
X14129301Y25816538D01*
X14125942Y25817130D01*
X14115215Y25819508D01*
X14078807Y25829264D01*
X14067822Y25828303D01*
X14067820Y25828303D01*
X14041272Y25825980D01*
X14030290Y25825500D01*
X11238008Y25825500D01*
X11169887Y25845502D01*
X11142556Y25869250D01*
X11132400Y25881037D01*
X11012095Y25959015D01*
X10874739Y26000093D01*
X10865763Y26000148D01*
X10865762Y26000148D01*
X10805555Y26000516D01*
X10731376Y26000969D01*
X10593529Y25961572D01*
X10472280Y25885070D01*
X10457287Y25868093D01*
X10397203Y25830275D01*
X10362845Y25825500D01*
X7569710Y25825500D01*
X7558728Y25825980D01*
X7532180Y25828303D01*
X7532178Y25828303D01*
X7521193Y25829264D01*
X7484785Y25819508D01*
X7474058Y25817130D01*
X7470699Y25816538D01*
X7436955Y25810588D01*
X7427410Y25805077D01*
X7424134Y25803885D01*
X7420966Y25802408D01*
X7410316Y25799554D01*
X7401285Y25793230D01*
X7379456Y25777945D01*
X7370185Y25772039D01*
X7347094Y25758707D01*
X7337545Y25753194D01*
X7330459Y25744749D01*
X7313315Y25724318D01*
X7305889Y25716215D01*
X4633785Y23044111D01*
X4625681Y23036684D01*
X4596806Y23012455D01*
X4591293Y23002906D01*
X4577961Y22979815D01*
X4572055Y22970544D01*
X4550446Y22939684D01*
X4547592Y22929034D01*
X4546115Y22925866D01*
X4544923Y22922590D01*
X4539412Y22913045D01*
X4533462Y22879301D01*
X4532870Y22875942D01*
X4530492Y22865215D01*
X4520736Y22828807D01*
X4521697Y22817822D01*
X4521697Y22817820D01*
X4524020Y22791272D01*
X4524500Y22780290D01*
X4524500Y19392913D01*
X4504498Y19324792D01*
X4484077Y19300684D01*
X4484106Y19300655D01*
X4449345Y19265894D01*
X4447384Y19263504D01*
X4447379Y19263499D01*
X4444785Y19260338D01*
X4430008Y19242332D01*
X4403663Y19202905D01*
X4389292Y19176020D01*
X4370477Y19130597D01*
X4369580Y19127638D01*
X4369578Y19127634D01*
X4369399Y19127042D01*
X4361628Y19101424D01*
X4349909Y19042505D01*
X4349682Y19040978D01*
X4349679Y19040958D01*
X4347900Y19028966D01*
X4347897Y19028945D01*
X4347670Y19027412D01*
X4347516Y19025847D01*
X4346514Y19015671D01*
X4345249Y19002832D01*
X4344500Y18987590D01*
X4344500Y16412410D01*
X150500Y16412410D01*
X150500Y21631085D01*
X1800000Y21631085D01*
X1800369Y21624271D01*
X1805789Y21574379D01*
X1809414Y21559133D01*
X1853767Y21440823D01*
X1862299Y21425237D01*
X1937430Y21324991D01*
X1949991Y21312430D01*
X2050237Y21237299D01*
X2065823Y21228767D01*
X2184133Y21184414D01*
X2199379Y21180789D01*
X2249271Y21175369D01*
X2256085Y21175000D01*
X2677885Y21175000D01*
X2693124Y21179475D01*
X2694329Y21180865D01*
X2696000Y21188548D01*
X2696000Y21193115D01*
X3204000Y21193115D01*
X3208475Y21177876D01*
X3209865Y21176671D01*
X3217548Y21175000D01*
X3643915Y21175000D01*
X3650729Y21175369D01*
X3700621Y21180789D01*
X3715867Y21184414D01*
X3834177Y21228767D01*
X3849763Y21237299D01*
X3950009Y21312430D01*
X3962570Y21324991D01*
X4037701Y21425237D01*
X4046233Y21440823D01*
X4090586Y21559133D01*
X4094211Y21574379D01*
X4099631Y21624271D01*
X4100000Y21631085D01*
X4100000Y21752885D01*
X4095525Y21768124D01*
X4094135Y21769329D01*
X4086452Y21771000D01*
X3222115Y21771000D01*
X3206876Y21766525D01*
X3205671Y21765135D01*
X3204000Y21757452D01*
X3204000Y21193115D01*
X2696000Y21193115D01*
X2696000Y21752885D01*
X2691525Y21768124D01*
X2690135Y21769329D01*
X2682452Y21771000D01*
X1818115Y21771000D01*
X1802876Y21766525D01*
X1801671Y21765135D01*
X1800000Y21757452D01*
X1800000Y21631085D01*
X150500Y21631085D01*
X150500Y22297115D01*
X1800000Y22297115D01*
X1804475Y22281876D01*
X1805865Y22280671D01*
X1813548Y22279000D01*
X2677885Y22279000D01*
X2693124Y22283475D01*
X2694329Y22284865D01*
X2696000Y22292548D01*
X2696000Y22297115D01*
X3204000Y22297115D01*
X3208475Y22281876D01*
X3209865Y22280671D01*
X3217548Y22279000D01*
X4081885Y22279000D01*
X4097124Y22283475D01*
X4098329Y22284865D01*
X4100000Y22292548D01*
X4100000Y22418915D01*
X4099631Y22425729D01*
X4094211Y22475621D01*
X4090586Y22490867D01*
X4046233Y22609177D01*
X4037701Y22624763D01*
X3962570Y22725009D01*
X3950009Y22737570D01*
X3849763Y22812701D01*
X3834177Y22821233D01*
X3715867Y22865586D01*
X3700621Y22869211D01*
X3650729Y22874631D01*
X3643915Y22875000D01*
X3222115Y22875000D01*
X3206876Y22870525D01*
X3205671Y22869135D01*
X3204000Y22861452D01*
X3204000Y22297115D01*
X2696000Y22297115D01*
X2696000Y22856885D01*
X2691525Y22872124D01*
X2690135Y22873329D01*
X2682452Y22875000D01*
X2256085Y22875000D01*
X2249271Y22874631D01*
X2199379Y22869211D01*
X2184133Y22865586D01*
X2065823Y22821233D01*
X2050237Y22812701D01*
X1949991Y22737570D01*
X1937430Y22725009D01*
X1862299Y22624763D01*
X1853767Y22609177D01*
X1809414Y22490867D01*
X1805789Y22475621D01*
X1800369Y22425729D01*
X1800000Y22418915D01*
X1800000Y22297115D01*
X150500Y22297115D01*
X150500Y26463598D01*
X151516Y26471315D01*
X151516Y26483978D01*
X155809Y26500000D01*
X152170Y26513583D01*
X152308Y26516043D01*
X165195Y26630420D01*
X171474Y26657928D01*
X210132Y26768407D01*
X222369Y26793820D01*
X284651Y26892943D01*
X302241Y26914998D01*
X385002Y26997759D01*
X407057Y27015349D01*
X506180Y27077631D01*
X531593Y27089868D01*
X642072Y27128526D01*
X669578Y27134805D01*
X682202Y27136228D01*
X721452Y27140650D01*
X791382Y27128401D01*
X842119Y27082678D01*
X914930Y26967280D01*
X1022388Y26872377D01*
X1152163Y26811447D01*
X1261009Y26794500D01*
X1335940Y26794500D01*
X1365456Y26798727D01*
X1383318Y26800000D01*
X2215934Y26800000D01*
X2235318Y26798500D01*
X2261009Y26794500D01*
X2335940Y26794500D01*
X2365456Y26798727D01*
X2383318Y26800000D01*
X3215934Y26800000D01*
X3235318Y26798500D01*
X3261009Y26794500D01*
X3335940Y26794500D01*
X3365456Y26798727D01*
X3383318Y26800000D01*
X4215934Y26800000D01*
X4235318Y26798500D01*
X4261009Y26794500D01*
X4335940Y26794500D01*
X4365456Y26798727D01*
X4383318Y26800000D01*
X5215934Y26800000D01*
X5235318Y26798500D01*
X5261009Y26794500D01*
X5335940Y26794500D01*
X5377339Y26800429D01*
X5433032Y26808404D01*
X5433035Y26808405D01*
X5441918Y26809677D01*
X5572428Y26869016D01*
X5600192Y26892939D01*
X5674237Y26956740D01*
X5674240Y26956743D01*
X5681037Y26962600D01*
X5759015Y27082905D01*
X5759845Y27082367D01*
X5801312Y27129798D01*
X5868964Y27149500D01*
X8585211Y27149500D01*
X8653332Y27129498D01*
G37*
%TD.AperFunction*%
%TD*%
%TA.AperFunction,Conductor*%
%TO.N,VBUS*%
G36*
X10912170Y21647579D02*
G01*
X10936073Y21642825D01*
X10971091Y21635859D01*
X11016510Y21617046D01*
X11036329Y21603804D01*
X11055939Y21590700D01*
X11090700Y21555939D01*
X11117045Y21516512D01*
X11135860Y21471089D01*
X11147579Y21412170D01*
X11150000Y21387590D01*
X11150000Y20250000D01*
X11750000Y19650000D01*
X13734037Y19650000D01*
X13758618Y19647579D01*
X13817536Y19635859D01*
X13862956Y19617046D01*
X13912907Y19583670D01*
X13932000Y19568000D01*
X14318000Y19182000D01*
X14333670Y19162907D01*
X14367046Y19112956D01*
X14385860Y19067535D01*
X14397579Y19008618D01*
X14400000Y18984037D01*
X14400000Y18515963D01*
X14397579Y18491382D01*
X14385860Y18432465D01*
X14367046Y18387044D01*
X14333670Y18337093D01*
X14318000Y18318000D01*
X13932000Y17932000D01*
X13912907Y17916330D01*
X13862956Y17882954D01*
X13817536Y17864141D01*
X13763746Y17853441D01*
X13758618Y17852421D01*
X13734037Y17850000D01*
X11115963Y17850000D01*
X11091382Y17852421D01*
X11086254Y17853441D01*
X11032464Y17864141D01*
X10987044Y17882954D01*
X10937093Y17916330D01*
X10918000Y17932000D01*
X9379280Y19470720D01*
X9364029Y19489190D01*
X9331345Y19537480D01*
X9312570Y19581323D01*
X9300175Y19638305D01*
X9297332Y19662088D01*
X9256394Y21381453D01*
X9258294Y21406453D01*
X9268937Y21466468D01*
X9287206Y21512902D01*
X9313331Y21553289D01*
X9348191Y21588989D01*
X9387945Y21616068D01*
X9433927Y21635436D01*
X9467140Y21642145D01*
X9493673Y21647505D01*
X9518622Y21650000D01*
X10887590Y21650000D01*
X10912170Y21647579D01*
G37*
%TD.AperFunction*%
%TD*%
%TA.AperFunction,Conductor*%
%TO.N,VDD*%
G36*
X5365693Y19229998D02*
G01*
X5394022Y19205076D01*
X5462970Y19123052D01*
X5582313Y19043610D01*
X5719157Y19000858D01*
X5728129Y19000694D01*
X5728132Y19000693D01*
X5793463Y18999496D01*
X5862499Y18998230D01*
X5871533Y19000693D01*
X5992158Y19033579D01*
X5992160Y19033580D01*
X6000817Y19035940D01*
X6122991Y19110955D01*
X6133941Y19123052D01*
X6210881Y19208055D01*
X6271425Y19245136D01*
X6304297Y19249500D01*
X7262915Y19249500D01*
X7287496Y19247079D01*
X7287828Y19247013D01*
X7287829Y19247013D01*
X7300000Y19244592D01*
X7312171Y19247013D01*
X7315017Y19247579D01*
X7339598Y19250000D01*
X8684037Y19250000D01*
X8708618Y19247579D01*
X8767536Y19235859D01*
X8812956Y19217046D01*
X8862907Y19183670D01*
X8882000Y19168000D01*
X10950000Y17100000D01*
X13734037Y17100000D01*
X13758618Y17097579D01*
X13817536Y17085859D01*
X13862956Y17067046D01*
X13912907Y17033670D01*
X13932000Y17018000D01*
X14318000Y16632000D01*
X14333670Y16612907D01*
X14367046Y16562956D01*
X14385860Y16517535D01*
X14397579Y16458618D01*
X14400000Y16434037D01*
X14400000Y16015963D01*
X14397579Y15991382D01*
X14385860Y15932465D01*
X14367046Y15887044D01*
X14333670Y15837093D01*
X14318000Y15818000D01*
X13932000Y15432000D01*
X13912907Y15416330D01*
X13862956Y15382954D01*
X13817536Y15364141D01*
X13763746Y15353441D01*
X13758618Y15352421D01*
X13734037Y15350000D01*
X10665963Y15350000D01*
X10641382Y15352421D01*
X10636254Y15353441D01*
X10582464Y15364141D01*
X10537044Y15382954D01*
X10487093Y15416330D01*
X10468000Y15432000D01*
X7800000Y18100000D01*
X6836948Y18100000D01*
X6768827Y18120002D01*
X6722248Y18173848D01*
X6715245Y18189251D01*
X6715241Y18189257D01*
X6711526Y18197428D01*
X6693140Y18218766D01*
X6623802Y18299237D01*
X6623799Y18299240D01*
X6617942Y18306037D01*
X6497637Y18384015D01*
X6360281Y18425093D01*
X6351305Y18425148D01*
X6351304Y18425148D01*
X6291097Y18425516D01*
X6216918Y18425969D01*
X6079071Y18386572D01*
X5957822Y18310070D01*
X5862919Y18202612D01*
X5814742Y18100000D01*
X5800000Y18100000D01*
X5800000Y18060062D01*
X5779933Y17931177D01*
X5781097Y17922275D01*
X5781097Y17922272D01*
X5798522Y17789021D01*
X5797576Y17788897D01*
X5800000Y17771201D01*
X5800000Y17219812D01*
X5798500Y17200428D01*
X5782487Y17097579D01*
X5779933Y17081177D01*
X5781097Y17072275D01*
X5781097Y17072272D01*
X5798522Y16939021D01*
X5797576Y16938897D01*
X5800000Y16921201D01*
X5800000Y16412410D01*
X5797579Y16387830D01*
X5785860Y16328911D01*
X5767045Y16283488D01*
X5740700Y16244061D01*
X5705939Y16209300D01*
X5686329Y16196196D01*
X5666510Y16182954D01*
X5621091Y16164141D01*
X5586073Y16157175D01*
X5562170Y16152421D01*
X5537590Y16150000D01*
X4762410Y16150000D01*
X4737830Y16152421D01*
X4713927Y16157175D01*
X4678909Y16164141D01*
X4633490Y16182954D01*
X4613671Y16196196D01*
X4594061Y16209300D01*
X4559300Y16244061D01*
X4532955Y16283488D01*
X4514140Y16328911D01*
X4502421Y16387830D01*
X4500000Y16412410D01*
X4500000Y18987590D01*
X4502421Y19012170D01*
X4514140Y19071089D01*
X4532955Y19116512D01*
X4534000Y19118075D01*
X4559300Y19155939D01*
X4594061Y19190700D01*
X4620034Y19208055D01*
X4633490Y19217046D01*
X4678909Y19235859D01*
X4725547Y19245136D01*
X4737830Y19247579D01*
X4762410Y19250000D01*
X5297572Y19250000D01*
X5365693Y19229998D01*
G37*
%TD.AperFunction*%
%TD*%
M02*
