%TF.GenerationSoftware,KiCad,Pcbnew,6.0.7+dfsg-1~bpo11+1*%
%TF.CreationDate,2022-10-03T05:52:26+00:00*%
%TF.ProjectId,0101-SERIAL-CP2102N,30313031-2d53-4455-9249-414c2d435032,V1.0*%
%TF.SameCoordinates,Original*%
%TF.FileFunction,Profile,NP*%
%FSLAX46Y46*%
G04 Gerber Fmt 4.6, Leading zero omitted, Abs format (unit mm)*
G04 Created by KiCad (PCBNEW 6.0.7+dfsg-1~bpo11+1) date 2022-10-03 05:52:26*
%MOMM*%
%LPD*%
G01*
G04 APERTURE LIST*
%TA.AperFunction,Profile*%
%ADD10C,0.050000*%
%TD*%
G04 APERTURE END LIST*
D10*
X8800000Y27300000D02*
X5300000Y27300000D01*
X0Y26500000D02*
X0Y8500000D01*
X5300000Y29550000D02*
X5300000Y27300000D01*
X1300000Y27300000D02*
X1300000Y29550000D01*
X0Y0D02*
X0Y5200000D01*
X14300000Y5450000D02*
X14300000Y7700000D01*
X18550000Y5200000D02*
X19600000Y5200000D01*
X14050000Y29800000D02*
X5550000Y29800000D01*
X14300000Y27300000D02*
X14300000Y29550000D01*
X800000Y27300000D02*
G75*
G03*
X0Y26500000I0J-800000D01*
G01*
X0Y35000000D02*
X19600000Y35000000D01*
X5300000Y7700000D02*
X5300000Y5450000D01*
X19600000Y5200000D02*
X19600000Y0D01*
X11000000Y27300000D02*
X14300000Y27300000D01*
X1050000Y5200000D02*
G75*
G03*
X1300000Y5450000I0J250000D01*
G01*
X0Y29800000D02*
X0Y35000000D01*
X1300000Y7700000D02*
X1300000Y5450000D01*
X18800000Y7700000D02*
G75*
G03*
X19600000Y8500000I0J800000D01*
G01*
X14300000Y29550000D02*
G75*
G03*
X14050000Y29800000I-250000J0D01*
G01*
X8800001Y27300000D02*
G75*
G03*
X10999999Y27300000I1099999J200000D01*
G01*
X18300000Y27300000D02*
X18300000Y29550000D01*
X0Y5200000D02*
X1050000Y5200000D01*
X5550000Y29800000D02*
G75*
G03*
X5300000Y29550000I0J-250000D01*
G01*
X18300000Y27300000D02*
X18800000Y27300000D01*
X19600000Y0D02*
X0Y0D01*
X19600000Y29800000D02*
X18550000Y29800000D01*
X19600000Y8500000D02*
X19600000Y16400000D01*
X19600000Y26500000D02*
X19600000Y18600000D01*
X1300000Y29550000D02*
G75*
G03*
X1050000Y29800000I-250000J0D01*
G01*
X19600000Y26500000D02*
G75*
G03*
X18800000Y27300000I-800000J0D01*
G01*
X19600000Y18599999D02*
G75*
G03*
X19600000Y16400001I200000J-1099999D01*
G01*
X5550000Y5200000D02*
X14050000Y5200000D01*
X0Y8500000D02*
G75*
G03*
X800000Y7700000I800000J0D01*
G01*
X18300000Y7700000D02*
X18300000Y5450000D01*
X5300000Y5450000D02*
G75*
G03*
X5550000Y5200000I250000J0D01*
G01*
X5300000Y7700000D02*
X8700000Y7700000D01*
X800000Y7700000D02*
X1300000Y7700000D01*
X1050000Y29800000D02*
X0Y29800000D01*
X14050000Y5200000D02*
G75*
G03*
X14300000Y5450000I0J250000D01*
G01*
X18300000Y5450000D02*
G75*
G03*
X18550000Y5200000I250000J0D01*
G01*
X10899999Y7700000D02*
G75*
G03*
X8700001Y7700000I-1099999J-200000D01*
G01*
X14300000Y7700000D02*
X10900000Y7700000D01*
X800000Y27300000D02*
X1300000Y27300000D01*
X19600000Y35000000D02*
X19600000Y29800000D01*
X18800000Y7700000D02*
X18300000Y7700000D01*
X18550000Y29800000D02*
G75*
G03*
X18300000Y29550000I0J-250000D01*
G01*
M02*
