%TF.GenerationSoftware,KiCad,Pcbnew,6.0.7+dfsg-1~bpo11+1*%
%TF.CreationDate,2022-10-12T07:12:05+00:00*%
%TF.ProjectId,0101-SERIAL-CP2102N,30313031-2d53-4455-9249-414c2d435032,V1.1*%
%TF.SameCoordinates,Original*%
%TF.FileFunction,Copper,L4,Bot*%
%TF.FilePolarity,Positive*%
%FSLAX46Y46*%
G04 Gerber Fmt 4.6, Leading zero omitted, Abs format (unit mm)*
G04 Created by KiCad (PCBNEW 6.0.7+dfsg-1~bpo11+1) date 2022-10-12 07:12:05*
%MOMM*%
%LPD*%
G01*
G04 APERTURE LIST*
G04 Aperture macros list*
%AMRoundRect*
0 Rectangle with rounded corners*
0 $1 Rounding radius*
0 $2 $3 $4 $5 $6 $7 $8 $9 X,Y pos of 4 corners*
0 Add a 4 corners polygon primitive as box body*
4,1,4,$2,$3,$4,$5,$6,$7,$8,$9,$2,$3,0*
0 Add four circle primitives for the rounded corners*
1,1,$1+$1,$2,$3*
1,1,$1+$1,$4,$5*
1,1,$1+$1,$6,$7*
1,1,$1+$1,$8,$9*
0 Add four rect primitives between the rounded corners*
20,1,$1+$1,$2,$3,$4,$5,0*
20,1,$1+$1,$4,$5,$6,$7,0*
20,1,$1+$1,$6,$7,$8,$9,0*
20,1,$1+$1,$8,$9,$2,$3,0*%
G04 Aperture macros list end*
%TA.AperFunction,ComponentPad*%
%ADD10RoundRect,0.350000X-0.700000X0.350000X-0.700000X-0.350000X0.700000X-0.350000X0.700000X0.350000X0*%
%TD*%
%TA.AperFunction,ComponentPad*%
%ADD11RoundRect,0.350000X-0.650000X0.350000X-0.650000X-0.350000X0.650000X-0.350000X0.650000X0.350000X0*%
%TD*%
%TA.AperFunction,ComponentPad*%
%ADD12R,1.700000X1.700000*%
%TD*%
%TA.AperFunction,ComponentPad*%
%ADD13O,1.700000X1.700000*%
%TD*%
%TA.AperFunction,SMDPad,CuDef*%
%ADD14RoundRect,0.140000X0.170000X-0.140000X0.170000X0.140000X-0.170000X0.140000X-0.170000X-0.140000X0*%
%TD*%
%TA.AperFunction,SMDPad,CuDef*%
%ADD15RoundRect,0.200000X0.275000X-0.200000X0.275000X0.200000X-0.275000X0.200000X-0.275000X-0.200000X0*%
%TD*%
%TA.AperFunction,SMDPad,CuDef*%
%ADD16RoundRect,0.135000X0.135000X0.185000X-0.135000X0.185000X-0.135000X-0.185000X0.135000X-0.185000X0*%
%TD*%
%TA.AperFunction,SMDPad,CuDef*%
%ADD17RoundRect,0.135000X-0.135000X-0.185000X0.135000X-0.185000X0.135000X0.185000X-0.135000X0.185000X0*%
%TD*%
%TA.AperFunction,SMDPad,CuDef*%
%ADD18R,0.650000X0.400000*%
%TD*%
%TA.AperFunction,SMDPad,CuDef*%
%ADD19RoundRect,0.140000X0.140000X0.170000X-0.140000X0.170000X-0.140000X-0.170000X0.140000X-0.170000X0*%
%TD*%
%TA.AperFunction,SMDPad,CuDef*%
%ADD20RoundRect,0.135000X0.185000X-0.135000X0.185000X0.135000X-0.185000X0.135000X-0.185000X-0.135000X0*%
%TD*%
%TA.AperFunction,SMDPad,CuDef*%
%ADD21RoundRect,0.062500X-0.350000X-0.062500X0.350000X-0.062500X0.350000X0.062500X-0.350000X0.062500X0*%
%TD*%
%TA.AperFunction,SMDPad,CuDef*%
%ADD22RoundRect,0.062500X-0.062500X-0.350000X0.062500X-0.350000X0.062500X0.350000X-0.062500X0.350000X0*%
%TD*%
%TA.AperFunction,SMDPad,CuDef*%
%ADD23R,2.600000X2.600000*%
%TD*%
%TA.AperFunction,SMDPad,CuDef*%
%ADD24RoundRect,0.200000X-0.275000X0.200000X-0.275000X-0.200000X0.275000X-0.200000X0.275000X0.200000X0*%
%TD*%
%TA.AperFunction,ViaPad*%
%ADD25C,0.700000*%
%TD*%
%TA.AperFunction,ViaPad*%
%ADD26C,0.500000*%
%TD*%
%TA.AperFunction,Conductor*%
%ADD27C,0.200000*%
%TD*%
%TA.AperFunction,Conductor*%
%ADD28C,0.250000*%
%TD*%
%TA.AperFunction,Conductor*%
%ADD29C,0.280000*%
%TD*%
G04 APERTURE END LIST*
D10*
%TO.P,J1,S1,SHIELD*%
%TO.N,GND*%
X6930000Y12975000D03*
D11*
X2950000Y22025000D03*
X2950000Y12975000D03*
D10*
X6930000Y22025000D03*
%TD*%
D12*
%TO.P,J2,1,Pin_1*%
%TO.N,/RTS{slash}BOOT*%
X13525000Y21300000D03*
D13*
%TO.P,J2,2,Pin_2*%
%TO.N,/DTR{slash}RESET*%
X16065000Y21300000D03*
%TO.P,J2,3,Pin_3*%
%TO.N,VBUS*%
X13525000Y18760000D03*
%TO.P,J2,4,Pin_4*%
%TO.N,GND*%
X16065000Y18760000D03*
%TO.P,J2,5,Pin_5*%
%TO.N,VDD*%
X13525000Y16220000D03*
%TO.P,J2,6,Pin_6*%
%TO.N,/CTS*%
X16065000Y16220000D03*
%TO.P,J2,7,Pin_7*%
%TO.N,/RXD*%
X13525000Y13680000D03*
%TO.P,J2,8,Pin_8*%
%TO.N,/TXD*%
X16065000Y13680000D03*
%TD*%
D14*
%TO.P,C4,1*%
%TO.N,VBUS*%
X8800000Y22000000D03*
%TO.P,C4,2*%
%TO.N,GND*%
X8800000Y22960000D03*
%TD*%
D15*
%TO.P,R9,1*%
%TO.N,/RTS*%
X2450000Y9175000D03*
%TO.P,R9,2*%
%TO.N,/RTS{slash}BOOT*%
X2450000Y10825000D03*
%TD*%
D16*
%TO.P,R4,1*%
%TO.N,Net-(J1-PadA5)*%
X4010000Y17000000D03*
%TO.P,R4,2*%
%TO.N,GND*%
X2990000Y17000000D03*
%TD*%
%TO.P,R5,1*%
%TO.N,Net-(J1-PadB5)*%
X4010000Y16000000D03*
%TO.P,R5,2*%
%TO.N,GND*%
X2990000Y16000000D03*
%TD*%
D17*
%TO.P,R3,1*%
%TO.N,VDD*%
X2990000Y20000000D03*
%TO.P,R3,2*%
%TO.N,Net-(R3-Pad2)*%
X4010000Y20000000D03*
%TD*%
D18*
%TO.P,Q1,1,E1*%
%TO.N,/DTR*%
X5750000Y10650000D03*
%TO.P,Q1,2,B1*%
%TO.N,/RTS*%
X5750000Y10000000D03*
%TO.P,Q1,3,C2*%
%TO.N,/DTR{slash}RESET*%
X5750000Y9350000D03*
%TO.P,Q1,4,E2*%
%TO.N,/RTS*%
X3850000Y9350000D03*
%TO.P,Q1,5,B2*%
%TO.N,/DTR*%
X3850000Y10000000D03*
%TO.P,Q1,6,C1*%
%TO.N,/RTS{slash}BOOT*%
X3850000Y10650000D03*
%TD*%
D14*
%TO.P,C2,1*%
%TO.N,VBUS*%
X9800000Y22000000D03*
%TO.P,C2,2*%
%TO.N,GND*%
X9800000Y22960000D03*
%TD*%
D19*
%TO.P,C1,1*%
%TO.N,VDD*%
X3980000Y19000000D03*
%TO.P,C1,2*%
%TO.N,GND*%
X3020000Y19000000D03*
%TD*%
D20*
%TO.P,R1,1*%
%TO.N,VBUS*%
X10800000Y22000000D03*
%TO.P,R1,2*%
%TO.N,Net-(R1-Pad2)*%
X10800000Y23020000D03*
%TD*%
D21*
%TO.P,U1,1,~{RI}/CLK*%
%TO.N,unconnected-(U1-Pad1)*%
X7862500Y16250000D03*
%TO.P,U1,2,GND*%
%TO.N,GND*%
X7862500Y16750000D03*
%TO.P,U1,3,D+*%
%TO.N,/D+*%
X7862500Y17250000D03*
%TO.P,U1,4,D-*%
%TO.N,/D-*%
X7862500Y17750000D03*
%TO.P,U1,5,VIO*%
%TO.N,VDD*%
X7862500Y18250000D03*
%TO.P,U1,6,VDD*%
X7862500Y18750000D03*
D22*
%TO.P,U1,7,VREGIN*%
%TO.N,VBUS*%
X8550000Y19437500D03*
%TO.P,U1,8,VBUS*%
%TO.N,Net-(R1-Pad2)*%
X9050000Y19437500D03*
%TO.P,U1,9,~{RST}*%
%TO.N,Net-(R3-Pad2)*%
X9550000Y19437500D03*
%TO.P,U1,10,NC*%
%TO.N,unconnected-(U1-Pad10)*%
X10050000Y19437500D03*
%TO.P,U1,11,~{WAKEUP}/GPIO.3*%
%TO.N,unconnected-(U1-Pad11)*%
X10550000Y19437500D03*
%TO.P,U1,12,RS485/GPIO.2*%
%TO.N,unconnected-(U1-Pad12)*%
X11050000Y19437500D03*
D21*
%TO.P,U1,13,~{RXT}/GPIO.1*%
%TO.N,unconnected-(U1-Pad13)*%
X11737500Y18750000D03*
%TO.P,U1,14,~{TXT}/GPIO.0*%
%TO.N,unconnected-(U1-Pad14)*%
X11737500Y18250000D03*
%TO.P,U1,15,~{SUSPEND}*%
%TO.N,unconnected-(U1-Pad15)*%
X11737500Y17750000D03*
%TO.P,U1,16,NC*%
%TO.N,unconnected-(U1-Pad16)*%
X11737500Y17250000D03*
%TO.P,U1,17,SUSPEND*%
%TO.N,unconnected-(U1-Pad17)*%
X11737500Y16750000D03*
%TO.P,U1,18,~{CTS}*%
%TO.N,/CTS*%
X11737500Y16250000D03*
D22*
%TO.P,U1,19,~{RTS}*%
%TO.N,/RTS*%
X11050000Y15562500D03*
%TO.P,U1,20,RXD*%
%TO.N,/RXD*%
X10550000Y15562500D03*
%TO.P,U1,21,TXD*%
%TO.N,/TXD*%
X10050000Y15562500D03*
%TO.P,U1,22,~{DSR}*%
%TO.N,unconnected-(U1-Pad22)*%
X9550000Y15562500D03*
%TO.P,U1,23,~{DTR}*%
%TO.N,/DTR*%
X9050000Y15562500D03*
%TO.P,U1,24,~{DCD}*%
%TO.N,unconnected-(U1-Pad24)*%
X8550000Y15562500D03*
D23*
%TO.P,U1,25,GND*%
%TO.N,GND*%
X9800000Y17500000D03*
%TD*%
D24*
%TO.P,R8,1*%
%TO.N,/DTR*%
X7150000Y10825000D03*
%TO.P,R8,2*%
%TO.N,/DTR{slash}RESET*%
X7150000Y9175000D03*
%TD*%
D19*
%TO.P,C3,1*%
%TO.N,VDD*%
X3980000Y18000000D03*
%TO.P,C3,2*%
%TO.N,GND*%
X3020000Y18000000D03*
%TD*%
D20*
%TO.P,R2,1*%
%TO.N,Net-(R1-Pad2)*%
X11800000Y22000000D03*
%TO.P,R2,2*%
%TO.N,GND*%
X11800000Y23020000D03*
%TD*%
D25*
%TO.N,VDD*%
X15800000Y23900000D03*
X11000000Y10300000D03*
D26*
X4800000Y18400000D03*
X4800000Y19000000D03*
X5400000Y19000000D03*
D25*
X15800000Y11100000D03*
X11000000Y24700000D03*
D26*
%TO.N,GND*%
X19050000Y23750000D03*
X550000Y20500000D03*
X550000Y17500000D03*
X19050000Y14750000D03*
X15800000Y26500000D03*
X8800000Y23750000D03*
X6200000Y16100000D03*
X12650000Y11550000D03*
X9700000Y10500000D03*
X10700000Y18400000D03*
X11800000Y8500000D03*
X11800000Y23750000D03*
X16550000Y11500000D03*
X19050000Y20250000D03*
X19050000Y15750000D03*
X10700000Y16600000D03*
X5600000Y16500000D03*
X550000Y23500000D03*
X7550000Y26750000D03*
X2300000Y19000000D03*
X14800000Y11750000D03*
X2300000Y18000000D03*
X16800000Y15000000D03*
X11800000Y26500000D03*
X14300000Y23000000D03*
X19050000Y11250000D03*
X15800000Y8500000D03*
X15300000Y23000000D03*
X550000Y11500000D03*
X550000Y14500000D03*
X9800000Y23750000D03*
X9100000Y18400000D03*
X14800000Y14500000D03*
X19050000Y19250000D03*
%TO.N,VBUS*%
X10200000Y13150000D03*
X10200000Y21300000D03*
X10800000Y13150000D03*
X9600000Y21300000D03*
X10800000Y21300000D03*
X9600000Y13150000D03*
D25*
%TO.N,/RTS{slash}BOOT*%
X1300000Y10500000D03*
X8600000Y9900000D03*
%TO.N,Net-(J1-PadA5)*%
X4900000Y17000000D03*
%TO.N,/D-*%
X6285542Y17925000D03*
%TO.N,/D+*%
X6285542Y17075000D03*
%TO.N,Net-(J1-PadB5)*%
X4900000Y16000000D03*
%TO.N,Net-(R3-Pad2)*%
X11950000Y20200000D03*
X4900000Y20000000D03*
%TO.N,/RTS*%
X9800000Y14050000D03*
X12050000Y14350000D03*
%TD*%
D27*
%TO.N,VDD*%
X2990000Y20000000D02*
X2990000Y19990000D01*
X2990000Y19990000D02*
X3980000Y19000000D01*
D28*
%TO.N,GND*%
X7862500Y16750000D02*
X6850000Y16750000D01*
X6850000Y16750000D02*
X6200000Y16100000D01*
X7862500Y16750000D02*
X9050000Y16750000D01*
X9050000Y16750000D02*
X9800000Y17500000D01*
D27*
%TO.N,/RXD*%
X10550000Y15562500D02*
X10550000Y15001471D01*
X10550000Y15001471D02*
X11871471Y13680000D01*
X11871471Y13680000D02*
X13525000Y13680000D01*
%TO.N,/TXD*%
X14885000Y12500000D02*
X16065000Y13680000D01*
X10050000Y15562500D02*
X10050000Y15000000D01*
X10050000Y15000000D02*
X12550000Y12500000D01*
X12550000Y12500000D02*
X14885000Y12500000D01*
%TO.N,/CTS*%
X11737500Y16250000D02*
X11737500Y15762500D01*
X11737500Y15762500D02*
X12500000Y15000000D01*
X12500000Y15000000D02*
X14845000Y15000000D01*
X14845000Y15000000D02*
X16065000Y16220000D01*
%TO.N,/DTR{slash}RESET*%
X15975000Y9175000D02*
X17875000Y11075000D01*
X17875000Y11075000D02*
X17875000Y19490000D01*
X5925000Y9175000D02*
X5750000Y9350000D01*
X5925000Y9175000D02*
X7150000Y9175000D01*
X17875000Y19490000D02*
X16065000Y21300000D01*
X7150000Y9175000D02*
X15975000Y9175000D01*
%TO.N,/RTS{slash}BOOT*%
X15825000Y9525000D02*
X10550000Y9525000D01*
X17525000Y19275000D02*
X17525000Y11225000D01*
X8975000Y9525000D02*
X8600000Y9900000D01*
X16800000Y20000000D02*
X17525000Y19275000D01*
X17525000Y11225000D02*
X16800000Y10500000D01*
X3675000Y10825000D02*
X3850000Y10650000D01*
X13525000Y21300000D02*
X14825000Y20000000D01*
X1625000Y10825000D02*
X2450000Y10825000D01*
X10550000Y9525000D02*
X8975000Y9525000D01*
X14825000Y20000000D02*
X16800000Y20000000D01*
X3675000Y10825000D02*
X2450000Y10825000D01*
X16800000Y10500000D02*
X15825000Y9525000D01*
X1625000Y10825000D02*
X1300000Y10500000D01*
%TO.N,Net-(J1-PadA5)*%
X4900000Y17000000D02*
X4010000Y17000000D01*
D29*
%TO.N,/D-*%
X7827500Y17715000D02*
X6495542Y17715000D01*
X6495542Y17715000D02*
X6285542Y17925000D01*
X7862500Y17750000D02*
X7827500Y17715000D01*
%TO.N,/D+*%
X6495542Y17285000D02*
X6285542Y17075000D01*
X7827500Y17285000D02*
X6495542Y17285000D01*
X7862500Y17250000D02*
X7827500Y17285000D01*
D27*
%TO.N,Net-(J1-PadB5)*%
X4010000Y16000000D02*
X4900000Y16000000D01*
%TO.N,Net-(R1-Pad2)*%
X9050000Y19437500D02*
X9050000Y19950000D01*
X9650000Y20550000D02*
X11150000Y20550000D01*
X11800000Y21200000D02*
X11800000Y22000000D01*
X10800000Y23000000D02*
X11800000Y22000000D01*
X9050000Y19950000D02*
X9650000Y20550000D01*
X10800000Y23020000D02*
X10800000Y23000000D01*
X11150000Y20550000D02*
X11800000Y21200000D01*
%TO.N,Net-(R3-Pad2)*%
X9550000Y19950000D02*
X9800000Y20200000D01*
X4010000Y20000000D02*
X4900000Y20000000D01*
X9550000Y19437500D02*
X9550000Y19950000D01*
X9800000Y20200000D02*
X11950000Y20200000D01*
%TO.N,/DTR*%
X9050000Y14650000D02*
X9050000Y15562500D01*
X8650000Y11350000D02*
X8650000Y14250000D01*
X8125000Y10825000D02*
X8650000Y11350000D01*
X5925000Y10825000D02*
X7150000Y10825000D01*
X7150000Y10825000D02*
X8125000Y10825000D01*
X3850000Y10000000D02*
X4500000Y10000000D01*
X5150000Y10650000D02*
X5750000Y10650000D01*
X8650000Y14250000D02*
X9050000Y14650000D01*
X5925000Y10825000D02*
X5750000Y10650000D01*
X4500000Y10000000D02*
X5150000Y10650000D01*
%TO.N,/RTS*%
X4450000Y9350000D02*
X5100000Y10000000D01*
X7800000Y10000000D02*
X9000000Y11200000D01*
X3850000Y9350000D02*
X4450000Y9350000D01*
X11050000Y15562500D02*
X11442525Y15562500D01*
X11442525Y15562500D02*
X12050000Y14955025D01*
X5750000Y10000000D02*
X7800000Y10000000D01*
X9000000Y11200000D02*
X9000000Y13750000D01*
X2450000Y9175000D02*
X3675000Y9175000D01*
X3675000Y9175000D02*
X3850000Y9350000D01*
X9000000Y13750000D02*
X9300000Y14050000D01*
X12050000Y14955025D02*
X12050000Y14350000D01*
X5100000Y10000000D02*
X5750000Y10000000D01*
X9300000Y14050000D02*
X9800000Y14050000D01*
%TD*%
%TA.AperFunction,Conductor*%
%TO.N,GND*%
G36*
X8553332Y27129498D02*
G01*
X8599825Y27075842D01*
X8601115Y27072667D01*
X8601476Y27071320D01*
X8687324Y26881795D01*
X8690190Y26877505D01*
X8746090Y26793828D01*
X8802901Y26708786D01*
X8945119Y26556918D01*
X9110178Y26430247D01*
X9293668Y26332159D01*
X9298545Y26330503D01*
X9298548Y26330502D01*
X9485802Y26266931D01*
X9490686Y26265273D01*
X9695969Y26231377D01*
X9904031Y26231377D01*
X10109314Y26265273D01*
X10114198Y26266931D01*
X10301452Y26330502D01*
X10301455Y26330503D01*
X10306332Y26332159D01*
X10489822Y26430247D01*
X10654881Y26556918D01*
X10797099Y26708786D01*
X10853911Y26793828D01*
X10909810Y26877505D01*
X10912676Y26881795D01*
X10963341Y26993646D01*
X10998524Y27071320D01*
X10999686Y27070793D01*
X11037922Y27123337D01*
X11104100Y27149046D01*
X11114789Y27149500D01*
X13730879Y27149500D01*
X13799000Y27129498D01*
X13835703Y27086810D01*
X13838428Y27088529D01*
X13914930Y26967280D01*
X14022388Y26872377D01*
X14152163Y26811447D01*
X14261009Y26794500D01*
X14335940Y26794500D01*
X14365456Y26798727D01*
X14383318Y26800000D01*
X15215934Y26800000D01*
X15235318Y26798500D01*
X15261009Y26794500D01*
X15335940Y26794500D01*
X15365456Y26798727D01*
X15383318Y26800000D01*
X16215934Y26800000D01*
X16235318Y26798500D01*
X16261009Y26794500D01*
X16335940Y26794500D01*
X16365456Y26798727D01*
X16383318Y26800000D01*
X17215934Y26800000D01*
X17235318Y26798500D01*
X17261009Y26794500D01*
X17335940Y26794500D01*
X17365456Y26798727D01*
X17383318Y26800000D01*
X18215934Y26800000D01*
X18235318Y26798500D01*
X18261009Y26794500D01*
X18335940Y26794500D01*
X18377339Y26800429D01*
X18433032Y26808404D01*
X18433035Y26808405D01*
X18441918Y26809677D01*
X18572428Y26869016D01*
X18600192Y26892939D01*
X18674237Y26956740D01*
X18674240Y26956743D01*
X18681037Y26962600D01*
X18759015Y27082905D01*
X18761990Y27080977D01*
X18797533Y27121644D01*
X18865739Y27141355D01*
X18879309Y27140564D01*
X18930421Y27134805D01*
X18957928Y27128526D01*
X19068407Y27089868D01*
X19093820Y27077631D01*
X19192943Y27015349D01*
X19214998Y26997759D01*
X19297759Y26914998D01*
X19315349Y26892943D01*
X19377631Y26793820D01*
X19389868Y26768407D01*
X19428526Y26657928D01*
X19434805Y26630420D01*
X19447692Y26516043D01*
X19447830Y26513583D01*
X19444191Y26500000D01*
X19448484Y26483978D01*
X19448484Y26471315D01*
X19449500Y26463598D01*
X19449500Y18814789D01*
X19429498Y18746668D01*
X19375842Y18700175D01*
X19372667Y18698885D01*
X19371320Y18698524D01*
X19181795Y18612676D01*
X19177505Y18609810D01*
X19013074Y18499964D01*
X19013070Y18499961D01*
X19008786Y18497099D01*
X18952398Y18444294D01*
X18887412Y18383437D01*
X18856918Y18354881D01*
X18730247Y18189822D01*
X18632159Y18006332D01*
X18630503Y18001455D01*
X18630502Y18001452D01*
X18573938Y17834837D01*
X18565273Y17809314D01*
X18531377Y17604031D01*
X18531377Y17395969D01*
X18565273Y17190686D01*
X18566931Y17185803D01*
X18566931Y17185802D01*
X18618489Y17033935D01*
X18632159Y16993668D01*
X18730247Y16810178D01*
X18856918Y16645119D01*
X18860682Y16641595D01*
X18860683Y16641593D01*
X18924242Y16582073D01*
X19008786Y16502901D01*
X19013070Y16500039D01*
X19013074Y16500036D01*
X19124132Y16425845D01*
X19181795Y16387324D01*
X19186495Y16385195D01*
X19186497Y16385194D01*
X19371320Y16301476D01*
X19370793Y16300314D01*
X19423337Y16262078D01*
X19449046Y16195900D01*
X19449500Y16185211D01*
X19449500Y8536402D01*
X19448484Y8528685D01*
X19448484Y8516022D01*
X19444191Y8500000D01*
X19447830Y8486417D01*
X19447692Y8483957D01*
X19434805Y8369580D01*
X19428526Y8342072D01*
X19389868Y8231593D01*
X19377631Y8206180D01*
X19315349Y8107057D01*
X19297759Y8085002D01*
X19214998Y8002241D01*
X19192943Y7984651D01*
X19093820Y7922369D01*
X19068407Y7910132D01*
X18957928Y7871474D01*
X18930422Y7865195D01*
X18917798Y7863772D01*
X18878548Y7859350D01*
X18808618Y7871599D01*
X18757881Y7917322D01*
X18685070Y8032720D01*
X18577612Y8127623D01*
X18447837Y8188553D01*
X18338991Y8205500D01*
X18264060Y8205500D01*
X18236129Y8201500D01*
X18234544Y8201273D01*
X18216682Y8200000D01*
X17384066Y8200000D01*
X17364682Y8201500D01*
X17343795Y8204752D01*
X17338991Y8205500D01*
X17264060Y8205500D01*
X17236129Y8201500D01*
X17234544Y8201273D01*
X17216682Y8200000D01*
X16384066Y8200000D01*
X16364682Y8201500D01*
X16343795Y8204752D01*
X16338991Y8205500D01*
X16264060Y8205500D01*
X16236129Y8201500D01*
X16234544Y8201273D01*
X16216682Y8200000D01*
X15384066Y8200000D01*
X15364682Y8201500D01*
X15343795Y8204752D01*
X15338991Y8205500D01*
X15264060Y8205500D01*
X15236129Y8201500D01*
X15234544Y8201273D01*
X15216682Y8200000D01*
X14384066Y8200000D01*
X14364682Y8201500D01*
X14343795Y8204752D01*
X14338991Y8205500D01*
X14264060Y8205500D01*
X14234544Y8201273D01*
X14166968Y8191596D01*
X14166965Y8191595D01*
X14158082Y8190323D01*
X14027572Y8130984D01*
X14020768Y8125122D01*
X14020769Y8125122D01*
X13925763Y8043260D01*
X13925760Y8043257D01*
X13918963Y8037400D01*
X13840985Y7917095D01*
X13840155Y7917633D01*
X13798688Y7870202D01*
X13731036Y7850500D01*
X11114789Y7850500D01*
X11046668Y7870502D01*
X11000175Y7924158D01*
X10998885Y7927333D01*
X10998524Y7928680D01*
X10912676Y8118205D01*
X10888477Y8154429D01*
X10799964Y8286926D01*
X10799961Y8286930D01*
X10797099Y8291214D01*
X10654881Y8443082D01*
X10489822Y8569753D01*
X10306332Y8667841D01*
X10272908Y8679188D01*
X10214834Y8720028D01*
X10188058Y8785782D01*
X10201081Y8855573D01*
X10249770Y8907245D01*
X10313414Y8924500D01*
X15937915Y8924500D01*
X15962496Y8922079D01*
X15962828Y8922013D01*
X15962829Y8922013D01*
X15975000Y8919592D01*
X15987171Y8922013D01*
X16060570Y8936613D01*
X16072741Y8939034D01*
X16102536Y8958943D01*
X16155601Y8994399D01*
X16162493Y9004714D01*
X16162495Y9004716D01*
X16162688Y9005005D01*
X16178358Y9024098D01*
X18025905Y10871644D01*
X18044998Y10887314D01*
X18045284Y10887505D01*
X18045286Y10887507D01*
X18055601Y10894399D01*
X18080392Y10931501D01*
X18110966Y10977260D01*
X18114334Y10994188D01*
X18127988Y11062830D01*
X18130409Y11075000D01*
X18127921Y11087508D01*
X18125500Y11112090D01*
X18125500Y19452910D01*
X18127921Y19477493D01*
X18127988Y19477830D01*
X18130409Y19490000D01*
X18110966Y19587740D01*
X18069578Y19649683D01*
X18069577Y19649684D01*
X18055601Y19670601D01*
X18045286Y19677493D01*
X18045284Y19677495D01*
X18044998Y19677686D01*
X18025905Y19693356D01*
X17519261Y20200000D01*
X16995052Y20724208D01*
X16961027Y20786520D01*
X16966091Y20857335D01*
X16974590Y20875539D01*
X16980380Y20885731D01*
X16983425Y20891091D01*
X17045358Y21077268D01*
X17069949Y21271929D01*
X17070341Y21300000D01*
X17051194Y21495272D01*
X17049413Y21501171D01*
X17049412Y21501176D01*
X16996265Y21677207D01*
X16994484Y21683106D01*
X16902370Y21856347D01*
X16778361Y22008398D01*
X16627180Y22133465D01*
X16454585Y22226787D01*
X16352124Y22258504D01*
X16273039Y22282985D01*
X16273036Y22282986D01*
X16267152Y22284807D01*
X16261027Y22285451D01*
X16261026Y22285451D01*
X16078147Y22304673D01*
X16078146Y22304673D01*
X16072019Y22305317D01*
X15981895Y22297115D01*
X15882759Y22288093D01*
X15882758Y22288093D01*
X15876618Y22287534D01*
X15870704Y22285793D01*
X15870702Y22285793D01*
X15742922Y22248185D01*
X15688393Y22232136D01*
X15682928Y22229279D01*
X15519972Y22144088D01*
X15519968Y22144085D01*
X15514512Y22141233D01*
X15509712Y22137373D01*
X15509711Y22137373D01*
X15483426Y22116239D01*
X15361600Y22018289D01*
X15235480Y21867984D01*
X15232516Y21862592D01*
X15232513Y21862588D01*
X15153813Y21719433D01*
X15140956Y21696046D01*
X15139095Y21690179D01*
X15139094Y21690177D01*
X15115217Y21614906D01*
X15081628Y21509022D01*
X15059757Y21314037D01*
X15076175Y21118517D01*
X15130258Y20929909D01*
X15140700Y20909591D01*
X15217123Y20760887D01*
X15217126Y20760883D01*
X15219944Y20755399D01*
X15341818Y20601631D01*
X15346511Y20597637D01*
X15346512Y20597636D01*
X15491238Y20474465D01*
X15489987Y20472995D01*
X15528896Y20424673D01*
X15536458Y20354080D01*
X15504654Y20290606D01*
X15443582Y20254402D01*
X15412469Y20250500D01*
X14980951Y20250500D01*
X14912830Y20270502D01*
X14891856Y20287405D01*
X14562405Y20616856D01*
X14528379Y20679168D01*
X14525500Y20705951D01*
X14525500Y22164820D01*
X14516767Y22208722D01*
X14509873Y22219040D01*
X14509872Y22219042D01*
X14490399Y22248185D01*
X14483504Y22258504D01*
X14453367Y22278641D01*
X14444042Y22284872D01*
X14444040Y22284873D01*
X14433722Y22291767D01*
X14389820Y22300500D01*
X12660180Y22300500D01*
X12616278Y22291767D01*
X12605960Y22284873D01*
X12605958Y22284872D01*
X12596633Y22278641D01*
X12566496Y22258504D01*
X12559601Y22248185D01*
X12540128Y22219042D01*
X12540127Y22219040D01*
X12533233Y22208722D01*
X12524500Y22164820D01*
X12524500Y20639323D01*
X12504498Y20571202D01*
X12450842Y20524709D01*
X12380568Y20514605D01*
X12315988Y20544099D01*
X12303047Y20557075D01*
X12288259Y20574237D01*
X12282400Y20581037D01*
X12162095Y20659015D01*
X12024739Y20700093D01*
X12015763Y20700148D01*
X12015762Y20700148D01*
X11958180Y20700500D01*
X11890182Y20720919D01*
X11844018Y20774858D01*
X11834344Y20845192D01*
X11864232Y20909591D01*
X11869855Y20915593D01*
X11950908Y20996646D01*
X11970001Y21012316D01*
X11970284Y21012505D01*
X11970286Y21012507D01*
X11980601Y21019399D01*
X12006056Y21057495D01*
X12035966Y21102260D01*
X12055409Y21200000D01*
X12052921Y21212508D01*
X12050500Y21237090D01*
X12050500Y21499755D01*
X12070502Y21567876D01*
X12125352Y21614906D01*
X12138877Y21620914D01*
X12149510Y21625637D01*
X12187043Y21663235D01*
X12216433Y21692676D01*
X12216434Y21692678D01*
X12224650Y21700908D01*
X12254899Y21769329D01*
X12263823Y21789514D01*
X12263824Y21789517D01*
X12267655Y21798183D01*
X12270500Y21822585D01*
X12270499Y22177414D01*
X12267538Y22202310D01*
X12224363Y22299510D01*
X12173129Y22350655D01*
X12157324Y22366433D01*
X12157322Y22366434D01*
X12149092Y22374650D01*
X12102979Y22395036D01*
X12048765Y22440872D01*
X12027937Y22508745D01*
X12047110Y22577103D01*
X12102779Y22625426D01*
X12138589Y22641332D01*
X12157442Y22654289D01*
X12216013Y22712963D01*
X12228934Y22731833D01*
X12236715Y22749432D01*
X12238552Y22763412D01*
X12234416Y22766000D01*
X11672000Y22766000D01*
X11603879Y22786002D01*
X11557386Y22839658D01*
X11546000Y22892000D01*
X11546000Y23292115D01*
X12054000Y23292115D01*
X12058475Y23276876D01*
X12059865Y23275671D01*
X12067548Y23274000D01*
X12225917Y23274000D01*
X12239448Y23277973D01*
X12240137Y23282768D01*
X12228667Y23308591D01*
X12215713Y23327440D01*
X12157037Y23386014D01*
X12138165Y23398935D01*
X12070571Y23428818D01*
X12056587Y23430656D01*
X12054000Y23426521D01*
X12054000Y23292115D01*
X11546000Y23292115D01*
X11546000Y23418126D01*
X11542027Y23431657D01*
X11537232Y23432346D01*
X11461413Y23398669D01*
X11442558Y23385711D01*
X11389568Y23332628D01*
X11327286Y23298549D01*
X11256466Y23303552D01*
X11211377Y23332473D01*
X11208638Y23335208D01*
X11149092Y23394650D01*
X11135050Y23400858D01*
X11060486Y23433823D01*
X11060483Y23433824D01*
X11051817Y23437655D01*
X11042406Y23438752D01*
X11042403Y23438753D01*
X11037138Y23439366D01*
X11027415Y23440500D01*
X10801939Y23440500D01*
X10572586Y23440499D01*
X10568889Y23440059D01*
X10568884Y23440059D01*
X10562743Y23439328D01*
X10547690Y23437538D01*
X10450490Y23394363D01*
X10412882Y23356690D01*
X10383569Y23327326D01*
X10383568Y23327324D01*
X10375350Y23319092D01*
X10372829Y23313389D01*
X10320558Y23270702D01*
X10250019Y23262653D01*
X10182564Y23297621D01*
X10144911Y23335209D01*
X10126038Y23348131D01*
X10070570Y23372653D01*
X10056587Y23374491D01*
X10054000Y23370355D01*
X10054000Y22832000D01*
X10033998Y22763879D01*
X9980342Y22717386D01*
X9928000Y22706000D01*
X9672000Y22706000D01*
X9603879Y22726002D01*
X9557386Y22779658D01*
X9546000Y22832000D01*
X9546000Y23361934D01*
X9542027Y23375465D01*
X9537232Y23376154D01*
X9473532Y23347860D01*
X9454674Y23334899D01*
X9389236Y23269347D01*
X9326954Y23235267D01*
X9256134Y23240270D01*
X9211046Y23269190D01*
X9144911Y23335208D01*
X9126038Y23348131D01*
X9070570Y23372653D01*
X9056587Y23374491D01*
X9054000Y23370355D01*
X9054000Y23232115D01*
X9058475Y23216876D01*
X9059865Y23215671D01*
X9067548Y23214000D01*
X9214000Y23214000D01*
X9282121Y23193998D01*
X9328614Y23140342D01*
X9340000Y23088000D01*
X9340000Y22832000D01*
X9319998Y22763879D01*
X9266342Y22717386D01*
X9214000Y22706000D01*
X8381392Y22706000D01*
X8367861Y22702027D01*
X8367172Y22697231D01*
X8382141Y22663529D01*
X8395097Y22644678D01*
X8456217Y22583666D01*
X8490297Y22521384D01*
X8485294Y22450563D01*
X8437202Y22389727D01*
X8410249Y22371718D01*
X8410234Y22371707D01*
X8407669Y22369993D01*
X8384106Y22350655D01*
X8349345Y22315894D01*
X8348983Y22315452D01*
X8288790Y22278641D01*
X8217811Y22280227D01*
X8158957Y22319934D01*
X8130913Y22385157D01*
X8130000Y22400300D01*
X8130000Y22418915D01*
X8129631Y22425729D01*
X8124211Y22475621D01*
X8120586Y22490867D01*
X8076233Y22609177D01*
X8067701Y22624763D01*
X7992570Y22725009D01*
X7980009Y22737570D01*
X7879763Y22812701D01*
X7864177Y22821233D01*
X7745867Y22865586D01*
X7730621Y22869211D01*
X7680729Y22874631D01*
X7673915Y22875000D01*
X7202115Y22875000D01*
X7186876Y22870525D01*
X7185671Y22869135D01*
X7184000Y22861452D01*
X7184000Y21193115D01*
X7188475Y21177876D01*
X7189865Y21176671D01*
X7197548Y21175000D01*
X7673915Y21175000D01*
X7680729Y21175369D01*
X7730621Y21180789D01*
X7745867Y21184414D01*
X7864177Y21228767D01*
X7879763Y21237299D01*
X7980009Y21312430D01*
X7992570Y21324991D01*
X8017674Y21358487D01*
X8074533Y21401002D01*
X8145352Y21406028D01*
X8207645Y21371968D01*
X8241635Y21309637D01*
X8244500Y21282922D01*
X8244500Y19562843D01*
X8224498Y19494722D01*
X8170842Y19448229D01*
X8100568Y19438125D01*
X8087876Y19440621D01*
X8085266Y19441275D01*
X8082289Y19442178D01*
X8042507Y19450091D01*
X8040967Y19450319D01*
X8040958Y19450321D01*
X8028972Y19452099D01*
X8028962Y19452100D01*
X8027413Y19452330D01*
X8025858Y19452483D01*
X8025843Y19452485D01*
X8004368Y19454600D01*
X8004357Y19454601D01*
X8002832Y19454751D01*
X8001308Y19454826D01*
X8001293Y19454827D01*
X7989141Y19455424D01*
X7989132Y19455424D01*
X7987590Y19455500D01*
X5366281Y19455500D01*
X5298160Y19475502D01*
X5251667Y19529158D01*
X5241563Y19599432D01*
X5272865Y19666054D01*
X5313176Y19710589D01*
X5313181Y19710596D01*
X5319200Y19717246D01*
X5364602Y19810955D01*
X5377795Y19838186D01*
X5377795Y19838187D01*
X5381710Y19846267D01*
X5405496Y19987646D01*
X5405647Y20000000D01*
X5390866Y20103214D01*
X5386596Y20133032D01*
X5386595Y20133035D01*
X5385323Y20141918D01*
X5325984Y20272428D01*
X5266471Y20341496D01*
X5238260Y20374237D01*
X5238257Y20374240D01*
X5232400Y20381037D01*
X5112095Y20459015D01*
X4974739Y20500093D01*
X4965763Y20500148D01*
X4965762Y20500148D01*
X4905555Y20500516D01*
X4831376Y20500969D01*
X4693529Y20461572D01*
X4572280Y20385070D01*
X4566340Y20378344D01*
X4566335Y20378340D01*
X4556209Y20366873D01*
X4496124Y20329053D01*
X4425131Y20329721D01*
X4372748Y20361105D01*
X4317324Y20416433D01*
X4317322Y20416434D01*
X4309092Y20424650D01*
X4282607Y20436359D01*
X4220486Y20463823D01*
X4220483Y20463824D01*
X4211817Y20467655D01*
X4202406Y20468752D01*
X4202403Y20468753D01*
X4197138Y20469366D01*
X4187415Y20470500D01*
X4011513Y20470500D01*
X3832586Y20470499D01*
X3828889Y20470059D01*
X3828884Y20470059D01*
X3822743Y20469328D01*
X3807690Y20467538D01*
X3710490Y20424363D01*
X3677996Y20391812D01*
X3643567Y20357324D01*
X3643566Y20357322D01*
X3635350Y20349092D01*
X3617287Y20308233D01*
X3615237Y20303597D01*
X3569399Y20249381D01*
X3501526Y20228554D01*
X3433167Y20247728D01*
X3384846Y20303397D01*
X3369086Y20338877D01*
X3364363Y20349510D01*
X3305583Y20408188D01*
X3297324Y20416433D01*
X3297322Y20416434D01*
X3289092Y20424650D01*
X3262607Y20436359D01*
X3200486Y20463823D01*
X3200483Y20463824D01*
X3191817Y20467655D01*
X3182406Y20468752D01*
X3182403Y20468753D01*
X3177138Y20469366D01*
X3167415Y20470500D01*
X2991513Y20470500D01*
X2812586Y20470499D01*
X2808889Y20470059D01*
X2808884Y20470059D01*
X2802743Y20469328D01*
X2787690Y20467538D01*
X2690490Y20424363D01*
X2657996Y20391812D01*
X2623567Y20357324D01*
X2623566Y20357322D01*
X2615350Y20349092D01*
X2610647Y20338454D01*
X2610646Y20338452D01*
X2576177Y20260486D01*
X2576176Y20260483D01*
X2572345Y20251817D01*
X2569500Y20227415D01*
X2569501Y19772586D01*
X2569941Y19768889D01*
X2569941Y19768884D01*
X2570432Y19764758D01*
X2572462Y19747690D01*
X2615637Y19650490D01*
X2690690Y19575568D01*
X2690908Y19575350D01*
X2688590Y19573028D01*
X2721471Y19532776D01*
X2729530Y19462238D01*
X2694560Y19394767D01*
X2644791Y19344911D01*
X2631869Y19326038D01*
X2607347Y19270570D01*
X2605509Y19256587D01*
X2609645Y19254000D01*
X3148000Y19254000D01*
X3216121Y19233998D01*
X3262614Y19180342D01*
X3274000Y19128000D01*
X3274000Y18586000D01*
X3253998Y18517879D01*
X3200342Y18471386D01*
X3148000Y18460000D01*
X2892000Y18460000D01*
X2823879Y18480002D01*
X2777386Y18533658D01*
X2766000Y18586000D01*
X2766000Y18727885D01*
X2761525Y18743124D01*
X2760135Y18744329D01*
X2752452Y18746000D01*
X2618066Y18746000D01*
X2604535Y18742027D01*
X2603846Y18737232D01*
X2632140Y18673532D01*
X2645101Y18654674D01*
X2710653Y18589236D01*
X2744733Y18526954D01*
X2739730Y18456134D01*
X2710810Y18411046D01*
X2644792Y18344911D01*
X2631869Y18326038D01*
X2607347Y18270570D01*
X2605509Y18256587D01*
X2609645Y18254000D01*
X3148000Y18254000D01*
X3216121Y18233998D01*
X3262614Y18180342D01*
X3274000Y18128000D01*
X3274000Y17581391D01*
X3277837Y17568323D01*
X3277837Y17497327D01*
X3263758Y17465998D01*
X3244000Y17434417D01*
X3244000Y16574083D01*
X3255959Y16533354D01*
X3255959Y16462357D01*
X3244066Y16435891D01*
X3244000Y16435411D01*
X3244000Y15574083D01*
X3247973Y15560552D01*
X3252768Y15559863D01*
X3278591Y15571333D01*
X3297440Y15584287D01*
X3356013Y15642963D01*
X3368933Y15661832D01*
X3384488Y15697017D01*
X3430326Y15751233D01*
X3498199Y15772061D01*
X3566558Y15752887D01*
X3614880Y15697220D01*
X3635637Y15650490D01*
X3650326Y15635827D01*
X3702676Y15583567D01*
X3702678Y15583566D01*
X3710908Y15575350D01*
X3721548Y15570646D01*
X3799514Y15536177D01*
X3799517Y15536176D01*
X3808183Y15532345D01*
X3817594Y15531248D01*
X3817597Y15531247D01*
X3822862Y15530634D01*
X3832585Y15529500D01*
X4008487Y15529500D01*
X4187414Y15529501D01*
X4191111Y15529941D01*
X4191116Y15529941D01*
X4197257Y15530672D01*
X4212310Y15532462D01*
X4309510Y15575637D01*
X4357216Y15623426D01*
X4371598Y15637833D01*
X4433881Y15671912D01*
X4504701Y15666909D01*
X4549800Y15635121D01*
X4550503Y15635907D01*
X4557190Y15629928D01*
X4562970Y15623052D01*
X4570447Y15618075D01*
X4656862Y15560552D01*
X4682313Y15543610D01*
X4819157Y15500858D01*
X4828129Y15500694D01*
X4828132Y15500693D01*
X4893463Y15499496D01*
X4962499Y15498230D01*
X4971533Y15500693D01*
X5092158Y15533579D01*
X5092160Y15533580D01*
X5100817Y15535940D01*
X5222991Y15610955D01*
X5251338Y15642272D01*
X5300890Y15697017D01*
X5319200Y15717246D01*
X5363684Y15809061D01*
X5377795Y15838186D01*
X5377795Y15838187D01*
X5381710Y15846267D01*
X5405496Y15987646D01*
X5405647Y16000000D01*
X5387709Y16125257D01*
X5386596Y16133032D01*
X5386595Y16133035D01*
X5385323Y16141918D01*
X5325984Y16272428D01*
X5278709Y16327293D01*
X5238260Y16374237D01*
X5238257Y16374240D01*
X5232400Y16381037D01*
X5213235Y16393459D01*
X5166952Y16447294D01*
X5157122Y16517607D01*
X5186867Y16582073D01*
X5208543Y16600396D01*
X5208436Y16600525D01*
X5215342Y16606259D01*
X5222991Y16610955D01*
X5232483Y16621441D01*
X5300890Y16697017D01*
X5319200Y16717246D01*
X5359741Y16800923D01*
X5377795Y16838186D01*
X5377795Y16838187D01*
X5381710Y16846267D01*
X5405496Y16987646D01*
X5405647Y17000000D01*
X5385323Y17141918D01*
X5325984Y17272428D01*
X5269341Y17338165D01*
X5238260Y17374237D01*
X5238257Y17374240D01*
X5232400Y17381037D01*
X5112095Y17459015D01*
X5103493Y17461587D01*
X5103490Y17461589D01*
X5019440Y17486725D01*
X4959906Y17525407D01*
X4930736Y17590134D01*
X4941192Y17660357D01*
X4966447Y17696537D01*
X5177505Y17907595D01*
X5239817Y17941621D01*
X5266600Y17944500D01*
X5667595Y17944500D01*
X5735716Y17924498D01*
X5782209Y17870842D01*
X5792531Y17834838D01*
X5798522Y17789021D01*
X5808784Y17765698D01*
X5847614Y17677452D01*
X5856262Y17657797D01*
X5890923Y17616563D01*
X5921085Y17580680D01*
X5949606Y17515664D01*
X5938450Y17445550D01*
X5919075Y17416198D01*
X5882017Y17374237D01*
X5862919Y17352612D01*
X5801989Y17222837D01*
X5796983Y17190686D01*
X5781941Y17094072D01*
X5779933Y17081177D01*
X5781097Y17072275D01*
X5781097Y17072272D01*
X5789228Y17010099D01*
X5798522Y16939021D01*
X5802139Y16930801D01*
X5847684Y16827293D01*
X5856262Y16807797D01*
X5862039Y16800924D01*
X5862040Y16800923D01*
X5909612Y16744329D01*
X5948512Y16698052D01*
X6067855Y16618610D01*
X6204699Y16575858D01*
X6213671Y16575694D01*
X6213674Y16575693D01*
X6279005Y16574496D01*
X6348041Y16573230D01*
X6357075Y16575693D01*
X6477700Y16608579D01*
X6477702Y16608580D01*
X6486359Y16610940D01*
X6608533Y16685955D01*
X6618730Y16697220D01*
X6698720Y16785593D01*
X6704742Y16792246D01*
X6767252Y16921267D01*
X6770133Y16919871D01*
X6801074Y16965628D01*
X6866326Y16993603D01*
X6881337Y16994500D01*
X7178508Y16994500D01*
X7246629Y16974498D01*
X7293122Y16920842D01*
X7302086Y16843914D01*
X7301207Y16839495D01*
X7300000Y16827242D01*
X7300001Y16672764D01*
X7301208Y16660501D01*
X7309908Y16616759D01*
X7319223Y16594270D01*
X7335137Y16570454D01*
X7356352Y16502701D01*
X7335138Y16430450D01*
X7311858Y16395609D01*
X7299500Y16333480D01*
X7299500Y16166520D01*
X7311858Y16104391D01*
X7318752Y16094073D01*
X7318753Y16094071D01*
X7351771Y16044656D01*
X7358935Y16033935D01*
X7369251Y16027042D01*
X7419071Y15993753D01*
X7419073Y15993752D01*
X7429391Y15986858D01*
X7491520Y15974500D01*
X8148500Y15974500D01*
X8216621Y15954498D01*
X8263114Y15900842D01*
X8274500Y15848500D01*
X8274500Y15191520D01*
X8286858Y15129391D01*
X8293752Y15119073D01*
X8293753Y15119071D01*
X8308054Y15097669D01*
X8333935Y15058935D01*
X8344251Y15052042D01*
X8394071Y15018753D01*
X8394073Y15018752D01*
X8404391Y15011858D01*
X8466520Y14999500D01*
X8633480Y14999500D01*
X8648919Y15002571D01*
X8719633Y14996243D01*
X8775700Y14952689D01*
X8799500Y14878992D01*
X8799500Y14805950D01*
X8779498Y14737829D01*
X8762595Y14716855D01*
X8499098Y14453358D01*
X8480005Y14437688D01*
X8479719Y14437497D01*
X8479717Y14437495D01*
X8469399Y14430601D01*
X8448729Y14399666D01*
X8435093Y14379258D01*
X8420929Y14358061D01*
X8420928Y14358059D01*
X8414034Y14347741D01*
X8394592Y14250000D01*
X8397013Y14237829D01*
X8397013Y14237828D01*
X8397079Y14237496D01*
X8399500Y14212915D01*
X8399500Y11505950D01*
X8379498Y11437829D01*
X8362595Y11416855D01*
X8058145Y11112405D01*
X7995833Y11078379D01*
X7969050Y11075500D01*
X7869203Y11075500D01*
X7801082Y11095502D01*
X7756100Y11145969D01*
X7718522Y11222507D01*
X7718521Y11222509D01*
X7713932Y11231855D01*
X7631350Y11314293D01*
X7526518Y11365536D01*
X7496027Y11369984D01*
X7462744Y11374840D01*
X7462740Y11374840D01*
X7458218Y11375500D01*
X6841782Y11375500D01*
X6837232Y11374830D01*
X6837229Y11374830D01*
X6782574Y11366784D01*
X6782573Y11366784D01*
X6772888Y11365358D01*
X6722992Y11340860D01*
X6677493Y11318522D01*
X6677491Y11318521D01*
X6668145Y11313932D01*
X6626727Y11272442D01*
X6596257Y11241918D01*
X6585707Y11231350D01*
X6581134Y11221994D01*
X6581133Y11221993D01*
X6570383Y11200000D01*
X6564434Y11187829D01*
X6544069Y11146167D01*
X6496184Y11093750D01*
X6430869Y11075500D01*
X5962085Y11075500D01*
X5937504Y11077921D01*
X5937172Y11077987D01*
X5937171Y11077987D01*
X5925000Y11080408D01*
X5827259Y11060966D01*
X5816942Y11054072D01*
X5816939Y11054071D01*
X5802465Y11044400D01*
X5768544Y11021735D01*
X5698543Y11000500D01*
X5410180Y11000500D01*
X5366278Y10991767D01*
X5355960Y10984873D01*
X5355958Y10984872D01*
X5338080Y10972926D01*
X5316496Y10958504D01*
X5309601Y10948185D01*
X5300826Y10939410D01*
X5298042Y10942194D01*
X5260667Y10910965D01*
X5210391Y10900500D01*
X5187090Y10900500D01*
X5162507Y10902921D01*
X5150000Y10905409D01*
X5052260Y10885966D01*
X4996656Y10848813D01*
X4969399Y10830601D01*
X4962505Y10820283D01*
X4962503Y10820281D01*
X4962316Y10820001D01*
X4946647Y10800908D01*
X4686677Y10540937D01*
X4540596Y10394856D01*
X4478283Y10360831D01*
X4407468Y10365895D01*
X4350632Y10408442D01*
X4325821Y10474962D01*
X4325500Y10483951D01*
X4325500Y10864820D01*
X4316767Y10908722D01*
X4309873Y10919040D01*
X4309872Y10919042D01*
X4290399Y10948185D01*
X4283504Y10958504D01*
X4261920Y10972926D01*
X4244042Y10984872D01*
X4244040Y10984873D01*
X4233722Y10991767D01*
X4189820Y11000500D01*
X3901457Y11000500D01*
X3831456Y11021734D01*
X3797535Y11044399D01*
X3783057Y11054073D01*
X3772741Y11060966D01*
X3675000Y11080408D01*
X3662829Y11077987D01*
X3662828Y11077987D01*
X3662496Y11077921D01*
X3637915Y11075500D01*
X3169203Y11075500D01*
X3101082Y11095502D01*
X3056100Y11145969D01*
X3018522Y11222507D01*
X3018521Y11222509D01*
X3013932Y11231855D01*
X2931350Y11314293D01*
X2826518Y11365536D01*
X2796027Y11369984D01*
X2762744Y11374840D01*
X2762740Y11374840D01*
X2758218Y11375500D01*
X2141782Y11375500D01*
X2137232Y11374830D01*
X2137229Y11374830D01*
X2082574Y11366784D01*
X2082573Y11366784D01*
X2072888Y11365358D01*
X2022992Y11340860D01*
X1977493Y11318522D01*
X1977491Y11318521D01*
X1968145Y11313932D01*
X1926727Y11272442D01*
X1896257Y11241918D01*
X1885707Y11231350D01*
X1881134Y11221994D01*
X1881133Y11221993D01*
X1870383Y11200000D01*
X1864434Y11187829D01*
X1844069Y11146167D01*
X1796184Y11093750D01*
X1730869Y11075500D01*
X1662085Y11075500D01*
X1637502Y11077921D01*
X1625000Y11080408D01*
X1612829Y11077987D01*
X1600327Y11075500D01*
X1600326Y11075500D01*
X1569315Y11069331D01*
X1539430Y11063387D01*
X1539429Y11063387D01*
X1527260Y11060966D01*
X1516944Y11054073D01*
X1516942Y11054072D01*
X1463833Y11018586D01*
X1396080Y10997372D01*
X1380412Y10998396D01*
X1374739Y11000093D01*
X1365767Y11000148D01*
X1365766Y11000148D01*
X1300745Y11000545D01*
X1231376Y11000969D01*
X1093529Y10961572D01*
X972280Y10885070D01*
X966338Y10878342D01*
X966337Y10878341D01*
X959754Y10870887D01*
X877377Y10777612D01*
X816447Y10647837D01*
X809133Y10600858D01*
X796993Y10522888D01*
X794391Y10506177D01*
X795555Y10497275D01*
X795555Y10497272D01*
X801933Y10448500D01*
X812980Y10364021D01*
X827299Y10331478D01*
X864669Y10246550D01*
X870720Y10232797D01*
X876497Y10225924D01*
X876498Y10225923D01*
X957190Y10129928D01*
X962970Y10123052D01*
X1082313Y10043610D01*
X1219157Y10000858D01*
X1228129Y10000694D01*
X1228132Y10000693D01*
X1293463Y9999496D01*
X1362499Y9998230D01*
X1371533Y10000693D01*
X1492158Y10033579D01*
X1492160Y10033580D01*
X1500817Y10035940D01*
X1622991Y10110955D01*
X1719200Y10217246D01*
X1762039Y10305666D01*
X1809741Y10358249D01*
X1878299Y10376695D01*
X1945947Y10355148D01*
X1956296Y10346619D01*
X1961280Y10343064D01*
X1968650Y10335707D01*
X2073482Y10284464D01*
X2096973Y10281037D01*
X2137256Y10275160D01*
X2137260Y10275160D01*
X2141782Y10274500D01*
X2758218Y10274500D01*
X2762768Y10275170D01*
X2762771Y10275170D01*
X2817426Y10283216D01*
X2817427Y10283216D01*
X2827112Y10284642D01*
X2889046Y10315050D01*
X2922507Y10331478D01*
X2922509Y10331479D01*
X2931855Y10336068D01*
X2986969Y10391278D01*
X3006935Y10411279D01*
X3006935Y10411280D01*
X3014293Y10418650D01*
X3019408Y10429113D01*
X3052724Y10497272D01*
X3055932Y10503834D01*
X3103816Y10556250D01*
X3169131Y10574500D01*
X3248500Y10574500D01*
X3316621Y10554498D01*
X3363114Y10500842D01*
X3374500Y10448500D01*
X3374500Y10435180D01*
X3383233Y10391278D01*
X3390129Y10380957D01*
X3393334Y10373220D01*
X3400924Y10302631D01*
X3393334Y10276780D01*
X3390129Y10269043D01*
X3383233Y10258722D01*
X3374500Y10214820D01*
X3374500Y9785180D01*
X3383233Y9741278D01*
X3390129Y9730957D01*
X3393334Y9723220D01*
X3400924Y9652631D01*
X3393334Y9626780D01*
X3390129Y9619043D01*
X3383233Y9608722D01*
X3374500Y9564820D01*
X3374500Y9551500D01*
X3354498Y9483379D01*
X3300842Y9436886D01*
X3248500Y9425500D01*
X3169203Y9425500D01*
X3101082Y9445502D01*
X3056100Y9495969D01*
X3018522Y9572507D01*
X3018521Y9572509D01*
X3013932Y9581855D01*
X2931350Y9664293D01*
X2826518Y9715536D01*
X2796027Y9719984D01*
X2762744Y9724840D01*
X2762740Y9724840D01*
X2758218Y9725500D01*
X2141782Y9725500D01*
X2137232Y9724830D01*
X2137229Y9724830D01*
X2082574Y9716784D01*
X2082573Y9716784D01*
X2072888Y9715358D01*
X2047162Y9702727D01*
X1977493Y9668522D01*
X1977491Y9668521D01*
X1968145Y9663932D01*
X1960787Y9656562D01*
X1960788Y9656562D01*
X1909460Y9605144D01*
X1885707Y9581350D01*
X1881134Y9571994D01*
X1881133Y9571993D01*
X1879029Y9567688D01*
X1834464Y9476518D01*
X1824500Y9408218D01*
X1824500Y8941782D01*
X1825170Y8937232D01*
X1825170Y8937229D01*
X1833216Y8882574D01*
X1834642Y8872888D01*
X1845466Y8850842D01*
X1879969Y8780568D01*
X1886068Y8768145D01*
X1968650Y8685707D01*
X2073482Y8634464D01*
X2103973Y8630016D01*
X2137256Y8625160D01*
X2137260Y8625160D01*
X2141782Y8624500D01*
X2758218Y8624500D01*
X2762768Y8625170D01*
X2762771Y8625170D01*
X2817426Y8633216D01*
X2817427Y8633216D01*
X2827112Y8634642D01*
X2877008Y8659140D01*
X2922507Y8681478D01*
X2922509Y8681479D01*
X2931855Y8686068D01*
X3014293Y8768650D01*
X3055932Y8853834D01*
X3103816Y8906250D01*
X3169131Y8924500D01*
X3637915Y8924500D01*
X3662496Y8922079D01*
X3662828Y8922013D01*
X3662829Y8922013D01*
X3675000Y8919592D01*
X3687171Y8922013D01*
X3760570Y8936613D01*
X3772741Y8939034D01*
X3802535Y8958942D01*
X3802537Y8958943D01*
X3831457Y8978266D01*
X3901457Y8999500D01*
X4189820Y8999500D01*
X4233722Y9008233D01*
X4244040Y9015127D01*
X4244042Y9015128D01*
X4273185Y9034601D01*
X4283504Y9041496D01*
X4290399Y9051815D01*
X4299174Y9060590D01*
X4301958Y9057806D01*
X4339333Y9089035D01*
X4389609Y9099500D01*
X4412915Y9099500D01*
X4437496Y9097079D01*
X4437828Y9097013D01*
X4437829Y9097013D01*
X4450000Y9094592D01*
X4547741Y9114034D01*
X4558058Y9120928D01*
X4558061Y9120929D01*
X4579388Y9135179D01*
X4620282Y9162503D01*
X4620285Y9162506D01*
X4630601Y9169399D01*
X4637493Y9179714D01*
X4637495Y9179716D01*
X4637686Y9180002D01*
X4653356Y9199096D01*
X5059405Y9605144D01*
X5121717Y9639169D01*
X5192533Y9634104D01*
X5249368Y9591557D01*
X5274179Y9525037D01*
X5274500Y9516048D01*
X5274500Y9135180D01*
X5283233Y9091278D01*
X5290127Y9080960D01*
X5290128Y9080958D01*
X5303738Y9060590D01*
X5316496Y9041496D01*
X5326815Y9034601D01*
X5355958Y9015128D01*
X5355960Y9015127D01*
X5366278Y9008233D01*
X5410180Y8999500D01*
X5698543Y8999500D01*
X5768543Y8978266D01*
X5797463Y8958943D01*
X5797465Y8958942D01*
X5827259Y8939034D01*
X5925000Y8919592D01*
X5937171Y8922013D01*
X5937172Y8922013D01*
X5937504Y8922079D01*
X5962085Y8924500D01*
X6430797Y8924500D01*
X6498918Y8904498D01*
X6543900Y8854031D01*
X6579969Y8780568D01*
X6586068Y8768145D01*
X6668650Y8685707D01*
X6773482Y8634464D01*
X6803973Y8630016D01*
X6837256Y8625160D01*
X6837260Y8625160D01*
X6841782Y8624500D01*
X7458218Y8624500D01*
X7462768Y8625170D01*
X7462771Y8625170D01*
X7517426Y8633216D01*
X7517427Y8633216D01*
X7527112Y8634642D01*
X7577008Y8659140D01*
X7622507Y8681478D01*
X7622509Y8681479D01*
X7631855Y8686068D01*
X7714293Y8768650D01*
X7755932Y8853834D01*
X7803816Y8906250D01*
X7869131Y8924500D01*
X9286586Y8924500D01*
X9354707Y8904498D01*
X9401200Y8850842D01*
X9411304Y8780568D01*
X9381810Y8715988D01*
X9327093Y8679188D01*
X9293668Y8667841D01*
X9110178Y8569753D01*
X8945119Y8443082D01*
X8802901Y8291214D01*
X8800039Y8286930D01*
X8800036Y8286926D01*
X8711523Y8154429D01*
X8687324Y8118205D01*
X8685195Y8113505D01*
X8685194Y8113503D01*
X8634796Y8002241D01*
X8601476Y7928680D01*
X8600314Y7929207D01*
X8562078Y7876663D01*
X8495900Y7850954D01*
X8485211Y7850500D01*
X5869121Y7850500D01*
X5801000Y7870502D01*
X5764297Y7913190D01*
X5761572Y7911471D01*
X5704301Y8002241D01*
X5685070Y8032720D01*
X5577612Y8127623D01*
X5447837Y8188553D01*
X5338991Y8205500D01*
X5264060Y8205500D01*
X5236129Y8201500D01*
X5234544Y8201273D01*
X5216682Y8200000D01*
X4384066Y8200000D01*
X4364682Y8201500D01*
X4343795Y8204752D01*
X4338991Y8205500D01*
X4264060Y8205500D01*
X4236129Y8201500D01*
X4234544Y8201273D01*
X4216682Y8200000D01*
X3384066Y8200000D01*
X3364682Y8201500D01*
X3343795Y8204752D01*
X3338991Y8205500D01*
X3264060Y8205500D01*
X3236129Y8201500D01*
X3234544Y8201273D01*
X3216682Y8200000D01*
X2384066Y8200000D01*
X2364682Y8201500D01*
X2343795Y8204752D01*
X2338991Y8205500D01*
X2264060Y8205500D01*
X2236129Y8201500D01*
X2234544Y8201273D01*
X2216682Y8200000D01*
X1384066Y8200000D01*
X1364682Y8201500D01*
X1343795Y8204752D01*
X1338991Y8205500D01*
X1264060Y8205500D01*
X1234544Y8201273D01*
X1166968Y8191596D01*
X1166965Y8191595D01*
X1158082Y8190323D01*
X1027572Y8130984D01*
X1020768Y8125122D01*
X1020769Y8125122D01*
X925763Y8043260D01*
X925760Y8043257D01*
X918963Y8037400D01*
X840985Y7917095D01*
X838010Y7919023D01*
X802467Y7878356D01*
X734261Y7858645D01*
X720691Y7859436D01*
X669579Y7865195D01*
X642072Y7871474D01*
X531593Y7910132D01*
X506180Y7922369D01*
X407057Y7984651D01*
X385002Y8002241D01*
X302241Y8085002D01*
X284651Y8107057D01*
X222369Y8206180D01*
X210132Y8231593D01*
X171474Y8342072D01*
X165195Y8369580D01*
X152308Y8483957D01*
X152170Y8486417D01*
X155809Y8500000D01*
X151516Y8516022D01*
X151516Y8528685D01*
X150500Y8536402D01*
X150500Y12581085D01*
X1800000Y12581085D01*
X1800369Y12574271D01*
X1805789Y12524379D01*
X1809414Y12509133D01*
X1853767Y12390823D01*
X1862299Y12375237D01*
X1937430Y12274991D01*
X1949991Y12262430D01*
X2050237Y12187299D01*
X2065823Y12178767D01*
X2184133Y12134414D01*
X2199379Y12130789D01*
X2249271Y12125369D01*
X2256085Y12125000D01*
X2677885Y12125000D01*
X2693124Y12129475D01*
X2694329Y12130865D01*
X2696000Y12138548D01*
X2696000Y12143115D01*
X3204000Y12143115D01*
X3208475Y12127876D01*
X3209865Y12126671D01*
X3217548Y12125000D01*
X3643915Y12125000D01*
X3650729Y12125369D01*
X3700621Y12130789D01*
X3715867Y12134414D01*
X3834177Y12178767D01*
X3849763Y12187299D01*
X3950009Y12262430D01*
X3962570Y12274991D01*
X4037701Y12375237D01*
X4046233Y12390823D01*
X4090586Y12509133D01*
X4094211Y12524379D01*
X4099631Y12574271D01*
X4100000Y12581085D01*
X5730000Y12581085D01*
X5730369Y12574271D01*
X5735789Y12524379D01*
X5739414Y12509133D01*
X5783767Y12390823D01*
X5792299Y12375237D01*
X5867430Y12274991D01*
X5879991Y12262430D01*
X5980237Y12187299D01*
X5995823Y12178767D01*
X6114133Y12134414D01*
X6129379Y12130789D01*
X6179271Y12125369D01*
X6186085Y12125000D01*
X6657885Y12125000D01*
X6673124Y12129475D01*
X6674329Y12130865D01*
X6676000Y12138548D01*
X6676000Y12143115D01*
X7184000Y12143115D01*
X7188475Y12127876D01*
X7189865Y12126671D01*
X7197548Y12125000D01*
X7673915Y12125000D01*
X7680729Y12125369D01*
X7730621Y12130789D01*
X7745867Y12134414D01*
X7864177Y12178767D01*
X7879763Y12187299D01*
X7980009Y12262430D01*
X7992570Y12274991D01*
X8067701Y12375237D01*
X8076233Y12390823D01*
X8120586Y12509133D01*
X8124211Y12524379D01*
X8129631Y12574271D01*
X8130000Y12581085D01*
X8130000Y12702885D01*
X8125525Y12718124D01*
X8124135Y12719329D01*
X8116452Y12721000D01*
X7202115Y12721000D01*
X7186876Y12716525D01*
X7185671Y12715135D01*
X7184000Y12707452D01*
X7184000Y12143115D01*
X6676000Y12143115D01*
X6676000Y12702885D01*
X6671525Y12718124D01*
X6670135Y12719329D01*
X6662452Y12721000D01*
X5748115Y12721000D01*
X5732876Y12716525D01*
X5731671Y12715135D01*
X5730000Y12707452D01*
X5730000Y12581085D01*
X4100000Y12581085D01*
X4100000Y12702885D01*
X4095525Y12718124D01*
X4094135Y12719329D01*
X4086452Y12721000D01*
X3222115Y12721000D01*
X3206876Y12716525D01*
X3205671Y12715135D01*
X3204000Y12707452D01*
X3204000Y12143115D01*
X2696000Y12143115D01*
X2696000Y12702885D01*
X2691525Y12718124D01*
X2690135Y12719329D01*
X2682452Y12721000D01*
X1818115Y12721000D01*
X1802876Y12716525D01*
X1801671Y12715135D01*
X1800000Y12707452D01*
X1800000Y12581085D01*
X150500Y12581085D01*
X150500Y13247115D01*
X1800000Y13247115D01*
X1804475Y13231876D01*
X1805865Y13230671D01*
X1813548Y13229000D01*
X2677885Y13229000D01*
X2693124Y13233475D01*
X2694329Y13234865D01*
X2696000Y13242548D01*
X2696000Y13247115D01*
X3204000Y13247115D01*
X3208475Y13231876D01*
X3209865Y13230671D01*
X3217548Y13229000D01*
X4081885Y13229000D01*
X4097124Y13233475D01*
X4098329Y13234865D01*
X4100000Y13242548D01*
X4100000Y13247115D01*
X5730000Y13247115D01*
X5734475Y13231876D01*
X5735865Y13230671D01*
X5743548Y13229000D01*
X6657885Y13229000D01*
X6673124Y13233475D01*
X6674329Y13234865D01*
X6676000Y13242548D01*
X6676000Y13247115D01*
X7184000Y13247115D01*
X7188475Y13231876D01*
X7189865Y13230671D01*
X7197548Y13229000D01*
X8111885Y13229000D01*
X8127124Y13233475D01*
X8128329Y13234865D01*
X8130000Y13242548D01*
X8130000Y13368915D01*
X8129631Y13375729D01*
X8124211Y13425621D01*
X8120586Y13440867D01*
X8076233Y13559177D01*
X8067701Y13574763D01*
X7992570Y13675009D01*
X7980009Y13687570D01*
X7879763Y13762701D01*
X7864177Y13771233D01*
X7745867Y13815586D01*
X7730621Y13819211D01*
X7680729Y13824631D01*
X7673915Y13825000D01*
X7202115Y13825000D01*
X7186876Y13820525D01*
X7185671Y13819135D01*
X7184000Y13811452D01*
X7184000Y13247115D01*
X6676000Y13247115D01*
X6676000Y13806885D01*
X6671525Y13822124D01*
X6670135Y13823329D01*
X6649217Y13827879D01*
X6649653Y13829883D01*
X6598162Y13845002D01*
X6551669Y13898658D01*
X6541565Y13968932D01*
X6571059Y14033512D01*
X6618065Y14067409D01*
X6620815Y14068548D01*
X6690233Y14097302D01*
X6810451Y14189549D01*
X6902698Y14309767D01*
X6960687Y14449764D01*
X6980466Y14600000D01*
X6960687Y14750236D01*
X6955975Y14761613D01*
X6934893Y14812507D01*
X6902698Y14890233D01*
X6810451Y15010451D01*
X6690233Y15102698D01*
X6550236Y15160687D01*
X6542048Y15161765D01*
X6441807Y15174962D01*
X6441806Y15174962D01*
X6437720Y15175500D01*
X6362280Y15175500D01*
X6358194Y15174962D01*
X6358193Y15174962D01*
X6257952Y15161765D01*
X6249764Y15160687D01*
X6109767Y15102698D01*
X5989549Y15010451D01*
X5897302Y14890233D01*
X5865107Y14812507D01*
X5844026Y14761613D01*
X5839313Y14750236D01*
X5819534Y14600000D01*
X5839313Y14449764D01*
X5897302Y14309767D01*
X5989549Y14189549D01*
X6109767Y14097302D01*
X6190689Y14063783D01*
X6245969Y14019234D01*
X6268390Y13951871D01*
X6250832Y13883079D01*
X6198869Y13834701D01*
X6156077Y13822111D01*
X6129379Y13819211D01*
X6114133Y13815586D01*
X5995823Y13771233D01*
X5980237Y13762701D01*
X5879991Y13687570D01*
X5867430Y13675009D01*
X5792299Y13574763D01*
X5783767Y13559177D01*
X5739414Y13440867D01*
X5735789Y13425621D01*
X5730369Y13375729D01*
X5730000Y13368915D01*
X5730000Y13247115D01*
X4100000Y13247115D01*
X4100000Y13368915D01*
X4099631Y13375729D01*
X4094211Y13425621D01*
X4090586Y13440867D01*
X4046233Y13559177D01*
X4037701Y13574763D01*
X3962570Y13675009D01*
X3950009Y13687570D01*
X3849763Y13762701D01*
X3834177Y13771233D01*
X3715867Y13815586D01*
X3700621Y13819211D01*
X3650729Y13824631D01*
X3643915Y13825000D01*
X3222115Y13825000D01*
X3206876Y13820525D01*
X3205671Y13819135D01*
X3204000Y13811452D01*
X3204000Y13247115D01*
X2696000Y13247115D01*
X2696000Y13806885D01*
X2691525Y13822124D01*
X2690135Y13823329D01*
X2682452Y13825000D01*
X2256085Y13825000D01*
X2249271Y13824631D01*
X2199379Y13819211D01*
X2184133Y13815586D01*
X2065823Y13771233D01*
X2050237Y13762701D01*
X1949991Y13687570D01*
X1937430Y13675009D01*
X1862299Y13574763D01*
X1853767Y13559177D01*
X1809414Y13440867D01*
X1805789Y13425621D01*
X1800369Y13375729D01*
X1800000Y13368915D01*
X1800000Y13247115D01*
X150500Y13247115D01*
X150500Y15737232D01*
X2577654Y15737232D01*
X2611331Y15661413D01*
X2624289Y15642558D01*
X2682963Y15583987D01*
X2701833Y15571066D01*
X2719432Y15563285D01*
X2733412Y15561448D01*
X2736000Y15565584D01*
X2736000Y15727885D01*
X2731525Y15743124D01*
X2730135Y15744329D01*
X2722452Y15746000D01*
X2591874Y15746000D01*
X2578343Y15742027D01*
X2577654Y15737232D01*
X150500Y15737232D01*
X150500Y16737232D01*
X2577654Y16737232D01*
X2611331Y16661413D01*
X2624289Y16642558D01*
X2677725Y16589215D01*
X2711804Y16526932D01*
X2706801Y16456112D01*
X2677880Y16411024D01*
X2623986Y16357037D01*
X2611065Y16338165D01*
X2581182Y16270571D01*
X2579344Y16256587D01*
X2583479Y16254000D01*
X2717885Y16254000D01*
X2733124Y16258475D01*
X2734329Y16259865D01*
X2736000Y16267548D01*
X2736000Y16425917D01*
X2724041Y16466646D01*
X2724041Y16537643D01*
X2735934Y16564109D01*
X2736000Y16564589D01*
X2736000Y16727885D01*
X2731525Y16743124D01*
X2730135Y16744329D01*
X2722452Y16746000D01*
X2591874Y16746000D01*
X2578343Y16742027D01*
X2577654Y16737232D01*
X150500Y16737232D01*
X150500Y17256587D01*
X2579344Y17256587D01*
X2583479Y17254000D01*
X2717885Y17254000D01*
X2733124Y17258475D01*
X2734329Y17259865D01*
X2736000Y17267548D01*
X2736000Y17425917D01*
X2732160Y17438995D01*
X2732160Y17509992D01*
X2746240Y17541323D01*
X2766000Y17572906D01*
X2766000Y17727885D01*
X2761525Y17743124D01*
X2760135Y17744329D01*
X2752452Y17746000D01*
X2618066Y17746000D01*
X2604535Y17742027D01*
X2603846Y17737232D01*
X2632140Y17673532D01*
X2645099Y17654677D01*
X2694833Y17605029D01*
X2728912Y17542747D01*
X2723909Y17471926D01*
X2688364Y17426355D01*
X2690778Y17423945D01*
X2623986Y17357037D01*
X2611065Y17338165D01*
X2581182Y17270571D01*
X2579344Y17256587D01*
X150500Y17256587D01*
X150500Y21631085D01*
X1800000Y21631085D01*
X1800369Y21624271D01*
X1805789Y21574379D01*
X1809414Y21559133D01*
X1853767Y21440823D01*
X1862299Y21425237D01*
X1937430Y21324991D01*
X1949991Y21312430D01*
X2050237Y21237299D01*
X2065823Y21228767D01*
X2184133Y21184414D01*
X2199379Y21180789D01*
X2249271Y21175369D01*
X2256085Y21175000D01*
X2677885Y21175000D01*
X2693124Y21179475D01*
X2694329Y21180865D01*
X2696000Y21188548D01*
X2696000Y21193115D01*
X3204000Y21193115D01*
X3208475Y21177876D01*
X3209865Y21176671D01*
X3217548Y21175000D01*
X3643915Y21175000D01*
X3650729Y21175369D01*
X3700621Y21180789D01*
X3715867Y21184414D01*
X3834177Y21228767D01*
X3849763Y21237299D01*
X3950009Y21312430D01*
X3962570Y21324991D01*
X4037701Y21425237D01*
X4046233Y21440823D01*
X4090586Y21559133D01*
X4094211Y21574379D01*
X4099631Y21624271D01*
X4100000Y21631085D01*
X5730000Y21631085D01*
X5730369Y21624271D01*
X5735789Y21574379D01*
X5739414Y21559133D01*
X5783767Y21440823D01*
X5792299Y21425237D01*
X5867430Y21324991D01*
X5879991Y21312430D01*
X5980237Y21237299D01*
X5995823Y21228767D01*
X6114133Y21184414D01*
X6129379Y21180789D01*
X6156077Y21177889D01*
X6221639Y21150648D01*
X6262066Y21092285D01*
X6264522Y21021331D01*
X6228227Y20960313D01*
X6190690Y20936218D01*
X6109767Y20902698D01*
X5989549Y20810451D01*
X5897302Y20690233D01*
X5839313Y20550236D01*
X5819534Y20400000D01*
X5839313Y20249764D01*
X5897302Y20109767D01*
X5989549Y19989549D01*
X6109767Y19897302D01*
X6249764Y19839313D01*
X6257952Y19838235D01*
X6320496Y19830001D01*
X6362280Y19824500D01*
X6437720Y19824500D01*
X6479505Y19830001D01*
X6542048Y19838235D01*
X6550236Y19839313D01*
X6690233Y19897302D01*
X6810451Y19989549D01*
X6902698Y20109767D01*
X6960687Y20249764D01*
X6980466Y20400000D01*
X6960687Y20550236D01*
X6902698Y20690233D01*
X6810451Y20810451D01*
X6690233Y20902698D01*
X6618065Y20932591D01*
X6562784Y20977139D01*
X6540363Y21044503D01*
X6557921Y21113294D01*
X6609883Y21161672D01*
X6640773Y21168972D01*
X6640502Y21169896D01*
X6673124Y21179475D01*
X6674329Y21180865D01*
X6676000Y21188548D01*
X6676000Y21752885D01*
X6671525Y21768124D01*
X6670135Y21769329D01*
X6662452Y21771000D01*
X5748115Y21771000D01*
X5732876Y21766525D01*
X5731671Y21765135D01*
X5730000Y21757452D01*
X5730000Y21631085D01*
X4100000Y21631085D01*
X4100000Y21752885D01*
X4095525Y21768124D01*
X4094135Y21769329D01*
X4086452Y21771000D01*
X3222115Y21771000D01*
X3206876Y21766525D01*
X3205671Y21765135D01*
X3204000Y21757452D01*
X3204000Y21193115D01*
X2696000Y21193115D01*
X2696000Y21752885D01*
X2691525Y21768124D01*
X2690135Y21769329D01*
X2682452Y21771000D01*
X1818115Y21771000D01*
X1802876Y21766525D01*
X1801671Y21765135D01*
X1800000Y21757452D01*
X1800000Y21631085D01*
X150500Y21631085D01*
X150500Y22297115D01*
X1800000Y22297115D01*
X1804475Y22281876D01*
X1805865Y22280671D01*
X1813548Y22279000D01*
X2677885Y22279000D01*
X2693124Y22283475D01*
X2694329Y22284865D01*
X2696000Y22292548D01*
X2696000Y22297115D01*
X3204000Y22297115D01*
X3208475Y22281876D01*
X3209865Y22280671D01*
X3217548Y22279000D01*
X4081885Y22279000D01*
X4097124Y22283475D01*
X4098329Y22284865D01*
X4100000Y22292548D01*
X4100000Y22297115D01*
X5730000Y22297115D01*
X5734475Y22281876D01*
X5735865Y22280671D01*
X5743548Y22279000D01*
X6657885Y22279000D01*
X6673124Y22283475D01*
X6674329Y22284865D01*
X6676000Y22292548D01*
X6676000Y22856885D01*
X6671525Y22872124D01*
X6670135Y22873329D01*
X6662452Y22875000D01*
X6186085Y22875000D01*
X6179271Y22874631D01*
X6129379Y22869211D01*
X6114133Y22865586D01*
X5995823Y22821233D01*
X5980237Y22812701D01*
X5879991Y22737570D01*
X5867430Y22725009D01*
X5792299Y22624763D01*
X5783767Y22609177D01*
X5739414Y22490867D01*
X5735789Y22475621D01*
X5730369Y22425729D01*
X5730000Y22418915D01*
X5730000Y22297115D01*
X4100000Y22297115D01*
X4100000Y22418915D01*
X4099631Y22425729D01*
X4094211Y22475621D01*
X4090586Y22490867D01*
X4046233Y22609177D01*
X4037701Y22624763D01*
X3962570Y22725009D01*
X3950009Y22737570D01*
X3849763Y22812701D01*
X3834177Y22821233D01*
X3715867Y22865586D01*
X3700621Y22869211D01*
X3650729Y22874631D01*
X3643915Y22875000D01*
X3222115Y22875000D01*
X3206876Y22870525D01*
X3205671Y22869135D01*
X3204000Y22861452D01*
X3204000Y22297115D01*
X2696000Y22297115D01*
X2696000Y22856885D01*
X2691525Y22872124D01*
X2690135Y22873329D01*
X2682452Y22875000D01*
X2256085Y22875000D01*
X2249271Y22874631D01*
X2199379Y22869211D01*
X2184133Y22865586D01*
X2065823Y22821233D01*
X2050237Y22812701D01*
X1949991Y22737570D01*
X1937430Y22725009D01*
X1862299Y22624763D01*
X1853767Y22609177D01*
X1809414Y22490867D01*
X1805789Y22475621D01*
X1800369Y22425729D01*
X1800000Y22418915D01*
X1800000Y22297115D01*
X150500Y22297115D01*
X150500Y23216587D01*
X8368772Y23216587D01*
X8372908Y23214000D01*
X8527885Y23214000D01*
X8543124Y23218475D01*
X8544329Y23219865D01*
X8546000Y23227548D01*
X8546000Y23361934D01*
X8542027Y23375465D01*
X8537232Y23376154D01*
X8473532Y23347860D01*
X8454677Y23334901D01*
X8394791Y23274911D01*
X8381869Y23256038D01*
X8370610Y23230570D01*
X8368772Y23216587D01*
X150500Y23216587D01*
X150500Y23906177D01*
X15294391Y23906177D01*
X15295555Y23897275D01*
X15295555Y23897272D01*
X15296814Y23887646D01*
X15312980Y23764021D01*
X15370720Y23632797D01*
X15376497Y23625924D01*
X15376498Y23625923D01*
X15383792Y23617246D01*
X15462970Y23523052D01*
X15582313Y23443610D01*
X15719157Y23400858D01*
X15728129Y23400694D01*
X15728132Y23400693D01*
X15793463Y23399496D01*
X15862499Y23398230D01*
X15871533Y23400693D01*
X15992158Y23433579D01*
X15992160Y23433580D01*
X16000817Y23435940D01*
X16122991Y23510955D01*
X16219200Y23617246D01*
X16281710Y23746267D01*
X16305496Y23887646D01*
X16305647Y23900000D01*
X16285323Y24041918D01*
X16225984Y24172428D01*
X16201487Y24200858D01*
X16138260Y24274237D01*
X16138257Y24274240D01*
X16132400Y24281037D01*
X16012095Y24359015D01*
X15874739Y24400093D01*
X15865763Y24400148D01*
X15865762Y24400148D01*
X15805555Y24400516D01*
X15731376Y24400969D01*
X15593529Y24361572D01*
X15472280Y24285070D01*
X15466338Y24278342D01*
X15466337Y24278341D01*
X15428890Y24235940D01*
X15377377Y24177612D01*
X15316447Y24047837D01*
X15294391Y23906177D01*
X150500Y23906177D01*
X150500Y24706177D01*
X10494391Y24706177D01*
X10495555Y24697275D01*
X10495555Y24697272D01*
X10496814Y24687646D01*
X10512980Y24564021D01*
X10570720Y24432797D01*
X10576497Y24425924D01*
X10576498Y24425923D01*
X10583792Y24417246D01*
X10662970Y24323052D01*
X10782313Y24243610D01*
X10919157Y24200858D01*
X10928129Y24200694D01*
X10928132Y24200693D01*
X10993463Y24199496D01*
X11062499Y24198230D01*
X11071533Y24200693D01*
X11192158Y24233579D01*
X11192160Y24233580D01*
X11200817Y24235940D01*
X11322991Y24310955D01*
X11419200Y24417246D01*
X11481710Y24546267D01*
X11505496Y24687646D01*
X11505647Y24700000D01*
X11485323Y24841918D01*
X11425984Y24972428D01*
X11407598Y24993766D01*
X11338260Y25074237D01*
X11338257Y25074240D01*
X11332400Y25081037D01*
X11212095Y25159015D01*
X11074739Y25200093D01*
X11065763Y25200148D01*
X11065762Y25200148D01*
X11005555Y25200516D01*
X10931376Y25200969D01*
X10793529Y25161572D01*
X10672280Y25085070D01*
X10577377Y24977612D01*
X10516447Y24847837D01*
X10494391Y24706177D01*
X150500Y24706177D01*
X150500Y26463598D01*
X151516Y26471315D01*
X151516Y26483978D01*
X155809Y26500000D01*
X152170Y26513583D01*
X152308Y26516043D01*
X165195Y26630420D01*
X171474Y26657928D01*
X210132Y26768407D01*
X222369Y26793820D01*
X284651Y26892943D01*
X302241Y26914998D01*
X385002Y26997759D01*
X407057Y27015349D01*
X506180Y27077631D01*
X531593Y27089868D01*
X642072Y27128526D01*
X669578Y27134805D01*
X682202Y27136228D01*
X721452Y27140650D01*
X791382Y27128401D01*
X842119Y27082678D01*
X914930Y26967280D01*
X1022388Y26872377D01*
X1152163Y26811447D01*
X1261009Y26794500D01*
X1335940Y26794500D01*
X1365456Y26798727D01*
X1383318Y26800000D01*
X2215934Y26800000D01*
X2235318Y26798500D01*
X2261009Y26794500D01*
X2335940Y26794500D01*
X2365456Y26798727D01*
X2383318Y26800000D01*
X3215934Y26800000D01*
X3235318Y26798500D01*
X3261009Y26794500D01*
X3335940Y26794500D01*
X3365456Y26798727D01*
X3383318Y26800000D01*
X4215934Y26800000D01*
X4235318Y26798500D01*
X4261009Y26794500D01*
X4335940Y26794500D01*
X4365456Y26798727D01*
X4383318Y26800000D01*
X5215934Y26800000D01*
X5235318Y26798500D01*
X5261009Y26794500D01*
X5335940Y26794500D01*
X5377339Y26800429D01*
X5433032Y26808404D01*
X5433035Y26808405D01*
X5441918Y26809677D01*
X5572428Y26869016D01*
X5600192Y26892939D01*
X5674237Y26956740D01*
X5674240Y26956743D01*
X5681037Y26962600D01*
X5759015Y27082905D01*
X5759845Y27082367D01*
X5801312Y27129798D01*
X5868964Y27149500D01*
X8485211Y27149500D01*
X8553332Y27129498D01*
G37*
%TD.AperFunction*%
%TA.AperFunction,Conductor*%
G36*
X17204882Y13480829D02*
G01*
X17256852Y13432459D01*
X17274500Y13368148D01*
X17274500Y11380952D01*
X17254498Y11312831D01*
X17237596Y11291857D01*
X16640317Y10694577D01*
X15758145Y9812405D01*
X15695832Y9778380D01*
X15669049Y9775500D01*
X11484384Y9775500D01*
X11416263Y9795502D01*
X11369770Y9849158D01*
X11359666Y9919432D01*
X11390968Y9986054D01*
X11413176Y10010589D01*
X11413181Y10010596D01*
X11419200Y10017246D01*
X11468051Y10118075D01*
X11477795Y10138186D01*
X11477795Y10138187D01*
X11481710Y10146267D01*
X11505496Y10287646D01*
X11505647Y10300000D01*
X11497305Y10358249D01*
X11486596Y10433032D01*
X11486595Y10433035D01*
X11485323Y10441918D01*
X11425984Y10572428D01*
X11401487Y10600858D01*
X11338260Y10674237D01*
X11338257Y10674240D01*
X11332400Y10681037D01*
X11212095Y10759015D01*
X11074739Y10800093D01*
X11065763Y10800148D01*
X11065762Y10800148D01*
X11005555Y10800516D01*
X10931376Y10800969D01*
X10793529Y10761572D01*
X10672280Y10685070D01*
X10666338Y10678342D01*
X10666337Y10678341D01*
X10631562Y10638965D01*
X10577377Y10577612D01*
X10516447Y10447837D01*
X10514142Y10433032D01*
X10497322Y10325000D01*
X10494391Y10306177D01*
X10495555Y10297275D01*
X10495555Y10297272D01*
X10502188Y10246550D01*
X10512980Y10164021D01*
X10570720Y10032797D01*
X10576497Y10025924D01*
X10576498Y10025923D01*
X10583792Y10017246D01*
X10610012Y9986054D01*
X10612936Y9982575D01*
X10641457Y9917560D01*
X10630301Y9847445D01*
X10583009Y9794493D01*
X10516485Y9775500D01*
X9231440Y9775500D01*
X9163319Y9795502D01*
X9116826Y9849158D01*
X9105707Y9893308D01*
X9105588Y9895140D01*
X9105647Y9900000D01*
X9099003Y9946392D01*
X9086596Y10033032D01*
X9086595Y10033035D01*
X9085323Y10041918D01*
X9025984Y10172428D01*
X8979890Y10225923D01*
X8938260Y10274237D01*
X8938257Y10274240D01*
X8932400Y10281037D01*
X8812095Y10359015D01*
X8784372Y10367306D01*
X8724838Y10405987D01*
X8695668Y10470714D01*
X8706122Y10540937D01*
X8731378Y10577118D01*
X9150902Y10996642D01*
X9169995Y11012312D01*
X9170284Y11012505D01*
X9170286Y11012507D01*
X9180601Y11019399D01*
X9221365Y11080408D01*
X9222997Y11082851D01*
X9229073Y11091943D01*
X9229073Y11091944D01*
X9235966Y11102259D01*
X9236746Y11106177D01*
X15294391Y11106177D01*
X15295555Y11097275D01*
X15295555Y11097272D01*
X15302469Y11044400D01*
X15312980Y10964021D01*
X15316597Y10955801D01*
X15356630Y10864820D01*
X15370720Y10832797D01*
X15376497Y10825924D01*
X15376498Y10825923D01*
X15381241Y10820281D01*
X15462970Y10723052D01*
X15582313Y10643610D01*
X15719157Y10600858D01*
X15728129Y10600694D01*
X15728132Y10600693D01*
X15793463Y10599496D01*
X15862499Y10598230D01*
X15871533Y10600693D01*
X15992158Y10633579D01*
X15992160Y10633580D01*
X16000817Y10635940D01*
X16122991Y10710955D01*
X16219200Y10817246D01*
X16281710Y10946267D01*
X16305496Y11087646D01*
X16305647Y11100000D01*
X16289583Y11212172D01*
X16286596Y11233032D01*
X16286595Y11233035D01*
X16285323Y11241918D01*
X16225984Y11372428D01*
X16169631Y11437829D01*
X16138260Y11474237D01*
X16138257Y11474240D01*
X16132400Y11481037D01*
X16012095Y11559015D01*
X15874739Y11600093D01*
X15865763Y11600148D01*
X15865762Y11600148D01*
X15805555Y11600516D01*
X15731376Y11600969D01*
X15593529Y11561572D01*
X15472280Y11485070D01*
X15377377Y11377612D01*
X15316447Y11247837D01*
X15315066Y11238965D01*
X15297651Y11127112D01*
X15294391Y11106177D01*
X9236746Y11106177D01*
X9238511Y11115050D01*
X9252987Y11187829D01*
X9255408Y11200000D01*
X9252921Y11212504D01*
X9250500Y11237085D01*
X9250500Y12650526D01*
X9270502Y12718647D01*
X9324158Y12765140D01*
X9394432Y12775244D01*
X9433702Y12762793D01*
X9459601Y12749597D01*
X9459605Y12749596D01*
X9468438Y12745095D01*
X9600000Y12724258D01*
X9731562Y12745095D01*
X9747821Y12753379D01*
X9842797Y12801772D01*
X9912574Y12814876D01*
X9957203Y12801772D01*
X10052180Y12753379D01*
X10068438Y12745095D01*
X10200000Y12724258D01*
X10331562Y12745095D01*
X10347821Y12753379D01*
X10442797Y12801772D01*
X10512574Y12814876D01*
X10557203Y12801772D01*
X10652180Y12753379D01*
X10668438Y12745095D01*
X10800000Y12724258D01*
X10931562Y12745095D01*
X10947821Y12753379D01*
X11041413Y12801067D01*
X11041412Y12801067D01*
X11050245Y12805567D01*
X11144433Y12899755D01*
X11204905Y13018438D01*
X11225742Y13150000D01*
X11224191Y13159793D01*
X11224191Y13167359D01*
X11244193Y13235480D01*
X11297849Y13281973D01*
X11368123Y13292077D01*
X11432703Y13262583D01*
X11439286Y13256454D01*
X12346642Y12349098D01*
X12362312Y12330005D01*
X12362505Y12329716D01*
X12362507Y12329714D01*
X12369399Y12319399D01*
X12379714Y12312507D01*
X12422464Y12283943D01*
X12452260Y12264034D01*
X12550000Y12244592D01*
X12562171Y12247013D01*
X12562172Y12247013D01*
X12562504Y12247079D01*
X12587085Y12249500D01*
X14847915Y12249500D01*
X14872496Y12247079D01*
X14872828Y12247013D01*
X14872829Y12247013D01*
X14885000Y12244592D01*
X14897171Y12247013D01*
X14970570Y12261613D01*
X14982741Y12264034D01*
X15012536Y12283943D01*
X15065601Y12319399D01*
X15072493Y12329714D01*
X15072495Y12329716D01*
X15072688Y12330005D01*
X15088358Y12349098D01*
X15489600Y12750340D01*
X15551912Y12784366D01*
X15622727Y12779301D01*
X15640158Y12771237D01*
X15662513Y12758743D01*
X15849118Y12698111D01*
X16043946Y12674879D01*
X16050081Y12675351D01*
X16050083Y12675351D01*
X16233434Y12689459D01*
X16233438Y12689460D01*
X16239576Y12689932D01*
X16428556Y12742697D01*
X16603689Y12831163D01*
X16633515Y12854465D01*
X16753453Y12948171D01*
X16758303Y12951960D01*
X16788084Y12986461D01*
X16882485Y13095827D01*
X16882485Y13095828D01*
X16886509Y13100489D01*
X16983425Y13271091D01*
X17028942Y13407920D01*
X17069423Y13466244D01*
X17135011Y13493424D01*
X17204882Y13480829D01*
G37*
%TD.AperFunction*%
%TA.AperFunction,Conductor*%
G36*
X17204882Y16020829D02*
G01*
X17256852Y15972459D01*
X17274500Y15908148D01*
X17274500Y13988917D01*
X17254498Y13920796D01*
X17200842Y13874303D01*
X17130568Y13864199D01*
X17065988Y13893693D01*
X17027878Y13952499D01*
X16996265Y14057207D01*
X16994484Y14063106D01*
X16902370Y14236347D01*
X16778361Y14388398D01*
X16627180Y14513465D01*
X16454585Y14606787D01*
X16314986Y14650000D01*
X16273039Y14662985D01*
X16273036Y14662986D01*
X16267152Y14664807D01*
X16261027Y14665451D01*
X16261026Y14665451D01*
X16078147Y14684673D01*
X16078146Y14684673D01*
X16072019Y14685317D01*
X15967907Y14675842D01*
X15882759Y14668093D01*
X15882758Y14668093D01*
X15876618Y14667534D01*
X15870704Y14665793D01*
X15870702Y14665793D01*
X15788638Y14641640D01*
X15688393Y14612136D01*
X15682928Y14609279D01*
X15519972Y14524088D01*
X15519968Y14524085D01*
X15514512Y14521233D01*
X15509712Y14517373D01*
X15509711Y14517373D01*
X15499316Y14509015D01*
X15361600Y14398289D01*
X15235480Y14247984D01*
X15232516Y14242592D01*
X15232513Y14242588D01*
X15177660Y14142811D01*
X15140956Y14076046D01*
X15139095Y14070179D01*
X15139094Y14070177D01*
X15122934Y14019234D01*
X15081628Y13889022D01*
X15059757Y13694037D01*
X15076175Y13498517D01*
X15130258Y13309909D01*
X15159682Y13252657D01*
X15173029Y13182930D01*
X15146559Y13117052D01*
X15136710Y13105970D01*
X14818145Y12787405D01*
X14755833Y12753379D01*
X14729050Y12750500D01*
X14319616Y12750500D01*
X14251495Y12770502D01*
X14205002Y12824158D01*
X14194898Y12894432D01*
X14224234Y12958831D01*
X14342485Y13095827D01*
X14342485Y13095828D01*
X14346509Y13100489D01*
X14443425Y13271091D01*
X14505358Y13457268D01*
X14529949Y13651929D01*
X14530341Y13680000D01*
X14511194Y13875272D01*
X14509413Y13881171D01*
X14509412Y13881176D01*
X14456265Y14057207D01*
X14454484Y14063106D01*
X14362370Y14236347D01*
X14238361Y14388398D01*
X14104409Y14499212D01*
X14091926Y14509539D01*
X14091925Y14509540D01*
X14087180Y14513465D01*
X14081763Y14516394D01*
X14077837Y14519042D01*
X14032548Y14573717D01*
X14024008Y14644198D01*
X14054928Y14708108D01*
X14115492Y14745155D01*
X14148296Y14749500D01*
X14807915Y14749500D01*
X14832496Y14747079D01*
X14832828Y14747013D01*
X14832829Y14747013D01*
X14845000Y14744592D01*
X14857171Y14747013D01*
X14930570Y14761613D01*
X14942741Y14764034D01*
X14953060Y14770929D01*
X14972535Y14783942D01*
X14972536Y14783943D01*
X14976391Y14786519D01*
X15025601Y14819399D01*
X15032493Y14829714D01*
X15032495Y14829716D01*
X15032688Y14830005D01*
X15048358Y14849098D01*
X15489600Y15290340D01*
X15551912Y15324366D01*
X15622727Y15319301D01*
X15640158Y15311237D01*
X15662513Y15298743D01*
X15849118Y15238111D01*
X16043946Y15214879D01*
X16050081Y15215351D01*
X16050083Y15215351D01*
X16233434Y15229459D01*
X16233438Y15229460D01*
X16239576Y15229932D01*
X16428556Y15282697D01*
X16603689Y15371163D01*
X16633515Y15394465D01*
X16753453Y15488171D01*
X16758303Y15491960D01*
X16788084Y15526461D01*
X16882485Y15635827D01*
X16882485Y15635828D01*
X16886509Y15640489D01*
X16892191Y15650490D01*
X16936157Y15727885D01*
X16983425Y15811091D01*
X17028942Y15947920D01*
X17069423Y16006244D01*
X17135011Y16033424D01*
X17204882Y16020829D01*
G37*
%TD.AperFunction*%
%TA.AperFunction,Conductor*%
G36*
X12614144Y20309659D02*
G01*
X12616278Y20308233D01*
X12660180Y20299500D01*
X14119049Y20299500D01*
X14187170Y20279498D01*
X14208144Y20262595D01*
X14621645Y19849094D01*
X14637315Y19830001D01*
X14644399Y19819399D01*
X14665316Y19805423D01*
X14665317Y19805422D01*
X14727260Y19764034D01*
X14825000Y19744591D01*
X14837508Y19747079D01*
X14862090Y19749500D01*
X15341919Y19749500D01*
X15410040Y19729498D01*
X15456533Y19675842D01*
X15466637Y19605568D01*
X15437143Y19540988D01*
X15420871Y19525304D01*
X15366757Y19481795D01*
X15357992Y19473211D01*
X15239853Y19332419D01*
X15232927Y19322305D01*
X15144383Y19161243D01*
X15139555Y19149979D01*
X15101898Y19031269D01*
X15101594Y19017168D01*
X15108153Y19014000D01*
X16193000Y19014000D01*
X16261121Y18993998D01*
X16307614Y18940342D01*
X16319000Y18888000D01*
X16319000Y17810742D01*
X16322973Y17797211D01*
X16331188Y17796030D01*
X16422430Y17821505D01*
X16433881Y17825947D01*
X16597919Y17908807D01*
X16608276Y17915380D01*
X16753100Y18028530D01*
X16761986Y18036991D01*
X16882070Y18176110D01*
X16889144Y18186138D01*
X16979919Y18345932D01*
X16984913Y18357148D01*
X17028942Y18489504D01*
X17069423Y18547828D01*
X17135011Y18575008D01*
X17204882Y18562413D01*
X17256852Y18514043D01*
X17274500Y18449732D01*
X17274500Y16528917D01*
X17254498Y16460796D01*
X17200842Y16414303D01*
X17130568Y16404199D01*
X17065988Y16433693D01*
X17027878Y16492499D01*
X16996265Y16597207D01*
X16994484Y16603106D01*
X16902370Y16776347D01*
X16778361Y16928398D01*
X16627180Y17053465D01*
X16454585Y17146787D01*
X16360869Y17175797D01*
X16273039Y17202985D01*
X16273036Y17202986D01*
X16267152Y17204807D01*
X16261027Y17205451D01*
X16261026Y17205451D01*
X16078147Y17224673D01*
X16078146Y17224673D01*
X16072019Y17225317D01*
X15949383Y17214156D01*
X15882759Y17208093D01*
X15882758Y17208093D01*
X15876618Y17207534D01*
X15870704Y17205793D01*
X15870702Y17205793D01*
X15802779Y17185802D01*
X15688393Y17152136D01*
X15682928Y17149279D01*
X15519972Y17064088D01*
X15519968Y17064085D01*
X15514512Y17061233D01*
X15509712Y17057373D01*
X15509711Y17057373D01*
X15480560Y17033935D01*
X15361600Y16938289D01*
X15235480Y16787984D01*
X15232516Y16782592D01*
X15232513Y16782588D01*
X15196591Y16717246D01*
X15140956Y16616046D01*
X15139095Y16610179D01*
X15139094Y16610177D01*
X15121815Y16555706D01*
X15081628Y16429022D01*
X15059757Y16234037D01*
X15076175Y16038517D01*
X15130258Y15849909D01*
X15159682Y15792657D01*
X15173029Y15722930D01*
X15146559Y15657052D01*
X15136710Y15645970D01*
X14778145Y15287405D01*
X14715833Y15253379D01*
X14689050Y15250500D01*
X14275179Y15250500D01*
X14207058Y15270502D01*
X14160565Y15324158D01*
X14150461Y15394432D01*
X14179955Y15459012D01*
X14197606Y15475790D01*
X14213453Y15488171D01*
X14218303Y15491960D01*
X14248084Y15526461D01*
X14342485Y15635827D01*
X14342485Y15635828D01*
X14346509Y15640489D01*
X14352191Y15650490D01*
X14396157Y15727885D01*
X14443425Y15811091D01*
X14505358Y15997268D01*
X14529949Y16191929D01*
X14530341Y16220000D01*
X14511194Y16415272D01*
X14509413Y16421171D01*
X14509412Y16421176D01*
X14456265Y16597207D01*
X14454484Y16603106D01*
X14362370Y16776347D01*
X14238361Y16928398D01*
X14087180Y17053465D01*
X13914585Y17146787D01*
X13820869Y17175797D01*
X13733039Y17202985D01*
X13733036Y17202986D01*
X13727152Y17204807D01*
X13721027Y17205451D01*
X13721026Y17205451D01*
X13538147Y17224673D01*
X13538146Y17224673D01*
X13532019Y17225317D01*
X13409383Y17214156D01*
X13342759Y17208093D01*
X13342758Y17208093D01*
X13336618Y17207534D01*
X13330704Y17205793D01*
X13330702Y17205793D01*
X13262779Y17185802D01*
X13148393Y17152136D01*
X13142928Y17149279D01*
X12979972Y17064088D01*
X12979968Y17064085D01*
X12974512Y17061233D01*
X12969712Y17057373D01*
X12969711Y17057373D01*
X12940560Y17033935D01*
X12821600Y16938289D01*
X12695480Y16787984D01*
X12692516Y16782592D01*
X12692513Y16782588D01*
X12656591Y16717246D01*
X12600956Y16616046D01*
X12599095Y16610179D01*
X12599094Y16610177D01*
X12581815Y16555706D01*
X12541628Y16429022D01*
X12540942Y16422905D01*
X12538295Y16399309D01*
X12510823Y16333843D01*
X12452319Y16293622D01*
X12381356Y16291415D01*
X12320466Y16327924D01*
X12297576Y16372910D01*
X12295312Y16371972D01*
X12290563Y16383437D01*
X12288142Y16395609D01*
X12265164Y16429998D01*
X12243949Y16497751D01*
X12265164Y16570002D01*
X12268738Y16575350D01*
X12288142Y16604391D01*
X12300500Y16666520D01*
X12300500Y16833480D01*
X12288142Y16895609D01*
X12265164Y16929998D01*
X12243949Y16997751D01*
X12265164Y17070002D01*
X12281247Y17094072D01*
X12288142Y17104391D01*
X12300500Y17166520D01*
X12300500Y17333480D01*
X12288142Y17395609D01*
X12265164Y17429998D01*
X12243949Y17497751D01*
X12265164Y17570002D01*
X12275856Y17586003D01*
X12288142Y17604391D01*
X12300500Y17666520D01*
X12300500Y17833480D01*
X12288142Y17895609D01*
X12265164Y17929998D01*
X12243949Y17997751D01*
X12265164Y18070002D01*
X12275085Y18084849D01*
X12288142Y18104391D01*
X12300500Y18166520D01*
X12300500Y18333480D01*
X12288142Y18395609D01*
X12265164Y18429998D01*
X12243949Y18497751D01*
X12265164Y18570002D01*
X12281246Y18594070D01*
X12281246Y18594071D01*
X12288142Y18604391D01*
X12290563Y18616564D01*
X12293568Y18623818D01*
X12338117Y18679098D01*
X12405480Y18701519D01*
X12474272Y18683960D01*
X12522650Y18631998D01*
X12534263Y18590666D01*
X12534547Y18590718D01*
X12535110Y18587651D01*
X12535535Y18586138D01*
X12536175Y18578517D01*
X12590258Y18389909D01*
X12593076Y18384426D01*
X12677123Y18220887D01*
X12677126Y18220883D01*
X12679944Y18215399D01*
X12801818Y18061631D01*
X12806511Y18057637D01*
X12806512Y18057636D01*
X12942830Y17941621D01*
X12951238Y17934465D01*
X12956616Y17931459D01*
X12956618Y17931458D01*
X12990701Y17912410D01*
X13122513Y17838743D01*
X13309118Y17778111D01*
X13503946Y17754879D01*
X13510081Y17755351D01*
X13510083Y17755351D01*
X13693434Y17769459D01*
X13693438Y17769460D01*
X13699576Y17769932D01*
X13888556Y17822697D01*
X14063689Y17911163D01*
X14093515Y17934465D01*
X14213453Y18028171D01*
X14218303Y18031960D01*
X14248084Y18066461D01*
X14342485Y18175827D01*
X14342485Y18175828D01*
X14346509Y18180489D01*
X14354135Y18193912D01*
X14397682Y18270570D01*
X14443425Y18351091D01*
X14490973Y18494025D01*
X15100923Y18494025D01*
X15129025Y18396020D01*
X15133543Y18384608D01*
X15217546Y18221156D01*
X15224196Y18210838D01*
X15338350Y18066811D01*
X15346873Y18057985D01*
X15486833Y17938871D01*
X15496905Y17931870D01*
X15657334Y17842210D01*
X15668574Y17837299D01*
X15793769Y17796621D01*
X15807867Y17796218D01*
X15811000Y17802590D01*
X15811000Y18487885D01*
X15806525Y18503124D01*
X15805135Y18504329D01*
X15797452Y18506000D01*
X15115604Y18506000D01*
X15102073Y18502027D01*
X15100923Y18494025D01*
X14490973Y18494025D01*
X14505358Y18537268D01*
X14529949Y18731929D01*
X14530341Y18760000D01*
X14511194Y18955272D01*
X14509413Y18961171D01*
X14509412Y18961176D01*
X14456265Y19137207D01*
X14454484Y19143106D01*
X14362370Y19316347D01*
X14238361Y19468398D01*
X14087180Y19593465D01*
X13914585Y19686787D01*
X13776608Y19729498D01*
X13733039Y19742985D01*
X13733036Y19742986D01*
X13727152Y19744807D01*
X13721027Y19745451D01*
X13721026Y19745451D01*
X13538147Y19764673D01*
X13538146Y19764673D01*
X13532019Y19765317D01*
X13409383Y19754156D01*
X13342759Y19748093D01*
X13342758Y19748093D01*
X13336618Y19747534D01*
X13330704Y19745793D01*
X13330702Y19745793D01*
X13307775Y19739045D01*
X13148393Y19692136D01*
X13142928Y19689279D01*
X12979972Y19604088D01*
X12979968Y19604085D01*
X12974512Y19601233D01*
X12969712Y19597373D01*
X12969711Y19597373D01*
X12957730Y19587740D01*
X12821600Y19478289D01*
X12695480Y19327984D01*
X12692516Y19322592D01*
X12692513Y19322588D01*
X12614313Y19180342D01*
X12600956Y19156046D01*
X12541628Y18969022D01*
X12540942Y18962904D01*
X12535078Y18910629D01*
X12507607Y18845163D01*
X12449103Y18804941D01*
X12378140Y18802734D01*
X12317250Y18839242D01*
X12293454Y18876457D01*
X12290563Y18883436D01*
X12288142Y18895609D01*
X12281248Y18905927D01*
X12281247Y18905929D01*
X12247958Y18955749D01*
X12241065Y18966065D01*
X12227856Y18974891D01*
X12180929Y19006247D01*
X12180927Y19006248D01*
X12170609Y19013142D01*
X12108480Y19025500D01*
X11451500Y19025500D01*
X11383379Y19045502D01*
X11336886Y19099158D01*
X11325500Y19151500D01*
X11325500Y19808480D01*
X11325197Y19810001D01*
X11338126Y19878170D01*
X11386966Y19929698D01*
X11455912Y19946641D01*
X11523072Y19923619D01*
X11546741Y19901841D01*
X11607129Y19830001D01*
X11612970Y19823052D01*
X11639455Y19805422D01*
X11723465Y19749500D01*
X11732313Y19743610D01*
X11869157Y19700858D01*
X11878129Y19700694D01*
X11878132Y19700693D01*
X11943463Y19699496D01*
X12012499Y19698230D01*
X12021533Y19700693D01*
X12142158Y19733579D01*
X12142160Y19733580D01*
X12150817Y19735940D01*
X12272991Y19810955D01*
X12290231Y19830001D01*
X12363178Y19910593D01*
X12369200Y19917246D01*
X12431710Y20046267D01*
X12455496Y20187646D01*
X12455555Y20192508D01*
X12455991Y20197363D01*
X12457618Y20197217D01*
X12476369Y20258289D01*
X12530593Y20304118D01*
X12600986Y20313356D01*
X12614144Y20309659D01*
G37*
%TD.AperFunction*%
%TD*%
%TA.AperFunction,Conductor*%
%TO.N,VDD*%
G36*
X8012171Y19297579D02*
G01*
X8051953Y19289666D01*
X8097374Y19270852D01*
X8120582Y19255345D01*
X8155345Y19220582D01*
X8170852Y19197374D01*
X8189666Y19151953D01*
X8197579Y19112171D01*
X8200000Y19087590D01*
X8200000Y18312410D01*
X8197579Y18287829D01*
X8189666Y18248047D01*
X8170852Y18202626D01*
X8155345Y18179418D01*
X8120582Y18144655D01*
X8097374Y18129148D01*
X8051953Y18110334D01*
X8012171Y18102421D01*
X7987590Y18100000D01*
X6836948Y18100000D01*
X6768827Y18120002D01*
X6722248Y18173848D01*
X6715245Y18189251D01*
X6715241Y18189257D01*
X6711526Y18197428D01*
X6667910Y18248047D01*
X6623802Y18299237D01*
X6623799Y18299240D01*
X6617942Y18306037D01*
X6497637Y18384015D01*
X6360281Y18425093D01*
X6351305Y18425148D01*
X6351304Y18425148D01*
X6291097Y18425516D01*
X6216918Y18425969D01*
X6079071Y18386572D01*
X5957822Y18310070D01*
X5951880Y18303342D01*
X5951879Y18303341D01*
X5910370Y18256341D01*
X5862919Y18202612D01*
X5859104Y18194487D01*
X5859101Y18194482D01*
X5848757Y18172450D01*
X5801700Y18119288D01*
X5734703Y18100000D01*
X5150000Y18100000D01*
X4817356Y17767356D01*
X4798269Y17751690D01*
X4764530Y17729147D01*
X4719112Y17710334D01*
X4702498Y17707030D01*
X4679327Y17702421D01*
X4654747Y17700000D01*
X3912410Y17700000D01*
X3887829Y17702421D01*
X3848047Y17710334D01*
X3802626Y17729148D01*
X3779418Y17744655D01*
X3744655Y17779418D01*
X3729148Y17802626D01*
X3710334Y17848047D01*
X3702421Y17887829D01*
X3700000Y17912410D01*
X3700000Y19087590D01*
X3702421Y19112171D01*
X3710334Y19151953D01*
X3729148Y19197374D01*
X3744655Y19220582D01*
X3779418Y19255345D01*
X3802626Y19270852D01*
X3848047Y19289666D01*
X3887829Y19297579D01*
X3912410Y19300000D01*
X7987590Y19300000D01*
X8012171Y19297579D01*
G37*
%TD.AperFunction*%
%TD*%
%TA.AperFunction,Conductor*%
%TO.N,VBUS*%
G36*
X10912170Y22297579D02*
G01*
X10936073Y22292825D01*
X10971091Y22285859D01*
X11016510Y22267046D01*
X11036329Y22253804D01*
X11055939Y22240700D01*
X11090700Y22205939D01*
X11117045Y22166512D01*
X11135860Y22121089D01*
X11147579Y22062170D01*
X11150000Y22037590D01*
X11150000Y21112410D01*
X11147579Y21087830D01*
X11135860Y21028911D01*
X11117045Y20983488D01*
X11090700Y20944061D01*
X11055939Y20909300D01*
X11036329Y20896196D01*
X11016510Y20882954D01*
X10971091Y20864141D01*
X10936073Y20857175D01*
X10912170Y20852421D01*
X10887590Y20850000D01*
X9550000Y20850000D01*
X8700000Y20000000D01*
X8700000Y19266589D01*
X8695707Y19233979D01*
X8688642Y19207611D01*
X8656030Y19151126D01*
X8648874Y19143970D01*
X8592388Y19111358D01*
X8582607Y19108737D01*
X8517393Y19108737D01*
X8507612Y19111358D01*
X8451126Y19143970D01*
X8443970Y19151126D01*
X8411358Y19207611D01*
X8404293Y19233979D01*
X8400000Y19266589D01*
X8400000Y22037590D01*
X8402421Y22062170D01*
X8414140Y22121089D01*
X8432955Y22166512D01*
X8459300Y22205939D01*
X8494061Y22240700D01*
X8513671Y22253804D01*
X8533490Y22267046D01*
X8578909Y22285859D01*
X8613927Y22292825D01*
X8637830Y22297579D01*
X8662410Y22300000D01*
X10887590Y22300000D01*
X10912170Y22297579D01*
G37*
%TD.AperFunction*%
%TD*%
M02*
