%TF.GenerationSoftware,KiCad,Pcbnew,6.0.7+dfsg-1~bpo11+1*%
%TF.CreationDate,2022-10-12T02:23:58+00:00*%
%TF.ProjectId,0101-SERIAL-CP2102N,30313031-2d53-4455-9249-414c2d435032,V1.1*%
%TF.SameCoordinates,Original*%
%TF.FileFunction,Copper,L3,Inr*%
%TF.FilePolarity,Positive*%
%FSLAX46Y46*%
G04 Gerber Fmt 4.6, Leading zero omitted, Abs format (unit mm)*
G04 Created by KiCad (PCBNEW 6.0.7+dfsg-1~bpo11+1) date 2022-10-12 02:23:58*
%MOMM*%
%LPD*%
G01*
G04 APERTURE LIST*
G04 Aperture macros list*
%AMRoundRect*
0 Rectangle with rounded corners*
0 $1 Rounding radius*
0 $2 $3 $4 $5 $6 $7 $8 $9 X,Y pos of 4 corners*
0 Add a 4 corners polygon primitive as box body*
4,1,4,$2,$3,$4,$5,$6,$7,$8,$9,$2,$3,0*
0 Add four circle primitives for the rounded corners*
1,1,$1+$1,$2,$3*
1,1,$1+$1,$4,$5*
1,1,$1+$1,$6,$7*
1,1,$1+$1,$8,$9*
0 Add four rect primitives between the rounded corners*
20,1,$1+$1,$2,$3,$4,$5,0*
20,1,$1+$1,$4,$5,$6,$7,0*
20,1,$1+$1,$6,$7,$8,$9,0*
20,1,$1+$1,$8,$9,$2,$3,0*%
G04 Aperture macros list end*
%TA.AperFunction,ComponentPad*%
%ADD10RoundRect,0.350000X-0.700000X0.350000X-0.700000X-0.350000X0.700000X-0.350000X0.700000X0.350000X0*%
%TD*%
%TA.AperFunction,ComponentPad*%
%ADD11RoundRect,0.350000X-0.650000X0.350000X-0.650000X-0.350000X0.650000X-0.350000X0.650000X0.350000X0*%
%TD*%
%TA.AperFunction,ComponentPad*%
%ADD12R,1.700000X1.700000*%
%TD*%
%TA.AperFunction,ComponentPad*%
%ADD13O,1.700000X1.700000*%
%TD*%
%TA.AperFunction,ViaPad*%
%ADD14C,0.700000*%
%TD*%
%TA.AperFunction,ViaPad*%
%ADD15C,0.500000*%
%TD*%
G04 APERTURE END LIST*
D10*
%TO.N,GND*%
%TO.C,J1*%
X6930000Y12975000D03*
D11*
X2950000Y22025000D03*
X2950000Y12975000D03*
D10*
X6930000Y22025000D03*
%TD*%
D12*
%TO.N,/RTS{slash}BOOT*%
%TO.C,J2*%
X13525000Y21300000D03*
D13*
%TO.N,/DTR{slash}RESET*%
X16065000Y21300000D03*
%TO.N,VBUS*%
X13525000Y18760000D03*
%TO.N,GND*%
X16065000Y18760000D03*
%TO.N,VDD*%
X13525000Y16220000D03*
%TO.N,/CTS*%
X16065000Y16220000D03*
%TO.N,/RXD*%
X13525000Y13680000D03*
%TO.N,/TXD*%
X16065000Y13680000D03*
%TD*%
D14*
%TO.N,VDD*%
X15800000Y23900000D03*
X11000000Y10300000D03*
D15*
X4800000Y18400000D03*
X4800000Y19000000D03*
X5400000Y19000000D03*
D14*
X15800000Y11100000D03*
X11000000Y24700000D03*
D15*
%TO.N,GND*%
X19050000Y23750000D03*
X550000Y20500000D03*
X550000Y17500000D03*
X19050000Y14750000D03*
X15800000Y26500000D03*
X8800000Y23750000D03*
X6200000Y16100000D03*
X12650000Y11550000D03*
X9700000Y10500000D03*
X10700000Y18400000D03*
X11800000Y8500000D03*
X11800000Y23750000D03*
X16550000Y11500000D03*
X19050000Y20250000D03*
X19050000Y15750000D03*
X10700000Y16600000D03*
X5600000Y16500000D03*
X550000Y23500000D03*
X7550000Y26750000D03*
X2300000Y19000000D03*
X14800000Y11750000D03*
X2300000Y18000000D03*
X16800000Y15000000D03*
X11800000Y26500000D03*
X14300000Y23000000D03*
X19050000Y11250000D03*
X15800000Y8500000D03*
X15300000Y23000000D03*
X550000Y11500000D03*
X550000Y14500000D03*
X9800000Y23750000D03*
X9100000Y18400000D03*
X14800000Y14500000D03*
X19050000Y19250000D03*
%TO.N,VBUS*%
X10200000Y13150000D03*
X10200000Y21300000D03*
X10800000Y13150000D03*
X9600000Y21300000D03*
X10800000Y21300000D03*
X9600000Y13150000D03*
D14*
%TO.N,/RTS{slash}BOOT*%
X1300000Y10500000D03*
X8600000Y9900000D03*
%TO.N,Net-(J1-PadA5)*%
X4900000Y17000000D03*
%TO.N,/D-*%
X6285542Y17925000D03*
%TO.N,/D+*%
X6285542Y17075000D03*
%TO.N,Net-(J1-PadB5)*%
X4900000Y16000000D03*
%TO.N,Net-(R3-Pad2)*%
X11950000Y20200000D03*
X4900000Y20000000D03*
%TO.N,/RTS*%
X9800000Y14050000D03*
X12050000Y14350000D03*
%TD*%
%TA.AperFunction,Conductor*%
%TO.N,GND*%
G36*
X8653332Y27129498D02*
G01*
X8699825Y27075842D01*
X8701115Y27072667D01*
X8701476Y27071320D01*
X8787324Y26881795D01*
X8790190Y26877505D01*
X8846090Y26793828D01*
X8902901Y26708786D01*
X9045119Y26556918D01*
X9210178Y26430247D01*
X9393668Y26332159D01*
X9398545Y26330503D01*
X9398548Y26330502D01*
X9585802Y26266931D01*
X9590686Y26265273D01*
X9795969Y26231377D01*
X10004031Y26231377D01*
X10209314Y26265273D01*
X10214198Y26266931D01*
X10401452Y26330502D01*
X10401455Y26330503D01*
X10406332Y26332159D01*
X10589822Y26430247D01*
X10754881Y26556918D01*
X10897099Y26708786D01*
X10953911Y26793828D01*
X11009810Y26877505D01*
X11012676Y26881795D01*
X11063341Y26993646D01*
X11098524Y27071320D01*
X11099686Y27070793D01*
X11137922Y27123337D01*
X11204100Y27149046D01*
X11214789Y27149500D01*
X13730879Y27149500D01*
X13799000Y27129498D01*
X13835703Y27086810D01*
X13838428Y27088529D01*
X13914930Y26967280D01*
X14022388Y26872377D01*
X14152163Y26811447D01*
X14261009Y26794500D01*
X14335940Y26794500D01*
X14365456Y26798727D01*
X14383318Y26800000D01*
X15215934Y26800000D01*
X15235318Y26798500D01*
X15261009Y26794500D01*
X15335940Y26794500D01*
X15365456Y26798727D01*
X15383318Y26800000D01*
X16215934Y26800000D01*
X16235318Y26798500D01*
X16261009Y26794500D01*
X16335940Y26794500D01*
X16365456Y26798727D01*
X16383318Y26800000D01*
X17215934Y26800000D01*
X17235318Y26798500D01*
X17261009Y26794500D01*
X17335940Y26794500D01*
X17365456Y26798727D01*
X17383318Y26800000D01*
X18215934Y26800000D01*
X18235318Y26798500D01*
X18261009Y26794500D01*
X18335940Y26794500D01*
X18377339Y26800429D01*
X18433032Y26808404D01*
X18433035Y26808405D01*
X18441918Y26809677D01*
X18572428Y26869016D01*
X18600192Y26892939D01*
X18674237Y26956740D01*
X18674240Y26956743D01*
X18681037Y26962600D01*
X18759015Y27082905D01*
X18761990Y27080977D01*
X18797533Y27121644D01*
X18865739Y27141355D01*
X18879309Y27140564D01*
X18930421Y27134805D01*
X18957928Y27128526D01*
X19068407Y27089868D01*
X19093820Y27077631D01*
X19192943Y27015349D01*
X19214998Y26997759D01*
X19297759Y26914998D01*
X19315349Y26892943D01*
X19377631Y26793820D01*
X19389868Y26768407D01*
X19428526Y26657928D01*
X19434805Y26630420D01*
X19447692Y26516043D01*
X19447830Y26513583D01*
X19444191Y26500000D01*
X19448484Y26483978D01*
X19448484Y26471315D01*
X19449500Y26463598D01*
X19449500Y18814789D01*
X19429498Y18746668D01*
X19375842Y18700175D01*
X19372667Y18698885D01*
X19371320Y18698524D01*
X19258470Y18647407D01*
X19191476Y18617061D01*
X19181795Y18612676D01*
X19177505Y18609810D01*
X19013074Y18499964D01*
X19013070Y18499961D01*
X19008786Y18497099D01*
X18952398Y18444294D01*
X18876222Y18372958D01*
X18856918Y18354881D01*
X18730247Y18189822D01*
X18632159Y18006332D01*
X18630503Y18001455D01*
X18630502Y18001452D01*
X18576441Y17842210D01*
X18565273Y17809314D01*
X18531377Y17604031D01*
X18531377Y17395969D01*
X18565273Y17190686D01*
X18566931Y17185803D01*
X18566931Y17185802D01*
X18629716Y17000865D01*
X18632159Y16993668D01*
X18730247Y16810178D01*
X18856918Y16645119D01*
X18860682Y16641595D01*
X18860683Y16641593D01*
X18893400Y16610955D01*
X19008786Y16502901D01*
X19013070Y16500039D01*
X19013074Y16500036D01*
X19120637Y16428180D01*
X19181795Y16387324D01*
X19186495Y16385195D01*
X19186497Y16385194D01*
X19371320Y16301476D01*
X19370793Y16300314D01*
X19423337Y16262078D01*
X19449046Y16195900D01*
X19449500Y16185211D01*
X19449500Y8536402D01*
X19448484Y8528685D01*
X19448484Y8516022D01*
X19444191Y8500000D01*
X19447830Y8486417D01*
X19447692Y8483957D01*
X19434805Y8369580D01*
X19428526Y8342072D01*
X19389868Y8231593D01*
X19377631Y8206180D01*
X19315349Y8107057D01*
X19297759Y8085002D01*
X19214998Y8002241D01*
X19192943Y7984651D01*
X19093820Y7922369D01*
X19068407Y7910132D01*
X18957928Y7871474D01*
X18930422Y7865195D01*
X18917798Y7863772D01*
X18878548Y7859350D01*
X18808618Y7871599D01*
X18757881Y7917322D01*
X18685070Y8032720D01*
X18577612Y8127623D01*
X18447837Y8188553D01*
X18338991Y8205500D01*
X18264060Y8205500D01*
X18236129Y8201500D01*
X18234544Y8201273D01*
X18216682Y8200000D01*
X17384066Y8200000D01*
X17364682Y8201500D01*
X17343795Y8204752D01*
X17338991Y8205500D01*
X17264060Y8205500D01*
X17236129Y8201500D01*
X17234544Y8201273D01*
X17216682Y8200000D01*
X16384066Y8200000D01*
X16364682Y8201500D01*
X16343795Y8204752D01*
X16338991Y8205500D01*
X16264060Y8205500D01*
X16236129Y8201500D01*
X16234544Y8201273D01*
X16216682Y8200000D01*
X15384066Y8200000D01*
X15364682Y8201500D01*
X15343795Y8204752D01*
X15338991Y8205500D01*
X15264060Y8205500D01*
X15236129Y8201500D01*
X15234544Y8201273D01*
X15216682Y8200000D01*
X14384066Y8200000D01*
X14364682Y8201500D01*
X14343795Y8204752D01*
X14338991Y8205500D01*
X14264060Y8205500D01*
X14234544Y8201273D01*
X14166968Y8191596D01*
X14166965Y8191595D01*
X14158082Y8190323D01*
X14027572Y8130984D01*
X14020768Y8125122D01*
X14020769Y8125122D01*
X13925763Y8043260D01*
X13925760Y8043257D01*
X13918963Y8037400D01*
X13840985Y7917095D01*
X13840155Y7917633D01*
X13798688Y7870202D01*
X13731036Y7850500D01*
X11114789Y7850500D01*
X11046668Y7870502D01*
X11000175Y7924158D01*
X10998885Y7927333D01*
X10998524Y7928680D01*
X10912676Y8118205D01*
X10888477Y8154429D01*
X10799964Y8286926D01*
X10799961Y8286930D01*
X10797099Y8291214D01*
X10654881Y8443082D01*
X10489822Y8569753D01*
X10306332Y8667841D01*
X10301455Y8669497D01*
X10301452Y8669498D01*
X10114198Y8733069D01*
X10114197Y8733069D01*
X10109314Y8734727D01*
X9904031Y8768623D01*
X9695969Y8768623D01*
X9490686Y8734727D01*
X9485803Y8733069D01*
X9485802Y8733069D01*
X9298548Y8669498D01*
X9298545Y8669497D01*
X9293668Y8667841D01*
X9110178Y8569753D01*
X8945119Y8443082D01*
X8802901Y8291214D01*
X8800039Y8286930D01*
X8800036Y8286926D01*
X8711523Y8154429D01*
X8687324Y8118205D01*
X8685195Y8113505D01*
X8685194Y8113503D01*
X8634796Y8002241D01*
X8601476Y7928680D01*
X8600314Y7929207D01*
X8562078Y7876663D01*
X8495900Y7850954D01*
X8485211Y7850500D01*
X5869121Y7850500D01*
X5801000Y7870502D01*
X5764297Y7913190D01*
X5761572Y7911471D01*
X5704301Y8002241D01*
X5685070Y8032720D01*
X5577612Y8127623D01*
X5447837Y8188553D01*
X5338991Y8205500D01*
X5264060Y8205500D01*
X5236129Y8201500D01*
X5234544Y8201273D01*
X5216682Y8200000D01*
X4384066Y8200000D01*
X4364682Y8201500D01*
X4343795Y8204752D01*
X4338991Y8205500D01*
X4264060Y8205500D01*
X4236129Y8201500D01*
X4234544Y8201273D01*
X4216682Y8200000D01*
X3384066Y8200000D01*
X3364682Y8201500D01*
X3343795Y8204752D01*
X3338991Y8205500D01*
X3264060Y8205500D01*
X3236129Y8201500D01*
X3234544Y8201273D01*
X3216682Y8200000D01*
X2384066Y8200000D01*
X2364682Y8201500D01*
X2343795Y8204752D01*
X2338991Y8205500D01*
X2264060Y8205500D01*
X2236129Y8201500D01*
X2234544Y8201273D01*
X2216682Y8200000D01*
X1384066Y8200000D01*
X1364682Y8201500D01*
X1343795Y8204752D01*
X1338991Y8205500D01*
X1264060Y8205500D01*
X1234544Y8201273D01*
X1166968Y8191596D01*
X1166965Y8191595D01*
X1158082Y8190323D01*
X1027572Y8130984D01*
X1020768Y8125122D01*
X1020769Y8125122D01*
X925763Y8043260D01*
X925760Y8043257D01*
X918963Y8037400D01*
X840985Y7917095D01*
X838010Y7919023D01*
X802467Y7878356D01*
X734261Y7858645D01*
X720691Y7859436D01*
X669579Y7865195D01*
X642072Y7871474D01*
X531593Y7910132D01*
X506180Y7922369D01*
X407057Y7984651D01*
X385002Y8002241D01*
X302241Y8085002D01*
X284651Y8107057D01*
X222369Y8206180D01*
X210132Y8231593D01*
X171474Y8342072D01*
X165195Y8369580D01*
X152308Y8483957D01*
X152170Y8486417D01*
X155809Y8500000D01*
X151516Y8516022D01*
X151516Y8528685D01*
X150500Y8536402D01*
X150500Y9906177D01*
X8094391Y9906177D01*
X8095555Y9897275D01*
X8095555Y9897272D01*
X8102923Y9840931D01*
X8112980Y9764021D01*
X8170720Y9632797D01*
X8176497Y9625924D01*
X8176498Y9625923D01*
X8183792Y9617246D01*
X8262970Y9523052D01*
X8382313Y9443610D01*
X8519157Y9400858D01*
X8528129Y9400694D01*
X8528132Y9400693D01*
X8593463Y9399496D01*
X8662499Y9398230D01*
X8671533Y9400693D01*
X8792158Y9433579D01*
X8792160Y9433580D01*
X8800817Y9435940D01*
X8922991Y9510955D01*
X9019200Y9617246D01*
X9081710Y9746267D01*
X9105496Y9887646D01*
X9105647Y9900000D01*
X9091556Y9998395D01*
X9086596Y10033032D01*
X9086595Y10033035D01*
X9085323Y10041918D01*
X9025984Y10172428D01*
X8979890Y10225923D01*
X8938260Y10274237D01*
X8938257Y10274240D01*
X8932400Y10281037D01*
X8893614Y10306177D01*
X10494391Y10306177D01*
X10495555Y10297275D01*
X10495555Y10297272D01*
X10502912Y10241017D01*
X10512980Y10164021D01*
X10570720Y10032797D01*
X10576497Y10025924D01*
X10576498Y10025923D01*
X10657190Y9929928D01*
X10662970Y9923052D01*
X10782313Y9843610D01*
X10919157Y9800858D01*
X10928129Y9800694D01*
X10928132Y9800693D01*
X10993463Y9799496D01*
X11062499Y9798230D01*
X11071533Y9800693D01*
X11192158Y9833579D01*
X11192160Y9833580D01*
X11200817Y9835940D01*
X11322991Y9910955D01*
X11419200Y10017246D01*
X11468051Y10118075D01*
X11477795Y10138186D01*
X11477795Y10138187D01*
X11481710Y10146267D01*
X11505496Y10287646D01*
X11505647Y10300000D01*
X11497473Y10357076D01*
X11486596Y10433032D01*
X11486595Y10433035D01*
X11485323Y10441918D01*
X11425984Y10572428D01*
X11401487Y10600858D01*
X11338260Y10674237D01*
X11338257Y10674240D01*
X11332400Y10681037D01*
X11212095Y10759015D01*
X11074739Y10800093D01*
X11065763Y10800148D01*
X11065762Y10800148D01*
X11005555Y10800516D01*
X10931376Y10800969D01*
X10793529Y10761572D01*
X10672280Y10685070D01*
X10666338Y10678342D01*
X10666337Y10678341D01*
X10631562Y10638965D01*
X10577377Y10577612D01*
X10516447Y10447837D01*
X10515066Y10438965D01*
X10499375Y10338186D01*
X10494391Y10306177D01*
X8893614Y10306177D01*
X8812095Y10359015D01*
X8674739Y10400093D01*
X8665763Y10400148D01*
X8665762Y10400148D01*
X8605555Y10400516D01*
X8531376Y10400969D01*
X8393529Y10361572D01*
X8272280Y10285070D01*
X8177377Y10177612D01*
X8116447Y10047837D01*
X8109133Y10000858D01*
X8096171Y9917609D01*
X8094391Y9906177D01*
X150500Y9906177D01*
X150500Y10506177D01*
X794391Y10506177D01*
X795555Y10497275D01*
X795555Y10497272D01*
X802020Y10447837D01*
X812980Y10364021D01*
X870720Y10232797D01*
X876497Y10225924D01*
X876498Y10225923D01*
X957190Y10129928D01*
X962970Y10123052D01*
X1082313Y10043610D01*
X1219157Y10000858D01*
X1228129Y10000694D01*
X1228132Y10000693D01*
X1293463Y9999496D01*
X1362499Y9998230D01*
X1371533Y10000693D01*
X1492158Y10033579D01*
X1492160Y10033580D01*
X1500817Y10035940D01*
X1622991Y10110955D01*
X1719200Y10217246D01*
X1781710Y10346267D01*
X1805496Y10487646D01*
X1805647Y10500000D01*
X1791556Y10598395D01*
X1786596Y10633032D01*
X1786595Y10633035D01*
X1785323Y10641918D01*
X1725984Y10772428D01*
X1679890Y10825923D01*
X1638260Y10874237D01*
X1638257Y10874240D01*
X1632400Y10881037D01*
X1512095Y10959015D01*
X1374739Y11000093D01*
X1365763Y11000148D01*
X1365762Y11000148D01*
X1305555Y11000516D01*
X1231376Y11000969D01*
X1093529Y10961572D01*
X972280Y10885070D01*
X877377Y10777612D01*
X816447Y10647837D01*
X794391Y10506177D01*
X150500Y10506177D01*
X150500Y11106177D01*
X15294391Y11106177D01*
X15295555Y11097275D01*
X15295555Y11097272D01*
X15296814Y11087646D01*
X15312980Y10964021D01*
X15370720Y10832797D01*
X15376497Y10825924D01*
X15376498Y10825923D01*
X15383792Y10817246D01*
X15462970Y10723052D01*
X15582313Y10643610D01*
X15719157Y10600858D01*
X15728129Y10600694D01*
X15728132Y10600693D01*
X15793463Y10599496D01*
X15862499Y10598230D01*
X15871533Y10600693D01*
X15992158Y10633579D01*
X15992160Y10633580D01*
X16000817Y10635940D01*
X16122991Y10710955D01*
X16219200Y10817246D01*
X16281710Y10946267D01*
X16305496Y11087646D01*
X16305647Y11100000D01*
X16285323Y11241918D01*
X16225984Y11372428D01*
X16207598Y11393766D01*
X16138260Y11474237D01*
X16138257Y11474240D01*
X16132400Y11481037D01*
X16012095Y11559015D01*
X15874739Y11600093D01*
X15865763Y11600148D01*
X15865762Y11600148D01*
X15805555Y11600516D01*
X15731376Y11600969D01*
X15593529Y11561572D01*
X15472280Y11485070D01*
X15377377Y11377612D01*
X15316447Y11247837D01*
X15294391Y11106177D01*
X150500Y11106177D01*
X150500Y12581085D01*
X1800000Y12581085D01*
X1800369Y12574271D01*
X1805789Y12524379D01*
X1809414Y12509133D01*
X1853767Y12390823D01*
X1862299Y12375237D01*
X1937430Y12274991D01*
X1949991Y12262430D01*
X2050237Y12187299D01*
X2065823Y12178767D01*
X2184133Y12134414D01*
X2199379Y12130789D01*
X2249271Y12125369D01*
X2256085Y12125000D01*
X2677885Y12125000D01*
X2693124Y12129475D01*
X2694329Y12130865D01*
X2696000Y12138548D01*
X2696000Y12143115D01*
X3204000Y12143115D01*
X3208475Y12127876D01*
X3209865Y12126671D01*
X3217548Y12125000D01*
X3643915Y12125000D01*
X3650729Y12125369D01*
X3700621Y12130789D01*
X3715867Y12134414D01*
X3834177Y12178767D01*
X3849763Y12187299D01*
X3950009Y12262430D01*
X3962570Y12274991D01*
X4037701Y12375237D01*
X4046233Y12390823D01*
X4090586Y12509133D01*
X4094211Y12524379D01*
X4099631Y12574271D01*
X4100000Y12581085D01*
X5730000Y12581085D01*
X5730369Y12574271D01*
X5735789Y12524379D01*
X5739414Y12509133D01*
X5783767Y12390823D01*
X5792299Y12375237D01*
X5867430Y12274991D01*
X5879991Y12262430D01*
X5980237Y12187299D01*
X5995823Y12178767D01*
X6114133Y12134414D01*
X6129379Y12130789D01*
X6179271Y12125369D01*
X6186085Y12125000D01*
X6657885Y12125000D01*
X6673124Y12129475D01*
X6674329Y12130865D01*
X6676000Y12138548D01*
X6676000Y12143115D01*
X7184000Y12143115D01*
X7188475Y12127876D01*
X7189865Y12126671D01*
X7197548Y12125000D01*
X7673915Y12125000D01*
X7680729Y12125369D01*
X7730621Y12130789D01*
X7745867Y12134414D01*
X7864177Y12178767D01*
X7879763Y12187299D01*
X7980009Y12262430D01*
X7992570Y12274991D01*
X8067701Y12375237D01*
X8076233Y12390823D01*
X8120586Y12509133D01*
X8124211Y12524379D01*
X8129631Y12574271D01*
X8130000Y12581085D01*
X8130000Y12702885D01*
X8125525Y12718124D01*
X8124135Y12719329D01*
X8116452Y12721000D01*
X7202115Y12721000D01*
X7186876Y12716525D01*
X7185671Y12715135D01*
X7184000Y12707452D01*
X7184000Y12143115D01*
X6676000Y12143115D01*
X6676000Y12702885D01*
X6671525Y12718124D01*
X6670135Y12719329D01*
X6662452Y12721000D01*
X5748115Y12721000D01*
X5732876Y12716525D01*
X5731671Y12715135D01*
X5730000Y12707452D01*
X5730000Y12581085D01*
X4100000Y12581085D01*
X4100000Y12702885D01*
X4095525Y12718124D01*
X4094135Y12719329D01*
X4086452Y12721000D01*
X3222115Y12721000D01*
X3206876Y12716525D01*
X3205671Y12715135D01*
X3204000Y12707452D01*
X3204000Y12143115D01*
X2696000Y12143115D01*
X2696000Y12702885D01*
X2691525Y12718124D01*
X2690135Y12719329D01*
X2682452Y12721000D01*
X1818115Y12721000D01*
X1802876Y12716525D01*
X1801671Y12715135D01*
X1800000Y12707452D01*
X1800000Y12581085D01*
X150500Y12581085D01*
X150500Y13062410D01*
X9094500Y13062410D01*
X9095249Y13047168D01*
X9097670Y13022588D01*
X9097897Y13021055D01*
X9097900Y13021034D01*
X9099679Y13009042D01*
X9099682Y13009022D01*
X9099909Y13007495D01*
X9111628Y12948576D01*
X9120477Y12919403D01*
X9139292Y12873980D01*
X9153663Y12847095D01*
X9180008Y12807668D01*
X9199345Y12784106D01*
X9234106Y12749345D01*
X9257669Y12730007D01*
X9297098Y12703661D01*
X9299825Y12702204D01*
X9299829Y12702201D01*
X9308845Y12697382D01*
X9323983Y12689291D01*
X9326832Y12688111D01*
X9326836Y12688109D01*
X9356522Y12675813D01*
X9369402Y12670478D01*
X9382038Y12666645D01*
X9395608Y12662528D01*
X9395616Y12662526D01*
X9398573Y12661629D01*
X9401602Y12661026D01*
X9401608Y12661025D01*
X9423131Y12656744D01*
X9457494Y12649909D01*
X9459034Y12649681D01*
X9459043Y12649679D01*
X9463832Y12648969D01*
X9472588Y12647670D01*
X9481986Y12646744D01*
X9495640Y12645399D01*
X9495660Y12645398D01*
X9497168Y12645249D01*
X9505586Y12644835D01*
X9510859Y12644576D01*
X9510868Y12644576D01*
X9512410Y12644500D01*
X10887590Y12644500D01*
X10889132Y12644576D01*
X10889141Y12644576D01*
X10894414Y12644835D01*
X10902832Y12645249D01*
X10904340Y12645398D01*
X10904360Y12645399D01*
X10918014Y12646744D01*
X10927412Y12647670D01*
X10936168Y12648969D01*
X10940957Y12649679D01*
X10940966Y12649681D01*
X10942506Y12649909D01*
X10976869Y12656744D01*
X10998392Y12661025D01*
X10998398Y12661026D01*
X11001427Y12661629D01*
X11004384Y12662526D01*
X11004392Y12662528D01*
X11017962Y12666645D01*
X11030598Y12670478D01*
X11043478Y12675813D01*
X11073164Y12688109D01*
X11073168Y12688111D01*
X11076017Y12689291D01*
X11091155Y12697382D01*
X11100171Y12702201D01*
X11100175Y12702204D01*
X11102902Y12703661D01*
X11142331Y12730007D01*
X11165894Y12749345D01*
X11200655Y12784106D01*
X11219992Y12807668D01*
X11246337Y12847095D01*
X11260708Y12873980D01*
X11279523Y12919403D01*
X11288372Y12948576D01*
X11300091Y13007495D01*
X11300318Y13009022D01*
X11300321Y13009042D01*
X11302100Y13021034D01*
X11302103Y13021055D01*
X11302330Y13022588D01*
X11304751Y13047168D01*
X11305500Y13062410D01*
X11305500Y14247728D01*
X11325502Y14315849D01*
X11364401Y14349555D01*
X11364055Y14349783D01*
X11499055Y14349783D01*
X11514012Y14342952D01*
X11552396Y14283226D01*
X11556436Y14264065D01*
X11562980Y14214021D01*
X11620720Y14082797D01*
X11626497Y14075924D01*
X11626498Y14075923D01*
X11674150Y14019234D01*
X11712970Y13973052D01*
X11758938Y13942453D01*
X11824730Y13898658D01*
X11832313Y13893610D01*
X11969157Y13850858D01*
X11978129Y13850694D01*
X11978132Y13850693D01*
X12043463Y13849496D01*
X12112499Y13848230D01*
X12121533Y13850693D01*
X12242158Y13883579D01*
X12242160Y13883580D01*
X12250817Y13885940D01*
X12258464Y13890635D01*
X12258468Y13890637D01*
X12342859Y13942453D01*
X12411376Y13961051D01*
X12479071Y13939654D01*
X12524452Y13885054D01*
X12534002Y13821034D01*
X12519757Y13694037D01*
X12536175Y13498517D01*
X12590258Y13309909D01*
X12593076Y13304426D01*
X12677123Y13140887D01*
X12677126Y13140883D01*
X12679944Y13135399D01*
X12801818Y12981631D01*
X12806511Y12977637D01*
X12806512Y12977636D01*
X12878292Y12916547D01*
X12951238Y12854465D01*
X12956616Y12851459D01*
X12956618Y12851458D01*
X12992932Y12831163D01*
X13122513Y12758743D01*
X13309118Y12698111D01*
X13503946Y12674879D01*
X13510081Y12675351D01*
X13510083Y12675351D01*
X13693434Y12689459D01*
X13693438Y12689460D01*
X13699576Y12689932D01*
X13888556Y12742697D01*
X14063689Y12831163D01*
X14093515Y12854465D01*
X14180424Y12922366D01*
X14218303Y12951960D01*
X14248084Y12986461D01*
X14342485Y13095827D01*
X14342485Y13095828D01*
X14346509Y13100489D01*
X14443425Y13271091D01*
X14505358Y13457268D01*
X14529949Y13651929D01*
X14530341Y13680000D01*
X14528965Y13694037D01*
X15059757Y13694037D01*
X15076175Y13498517D01*
X15130258Y13309909D01*
X15133076Y13304426D01*
X15217123Y13140887D01*
X15217126Y13140883D01*
X15219944Y13135399D01*
X15341818Y12981631D01*
X15346511Y12977637D01*
X15346512Y12977636D01*
X15418292Y12916547D01*
X15491238Y12854465D01*
X15496616Y12851459D01*
X15496618Y12851458D01*
X15532932Y12831163D01*
X15662513Y12758743D01*
X15849118Y12698111D01*
X16043946Y12674879D01*
X16050081Y12675351D01*
X16050083Y12675351D01*
X16233434Y12689459D01*
X16233438Y12689460D01*
X16239576Y12689932D01*
X16428556Y12742697D01*
X16603689Y12831163D01*
X16633515Y12854465D01*
X16720424Y12922366D01*
X16758303Y12951960D01*
X16788084Y12986461D01*
X16882485Y13095827D01*
X16882485Y13095828D01*
X16886509Y13100489D01*
X16983425Y13271091D01*
X17045358Y13457268D01*
X17069949Y13651929D01*
X17070341Y13680000D01*
X17051194Y13875272D01*
X17049413Y13881171D01*
X17049412Y13881176D01*
X16996265Y14057207D01*
X16994484Y14063106D01*
X16902370Y14236347D01*
X16778361Y14388398D01*
X16627180Y14513465D01*
X16454585Y14606787D01*
X16360868Y14635797D01*
X16273039Y14662985D01*
X16273036Y14662986D01*
X16267152Y14664807D01*
X16261027Y14665451D01*
X16261026Y14665451D01*
X16078147Y14684673D01*
X16078146Y14684673D01*
X16072019Y14685317D01*
X15949383Y14674156D01*
X15882759Y14668093D01*
X15882758Y14668093D01*
X15876618Y14667534D01*
X15870704Y14665793D01*
X15870702Y14665793D01*
X15763839Y14634341D01*
X15688393Y14612136D01*
X15682928Y14609279D01*
X15519972Y14524088D01*
X15519968Y14524085D01*
X15514512Y14521233D01*
X15509712Y14517373D01*
X15509711Y14517373D01*
X15496966Y14507126D01*
X15361600Y14398289D01*
X15235480Y14247984D01*
X15232516Y14242592D01*
X15232513Y14242588D01*
X15155406Y14102331D01*
X15140956Y14076046D01*
X15139095Y14070179D01*
X15139094Y14070177D01*
X15122934Y14019234D01*
X15081628Y13889022D01*
X15059757Y13694037D01*
X14528965Y13694037D01*
X14511194Y13875272D01*
X14509413Y13881171D01*
X14509412Y13881176D01*
X14456265Y14057207D01*
X14454484Y14063106D01*
X14362370Y14236347D01*
X14238361Y14388398D01*
X14087180Y14513465D01*
X13914585Y14606787D01*
X13820868Y14635797D01*
X13733039Y14662985D01*
X13733036Y14662986D01*
X13727152Y14664807D01*
X13721027Y14665451D01*
X13721026Y14665451D01*
X13538147Y14684673D01*
X13538146Y14684673D01*
X13532019Y14685317D01*
X13409383Y14674156D01*
X13342759Y14668093D01*
X13342758Y14668093D01*
X13336618Y14667534D01*
X13330704Y14665793D01*
X13330702Y14665793D01*
X13223839Y14634341D01*
X13148393Y14612136D01*
X13142928Y14609279D01*
X12979972Y14524088D01*
X12979968Y14524085D01*
X12974512Y14521233D01*
X12969712Y14517373D01*
X12969711Y14517373D01*
X12956966Y14507126D01*
X12821600Y14398289D01*
X12817642Y14393572D01*
X12817640Y14393570D01*
X12769783Y14336536D01*
X12710673Y14297209D01*
X12639685Y14296083D01*
X12579358Y14333514D01*
X12548535Y14399662D01*
X12535323Y14491918D01*
X12528409Y14507126D01*
X12486181Y14600000D01*
X12475984Y14622428D01*
X12437118Y14667534D01*
X12388260Y14724237D01*
X12388257Y14724240D01*
X12382400Y14731037D01*
X12262095Y14809015D01*
X12124739Y14850093D01*
X12115763Y14850148D01*
X12115762Y14850148D01*
X12055555Y14850516D01*
X11981376Y14850969D01*
X11843529Y14811572D01*
X11722280Y14735070D01*
X11627377Y14627612D01*
X11566447Y14497837D01*
X11565066Y14488965D01*
X11556000Y14430739D01*
X11525756Y14366506D01*
X11499055Y14349783D01*
X11364055Y14349783D01*
X11335320Y14368726D01*
X11306582Y14433646D01*
X11305500Y14450123D01*
X11305500Y16155326D01*
X11300940Y16192706D01*
X11290704Y16234037D01*
X12519757Y16234037D01*
X12536175Y16038517D01*
X12590258Y15849909D01*
X12593076Y15844426D01*
X12677123Y15680887D01*
X12677126Y15680883D01*
X12679944Y15675399D01*
X12801818Y15521631D01*
X12806511Y15517637D01*
X12806512Y15517636D01*
X12823080Y15503536D01*
X12951238Y15394465D01*
X12956616Y15391459D01*
X12956618Y15391458D01*
X12992932Y15371163D01*
X13122513Y15298743D01*
X13309118Y15238111D01*
X13503946Y15214879D01*
X13510081Y15215351D01*
X13510083Y15215351D01*
X13693434Y15229459D01*
X13693438Y15229460D01*
X13699576Y15229932D01*
X13888556Y15282697D01*
X14063689Y15371163D01*
X14093515Y15394465D01*
X14213453Y15488171D01*
X14218303Y15491960D01*
X14248084Y15526461D01*
X14342485Y15635827D01*
X14342485Y15635828D01*
X14346509Y15640489D01*
X14443425Y15811091D01*
X14505358Y15997268D01*
X14529949Y16191929D01*
X14530341Y16220000D01*
X14528965Y16234037D01*
X15059757Y16234037D01*
X15076175Y16038517D01*
X15130258Y15849909D01*
X15133076Y15844426D01*
X15217123Y15680887D01*
X15217126Y15680883D01*
X15219944Y15675399D01*
X15341818Y15521631D01*
X15346511Y15517637D01*
X15346512Y15517636D01*
X15363080Y15503536D01*
X15491238Y15394465D01*
X15496616Y15391459D01*
X15496618Y15391458D01*
X15532932Y15371163D01*
X15662513Y15298743D01*
X15849118Y15238111D01*
X16043946Y15214879D01*
X16050081Y15215351D01*
X16050083Y15215351D01*
X16233434Y15229459D01*
X16233438Y15229460D01*
X16239576Y15229932D01*
X16428556Y15282697D01*
X16603689Y15371163D01*
X16633515Y15394465D01*
X16753453Y15488171D01*
X16758303Y15491960D01*
X16788084Y15526461D01*
X16882485Y15635827D01*
X16882485Y15635828D01*
X16886509Y15640489D01*
X16983425Y15811091D01*
X17045358Y15997268D01*
X17069949Y16191929D01*
X17070341Y16220000D01*
X17051194Y16415272D01*
X17049413Y16421171D01*
X17049412Y16421176D01*
X16996265Y16597207D01*
X16994484Y16603106D01*
X16902370Y16776347D01*
X16778361Y16928398D01*
X16627180Y17053465D01*
X16454585Y17146787D01*
X16360869Y17175797D01*
X16273039Y17202985D01*
X16273036Y17202986D01*
X16267152Y17204807D01*
X16261027Y17205451D01*
X16261026Y17205451D01*
X16078147Y17224673D01*
X16078146Y17224673D01*
X16072019Y17225317D01*
X15949383Y17214156D01*
X15882759Y17208093D01*
X15882758Y17208093D01*
X15876618Y17207534D01*
X15870704Y17205793D01*
X15870702Y17205793D01*
X15802779Y17185802D01*
X15688393Y17152136D01*
X15682928Y17149279D01*
X15519972Y17064088D01*
X15519968Y17064085D01*
X15514512Y17061233D01*
X15509712Y17057373D01*
X15509711Y17057373D01*
X15499521Y17049180D01*
X15361600Y16938289D01*
X15235480Y16787984D01*
X15232516Y16782592D01*
X15232513Y16782588D01*
X15159189Y16649211D01*
X15140956Y16616046D01*
X15139095Y16610179D01*
X15139094Y16610177D01*
X15121815Y16555706D01*
X15081628Y16429022D01*
X15059757Y16234037D01*
X14528965Y16234037D01*
X14511194Y16415272D01*
X14509413Y16421171D01*
X14509412Y16421176D01*
X14456265Y16597207D01*
X14454484Y16603106D01*
X14362370Y16776347D01*
X14238361Y16928398D01*
X14087180Y17053465D01*
X13914585Y17146787D01*
X13820869Y17175797D01*
X13733039Y17202985D01*
X13733036Y17202986D01*
X13727152Y17204807D01*
X13721027Y17205451D01*
X13721026Y17205451D01*
X13538147Y17224673D01*
X13538146Y17224673D01*
X13532019Y17225317D01*
X13409383Y17214156D01*
X13342759Y17208093D01*
X13342758Y17208093D01*
X13336618Y17207534D01*
X13330704Y17205793D01*
X13330702Y17205793D01*
X13262779Y17185802D01*
X13148393Y17152136D01*
X13142928Y17149279D01*
X12979972Y17064088D01*
X12979968Y17064085D01*
X12974512Y17061233D01*
X12969712Y17057373D01*
X12969711Y17057373D01*
X12959521Y17049180D01*
X12821600Y16938289D01*
X12695480Y16787984D01*
X12692516Y16782592D01*
X12692513Y16782588D01*
X12619189Y16649211D01*
X12600956Y16616046D01*
X12599095Y16610179D01*
X12599094Y16610177D01*
X12581815Y16555706D01*
X12541628Y16429022D01*
X12519757Y16234037D01*
X11290704Y16234037D01*
X11286378Y16251507D01*
X11246951Y16322502D01*
X11197470Y16373416D01*
X11121174Y16416501D01*
X11052022Y16432580D01*
X11014354Y16430425D01*
X10973543Y16428091D01*
X10973540Y16428090D01*
X10964547Y16427576D01*
X10900791Y16404827D01*
X10894890Y16401094D01*
X10888621Y16398039D01*
X10888459Y16398372D01*
X10879475Y16394461D01*
X10879649Y16394119D01*
X10800690Y16353887D01*
X10763197Y16341706D01*
X10719708Y16334819D01*
X10680292Y16334819D01*
X10636803Y16341706D01*
X10599310Y16353887D01*
X10560071Y16373880D01*
X10528180Y16397052D01*
X10497052Y16428180D01*
X10473880Y16460072D01*
X10463342Y16480754D01*
X10453887Y16499310D01*
X10441706Y16536803D01*
X10434819Y16580292D01*
X10434819Y16619708D01*
X10441706Y16663197D01*
X10453888Y16700692D01*
X10456047Y16704928D01*
X10473880Y16739929D01*
X10497052Y16771820D01*
X10528180Y16802948D01*
X10560072Y16826120D01*
X10583753Y16838186D01*
X10599310Y16846113D01*
X10636803Y16858294D01*
X10680292Y16865181D01*
X10719708Y16865181D01*
X10763197Y16858294D01*
X10800690Y16846113D01*
X10879649Y16805881D01*
X10878810Y16804234D01*
X10883307Y16802408D01*
X10883995Y16803713D01*
X10889573Y16800770D01*
X10894823Y16797289D01*
X10900662Y16794919D01*
X10939863Y16779007D01*
X10939865Y16779006D01*
X10947585Y16775873D01*
X10955856Y16774864D01*
X11019924Y16767048D01*
X11019927Y16767048D01*
X11028198Y16766039D01*
X11098472Y16776143D01*
X11133733Y16792246D01*
X11169976Y16808797D01*
X11169979Y16808799D01*
X11178173Y16812541D01*
X11184981Y16818440D01*
X11184984Y16818442D01*
X11225017Y16853131D01*
X11225018Y16853133D01*
X11231829Y16859034D01*
X11279199Y16932744D01*
X11299201Y17000865D01*
X11305500Y17044674D01*
X11305500Y17568500D01*
X11325502Y17636621D01*
X11379158Y17683114D01*
X11431500Y17694500D01*
X13734037Y17694500D01*
X13735579Y17694576D01*
X13735588Y17694576D01*
X13747740Y17695173D01*
X13747755Y17695174D01*
X13749279Y17695249D01*
X13750804Y17695399D01*
X13750815Y17695400D01*
X13758631Y17696170D01*
X13773860Y17697670D01*
X13775364Y17697893D01*
X13787447Y17699685D01*
X13787454Y17699686D01*
X13788956Y17699909D01*
X13847874Y17711629D01*
X13850822Y17712523D01*
X13850829Y17712525D01*
X13866874Y17717393D01*
X13877042Y17720477D01*
X13879892Y17721658D01*
X13879899Y17721660D01*
X13919601Y17738105D01*
X13922462Y17739290D01*
X13949347Y17753660D01*
X13999298Y17787036D01*
X14000505Y17787931D01*
X14000526Y17787946D01*
X14010338Y17795224D01*
X14010342Y17795227D01*
X14011558Y17796129D01*
X14012739Y17797098D01*
X14029443Y17810807D01*
X14029456Y17810819D01*
X14030651Y17811799D01*
X14041955Y17822045D01*
X14427955Y18208045D01*
X14438201Y18219349D01*
X14439181Y18220544D01*
X14439193Y18220557D01*
X14452902Y18237261D01*
X14452907Y18237268D01*
X14453871Y18238442D01*
X14454776Y18239662D01*
X14462054Y18249474D01*
X14462069Y18249495D01*
X14462964Y18250702D01*
X14496340Y18300653D01*
X14499218Y18306037D01*
X14509250Y18324806D01*
X14509255Y18324817D01*
X14510709Y18327537D01*
X14529523Y18372958D01*
X14534401Y18389038D01*
X14537473Y18399164D01*
X14537475Y18399172D01*
X14538372Y18402129D01*
X14539897Y18409793D01*
X14549786Y18459515D01*
X14550091Y18461046D01*
X14552330Y18476140D01*
X14554092Y18494025D01*
X15100923Y18494025D01*
X15129025Y18396020D01*
X15133543Y18384608D01*
X15217546Y18221156D01*
X15224196Y18210838D01*
X15338350Y18066811D01*
X15346873Y18057985D01*
X15486833Y17938871D01*
X15496905Y17931870D01*
X15657334Y17842210D01*
X15668574Y17837299D01*
X15793769Y17796621D01*
X15807867Y17796218D01*
X15811000Y17802590D01*
X15811000Y17810742D01*
X16319000Y17810742D01*
X16322973Y17797211D01*
X16331188Y17796030D01*
X16422430Y17821505D01*
X16433881Y17825947D01*
X16597919Y17908807D01*
X16608276Y17915380D01*
X16753100Y18028530D01*
X16761986Y18036991D01*
X16882070Y18176110D01*
X16889144Y18186138D01*
X16979919Y18345932D01*
X16984913Y18357148D01*
X17028712Y18488811D01*
X17029213Y18502903D01*
X17023024Y18506000D01*
X16337115Y18506000D01*
X16321876Y18501525D01*
X16320671Y18500135D01*
X16319000Y18492452D01*
X16319000Y17810742D01*
X15811000Y17810742D01*
X15811000Y18487885D01*
X15806525Y18503124D01*
X15805135Y18504329D01*
X15797452Y18506000D01*
X15115604Y18506000D01*
X15102073Y18502027D01*
X15100923Y18494025D01*
X14554092Y18494025D01*
X14554395Y18497099D01*
X14554600Y18499185D01*
X14554601Y18499196D01*
X14554751Y18500721D01*
X14554859Y18502903D01*
X14555424Y18514412D01*
X14555424Y18514421D01*
X14555500Y18515963D01*
X14555500Y18984037D01*
X14554751Y18999279D01*
X14554600Y19000815D01*
X14552989Y19017168D01*
X15101594Y19017168D01*
X15108153Y19014000D01*
X15792885Y19014000D01*
X15808124Y19018475D01*
X15809329Y19019865D01*
X15811000Y19027548D01*
X15811000Y19032115D01*
X16319000Y19032115D01*
X16323475Y19016876D01*
X16324865Y19015671D01*
X16332548Y19014000D01*
X17014826Y19014000D01*
X17028357Y19017973D01*
X17029449Y19025567D01*
X16995801Y19137015D01*
X16991126Y19148356D01*
X16904846Y19310627D01*
X16898059Y19320843D01*
X16781899Y19463269D01*
X16773255Y19471973D01*
X16631649Y19589120D01*
X16621478Y19595980D01*
X16459809Y19683394D01*
X16448504Y19688146D01*
X16336308Y19722876D01*
X16322205Y19723082D01*
X16319000Y19716327D01*
X16319000Y19032115D01*
X15811000Y19032115D01*
X15811000Y19709586D01*
X15807027Y19723117D01*
X15799232Y19724237D01*
X15694496Y19693411D01*
X15683119Y19688814D01*
X15520247Y19603667D01*
X15509986Y19596953D01*
X15366751Y19481789D01*
X15357992Y19473211D01*
X15239853Y19332419D01*
X15232927Y19322305D01*
X15144383Y19161243D01*
X15139555Y19149979D01*
X15101898Y19031269D01*
X15101594Y19017168D01*
X14552989Y19017168D01*
X14552485Y19022290D01*
X14552483Y19022305D01*
X14552330Y19023860D01*
X14551106Y19032115D01*
X14550321Y19037405D01*
X14550319Y19037414D01*
X14550091Y19038954D01*
X14538372Y19097871D01*
X14529523Y19127042D01*
X14510709Y19172463D01*
X14509255Y19175183D01*
X14509250Y19175194D01*
X14497800Y19196616D01*
X14497797Y19196621D01*
X14496340Y19199347D01*
X14462964Y19249298D01*
X14462069Y19250505D01*
X14462054Y19250526D01*
X14454776Y19260338D01*
X14454773Y19260342D01*
X14453871Y19261558D01*
X14452902Y19262739D01*
X14439193Y19279443D01*
X14439181Y19279456D01*
X14438201Y19280651D01*
X14427955Y19291955D01*
X14041955Y19677955D01*
X14030651Y19688201D01*
X14029456Y19689181D01*
X14029443Y19689193D01*
X14012739Y19702902D01*
X14012732Y19702907D01*
X14011558Y19703871D01*
X14003853Y19709586D01*
X14000526Y19712054D01*
X14000505Y19712069D01*
X13999298Y19712964D01*
X13992890Y19717246D01*
X13991334Y19718286D01*
X13949347Y19746340D01*
X13922462Y19760710D01*
X13916776Y19763065D01*
X13879899Y19778340D01*
X13879892Y19778342D01*
X13877042Y19779523D01*
X13866874Y19782607D01*
X13850829Y19787475D01*
X13850822Y19787477D01*
X13847874Y19788371D01*
X13788956Y19800091D01*
X13787454Y19800314D01*
X13787447Y19800315D01*
X13775364Y19802107D01*
X13775361Y19802107D01*
X13773860Y19802330D01*
X13758631Y19803830D01*
X13750815Y19804600D01*
X13750804Y19804601D01*
X13749279Y19804751D01*
X13747755Y19804826D01*
X13747740Y19804827D01*
X13735588Y19805424D01*
X13735579Y19805424D01*
X13734037Y19805500D01*
X12516115Y19805500D01*
X12447994Y19825502D01*
X12401501Y19879158D01*
X12391397Y19949432D01*
X12402723Y19986438D01*
X12404230Y19989549D01*
X12431710Y20046267D01*
X12455496Y20187646D01*
X12455555Y20192508D01*
X12455991Y20197363D01*
X12457618Y20197217D01*
X12476369Y20258289D01*
X12530593Y20304118D01*
X12600986Y20313356D01*
X12614144Y20309659D01*
X12616278Y20308233D01*
X12660180Y20299500D01*
X14389820Y20299500D01*
X14433722Y20308233D01*
X14444040Y20315127D01*
X14444042Y20315128D01*
X14473185Y20334601D01*
X14483504Y20341496D01*
X14497670Y20362697D01*
X14509872Y20380958D01*
X14509873Y20380960D01*
X14516767Y20391278D01*
X14525500Y20435180D01*
X14525500Y21314037D01*
X15059757Y21314037D01*
X15076175Y21118517D01*
X15130258Y20929909D01*
X15133076Y20924426D01*
X15217123Y20760887D01*
X15217126Y20760883D01*
X15219944Y20755399D01*
X15341818Y20601631D01*
X15346511Y20597637D01*
X15346512Y20597636D01*
X15462995Y20498502D01*
X15491238Y20474465D01*
X15496616Y20471459D01*
X15496618Y20471458D01*
X15527625Y20454129D01*
X15662513Y20378743D01*
X15849118Y20318111D01*
X16043946Y20294879D01*
X16050081Y20295351D01*
X16050083Y20295351D01*
X16233434Y20309459D01*
X16233438Y20309460D01*
X16239576Y20309932D01*
X16428556Y20362697D01*
X16603689Y20451163D01*
X16610883Y20456783D01*
X16753453Y20568171D01*
X16758303Y20571960D01*
X16769620Y20585070D01*
X16882485Y20715827D01*
X16882485Y20715828D01*
X16886509Y20720489D01*
X16983425Y20891091D01*
X17045358Y21077268D01*
X17069949Y21271929D01*
X17070341Y21300000D01*
X17051194Y21495272D01*
X17049413Y21501171D01*
X17049412Y21501176D01*
X16996265Y21677207D01*
X16994484Y21683106D01*
X16902370Y21856347D01*
X16778361Y22008398D01*
X16627180Y22133465D01*
X16454585Y22226787D01*
X16352124Y22258504D01*
X16273039Y22282985D01*
X16273036Y22282986D01*
X16267152Y22284807D01*
X16261027Y22285451D01*
X16261026Y22285451D01*
X16078147Y22304673D01*
X16078146Y22304673D01*
X16072019Y22305317D01*
X15981895Y22297115D01*
X15882759Y22288093D01*
X15882758Y22288093D01*
X15876618Y22287534D01*
X15870704Y22285793D01*
X15870702Y22285793D01*
X15847622Y22279000D01*
X15688393Y22232136D01*
X15682928Y22229279D01*
X15519972Y22144088D01*
X15519968Y22144085D01*
X15514512Y22141233D01*
X15509712Y22137373D01*
X15509711Y22137373D01*
X15475326Y22109727D01*
X15361600Y22018289D01*
X15235480Y21867984D01*
X15232516Y21862592D01*
X15232513Y21862588D01*
X15168605Y21746339D01*
X15140956Y21696046D01*
X15139095Y21690179D01*
X15139094Y21690177D01*
X15123917Y21642332D01*
X15081628Y21509022D01*
X15059757Y21314037D01*
X14525500Y21314037D01*
X14525500Y22164820D01*
X14516767Y22208722D01*
X14509873Y22219040D01*
X14509872Y22219042D01*
X14490399Y22248185D01*
X14483504Y22258504D01*
X14473185Y22265399D01*
X14444042Y22284872D01*
X14444040Y22284873D01*
X14433722Y22291767D01*
X14389820Y22300500D01*
X12660180Y22300500D01*
X12616278Y22291767D01*
X12605960Y22284873D01*
X12605958Y22284872D01*
X12576815Y22265399D01*
X12566496Y22258504D01*
X12559601Y22248185D01*
X12540128Y22219042D01*
X12540127Y22219040D01*
X12533233Y22208722D01*
X12524500Y22164820D01*
X12524500Y20639323D01*
X12504498Y20571202D01*
X12450842Y20524709D01*
X12380568Y20514605D01*
X12315988Y20544099D01*
X12303047Y20557075D01*
X12288259Y20574237D01*
X12282400Y20581037D01*
X12162095Y20659015D01*
X12024739Y20700093D01*
X12015763Y20700148D01*
X12015762Y20700148D01*
X11955555Y20700516D01*
X11881376Y20700969D01*
X11743529Y20661572D01*
X11622280Y20585070D01*
X11616338Y20578342D01*
X11616337Y20578341D01*
X11568971Y20524709D01*
X11527377Y20477612D01*
X11525047Y20479669D01*
X11482704Y20443707D01*
X11412334Y20434300D01*
X11348048Y20464432D01*
X11310258Y20524535D01*
X11305500Y20558834D01*
X11305500Y21387590D01*
X11304751Y21402832D01*
X11302330Y21427412D01*
X11302103Y21428945D01*
X11302100Y21428966D01*
X11300321Y21440958D01*
X11300318Y21440978D01*
X11300091Y21442505D01*
X11288372Y21501424D01*
X11286068Y21509022D01*
X11280422Y21527634D01*
X11280420Y21527638D01*
X11279523Y21530597D01*
X11260708Y21576020D01*
X11246337Y21602905D01*
X11219992Y21642332D01*
X11200655Y21665894D01*
X11165894Y21700655D01*
X11142331Y21719993D01*
X11102902Y21746339D01*
X11100175Y21747796D01*
X11100171Y21747799D01*
X11084084Y21756397D01*
X11076017Y21760709D01*
X11073168Y21761889D01*
X11073164Y21761891D01*
X11033449Y21778341D01*
X11030598Y21779522D01*
X11017962Y21783355D01*
X11004392Y21787472D01*
X11004384Y21787474D01*
X11001427Y21788371D01*
X10998398Y21788974D01*
X10998392Y21788975D01*
X10976869Y21793256D01*
X10942506Y21800091D01*
X10940966Y21800319D01*
X10940957Y21800321D01*
X10936168Y21801031D01*
X10927412Y21802330D01*
X10918014Y21803256D01*
X10904360Y21804601D01*
X10904340Y21804602D01*
X10902832Y21804751D01*
X10894414Y21805165D01*
X10889141Y21805424D01*
X10889132Y21805424D01*
X10887590Y21805500D01*
X9512410Y21805500D01*
X9510868Y21805424D01*
X9510859Y21805424D01*
X9505586Y21805165D01*
X9497168Y21804751D01*
X9495660Y21804602D01*
X9495640Y21804601D01*
X9481986Y21803256D01*
X9472588Y21802330D01*
X9463832Y21801031D01*
X9459043Y21800321D01*
X9459034Y21800319D01*
X9457494Y21800091D01*
X9423131Y21793256D01*
X9401608Y21788975D01*
X9401602Y21788974D01*
X9398573Y21788371D01*
X9395616Y21787474D01*
X9395608Y21787472D01*
X9382038Y21783355D01*
X9369402Y21779522D01*
X9366551Y21778341D01*
X9326836Y21761891D01*
X9326832Y21761889D01*
X9323983Y21760709D01*
X9315916Y21756397D01*
X9299829Y21747799D01*
X9299825Y21747796D01*
X9297098Y21746339D01*
X9257669Y21719993D01*
X9234106Y21700655D01*
X9199345Y21665894D01*
X9180008Y21642332D01*
X9153663Y21602905D01*
X9139292Y21576020D01*
X9120477Y21530597D01*
X9119580Y21527638D01*
X9119578Y21527634D01*
X9113933Y21509022D01*
X9111628Y21501424D01*
X9099909Y21442505D01*
X9099682Y21440978D01*
X9099679Y21440958D01*
X9097900Y21428966D01*
X9097897Y21428945D01*
X9097670Y21427412D01*
X9095249Y21402832D01*
X9094500Y21387590D01*
X9094500Y18872723D01*
X9099895Y18832119D01*
X9117077Y18768600D01*
X9121529Y18761158D01*
X9121529Y18761157D01*
X9155958Y18703599D01*
X9155960Y18703596D01*
X9160412Y18696154D01*
X9212026Y18647407D01*
X9247553Y18622362D01*
X9248201Y18621905D01*
X9248178Y18621873D01*
X9269870Y18604898D01*
X9302948Y18571820D01*
X9326120Y18539929D01*
X9345688Y18501525D01*
X9346112Y18500692D01*
X9358294Y18463197D01*
X9365181Y18419708D01*
X9365181Y18380292D01*
X9358294Y18336803D01*
X9346113Y18299310D01*
X9330383Y18268438D01*
X9326120Y18260072D01*
X9302948Y18228180D01*
X9270054Y18195286D01*
X9248119Y18178214D01*
X9248201Y18178095D01*
X9246154Y18176685D01*
X9246149Y18176681D01*
X9214472Y18154854D01*
X9165678Y18110709D01*
X9120801Y18039207D01*
X9100799Y17971086D01*
X9094500Y17927277D01*
X9094500Y14516396D01*
X9094845Y14506039D01*
X9095963Y14489290D01*
X9109064Y14436393D01*
X9111582Y14430739D01*
X9128688Y14392323D01*
X9137944Y14371535D01*
X9143780Y14364670D01*
X9143781Y14364668D01*
X9183965Y14317397D01*
X9194694Y14304776D01*
X9202225Y14299835D01*
X9252402Y14266913D01*
X9298385Y14212819D01*
X9307781Y14142180D01*
X9296140Y14067409D01*
X9294391Y14056177D01*
X9295555Y14047275D01*
X9295555Y14047272D01*
X9307916Y13952747D01*
X9296916Y13882608D01*
X9249741Y13829551D01*
X9235328Y13821799D01*
X9221827Y13815633D01*
X9215019Y13809734D01*
X9215016Y13809732D01*
X9174983Y13775043D01*
X9168171Y13769140D01*
X9120801Y13695430D01*
X9118261Y13686781D01*
X9118261Y13686780D01*
X9116270Y13680000D01*
X9100799Y13627309D01*
X9094500Y13583500D01*
X9094500Y13062410D01*
X150500Y13062410D01*
X150500Y13247115D01*
X1800000Y13247115D01*
X1804475Y13231876D01*
X1805865Y13230671D01*
X1813548Y13229000D01*
X2677885Y13229000D01*
X2693124Y13233475D01*
X2694329Y13234865D01*
X2696000Y13242548D01*
X2696000Y13247115D01*
X3204000Y13247115D01*
X3208475Y13231876D01*
X3209865Y13230671D01*
X3217548Y13229000D01*
X4081885Y13229000D01*
X4097124Y13233475D01*
X4098329Y13234865D01*
X4100000Y13242548D01*
X4100000Y13247115D01*
X5730000Y13247115D01*
X5734475Y13231876D01*
X5735865Y13230671D01*
X5743548Y13229000D01*
X6657885Y13229000D01*
X6673124Y13233475D01*
X6674329Y13234865D01*
X6676000Y13242548D01*
X6676000Y13247115D01*
X7184000Y13247115D01*
X7188475Y13231876D01*
X7189865Y13230671D01*
X7197548Y13229000D01*
X8111885Y13229000D01*
X8127124Y13233475D01*
X8128329Y13234865D01*
X8130000Y13242548D01*
X8130000Y13368915D01*
X8129631Y13375729D01*
X8124211Y13425621D01*
X8120586Y13440867D01*
X8076233Y13559177D01*
X8067701Y13574763D01*
X7992570Y13675009D01*
X7980009Y13687570D01*
X7879763Y13762701D01*
X7864177Y13771233D01*
X7745867Y13815586D01*
X7730621Y13819211D01*
X7680729Y13824631D01*
X7673915Y13825000D01*
X7202115Y13825000D01*
X7186876Y13820525D01*
X7185671Y13819135D01*
X7184000Y13811452D01*
X7184000Y13247115D01*
X6676000Y13247115D01*
X6676000Y13806885D01*
X6671525Y13822124D01*
X6670135Y13823329D01*
X6649217Y13827879D01*
X6649653Y13829883D01*
X6598162Y13845002D01*
X6551669Y13898658D01*
X6541565Y13968932D01*
X6571059Y14033512D01*
X6618065Y14067409D01*
X6620815Y14068548D01*
X6690233Y14097302D01*
X6810451Y14189549D01*
X6902698Y14309767D01*
X6960687Y14449764D01*
X6980466Y14600000D01*
X6960687Y14750236D01*
X6902698Y14890233D01*
X6810451Y15010451D01*
X6690233Y15102698D01*
X6550236Y15160687D01*
X6437720Y15175500D01*
X6362280Y15175500D01*
X6249764Y15160687D01*
X6109767Y15102698D01*
X5989549Y15010451D01*
X5897302Y14890233D01*
X5839313Y14750236D01*
X5819534Y14600000D01*
X5839313Y14449764D01*
X5897302Y14309767D01*
X5989549Y14189549D01*
X6109767Y14097302D01*
X6187630Y14065050D01*
X6190689Y14063783D01*
X6245969Y14019234D01*
X6268390Y13951871D01*
X6250832Y13883079D01*
X6198869Y13834701D01*
X6156077Y13822111D01*
X6129379Y13819211D01*
X6114133Y13815586D01*
X5995823Y13771233D01*
X5980237Y13762701D01*
X5879991Y13687570D01*
X5867430Y13675009D01*
X5792299Y13574763D01*
X5783767Y13559177D01*
X5739414Y13440867D01*
X5735789Y13425621D01*
X5730369Y13375729D01*
X5730000Y13368915D01*
X5730000Y13247115D01*
X4100000Y13247115D01*
X4100000Y13368915D01*
X4099631Y13375729D01*
X4094211Y13425621D01*
X4090586Y13440867D01*
X4046233Y13559177D01*
X4037701Y13574763D01*
X3962570Y13675009D01*
X3950009Y13687570D01*
X3849763Y13762701D01*
X3834177Y13771233D01*
X3715867Y13815586D01*
X3700621Y13819211D01*
X3650729Y13824631D01*
X3643915Y13825000D01*
X3222115Y13825000D01*
X3206876Y13820525D01*
X3205671Y13819135D01*
X3204000Y13811452D01*
X3204000Y13247115D01*
X2696000Y13247115D01*
X2696000Y13806885D01*
X2691525Y13822124D01*
X2690135Y13823329D01*
X2682452Y13825000D01*
X2256085Y13825000D01*
X2249271Y13824631D01*
X2199379Y13819211D01*
X2184133Y13815586D01*
X2065823Y13771233D01*
X2050237Y13762701D01*
X1949991Y13687570D01*
X1937430Y13675009D01*
X1862299Y13574763D01*
X1853767Y13559177D01*
X1809414Y13440867D01*
X1805789Y13425621D01*
X1800369Y13375729D01*
X1800000Y13368915D01*
X1800000Y13247115D01*
X150500Y13247115D01*
X150500Y16006177D01*
X4394391Y16006177D01*
X4395555Y15997275D01*
X4395555Y15997272D01*
X4396321Y15991416D01*
X4412980Y15864021D01*
X4470720Y15732797D01*
X4476497Y15725924D01*
X4476498Y15725923D01*
X4557190Y15629928D01*
X4562970Y15623052D01*
X4682313Y15543610D01*
X4819157Y15500858D01*
X4828129Y15500694D01*
X4828132Y15500693D01*
X4893463Y15499496D01*
X4962499Y15498230D01*
X4971533Y15500693D01*
X5092158Y15533579D01*
X5092160Y15533580D01*
X5100817Y15535940D01*
X5222991Y15610955D01*
X5319200Y15717246D01*
X5362069Y15805728D01*
X5377795Y15838186D01*
X5377795Y15838187D01*
X5381710Y15846267D01*
X5405496Y15987646D01*
X5405647Y16000000D01*
X5385323Y16141918D01*
X5325984Y16272428D01*
X5289114Y16315218D01*
X5238260Y16374237D01*
X5238257Y16374240D01*
X5232400Y16381037D01*
X5213235Y16393459D01*
X5166952Y16447294D01*
X5157122Y16517607D01*
X5186867Y16582073D01*
X5208543Y16600396D01*
X5208436Y16600525D01*
X5215342Y16606259D01*
X5222991Y16610955D01*
X5232483Y16621441D01*
X5313178Y16710593D01*
X5319200Y16717246D01*
X5362143Y16805881D01*
X5377795Y16838186D01*
X5377795Y16838187D01*
X5381710Y16846267D01*
X5405496Y16987646D01*
X5405647Y17000000D01*
X5394022Y17081177D01*
X5779933Y17081177D01*
X5781097Y17072275D01*
X5781097Y17072272D01*
X5784117Y17049180D01*
X5798522Y16939021D01*
X5802139Y16930801D01*
X5842891Y16838186D01*
X5856262Y16807797D01*
X5862039Y16800924D01*
X5862040Y16800923D01*
X5874926Y16785593D01*
X5948512Y16698052D01*
X6067855Y16618610D01*
X6204699Y16575858D01*
X6213671Y16575694D01*
X6213674Y16575693D01*
X6279005Y16574496D01*
X6348041Y16573230D01*
X6357075Y16575693D01*
X6477700Y16608579D01*
X6477702Y16608580D01*
X6486359Y16610940D01*
X6608533Y16685955D01*
X6704742Y16792246D01*
X6767252Y16921267D01*
X6791038Y17062646D01*
X6791189Y17075000D01*
X6781328Y17143857D01*
X6772138Y17208032D01*
X6772137Y17208035D01*
X6770865Y17216918D01*
X6711526Y17347428D01*
X6684890Y17378341D01*
X6650714Y17418004D01*
X6621400Y17482667D01*
X6631699Y17552912D01*
X6652752Y17584807D01*
X6698718Y17635589D01*
X6698723Y17635596D01*
X6704742Y17642246D01*
X6758722Y17753660D01*
X6763337Y17763186D01*
X6763337Y17763187D01*
X6767252Y17771267D01*
X6791038Y17912646D01*
X6791189Y17925000D01*
X6780240Y18001452D01*
X6772138Y18058032D01*
X6772137Y18058035D01*
X6770865Y18066918D01*
X6711526Y18197428D01*
X6665622Y18250702D01*
X6623802Y18299237D01*
X6623799Y18299240D01*
X6617942Y18306037D01*
X6497637Y18384015D01*
X6360281Y18425093D01*
X6351305Y18425148D01*
X6351304Y18425148D01*
X6291097Y18425516D01*
X6216918Y18425969D01*
X6079071Y18386572D01*
X5957822Y18310070D01*
X5951880Y18303342D01*
X5951879Y18303341D01*
X5929703Y18278231D01*
X5862919Y18202612D01*
X5801989Y18072837D01*
X5797897Y18046553D01*
X5786147Y17971086D01*
X5779933Y17931177D01*
X5781097Y17922275D01*
X5781097Y17922272D01*
X5782356Y17912646D01*
X5798522Y17789021D01*
X5856262Y17657797D01*
X5874930Y17635589D01*
X5921085Y17580680D01*
X5949606Y17515664D01*
X5938450Y17445550D01*
X5919075Y17416198D01*
X5882017Y17374237D01*
X5862919Y17352612D01*
X5801989Y17222837D01*
X5796983Y17190686D01*
X5788007Y17133032D01*
X5779933Y17081177D01*
X5394022Y17081177D01*
X5385323Y17141918D01*
X5325984Y17272428D01*
X5255498Y17354231D01*
X5238260Y17374237D01*
X5238257Y17374240D01*
X5232400Y17381037D01*
X5112095Y17459015D01*
X4974739Y17500093D01*
X4965763Y17500148D01*
X4965762Y17500148D01*
X4905555Y17500516D01*
X4831376Y17500969D01*
X4693529Y17461572D01*
X4572280Y17385070D01*
X4477377Y17277612D01*
X4416447Y17147837D01*
X4415066Y17138965D01*
X4401142Y17049535D01*
X4394391Y17006177D01*
X4395555Y16997275D01*
X4395555Y16997272D01*
X4396621Y16989121D01*
X4412980Y16864021D01*
X4416597Y16855801D01*
X4451558Y16776347D01*
X4470720Y16732797D01*
X4476497Y16725924D01*
X4476498Y16725923D01*
X4483792Y16717246D01*
X4562970Y16623052D01*
X4570447Y16618075D01*
X4570449Y16618073D01*
X4589220Y16605578D01*
X4634843Y16551181D01*
X4643815Y16480754D01*
X4613286Y16416656D01*
X4586640Y16394131D01*
X4579874Y16389862D01*
X4579871Y16389860D01*
X4572280Y16385070D01*
X4566338Y16378342D01*
X4566337Y16378341D01*
X4560851Y16372129D01*
X4477377Y16277612D01*
X4416447Y16147837D01*
X4415066Y16138965D01*
X4398505Y16032597D01*
X4394391Y16006177D01*
X150500Y16006177D01*
X150500Y18400000D01*
X4374258Y18400000D01*
X4375809Y18390207D01*
X4380846Y18358407D01*
X4395095Y18268438D01*
X4399596Y18259605D01*
X4399596Y18259604D01*
X4409757Y18239662D01*
X4455567Y18149755D01*
X4549755Y18055567D01*
X4598196Y18030885D01*
X4655962Y18001452D01*
X4668438Y17995095D01*
X4800000Y17974258D01*
X4931562Y17995095D01*
X4944039Y18001452D01*
X5001804Y18030885D01*
X5050245Y18055567D01*
X5144433Y18149755D01*
X5190243Y18239662D01*
X5200404Y18259604D01*
X5200404Y18259605D01*
X5204905Y18268438D01*
X5219154Y18358407D01*
X5224191Y18390207D01*
X5225742Y18400000D01*
X5220078Y18435763D01*
X5229178Y18506174D01*
X5274900Y18560488D01*
X5342729Y18581460D01*
X5364237Y18579922D01*
X5390207Y18575809D01*
X5400000Y18574258D01*
X5445473Y18581460D01*
X5521769Y18593544D01*
X5531562Y18595095D01*
X5546975Y18602948D01*
X5629137Y18644812D01*
X5650245Y18655567D01*
X5744433Y18749755D01*
X5804905Y18868438D01*
X5825742Y19000000D01*
X5804905Y19131562D01*
X5744433Y19250245D01*
X5650245Y19344433D01*
X5594400Y19372887D01*
X5540396Y19400404D01*
X5540395Y19400404D01*
X5531562Y19404905D01*
X5400000Y19425742D01*
X5350564Y19417912D01*
X5280154Y19427012D01*
X5225840Y19472733D01*
X5204867Y19540562D01*
X5223894Y19608961D01*
X5237438Y19626916D01*
X5313178Y19710593D01*
X5319200Y19717246D01*
X5359338Y19800091D01*
X5377795Y19838186D01*
X5377795Y19838187D01*
X5381710Y19846267D01*
X5405496Y19987646D01*
X5405647Y20000000D01*
X5390866Y20103214D01*
X5386596Y20133032D01*
X5386595Y20133035D01*
X5385323Y20141918D01*
X5325984Y20272428D01*
X5266471Y20341496D01*
X5238260Y20374237D01*
X5238257Y20374240D01*
X5232400Y20381037D01*
X5112095Y20459015D01*
X4974739Y20500093D01*
X4965763Y20500148D01*
X4965762Y20500148D01*
X4905555Y20500516D01*
X4831376Y20500969D01*
X4693529Y20461572D01*
X4572280Y20385070D01*
X4566338Y20378342D01*
X4566337Y20378341D01*
X4542910Y20351815D01*
X4477377Y20277612D01*
X4416447Y20147837D01*
X4394391Y20006177D01*
X4395555Y19997275D01*
X4395555Y19997272D01*
X4397441Y19982851D01*
X4412980Y19864021D01*
X4416597Y19855801D01*
X4457917Y19761895D01*
X4470720Y19732797D01*
X4476497Y19725924D01*
X4476498Y19725923D01*
X4477915Y19724237D01*
X4562970Y19623052D01*
X4602178Y19596953D01*
X4615013Y19588409D01*
X4660636Y19534011D01*
X4669607Y19463584D01*
X4639077Y19399486D01*
X4602396Y19371255D01*
X4558589Y19348935D01*
X4558585Y19348932D01*
X4549755Y19344433D01*
X4455567Y19250245D01*
X4395095Y19131562D01*
X4374258Y19000000D01*
X4395095Y18868438D01*
X4399596Y18859605D01*
X4399596Y18859604D01*
X4451772Y18757203D01*
X4464876Y18687426D01*
X4451772Y18642797D01*
X4408417Y18557707D01*
X4395095Y18531562D01*
X4374258Y18400000D01*
X150500Y18400000D01*
X150500Y21631085D01*
X1800000Y21631085D01*
X1800369Y21624271D01*
X1805789Y21574379D01*
X1809414Y21559133D01*
X1853767Y21440823D01*
X1862299Y21425237D01*
X1937430Y21324991D01*
X1949991Y21312430D01*
X2050237Y21237299D01*
X2065823Y21228767D01*
X2184133Y21184414D01*
X2199379Y21180789D01*
X2249271Y21175369D01*
X2256085Y21175000D01*
X2677885Y21175000D01*
X2693124Y21179475D01*
X2694329Y21180865D01*
X2696000Y21188548D01*
X2696000Y21193115D01*
X3204000Y21193115D01*
X3208475Y21177876D01*
X3209865Y21176671D01*
X3217548Y21175000D01*
X3643915Y21175000D01*
X3650729Y21175369D01*
X3700621Y21180789D01*
X3715867Y21184414D01*
X3834177Y21228767D01*
X3849763Y21237299D01*
X3950009Y21312430D01*
X3962570Y21324991D01*
X4037701Y21425237D01*
X4046233Y21440823D01*
X4090586Y21559133D01*
X4094211Y21574379D01*
X4099631Y21624271D01*
X4100000Y21631085D01*
X5730000Y21631085D01*
X5730369Y21624271D01*
X5735789Y21574379D01*
X5739414Y21559133D01*
X5783767Y21440823D01*
X5792299Y21425237D01*
X5867430Y21324991D01*
X5879991Y21312430D01*
X5980237Y21237299D01*
X5995823Y21228767D01*
X6114133Y21184414D01*
X6129379Y21180789D01*
X6156077Y21177889D01*
X6221639Y21150648D01*
X6262066Y21092285D01*
X6264522Y21021331D01*
X6228227Y20960313D01*
X6190690Y20936218D01*
X6109767Y20902698D01*
X5989549Y20810451D01*
X5897302Y20690233D01*
X5839313Y20550236D01*
X5819534Y20400000D01*
X5820612Y20391812D01*
X5833278Y20295608D01*
X5839313Y20249764D01*
X5897302Y20109767D01*
X5989549Y19989549D01*
X6109767Y19897302D01*
X6249764Y19839313D01*
X6362280Y19824500D01*
X6437720Y19824500D01*
X6550236Y19839313D01*
X6690233Y19897302D01*
X6810451Y19989549D01*
X6902698Y20109767D01*
X6960687Y20249764D01*
X6966723Y20295608D01*
X6979388Y20391812D01*
X6980466Y20400000D01*
X6960687Y20550236D01*
X6902698Y20690233D01*
X6810451Y20810451D01*
X6690233Y20902698D01*
X6618065Y20932591D01*
X6562784Y20977139D01*
X6540363Y21044503D01*
X6557921Y21113294D01*
X6609883Y21161672D01*
X6640773Y21168972D01*
X6640502Y21169896D01*
X6673124Y21179475D01*
X6674329Y21180865D01*
X6676000Y21188548D01*
X6676000Y21193115D01*
X7184000Y21193115D01*
X7188475Y21177876D01*
X7189865Y21176671D01*
X7197548Y21175000D01*
X7673915Y21175000D01*
X7680729Y21175369D01*
X7730621Y21180789D01*
X7745867Y21184414D01*
X7864177Y21228767D01*
X7879763Y21237299D01*
X7980009Y21312430D01*
X7992570Y21324991D01*
X8067701Y21425237D01*
X8076233Y21440823D01*
X8120586Y21559133D01*
X8124211Y21574379D01*
X8129631Y21624271D01*
X8130000Y21631085D01*
X8130000Y21752885D01*
X8125525Y21768124D01*
X8124135Y21769329D01*
X8116452Y21771000D01*
X7202115Y21771000D01*
X7186876Y21766525D01*
X7185671Y21765135D01*
X7184000Y21757452D01*
X7184000Y21193115D01*
X6676000Y21193115D01*
X6676000Y21752885D01*
X6671525Y21768124D01*
X6670135Y21769329D01*
X6662452Y21771000D01*
X5748115Y21771000D01*
X5732876Y21766525D01*
X5731671Y21765135D01*
X5730000Y21757452D01*
X5730000Y21631085D01*
X4100000Y21631085D01*
X4100000Y21752885D01*
X4095525Y21768124D01*
X4094135Y21769329D01*
X4086452Y21771000D01*
X3222115Y21771000D01*
X3206876Y21766525D01*
X3205671Y21765135D01*
X3204000Y21757452D01*
X3204000Y21193115D01*
X2696000Y21193115D01*
X2696000Y21752885D01*
X2691525Y21768124D01*
X2690135Y21769329D01*
X2682452Y21771000D01*
X1818115Y21771000D01*
X1802876Y21766525D01*
X1801671Y21765135D01*
X1800000Y21757452D01*
X1800000Y21631085D01*
X150500Y21631085D01*
X150500Y22297115D01*
X1800000Y22297115D01*
X1804475Y22281876D01*
X1805865Y22280671D01*
X1813548Y22279000D01*
X2677885Y22279000D01*
X2693124Y22283475D01*
X2694329Y22284865D01*
X2696000Y22292548D01*
X2696000Y22297115D01*
X3204000Y22297115D01*
X3208475Y22281876D01*
X3209865Y22280671D01*
X3217548Y22279000D01*
X4081885Y22279000D01*
X4097124Y22283475D01*
X4098329Y22284865D01*
X4100000Y22292548D01*
X4100000Y22297115D01*
X5730000Y22297115D01*
X5734475Y22281876D01*
X5735865Y22280671D01*
X5743548Y22279000D01*
X6657885Y22279000D01*
X6673124Y22283475D01*
X6674329Y22284865D01*
X6676000Y22292548D01*
X6676000Y22297115D01*
X7184000Y22297115D01*
X7188475Y22281876D01*
X7189865Y22280671D01*
X7197548Y22279000D01*
X8111885Y22279000D01*
X8127124Y22283475D01*
X8128329Y22284865D01*
X8130000Y22292548D01*
X8130000Y22418915D01*
X8129631Y22425729D01*
X8124211Y22475621D01*
X8120586Y22490867D01*
X8076233Y22609177D01*
X8067701Y22624763D01*
X7992570Y22725009D01*
X7980009Y22737570D01*
X7879763Y22812701D01*
X7864177Y22821233D01*
X7745867Y22865586D01*
X7730621Y22869211D01*
X7680729Y22874631D01*
X7673915Y22875000D01*
X7202115Y22875000D01*
X7186876Y22870525D01*
X7185671Y22869135D01*
X7184000Y22861452D01*
X7184000Y22297115D01*
X6676000Y22297115D01*
X6676000Y22856885D01*
X6671525Y22872124D01*
X6670135Y22873329D01*
X6662452Y22875000D01*
X6186085Y22875000D01*
X6179271Y22874631D01*
X6129379Y22869211D01*
X6114133Y22865586D01*
X5995823Y22821233D01*
X5980237Y22812701D01*
X5879991Y22737570D01*
X5867430Y22725009D01*
X5792299Y22624763D01*
X5783767Y22609177D01*
X5739414Y22490867D01*
X5735789Y22475621D01*
X5730369Y22425729D01*
X5730000Y22418915D01*
X5730000Y22297115D01*
X4100000Y22297115D01*
X4100000Y22418915D01*
X4099631Y22425729D01*
X4094211Y22475621D01*
X4090586Y22490867D01*
X4046233Y22609177D01*
X4037701Y22624763D01*
X3962570Y22725009D01*
X3950009Y22737570D01*
X3849763Y22812701D01*
X3834177Y22821233D01*
X3715867Y22865586D01*
X3700621Y22869211D01*
X3650729Y22874631D01*
X3643915Y22875000D01*
X3222115Y22875000D01*
X3206876Y22870525D01*
X3205671Y22869135D01*
X3204000Y22861452D01*
X3204000Y22297115D01*
X2696000Y22297115D01*
X2696000Y22856885D01*
X2691525Y22872124D01*
X2690135Y22873329D01*
X2682452Y22875000D01*
X2256085Y22875000D01*
X2249271Y22874631D01*
X2199379Y22869211D01*
X2184133Y22865586D01*
X2065823Y22821233D01*
X2050237Y22812701D01*
X1949991Y22737570D01*
X1937430Y22725009D01*
X1862299Y22624763D01*
X1853767Y22609177D01*
X1809414Y22490867D01*
X1805789Y22475621D01*
X1800369Y22425729D01*
X1800000Y22418915D01*
X1800000Y22297115D01*
X150500Y22297115D01*
X150500Y23906177D01*
X15294391Y23906177D01*
X15295555Y23897275D01*
X15295555Y23897272D01*
X15296814Y23887646D01*
X15312980Y23764021D01*
X15370720Y23632797D01*
X15376497Y23625924D01*
X15376498Y23625923D01*
X15383792Y23617246D01*
X15462970Y23523052D01*
X15582313Y23443610D01*
X15719157Y23400858D01*
X15728129Y23400694D01*
X15728132Y23400693D01*
X15793463Y23399496D01*
X15862499Y23398230D01*
X15871533Y23400693D01*
X15992158Y23433579D01*
X15992160Y23433580D01*
X16000817Y23435940D01*
X16122991Y23510955D01*
X16219200Y23617246D01*
X16281710Y23746267D01*
X16305496Y23887646D01*
X16305647Y23900000D01*
X16285323Y24041918D01*
X16225984Y24172428D01*
X16201487Y24200858D01*
X16138260Y24274237D01*
X16138257Y24274240D01*
X16132400Y24281037D01*
X16012095Y24359015D01*
X15874739Y24400093D01*
X15865763Y24400148D01*
X15865762Y24400148D01*
X15805555Y24400516D01*
X15731376Y24400969D01*
X15593529Y24361572D01*
X15472280Y24285070D01*
X15466338Y24278342D01*
X15466337Y24278341D01*
X15428890Y24235940D01*
X15377377Y24177612D01*
X15316447Y24047837D01*
X15294391Y23906177D01*
X150500Y23906177D01*
X150500Y24706177D01*
X10494391Y24706177D01*
X10495555Y24697275D01*
X10495555Y24697272D01*
X10496814Y24687646D01*
X10512980Y24564021D01*
X10570720Y24432797D01*
X10576497Y24425924D01*
X10576498Y24425923D01*
X10583792Y24417246D01*
X10662970Y24323052D01*
X10782313Y24243610D01*
X10919157Y24200858D01*
X10928129Y24200694D01*
X10928132Y24200693D01*
X10993463Y24199496D01*
X11062499Y24198230D01*
X11071533Y24200693D01*
X11192158Y24233579D01*
X11192160Y24233580D01*
X11200817Y24235940D01*
X11322991Y24310955D01*
X11419200Y24417246D01*
X11481710Y24546267D01*
X11505496Y24687646D01*
X11505647Y24700000D01*
X11485323Y24841918D01*
X11425984Y24972428D01*
X11407598Y24993766D01*
X11338260Y25074237D01*
X11338257Y25074240D01*
X11332400Y25081037D01*
X11212095Y25159015D01*
X11074739Y25200093D01*
X11065763Y25200148D01*
X11065762Y25200148D01*
X11005555Y25200516D01*
X10931376Y25200969D01*
X10793529Y25161572D01*
X10672280Y25085070D01*
X10577377Y24977612D01*
X10516447Y24847837D01*
X10494391Y24706177D01*
X150500Y24706177D01*
X150500Y26463598D01*
X151516Y26471315D01*
X151516Y26483978D01*
X155809Y26500000D01*
X152170Y26513583D01*
X152308Y26516043D01*
X165195Y26630420D01*
X171474Y26657928D01*
X210132Y26768407D01*
X222369Y26793820D01*
X284651Y26892943D01*
X302241Y26914998D01*
X385002Y26997759D01*
X407057Y27015349D01*
X506180Y27077631D01*
X531593Y27089868D01*
X642072Y27128526D01*
X669578Y27134805D01*
X682202Y27136228D01*
X721452Y27140650D01*
X791382Y27128401D01*
X842119Y27082678D01*
X914930Y26967280D01*
X1022388Y26872377D01*
X1152163Y26811447D01*
X1261009Y26794500D01*
X1335940Y26794500D01*
X1365456Y26798727D01*
X1383318Y26800000D01*
X2215934Y26800000D01*
X2235318Y26798500D01*
X2261009Y26794500D01*
X2335940Y26794500D01*
X2365456Y26798727D01*
X2383318Y26800000D01*
X3215934Y26800000D01*
X3235318Y26798500D01*
X3261009Y26794500D01*
X3335940Y26794500D01*
X3365456Y26798727D01*
X3383318Y26800000D01*
X4215934Y26800000D01*
X4235318Y26798500D01*
X4261009Y26794500D01*
X4335940Y26794500D01*
X4365456Y26798727D01*
X4383318Y26800000D01*
X5215934Y26800000D01*
X5235318Y26798500D01*
X5261009Y26794500D01*
X5335940Y26794500D01*
X5377339Y26800429D01*
X5433032Y26808404D01*
X5433035Y26808405D01*
X5441918Y26809677D01*
X5572428Y26869016D01*
X5600192Y26892939D01*
X5674237Y26956740D01*
X5674240Y26956743D01*
X5681037Y26962600D01*
X5759015Y27082905D01*
X5759845Y27082367D01*
X5801312Y27129798D01*
X5868964Y27149500D01*
X8585211Y27149500D01*
X8653332Y27129498D01*
G37*
%TD.AperFunction*%
%TA.AperFunction,Conductor*%
G36*
X10763197Y18658294D02*
G01*
X10800690Y18646113D01*
X10839928Y18626120D01*
X10871820Y18602948D01*
X10902948Y18571820D01*
X10926120Y18539929D01*
X10945688Y18501525D01*
X10946112Y18500692D01*
X10958294Y18463197D01*
X10965181Y18419708D01*
X10965181Y18380292D01*
X10958294Y18336803D01*
X10946113Y18299310D01*
X10930383Y18268438D01*
X10926120Y18260072D01*
X10902948Y18228180D01*
X10871820Y18197052D01*
X10839929Y18173880D01*
X10800690Y18153887D01*
X10763197Y18141706D01*
X10719708Y18134819D01*
X10680292Y18134819D01*
X10636803Y18141706D01*
X10599310Y18153887D01*
X10560071Y18173880D01*
X10528180Y18197052D01*
X10497052Y18228180D01*
X10473880Y18260072D01*
X10469617Y18268438D01*
X10453887Y18299310D01*
X10441706Y18336803D01*
X10434819Y18380292D01*
X10434819Y18419708D01*
X10441706Y18463197D01*
X10453888Y18500692D01*
X10454313Y18501525D01*
X10473880Y18539929D01*
X10497052Y18571820D01*
X10528180Y18602948D01*
X10560072Y18626120D01*
X10599310Y18646113D01*
X10636803Y18658294D01*
X10680292Y18665181D01*
X10719708Y18665181D01*
X10763197Y18658294D01*
G37*
%TD.AperFunction*%
%TD*%
%TA.AperFunction,Conductor*%
%TO.N,VBUS*%
G36*
X10912170Y21647579D02*
G01*
X10936073Y21642825D01*
X10971091Y21635859D01*
X11016510Y21617046D01*
X11036329Y21603804D01*
X11055939Y21590700D01*
X11090700Y21555939D01*
X11117045Y21516512D01*
X11135860Y21471089D01*
X11147579Y21412170D01*
X11150000Y21387590D01*
X11150000Y19650000D01*
X13734037Y19650000D01*
X13758618Y19647579D01*
X13817536Y19635859D01*
X13862956Y19617046D01*
X13912907Y19583670D01*
X13932000Y19568000D01*
X14318000Y19182000D01*
X14333670Y19162907D01*
X14367046Y19112956D01*
X14385860Y19067535D01*
X14397579Y19008618D01*
X14400000Y18984037D01*
X14400000Y18515963D01*
X14397579Y18491382D01*
X14385860Y18432465D01*
X14367046Y18387044D01*
X14333670Y18337093D01*
X14318000Y18318000D01*
X13932000Y17932000D01*
X13912907Y17916330D01*
X13862956Y17882954D01*
X13817536Y17864141D01*
X13763746Y17853441D01*
X13758618Y17852421D01*
X13734037Y17850000D01*
X11150000Y17850000D01*
X11150000Y17044674D01*
X11129998Y16976553D01*
X11076342Y16930060D01*
X11006068Y16919956D01*
X10953306Y16941372D01*
X10950245Y16944433D01*
X10941414Y16948933D01*
X10941412Y16948934D01*
X10840396Y17000404D01*
X10840395Y17000404D01*
X10831562Y17004905D01*
X10700000Y17025742D01*
X10568438Y17004905D01*
X10449755Y16944433D01*
X10355567Y16850245D01*
X10295095Y16731562D01*
X10274258Y16600000D01*
X10295095Y16468438D01*
X10355567Y16349755D01*
X10449755Y16255567D01*
X10458588Y16251067D01*
X10458587Y16251067D01*
X10531086Y16214127D01*
X10568438Y16195095D01*
X10700000Y16174258D01*
X10831562Y16195095D01*
X10840396Y16199596D01*
X10941412Y16251066D01*
X10941414Y16251067D01*
X10950245Y16255567D01*
X10953049Y16258371D01*
X11016805Y16281120D01*
X11085957Y16265041D01*
X11135438Y16214127D01*
X11150000Y16155326D01*
X11150000Y13062410D01*
X11147579Y13037830D01*
X11135860Y12978911D01*
X11117045Y12933488D01*
X11090700Y12894061D01*
X11055939Y12859300D01*
X11036329Y12846196D01*
X11016510Y12832954D01*
X10971091Y12814141D01*
X10936073Y12807175D01*
X10912170Y12802421D01*
X10887590Y12800000D01*
X9512410Y12800000D01*
X9487830Y12802421D01*
X9463927Y12807175D01*
X9428909Y12814141D01*
X9383490Y12832954D01*
X9363671Y12846196D01*
X9344061Y12859300D01*
X9309300Y12894061D01*
X9282955Y12933488D01*
X9264140Y12978911D01*
X9252421Y13037830D01*
X9250000Y13062410D01*
X9250000Y13583500D01*
X9270002Y13651621D01*
X9323658Y13698114D01*
X9393932Y13708218D01*
X9458844Y13677960D01*
X9462970Y13673052D01*
X9582313Y13593610D01*
X9719157Y13550858D01*
X9728129Y13550694D01*
X9728132Y13550693D01*
X9793463Y13549496D01*
X9862499Y13548230D01*
X9871533Y13550693D01*
X9992158Y13583579D01*
X9992160Y13583580D01*
X10000817Y13585940D01*
X10122991Y13660955D01*
X10129439Y13668078D01*
X10213178Y13760593D01*
X10219200Y13767246D01*
X10281710Y13896267D01*
X10305496Y14037646D01*
X10305647Y14050000D01*
X10285323Y14191918D01*
X10275274Y14214021D01*
X10229700Y14314254D01*
X10225984Y14322428D01*
X10186339Y14368438D01*
X10138260Y14424237D01*
X10138257Y14424240D01*
X10132400Y14431037D01*
X10012095Y14509015D01*
X9874739Y14550093D01*
X9865763Y14550148D01*
X9865762Y14550148D01*
X9805555Y14550516D01*
X9731376Y14550969D01*
X9593529Y14511572D01*
X9472280Y14435070D01*
X9466337Y14428341D01*
X9459501Y14422523D01*
X9457518Y14424853D01*
X9410351Y14395169D01*
X9339358Y14395842D01*
X9279998Y14434789D01*
X9251118Y14499647D01*
X9250000Y14516396D01*
X9250000Y17927277D01*
X9270002Y17995398D01*
X9318796Y18039543D01*
X9350245Y18055567D01*
X9444433Y18149755D01*
X9504905Y18268438D01*
X9525742Y18400000D01*
X10274258Y18400000D01*
X10295095Y18268438D01*
X10355567Y18149755D01*
X10449755Y18055567D01*
X10568438Y17995095D01*
X10700000Y17974258D01*
X10831562Y17995095D01*
X10950245Y18055567D01*
X11044433Y18149755D01*
X11104905Y18268438D01*
X11125742Y18400000D01*
X11104905Y18531562D01*
X11044433Y18650245D01*
X10950245Y18744433D01*
X10831562Y18804905D01*
X10700000Y18825742D01*
X10568438Y18804905D01*
X10449755Y18744433D01*
X10355567Y18650245D01*
X10295095Y18531562D01*
X10274258Y18400000D01*
X9525742Y18400000D01*
X9504905Y18531562D01*
X9444433Y18650245D01*
X9350245Y18744433D01*
X9318796Y18760457D01*
X9267182Y18809204D01*
X9250000Y18872723D01*
X9250000Y21387590D01*
X9252421Y21412170D01*
X9264140Y21471089D01*
X9282955Y21516512D01*
X9309300Y21555939D01*
X9344061Y21590700D01*
X9363671Y21603804D01*
X9383490Y21617046D01*
X9428909Y21635859D01*
X9463927Y21642825D01*
X9487830Y21647579D01*
X9512410Y21650000D01*
X10887590Y21650000D01*
X10912170Y21647579D01*
G37*
%TD.AperFunction*%
%TD*%
M02*
