%TF.GenerationSoftware,KiCad,Pcbnew,6.0.7+dfsg-1~bpo11+1*%
%TF.CreationDate,2022-10-03T02:59:32+00:00*%
%TF.ProjectId,0101-SERIAL-CP2102N,30313031-2d53-4455-9249-414c2d435032,V1.0*%
%TF.SameCoordinates,Original*%
%TF.FileFunction,Legend,Bot*%
%TF.FilePolarity,Positive*%
%FSLAX46Y46*%
G04 Gerber Fmt 4.6, Leading zero omitted, Abs format (unit mm)*
G04 Created by KiCad (PCBNEW 6.0.7+dfsg-1~bpo11+1) date 2022-10-03 02:59:32*
%MOMM*%
%LPD*%
G01*
G04 APERTURE LIST*
%ADD10C,0.120000*%
G04 APERTURE END LIST*
D10*
X2450000Y550000D02*
X7150000Y550000D01*
X1750000Y850000D02*
X1750000Y3750000D01*
X2450000Y850000D02*
X2450000Y550000D01*
X12050000Y1450000D02*
X11850000Y1250000D01*
X11850000Y1250000D02*
X7850000Y1250000D01*
X4800000Y3500000D02*
X4800000Y6200000D01*
X3150000Y3750000D02*
X3150000Y850000D01*
X6450000Y3750000D02*
X7850000Y3750000D01*
X3150000Y3750000D02*
X1750000Y3750000D01*
X7850000Y850000D02*
X6450000Y850000D01*
X7850000Y3750000D02*
X7850000Y850000D01*
X6450000Y3750000D02*
X6450000Y850000D01*
X3150000Y850000D02*
X1750000Y850000D01*
X7150000Y850000D02*
X7150000Y550000D01*
%TO.C,kibuzzard-633A4DBF*%
G36*
X15785773Y2229479D02*
G01*
X15805775Y2226701D01*
X15805775Y1764421D01*
X15793551Y1763310D01*
X15781328Y1763310D01*
X15702984Y1781090D01*
X15651867Y1829985D01*
X15624086Y1903883D01*
X15617835Y1948750D01*
X15615751Y1997784D01*
X15622419Y2084461D01*
X15645755Y2158915D01*
X15691316Y2210588D01*
X15765770Y2230035D01*
X15785773Y2229479D01*
G37*
G36*
X11926031Y2568966D02*
G01*
X16173969Y2568966D01*
X16173969Y1331034D01*
X11926031Y1331034D01*
X11926031Y1841097D01*
X12157541Y1841097D01*
X12173238Y1755392D01*
X12220327Y1691634D01*
X12269407Y1662310D01*
X12332934Y1644715D01*
X12410906Y1638850D01*
X12487860Y1643434D01*
X12547590Y1657186D01*
X12624266Y1691079D01*
X12584261Y1802204D01*
X12512586Y1768866D01*
X12466330Y1757198D01*
X12410906Y1753309D01*
X12353677Y1760532D01*
X12317561Y1780534D01*
X12299226Y1809427D01*
X12294225Y1842209D01*
X12306449Y1879991D01*
X12337564Y1909439D01*
X12379791Y1932776D01*
X12426464Y1952222D01*
X12490916Y1977781D01*
X12551479Y2014452D01*
X12596485Y2069459D01*
X12614265Y2151136D01*
X12600291Y2227812D01*
X12696497Y2227812D01*
X12877631Y2227812D01*
X12877631Y1653296D01*
X13015426Y1653296D01*
X13236565Y1653296D01*
X13379916Y1653296D01*
X13407559Y1718721D01*
X13439368Y1781646D01*
X13474511Y1843737D01*
X13512155Y1906661D01*
X13583275Y1906661D01*
X13583275Y1653296D01*
X13719959Y1653296D01*
X13719959Y2331159D01*
X13676064Y2339493D01*
X13627725Y2345049D01*
X13581052Y2347827D01*
X13542159Y2348939D01*
X13486041Y2345605D01*
X13435479Y2335604D01*
X13391029Y2318657D01*
X13353246Y2294488D01*
X13300462Y2223923D01*
X13286710Y2177390D01*
X13282126Y2123355D01*
X13288238Y2066126D01*
X13306574Y2014452D01*
X13339078Y1971392D01*
X13387695Y1939999D01*
X13347690Y1876102D01*
X13306574Y1802759D01*
X13268236Y1726083D01*
X13236565Y1653296D01*
X13015426Y1653296D01*
X13015426Y2227812D01*
X13196560Y2227812D01*
X13196560Y2341160D01*
X12696497Y2341160D01*
X12696497Y2227812D01*
X12600291Y2227812D01*
X12598569Y2237258D01*
X12551479Y2302266D01*
X12504375Y2332517D01*
X12446775Y2350667D01*
X12378680Y2356717D01*
X12319367Y2353106D01*
X12268111Y2342271D01*
X12188656Y2310045D01*
X12228661Y2204476D01*
X12290336Y2231146D01*
X12368679Y2242259D01*
X12429180Y2233492D01*
X12465481Y2207193D01*
X12477581Y2163360D01*
X12466469Y2128356D01*
X12438132Y2101686D01*
X12399238Y2081127D01*
X12356455Y2064459D01*
X12289224Y2037233D01*
X12224772Y1997228D01*
X12176432Y1934998D01*
X12162264Y1892910D01*
X12157541Y1841097D01*
X11926031Y1841097D01*
X11926031Y2430060D01*
X13832195Y2430060D01*
X14141122Y1469940D01*
X14283362Y1469940D01*
X14223941Y1653296D01*
X14347815Y1653296D01*
X14491166Y1653296D01*
X14518809Y1718721D01*
X14550618Y1781646D01*
X14585761Y1843737D01*
X14623405Y1906661D01*
X14694525Y1906661D01*
X14694525Y1653296D01*
X14831209Y1653296D01*
X14831209Y2227812D01*
X14918998Y2227812D01*
X15100131Y2227812D01*
X15100131Y1653296D01*
X15237926Y1653296D01*
X15237926Y1997784D01*
X15476845Y1997784D01*
X15482818Y1909300D01*
X15500737Y1834986D01*
X15529213Y1774006D01*
X15566856Y1725527D01*
X15613112Y1688995D01*
X15667424Y1663853D01*
X15728682Y1649268D01*
X15795774Y1644406D01*
X15867449Y1648296D01*
X15942459Y1661075D01*
X15942459Y2332270D01*
X15854670Y2345605D01*
X15777994Y2348939D01*
X15713125Y2343938D01*
X15654089Y2328936D01*
X15602277Y2303239D01*
X15559078Y2266151D01*
X15524490Y2217533D01*
X15498514Y2157248D01*
X15482262Y2084322D01*
X15476845Y1997784D01*
X15237926Y1997784D01*
X15237926Y2227812D01*
X15419060Y2227812D01*
X15419060Y2341160D01*
X14918998Y2341160D01*
X14918998Y2227812D01*
X14831209Y2227812D01*
X14831209Y2331159D01*
X14787314Y2339493D01*
X14738975Y2345049D01*
X14692303Y2347827D01*
X14653409Y2348939D01*
X14597291Y2345605D01*
X14546729Y2335604D01*
X14502279Y2318657D01*
X14464496Y2294488D01*
X14411712Y2223923D01*
X14397960Y2177390D01*
X14393376Y2123355D01*
X14399488Y2066126D01*
X14417824Y2014452D01*
X14450328Y1971392D01*
X14498945Y1939999D01*
X14458940Y1876102D01*
X14417824Y1802759D01*
X14379486Y1726083D01*
X14347815Y1653296D01*
X14223941Y1653296D01*
X13972213Y2430060D01*
X13832195Y2430060D01*
X11926031Y2430060D01*
X11926031Y2568966D01*
G37*
G36*
X13561050Y2229479D02*
G01*
X13583275Y2226701D01*
X13583275Y2020009D01*
X13553271Y2020009D01*
X13492986Y2026815D01*
X13452147Y2047234D01*
X13421032Y2124466D01*
X13429367Y2171694D01*
X13454370Y2204476D01*
X13492986Y2223645D01*
X13542159Y2230035D01*
X13561050Y2229479D01*
G37*
G36*
X14672300Y2229479D02*
G01*
X14694525Y2226701D01*
X14694525Y2020009D01*
X14664521Y2020009D01*
X14604236Y2026815D01*
X14563398Y2047234D01*
X14532283Y2124466D01*
X14540617Y2171694D01*
X14565620Y2204476D01*
X14604236Y2223645D01*
X14653409Y2230035D01*
X14672300Y2229479D01*
G37*
%TO.C,C4*%
X9160000Y14672164D02*
X9160000Y14887836D01*
X8440000Y14672164D02*
X8440000Y14887836D01*
%TO.C,R9*%
X1927500Y2062742D02*
X1927500Y2537258D01*
X2972500Y2062742D02*
X2972500Y2537258D01*
%TO.C,R3*%
X4146359Y11920000D02*
X4453641Y11920000D01*
X4146359Y12680000D02*
X4453641Y12680000D01*
%TO.C,Q1*%
X5500000Y1140000D02*
X4100000Y1140000D01*
X4100000Y3460000D02*
X6000000Y3460000D01*
%TO.C,C2*%
X9440000Y14672164D02*
X9440000Y14887836D01*
X10160000Y14672164D02*
X10160000Y14887836D01*
%TO.C,C1*%
X4427836Y11660000D02*
X4212164Y11660000D01*
X4427836Y10940000D02*
X4212164Y10940000D01*
%TO.C,R1*%
X11180000Y14656359D02*
X11180000Y14963641D01*
X10420000Y14656359D02*
X10420000Y14963641D01*
%TO.C,U1*%
X11435000Y7690000D02*
X11910000Y7690000D01*
X7690000Y11910000D02*
X7690000Y11435000D01*
X8165000Y7690000D02*
X7690000Y7690000D01*
X8165000Y11910000D02*
X7690000Y11910000D01*
X11910000Y11910000D02*
X11910000Y11435000D01*
X11435000Y11910000D02*
X11910000Y11910000D01*
X11910000Y7690000D02*
X11910000Y8165000D01*
%TO.C,kibuzzard-633A4E09*%
G36*
X3038794Y7068923D02*
G01*
X3071576Y7017249D01*
X3087133Y6941129D01*
X3090050Y6896123D01*
X3091022Y6847784D01*
X3090050Y6799305D01*
X3087133Y6753883D01*
X3071576Y6677762D01*
X3038794Y6626645D01*
X2982120Y6607754D01*
X2926002Y6626645D01*
X2892664Y6678318D01*
X2877107Y6754439D01*
X2874190Y6799444D01*
X2873217Y6847784D01*
X2874190Y6896262D01*
X2877107Y6941684D01*
X2892664Y7017805D01*
X2925446Y7068923D01*
X2982120Y7087814D01*
X3038794Y7068923D01*
G37*
G36*
X1956066Y7418966D02*
G01*
X5643934Y7418966D01*
X5643934Y6181034D01*
X1956066Y6181034D01*
X1956066Y6848895D01*
X2187576Y6848895D01*
X2191396Y6763607D01*
X2202856Y6689986D01*
X2221956Y6628034D01*
X2248695Y6577750D01*
X2295614Y6528361D01*
X2354881Y6498728D01*
X2426495Y6488850D01*
X2498109Y6498728D01*
X2557376Y6528361D01*
X2604295Y6577750D01*
X2631034Y6628034D01*
X2650134Y6689986D01*
X2661594Y6763607D01*
X2665364Y6847784D01*
X2734311Y6847784D01*
X2738340Y6764336D01*
X2750424Y6691792D01*
X2770566Y6630152D01*
X2798764Y6579417D01*
X2847659Y6529102D01*
X2908407Y6498913D01*
X2981009Y6488850D01*
X3055401Y6498913D01*
X3064355Y6503296D01*
X3318829Y6503296D01*
X3755550Y6503296D01*
X3755550Y6616644D01*
X3605531Y6616644D01*
X3605531Y7077812D01*
X3755550Y7077812D01*
X3755550Y7191160D01*
X3318829Y7191160D01*
X3318829Y7077812D01*
X3467736Y7077812D01*
X3467736Y6616644D01*
X3318829Y6616644D01*
X3318829Y6503296D01*
X3064355Y6503296D01*
X3117075Y6529102D01*
X3166032Y6579417D01*
X3193987Y6630152D01*
X3213955Y6691792D01*
X3225935Y6764336D01*
X3229929Y6847784D01*
X3225831Y6931232D01*
X3213538Y7003775D01*
X3193049Y7065415D01*
X3164365Y7116151D01*
X3114976Y7166466D01*
X3054228Y7196655D01*
X2982120Y7206717D01*
X2907790Y7196655D01*
X2846301Y7166466D01*
X2797652Y7116151D01*
X2769941Y7065415D01*
X2750147Y7003775D01*
X2738270Y6931232D01*
X2734311Y6847784D01*
X2665364Y6847784D01*
X2665414Y6848895D01*
X2661524Y6933211D01*
X2649856Y7006137D01*
X2630409Y7067672D01*
X2603184Y7117818D01*
X2555894Y7167206D01*
X2496998Y7196840D01*
X2426495Y7206717D01*
X2354881Y7196901D01*
X2295614Y7167453D01*
X2248695Y7118373D01*
X2221956Y7068402D01*
X2202856Y7006831D01*
X2191396Y6933663D01*
X2187576Y6848895D01*
X1956066Y6848895D01*
X1956066Y7280060D01*
X3867786Y7280060D01*
X4176714Y6319940D01*
X4318954Y6319940D01*
X4259533Y6503296D01*
X4422300Y6503296D01*
X4532314Y6503296D01*
X4564355Y6579540D01*
X4598248Y6655661D01*
X4633993Y6731658D01*
X4671590Y6807655D01*
X4711040Y6883776D01*
X4752341Y6960020D01*
X4752341Y6503296D01*
X4875690Y6503296D01*
X4971258Y6503296D01*
X5412424Y6503296D01*
X5412424Y7191160D01*
X4995705Y7191160D01*
X4995705Y7077812D01*
X5275740Y7077812D01*
X5275740Y6923349D01*
X5032376Y6923349D01*
X5032376Y6810001D01*
X5275740Y6810001D01*
X5275740Y6616644D01*
X4971258Y6616644D01*
X4971258Y6503296D01*
X4875690Y6503296D01*
X4875690Y7191160D01*
X4765676Y7191160D01*
X4734561Y7140181D01*
X4703446Y7085036D01*
X4672748Y7027945D01*
X4642883Y6971133D01*
X4614546Y6915292D01*
X4588432Y6861119D01*
X4565235Y6811112D01*
X4545649Y6767774D01*
X4545649Y7191160D01*
X4422300Y7191160D01*
X4422300Y6503296D01*
X4259533Y6503296D01*
X4007804Y7280060D01*
X3867786Y7280060D01*
X1956066Y7280060D01*
X1956066Y7418966D01*
G37*
G36*
X2340373Y6668317D02*
G01*
X2324013Y6715792D01*
X2314197Y6775985D01*
X2310925Y6848895D01*
X2311428Y6860007D01*
X2364265Y6860007D01*
X2381489Y6808334D01*
X2425384Y6786665D01*
X2470945Y6808334D01*
X2487614Y6860007D01*
X2470945Y6912236D01*
X2425384Y6934461D01*
X2381489Y6912236D01*
X2364265Y6860007D01*
X2311428Y6860007D01*
X2314197Y6921188D01*
X2324013Y6981010D01*
X2340373Y7028362D01*
X2376628Y7074618D01*
X2426495Y7090036D01*
X2475668Y7074618D01*
X2512061Y7028362D01*
X2528730Y6981010D01*
X2538731Y6921188D01*
X2542065Y6848895D01*
X2538731Y6775985D01*
X2528730Y6715792D01*
X2512061Y6668317D01*
X2475668Y6622061D01*
X2426495Y6606642D01*
X2425384Y6606986D01*
X2376628Y6622061D01*
X2340373Y6668317D01*
G37*
%TO.C,R8*%
X6627500Y2537258D02*
X6627500Y2062742D01*
X7672500Y2537258D02*
X7672500Y2062742D01*
%TO.C,C3*%
X4427836Y9940000D02*
X4212164Y9940000D01*
X4427836Y10660000D02*
X4212164Y10660000D01*
%TO.C,R2*%
X12180000Y14656359D02*
X12180000Y14963641D01*
X11420000Y14656359D02*
X11420000Y14963641D01*
%TD*%
M02*
