%TF.GenerationSoftware,KiCad,Pcbnew,6.0.7+dfsg-1~bpo11+1*%
%TF.CreationDate,2022-10-03T05:52:26+00:00*%
%TF.ProjectId,0101-SERIAL-CP2102N,30313031-2d53-4455-9249-414c2d435032,V1.0*%
%TF.SameCoordinates,Original*%
%TF.FileFunction,Soldermask,Bot*%
%TF.FilePolarity,Negative*%
%FSLAX46Y46*%
G04 Gerber Fmt 4.6, Leading zero omitted, Abs format (unit mm)*
G04 Created by KiCad (PCBNEW 6.0.7+dfsg-1~bpo11+1) date 2022-10-03 05:52:26*
%MOMM*%
%LPD*%
G01*
G04 APERTURE LIST*
G04 Aperture macros list*
%AMRoundRect*
0 Rectangle with rounded corners*
0 $1 Rounding radius*
0 $2 $3 $4 $5 $6 $7 $8 $9 X,Y pos of 4 corners*
0 Add a 4 corners polygon primitive as box body*
4,1,4,$2,$3,$4,$5,$6,$7,$8,$9,$2,$3,0*
0 Add four circle primitives for the rounded corners*
1,1,$1+$1,$2,$3*
1,1,$1+$1,$4,$5*
1,1,$1+$1,$6,$7*
1,1,$1+$1,$8,$9*
0 Add four rect primitives between the rounded corners*
20,1,$1+$1,$2,$3,$4,$5,0*
20,1,$1+$1,$4,$5,$6,$7,0*
20,1,$1+$1,$6,$7,$8,$9,0*
20,1,$1+$1,$8,$9,$2,$3,0*%
G04 Aperture macros list end*
%ADD10C,0.600000*%
%ADD11C,0.750000*%
%ADD12RoundRect,0.400000X-0.650000X0.350000X-0.650000X-0.350000X0.650000X-0.350000X0.650000X0.350000X0*%
%ADD13RoundRect,0.400000X-0.700000X0.350000X-0.700000X-0.350000X0.700000X-0.350000X0.700000X0.350000X0*%
%ADD14RoundRect,0.050000X-0.850000X-0.850000X0.850000X-0.850000X0.850000X0.850000X-0.850000X0.850000X0*%
%ADD15O,1.800000X1.800000*%
%ADD16RoundRect,0.190000X0.170000X-0.140000X0.170000X0.140000X-0.170000X0.140000X-0.170000X-0.140000X0*%
%ADD17RoundRect,0.250000X0.275000X-0.200000X0.275000X0.200000X-0.275000X0.200000X-0.275000X-0.200000X0*%
%ADD18RoundRect,0.185000X-0.135000X-0.185000X0.135000X-0.185000X0.135000X0.185000X-0.135000X0.185000X0*%
%ADD19RoundRect,0.050000X0.325000X0.200000X-0.325000X0.200000X-0.325000X-0.200000X0.325000X-0.200000X0*%
%ADD20RoundRect,0.190000X0.140000X0.170000X-0.140000X0.170000X-0.140000X-0.170000X0.140000X-0.170000X0*%
%ADD21RoundRect,0.185000X0.185000X-0.135000X0.185000X0.135000X-0.185000X0.135000X-0.185000X-0.135000X0*%
%ADD22RoundRect,0.112500X-0.350000X-0.062500X0.350000X-0.062500X0.350000X0.062500X-0.350000X0.062500X0*%
%ADD23RoundRect,0.112500X-0.062500X-0.350000X0.062500X-0.350000X0.062500X0.350000X-0.062500X0.350000X0*%
%ADD24RoundRect,0.050000X-1.300000X-1.300000X1.300000X-1.300000X1.300000X1.300000X-1.300000X1.300000X0*%
%ADD25RoundRect,0.250000X-0.275000X0.200000X-0.275000X-0.200000X0.275000X-0.200000X0.275000X0.200000X0*%
G04 APERTURE END LIST*
D10*
%TO.C,REF\u002A\u002A*%
X14300000Y7705000D03*
X18300000Y7705000D03*
X15300000Y7705000D03*
X17300000Y7705000D03*
X16300000Y7705000D03*
%TD*%
%TO.C,REF\u002A\u002A*%
X4300000Y7705000D03*
X3300000Y7705000D03*
X1300000Y7705000D03*
X5300000Y7705000D03*
X2300000Y7705000D03*
%TD*%
D11*
%TO.C,J1*%
X6400000Y20400000D03*
X6400000Y14600000D03*
D12*
X2950000Y12975000D03*
D13*
X6930000Y22025000D03*
X6930000Y12975000D03*
D12*
X2950000Y22025000D03*
%TD*%
D14*
%TO.C,J2*%
X13525000Y21300000D03*
D15*
X16065000Y21300000D03*
X13525000Y18760000D03*
X16065000Y18760000D03*
X13525000Y16220000D03*
X16065000Y16220000D03*
X13525000Y13680000D03*
X16065000Y13680000D03*
%TD*%
D10*
%TO.C,REF\u002A\u002A*%
X4300000Y27295000D03*
X1300000Y27295000D03*
X2300000Y27295000D03*
X3300000Y27295000D03*
X5300000Y27295000D03*
%TD*%
%TO.C,REF\u002A\u002A*%
X18300000Y27295000D03*
X14300000Y27295000D03*
X15300000Y27295000D03*
X17300000Y27295000D03*
X16300000Y27295000D03*
%TD*%
D16*
%TO.C,C4*%
X8800000Y22000000D03*
X8800000Y22960000D03*
%TD*%
D17*
%TO.C,R9*%
X2450000Y9175000D03*
X2450000Y10825000D03*
%TD*%
D18*
%TO.C,R3*%
X3790000Y20000000D03*
X4810000Y20000000D03*
%TD*%
D19*
%TO.C,Q1*%
X5750000Y10650000D03*
X5750000Y10000000D03*
X5750000Y9350000D03*
X3850000Y9350000D03*
X3850000Y10000000D03*
X3850000Y10650000D03*
%TD*%
D16*
%TO.C,C2*%
X9800000Y22000000D03*
X9800000Y22960000D03*
%TD*%
D20*
%TO.C,C1*%
X4800000Y19000000D03*
X3840000Y19000000D03*
%TD*%
D21*
%TO.C,R1*%
X10800000Y22000000D03*
X10800000Y23020000D03*
%TD*%
D22*
%TO.C,U1*%
X7862500Y16250000D03*
X7862500Y16750000D03*
X7862500Y17250000D03*
X7862500Y17750000D03*
X7862500Y18250000D03*
X7862500Y18750000D03*
D23*
X8550000Y19437500D03*
X9050000Y19437500D03*
X9550000Y19437500D03*
X10050000Y19437500D03*
X10550000Y19437500D03*
X11050000Y19437500D03*
D22*
X11737500Y18750000D03*
X11737500Y18250000D03*
X11737500Y17750000D03*
X11737500Y17250000D03*
X11737500Y16750000D03*
X11737500Y16250000D03*
D23*
X11050000Y15562500D03*
X10550000Y15562500D03*
X10050000Y15562500D03*
X9550000Y15562500D03*
X9050000Y15562500D03*
X8550000Y15562500D03*
D24*
X9800000Y17500000D03*
%TD*%
D25*
%TO.C,R8*%
X7150000Y10825000D03*
X7150000Y9175000D03*
%TD*%
D20*
%TO.C,C3*%
X4800000Y18000000D03*
X3840000Y18000000D03*
%TD*%
D21*
%TO.C,R2*%
X11800000Y22000000D03*
X11800000Y23020000D03*
%TD*%
M02*
