%TF.GenerationSoftware,KiCad,Pcbnew,6.0.7+dfsg-1~bpo11+1*%
%TF.CreationDate,2022-10-12T07:12:05+00:00*%
%TF.ProjectId,0101-SERIAL-CP2102N,30313031-2d53-4455-9249-414c2d435032,V1.1*%
%TF.SameCoordinates,Original*%
%TF.FileFunction,Copper,L1,Top*%
%TF.FilePolarity,Positive*%
%FSLAX46Y46*%
G04 Gerber Fmt 4.6, Leading zero omitted, Abs format (unit mm)*
G04 Created by KiCad (PCBNEW 6.0.7+dfsg-1~bpo11+1) date 2022-10-12 07:12:05*
%MOMM*%
%LPD*%
G01*
G04 APERTURE LIST*
G04 Aperture macros list*
%AMRoundRect*
0 Rectangle with rounded corners*
0 $1 Rounding radius*
0 $2 $3 $4 $5 $6 $7 $8 $9 X,Y pos of 4 corners*
0 Add a 4 corners polygon primitive as box body*
4,1,4,$2,$3,$4,$5,$6,$7,$8,$9,$2,$3,0*
0 Add four circle primitives for the rounded corners*
1,1,$1+$1,$2,$3*
1,1,$1+$1,$4,$5*
1,1,$1+$1,$6,$7*
1,1,$1+$1,$8,$9*
0 Add four rect primitives between the rounded corners*
20,1,$1+$1,$2,$3,$4,$5,0*
20,1,$1+$1,$4,$5,$6,$7,0*
20,1,$1+$1,$6,$7,$8,$9,0*
20,1,$1+$1,$8,$9,$2,$3,0*%
G04 Aperture macros list end*
%TA.AperFunction,SMDPad,CuDef*%
%ADD10RoundRect,0.218750X-0.256250X0.218750X-0.256250X-0.218750X0.256250X-0.218750X0.256250X0.218750X0*%
%TD*%
%TA.AperFunction,SMDPad,CuDef*%
%ADD11RoundRect,0.135000X0.185000X-0.135000X0.185000X0.135000X-0.185000X0.135000X-0.185000X-0.135000X0*%
%TD*%
%TA.AperFunction,SMDPad,CuDef*%
%ADD12R,0.600000X0.700000*%
%TD*%
%TA.AperFunction,SMDPad,CuDef*%
%ADD13R,1.450000X0.600000*%
%TD*%
%TA.AperFunction,SMDPad,CuDef*%
%ADD14R,1.450000X0.300000*%
%TD*%
%TA.AperFunction,ComponentPad*%
%ADD15RoundRect,0.350000X-0.700000X0.350000X-0.700000X-0.350000X0.700000X-0.350000X0.700000X0.350000X0*%
%TD*%
%TA.AperFunction,ComponentPad*%
%ADD16RoundRect,0.350000X-0.650000X0.350000X-0.650000X-0.350000X0.650000X-0.350000X0.650000X0.350000X0*%
%TD*%
%TA.AperFunction,SMDPad,CuDef*%
%ADD17RoundRect,0.218750X0.256250X-0.218750X0.256250X0.218750X-0.256250X0.218750X-0.256250X-0.218750X0*%
%TD*%
%TA.AperFunction,ComponentPad*%
%ADD18R,1.700000X1.700000*%
%TD*%
%TA.AperFunction,ComponentPad*%
%ADD19O,1.700000X1.700000*%
%TD*%
%TA.AperFunction,SMDPad,CuDef*%
%ADD20RoundRect,0.135000X-0.185000X0.135000X-0.185000X-0.135000X0.185000X-0.135000X0.185000X0.135000X0*%
%TD*%
%TA.AperFunction,SMDPad,CuDef*%
%ADD21R,0.700000X0.600000*%
%TD*%
%TA.AperFunction,ViaPad*%
%ADD22C,0.700000*%
%TD*%
%TA.AperFunction,ViaPad*%
%ADD23C,0.500000*%
%TD*%
%TA.AperFunction,Conductor*%
%ADD24C,0.500000*%
%TD*%
%TA.AperFunction,Conductor*%
%ADD25C,0.200000*%
%TD*%
%TA.AperFunction,Conductor*%
%ADD26C,0.280000*%
%TD*%
G04 APERTURE END LIST*
D10*
%TO.P,D1,1,K*%
%TO.N,/TXD*%
X17050000Y10287500D03*
%TO.P,D1,2,A*%
%TO.N,Net-(D1-Pad2)*%
X17050000Y8712500D03*
%TD*%
D11*
%TO.P,R15,1*%
%TO.N,VDD*%
X15800000Y24700000D03*
%TO.P,R15,2*%
%TO.N,Net-(D4-Pad2)*%
X15800000Y25720000D03*
%TD*%
D12*
%TO.P,D6,1,A1*%
%TO.N,GND*%
X9700000Y17500000D03*
%TO.P,D6,2,A2*%
%TO.N,VDD*%
X11100000Y17500000D03*
%TD*%
D13*
%TO.P,J1,A1,GND*%
%TO.N,GND*%
X7845000Y20700000D03*
%TO.P,J1,A4,VBUS*%
%TO.N,VBUS*%
X7845000Y19900000D03*
D14*
%TO.P,J1,A5,CC1*%
%TO.N,Net-(J1-PadA5)*%
X7845000Y18750000D03*
%TO.P,J1,A6,D+*%
%TO.N,/D+*%
X7845000Y17750000D03*
%TO.P,J1,A7,D-*%
%TO.N,/D-*%
X7845000Y17250000D03*
%TO.P,J1,A8,SBU1*%
%TO.N,unconnected-(J1-PadA8)*%
X7845000Y16250000D03*
D13*
%TO.P,J1,A9,VBUS*%
%TO.N,VBUS*%
X7845000Y15100000D03*
%TO.P,J1,A12,GND*%
%TO.N,GND*%
X7845000Y14300000D03*
%TO.P,J1,B1,GND*%
X7845000Y14300000D03*
%TO.P,J1,B4,VBUS*%
%TO.N,VBUS*%
X7845000Y15100000D03*
D14*
%TO.P,J1,B5,CC2*%
%TO.N,Net-(J1-PadB5)*%
X7845000Y15750000D03*
%TO.P,J1,B6,D+*%
%TO.N,/D+*%
X7845000Y16750000D03*
%TO.P,J1,B7,D-*%
%TO.N,/D-*%
X7845000Y18250000D03*
%TO.P,J1,B8,SBU2*%
%TO.N,unconnected-(J1-PadB8)*%
X7845000Y19250000D03*
D13*
%TO.P,J1,B9,VBUS*%
%TO.N,VBUS*%
X7845000Y19900000D03*
%TO.P,J1,B12,GND*%
%TO.N,GND*%
X7845000Y20700000D03*
D15*
%TO.P,J1,S1,SHIELD*%
X6930000Y12975000D03*
D16*
X2950000Y22025000D03*
X2950000Y12975000D03*
D15*
X6930000Y22025000D03*
%TD*%
D12*
%TO.P,D8,1,A1*%
%TO.N,GND*%
X9700000Y12000000D03*
%TO.P,D8,2,A2*%
%TO.N,/RXD*%
X11100000Y12000000D03*
%TD*%
D17*
%TO.P,D3,1,K*%
%TO.N,/RTS{slash}BOOT*%
X13050000Y24712500D03*
%TO.P,D3,2,A*%
%TO.N,Net-(D3-Pad2)*%
X13050000Y26287500D03*
%TD*%
D18*
%TO.P,J2,1,Pin_1*%
%TO.N,/RTS{slash}BOOT*%
X13525000Y21300000D03*
D19*
%TO.P,J2,2,Pin_2*%
%TO.N,/DTR{slash}RESET*%
X16065000Y21300000D03*
%TO.P,J2,3,Pin_3*%
%TO.N,VBUS*%
X13525000Y18760000D03*
%TO.P,J2,4,Pin_4*%
%TO.N,GND*%
X16065000Y18760000D03*
%TO.P,J2,5,Pin_5*%
%TO.N,VDD*%
X13525000Y16220000D03*
%TO.P,J2,6,Pin_6*%
%TO.N,/CTS*%
X16065000Y16220000D03*
%TO.P,J2,7,Pin_7*%
%TO.N,/RXD*%
X13525000Y13680000D03*
%TO.P,J2,8,Pin_8*%
%TO.N,/TXD*%
X16065000Y13680000D03*
%TD*%
D17*
%TO.P,D4,1,K*%
%TO.N,/DTR{slash}RESET*%
X17050000Y24712500D03*
%TO.P,D4,2,A*%
%TO.N,Net-(D4-Pad2)*%
X17050000Y26287500D03*
%TD*%
D20*
%TO.P,R12,1*%
%TO.N,VDD*%
X15800000Y10300000D03*
%TO.P,R12,2*%
%TO.N,Net-(D1-Pad2)*%
X15800000Y9280000D03*
%TD*%
D12*
%TO.P,D5,1,A1*%
%TO.N,GND*%
X9700000Y20000000D03*
%TO.P,D5,2,A2*%
%TO.N,VBUS*%
X11100000Y20000000D03*
%TD*%
D21*
%TO.P,D10,1,A1*%
%TO.N,GND*%
X18650000Y22700000D03*
%TO.P,D10,2,A2*%
%TO.N,/DTR{slash}RESET*%
X18650000Y21300000D03*
%TD*%
D10*
%TO.P,D2,1,K*%
%TO.N,/RXD*%
X13050000Y10287500D03*
%TO.P,D2,2,A*%
%TO.N,Net-(D2-Pad2)*%
X13050000Y8712500D03*
%TD*%
D20*
%TO.P,R13,1*%
%TO.N,VDD*%
X11800000Y10300000D03*
%TO.P,R13,2*%
%TO.N,Net-(D2-Pad2)*%
X11800000Y9280000D03*
%TD*%
D12*
%TO.P,D11,1,A1*%
%TO.N,GND*%
X9700000Y15000000D03*
%TO.P,D11,2,A2*%
%TO.N,/CTS*%
X11100000Y15000000D03*
%TD*%
%TO.P,D9,1,A1*%
%TO.N,GND*%
X9700000Y22600000D03*
%TO.P,D9,2,A2*%
%TO.N,/RTS{slash}BOOT*%
X11100000Y22600000D03*
%TD*%
D21*
%TO.P,D7,1,A1*%
%TO.N,GND*%
X18650000Y12300000D03*
%TO.P,D7,2,A2*%
%TO.N,/TXD*%
X18650000Y13680000D03*
%TD*%
D11*
%TO.P,R14,1*%
%TO.N,VDD*%
X11800000Y24700000D03*
%TO.P,R14,2*%
%TO.N,Net-(D3-Pad2)*%
X11800000Y25720000D03*
%TD*%
D22*
%TO.N,VDD*%
X15800000Y23900000D03*
X11000000Y10300000D03*
D23*
X4800000Y18400000D03*
X4800000Y19000000D03*
X5400000Y19000000D03*
D22*
X15800000Y11100000D03*
X11000000Y24700000D03*
D23*
%TO.N,GND*%
X19050000Y23750000D03*
X550000Y20500000D03*
X550000Y17500000D03*
X19050000Y14750000D03*
X15800000Y26500000D03*
X8800000Y23750000D03*
X6200000Y16100000D03*
X12650000Y11550000D03*
X9700000Y10500000D03*
X10700000Y18400000D03*
X11800000Y8500000D03*
X11800000Y23750000D03*
X16550000Y11500000D03*
X19050000Y20250000D03*
X19050000Y15750000D03*
X10700000Y16600000D03*
X5600000Y16500000D03*
X550000Y23500000D03*
X7550000Y26750000D03*
X2300000Y19000000D03*
X14800000Y11750000D03*
X2300000Y18000000D03*
X16800000Y15000000D03*
X11800000Y26500000D03*
X14300000Y23000000D03*
X19050000Y11250000D03*
X15800000Y8500000D03*
X15300000Y23000000D03*
X550000Y11500000D03*
X550000Y14500000D03*
X9800000Y23750000D03*
X9100000Y18400000D03*
X14800000Y14500000D03*
X19050000Y19250000D03*
%TO.N,VBUS*%
X10200000Y13150000D03*
X10200000Y21300000D03*
X10800000Y13150000D03*
X9600000Y21300000D03*
X10800000Y21300000D03*
X9600000Y13150000D03*
D22*
%TO.N,/RTS{slash}BOOT*%
X1300000Y10500000D03*
X8600000Y9900000D03*
%TO.N,Net-(J1-PadA5)*%
X4900000Y17000000D03*
%TO.N,/D-*%
X6285542Y17925000D03*
%TO.N,/D+*%
X6285542Y17075000D03*
%TO.N,Net-(J1-PadB5)*%
X4900000Y16000000D03*
%TO.N,Net-(R3-Pad2)*%
X11950000Y20200000D03*
X4900000Y20000000D03*
%TO.N,/RTS*%
X9800000Y14050000D03*
X12050000Y14350000D03*
%TD*%
D24*
%TO.N,VDD*%
X12245000Y17500000D02*
X13525000Y16220000D01*
D25*
X15800000Y24700000D02*
X15800000Y23900000D01*
X11800000Y24700000D02*
X11000000Y24700000D01*
X15800000Y10300000D02*
X15800000Y11100000D01*
X11800000Y10300000D02*
X11000000Y10300000D01*
D24*
X11100000Y17500000D02*
X12245000Y17500000D01*
%TO.N,VBUS*%
X12329339Y18760000D02*
X13525000Y18760000D01*
X11100000Y19989339D02*
X12329339Y18760000D01*
X11100000Y20000000D02*
X11100000Y19989339D01*
D25*
%TO.N,/RXD*%
X13050000Y10287500D02*
X13525000Y10762500D01*
X13525000Y10762500D02*
X13525000Y13680000D01*
X11100000Y12000000D02*
X11845000Y12000000D01*
X11845000Y12000000D02*
X13525000Y13680000D01*
%TO.N,/TXD*%
X18650000Y13680000D02*
X16065000Y13680000D01*
X17050000Y12695000D02*
X16065000Y13680000D01*
X17050000Y10287500D02*
X17050000Y12695000D01*
%TO.N,/CTS*%
X11100000Y15000000D02*
X14845000Y15000000D01*
X14845000Y15000000D02*
X16065000Y16220000D01*
%TO.N,/DTR{slash}RESET*%
X18650000Y21300000D02*
X16065000Y21300000D01*
X16065000Y21300000D02*
X17050000Y22285000D01*
X17050000Y22285000D02*
X17050000Y24712500D01*
%TO.N,/RTS{slash}BOOT*%
X11100000Y22600000D02*
X12225000Y22600000D01*
X8000000Y10500000D02*
X1300000Y10500000D01*
X12225000Y22600000D02*
X13525000Y21300000D01*
X13525000Y24237500D02*
X13525000Y21300000D01*
X13050000Y24712500D02*
X13525000Y24237500D01*
X8600000Y9900000D02*
X8000000Y10500000D01*
%TO.N,Net-(J1-PadA5)*%
X6050000Y18750000D02*
X5000000Y17700000D01*
X7845000Y18750000D02*
X6050000Y18750000D01*
X5000000Y17700000D02*
X4900000Y17600000D01*
X4900000Y17600000D02*
X4900000Y17000000D01*
D26*
%TO.N,/D-*%
X6340639Y17925000D02*
X6285542Y17925000D01*
X7845000Y17250000D02*
X7015639Y17250000D01*
X6610542Y18250000D02*
X6285542Y17925000D01*
X7015639Y17250000D02*
X6340639Y17925000D01*
X7845000Y18250000D02*
X6610542Y18250000D01*
%TO.N,/D+*%
X7845000Y17750000D02*
X8650000Y17750000D01*
X8860000Y16960000D02*
X8650000Y16750000D01*
X8860000Y17540000D02*
X8860000Y16960000D01*
X8650000Y17750000D02*
X8860000Y17540000D01*
X6610542Y16750000D02*
X6285542Y17075000D01*
X8650000Y16750000D02*
X7845000Y16750000D01*
X7845000Y16750000D02*
X6610542Y16750000D01*
D25*
%TO.N,Net-(J1-PadB5)*%
X6800000Y15750000D02*
X7845000Y15750000D01*
X4900000Y16000000D02*
X5500000Y15400000D01*
X6450000Y15400000D02*
X6800000Y15750000D01*
X5500000Y15400000D02*
X6450000Y15400000D01*
%TO.N,/RTS*%
X11750000Y14050000D02*
X12050000Y14350000D01*
X9800000Y14050000D02*
X11750000Y14050000D01*
%TO.N,Net-(D1-Pad2)*%
X15800000Y9280000D02*
X16482500Y9280000D01*
X16482500Y9280000D02*
X17050000Y8712500D01*
%TO.N,Net-(D2-Pad2)*%
X12482500Y9280000D02*
X13050000Y8712500D01*
X11800000Y9280000D02*
X12482500Y9280000D01*
%TO.N,Net-(D3-Pad2)*%
X12482500Y25720000D02*
X13050000Y26287500D01*
X11800000Y25720000D02*
X12482500Y25720000D01*
%TO.N,Net-(D4-Pad2)*%
X16482500Y25720000D02*
X17050000Y26287500D01*
X15800000Y25720000D02*
X16482500Y25720000D01*
%TD*%
%TA.AperFunction,Conductor*%
%TO.N,GND*%
G36*
X5839313Y14449764D02*
G01*
X5897302Y14309767D01*
X5989549Y14189549D01*
X6109767Y14097302D01*
X6249764Y14039313D01*
X6362280Y14024500D01*
X6437720Y14024500D01*
X6550236Y14039313D01*
X6690233Y14097302D01*
X6810451Y14189549D01*
X6902698Y14309767D01*
X6960687Y14449764D01*
X6972658Y14540695D01*
X6998893Y14600000D01*
X8600000Y14600000D01*
X8600000Y12100000D01*
X5700000Y12100000D01*
X5700000Y14600000D01*
X5819534Y14600000D01*
X5839313Y14449764D01*
G37*
%TD.AperFunction*%
%TD*%
%TA.AperFunction,Conductor*%
%TO.N,VBUS*%
G36*
X9012170Y15397579D02*
G01*
X9036073Y15392825D01*
X9071091Y15385859D01*
X9116510Y15367046D01*
X9136329Y15353804D01*
X9155939Y15340700D01*
X9190700Y15305939D01*
X9217045Y15266512D01*
X9235860Y15221089D01*
X9247079Y15164684D01*
X9249500Y15140104D01*
X9249500Y14635180D01*
X9249833Y14633506D01*
X9250000Y14630102D01*
X9250000Y13800000D01*
X9550000Y13500000D01*
X10887590Y13500000D01*
X10912170Y13497579D01*
X10936073Y13492825D01*
X10971091Y13485859D01*
X11016510Y13467046D01*
X11036329Y13453804D01*
X11055939Y13440700D01*
X11090700Y13405939D01*
X11116051Y13368000D01*
X11117045Y13366512D01*
X11135860Y13321089D01*
X11147579Y13262170D01*
X11150000Y13237590D01*
X11150000Y13062410D01*
X11147579Y13037830D01*
X11135860Y12978911D01*
X11117045Y12933488D01*
X11090700Y12894061D01*
X11055939Y12859300D01*
X11036329Y12846196D01*
X11016510Y12832954D01*
X10971091Y12814141D01*
X10936073Y12807175D01*
X10912170Y12802421D01*
X10887590Y12800000D01*
X9515963Y12800000D01*
X9491382Y12802421D01*
X9486254Y12803441D01*
X9432464Y12814141D01*
X9387044Y12832954D01*
X9337093Y12866330D01*
X9318000Y12882000D01*
X8832000Y13368000D01*
X8816330Y13387093D01*
X8782954Y13437044D01*
X8764140Y13482465D01*
X8752421Y13541382D01*
X8750000Y13565963D01*
X8750000Y14800000D01*
X7362410Y14800000D01*
X7337830Y14802421D01*
X7313927Y14807175D01*
X7278909Y14814141D01*
X7233490Y14832954D01*
X7213671Y14846196D01*
X7194061Y14859300D01*
X7159300Y14894061D01*
X7132955Y14933488D01*
X7114140Y14978911D01*
X7102421Y15037830D01*
X7100000Y15062410D01*
X7100000Y15137590D01*
X7102421Y15162170D01*
X7114140Y15221089D01*
X7132955Y15266512D01*
X7159300Y15305939D01*
X7194061Y15340700D01*
X7213671Y15353804D01*
X7233490Y15367046D01*
X7278909Y15385859D01*
X7313927Y15392825D01*
X7337830Y15397579D01*
X7362410Y15400000D01*
X8987590Y15400000D01*
X9012170Y15397579D01*
G37*
%TD.AperFunction*%
%TD*%
%TA.AperFunction,Conductor*%
%TO.N,GND*%
G36*
X8600000Y20400000D02*
G01*
X7001762Y20400000D01*
X6988644Y20412435D01*
X6972658Y20459306D01*
X6961765Y20542048D01*
X6960687Y20550236D01*
X6902698Y20690233D01*
X6810451Y20810451D01*
X6690233Y20902698D01*
X6550236Y20960687D01*
X6437720Y20975500D01*
X6362280Y20975500D01*
X6249764Y20960687D01*
X6109767Y20902698D01*
X5989549Y20810451D01*
X5897302Y20690233D01*
X5839313Y20550236D01*
X5819534Y20400000D01*
X5700000Y20400000D01*
X5700000Y22900000D01*
X8600000Y22900000D01*
X8600000Y20400000D01*
G37*
%TD.AperFunction*%
%TD*%
%TA.AperFunction,Conductor*%
%TO.N,VBUS*%
G36*
X10912170Y21647579D02*
G01*
X10936073Y21642825D01*
X10971091Y21635859D01*
X11016510Y21617046D01*
X11036329Y21603804D01*
X11055939Y21590700D01*
X11090700Y21555939D01*
X11117045Y21516512D01*
X11135860Y21471089D01*
X11147579Y21412170D01*
X11150000Y21387590D01*
X11150000Y21212410D01*
X11147579Y21187830D01*
X11135860Y21128911D01*
X11117045Y21083488D01*
X11090700Y21044061D01*
X11055939Y21009300D01*
X11036329Y20996196D01*
X11016510Y20982954D01*
X10971091Y20964141D01*
X10936073Y20957175D01*
X10912170Y20952421D01*
X10887590Y20950000D01*
X9650000Y20950000D01*
X9250000Y20550000D01*
X9250000Y20369898D01*
X9249833Y20366494D01*
X9249500Y20364820D01*
X9249500Y19859896D01*
X9247079Y19835316D01*
X9235860Y19778911D01*
X9217045Y19733488D01*
X9190700Y19694061D01*
X9155939Y19659300D01*
X9136329Y19646196D01*
X9116510Y19632954D01*
X9071091Y19614141D01*
X9036073Y19607175D01*
X9012170Y19602421D01*
X8987590Y19600000D01*
X7362410Y19600000D01*
X7337830Y19602421D01*
X7313927Y19607175D01*
X7278909Y19614141D01*
X7233490Y19632954D01*
X7213671Y19646196D01*
X7194061Y19659300D01*
X7159300Y19694061D01*
X7132955Y19733488D01*
X7114140Y19778911D01*
X7102421Y19837830D01*
X7100000Y19862410D01*
X7100000Y19937590D01*
X7102421Y19962170D01*
X7114140Y20021089D01*
X7132955Y20066512D01*
X7159300Y20105939D01*
X7194061Y20140700D01*
X7213671Y20153804D01*
X7233490Y20167046D01*
X7278909Y20185859D01*
X7313927Y20192825D01*
X7337830Y20197579D01*
X7362410Y20200000D01*
X8750000Y20200000D01*
X8750000Y20834037D01*
X8752421Y20858618D01*
X8764140Y20917535D01*
X8782954Y20962956D01*
X8783745Y20964140D01*
X8816331Y21012908D01*
X8832000Y21032000D01*
X9368000Y21568000D01*
X9387093Y21583670D01*
X9437044Y21617046D01*
X9482464Y21635859D01*
X9541382Y21647579D01*
X9565963Y21650000D01*
X10887590Y21650000D01*
X10912170Y21647579D01*
G37*
%TD.AperFunction*%
%TD*%
%TA.AperFunction,Conductor*%
%TO.N,GND*%
G36*
X8553332Y27129498D02*
G01*
X8599825Y27075842D01*
X8601115Y27072667D01*
X8601476Y27071320D01*
X8687324Y26881795D01*
X8690190Y26877505D01*
X8799227Y26714286D01*
X8802901Y26708786D01*
X8945119Y26556918D01*
X9110178Y26430247D01*
X9293668Y26332159D01*
X9298545Y26330503D01*
X9298548Y26330502D01*
X9485802Y26266931D01*
X9490686Y26265273D01*
X9695969Y26231377D01*
X9904031Y26231377D01*
X10109314Y26265273D01*
X10114198Y26266931D01*
X10301452Y26330502D01*
X10301455Y26330503D01*
X10306332Y26332159D01*
X10489822Y26430247D01*
X10654881Y26556918D01*
X10797099Y26708786D01*
X10800774Y26714286D01*
X10909810Y26877505D01*
X10912676Y26881795D01*
X10963341Y26993646D01*
X10998524Y27071320D01*
X10999686Y27070793D01*
X11037922Y27123337D01*
X11104100Y27149046D01*
X11114789Y27149500D01*
X13730879Y27149500D01*
X13799000Y27129498D01*
X13835703Y27086810D01*
X13838428Y27088529D01*
X13914930Y26967280D01*
X14022388Y26872377D01*
X14152163Y26811447D01*
X14261009Y26794500D01*
X14335940Y26794500D01*
X14365456Y26798727D01*
X14383318Y26800000D01*
X15215934Y26800000D01*
X15235318Y26798500D01*
X15261009Y26794500D01*
X15335940Y26794500D01*
X15365456Y26798727D01*
X15383318Y26800000D01*
X16215934Y26800000D01*
X16235318Y26798500D01*
X16261009Y26794500D01*
X16321786Y26794500D01*
X16389907Y26774498D01*
X16436400Y26720842D01*
X16446504Y26650568D01*
X16442168Y26631294D01*
X16439291Y26621986D01*
X16434996Y26613199D01*
X16433584Y26603520D01*
X16425165Y26545808D01*
X16424500Y26541251D01*
X16424500Y26536678D01*
X16424501Y26123537D01*
X16404499Y26055417D01*
X16350844Y26008923D01*
X16280570Y25998819D01*
X16215989Y26028312D01*
X16209483Y26034364D01*
X16157324Y26086433D01*
X16157322Y26086434D01*
X16149092Y26094650D01*
X16138452Y26099354D01*
X16060486Y26133823D01*
X16060483Y26133824D01*
X16051817Y26137655D01*
X16042406Y26138752D01*
X16042403Y26138753D01*
X16037138Y26139366D01*
X16027415Y26140500D01*
X15801939Y26140500D01*
X15572586Y26140499D01*
X15568889Y26140059D01*
X15568884Y26140059D01*
X15562743Y26139328D01*
X15547690Y26137538D01*
X15450490Y26094363D01*
X15412957Y26056765D01*
X15383567Y26027324D01*
X15383566Y26027322D01*
X15375350Y26019092D01*
X15370646Y26008452D01*
X15336177Y25930486D01*
X15336176Y25930483D01*
X15332345Y25921817D01*
X15329500Y25897415D01*
X15329501Y25542586D01*
X15332462Y25517690D01*
X15375637Y25420490D01*
X15413235Y25382957D01*
X15442676Y25353567D01*
X15442678Y25353566D01*
X15450908Y25345350D01*
X15461546Y25340647D01*
X15496403Y25325237D01*
X15550619Y25279399D01*
X15571446Y25211526D01*
X15552272Y25143167D01*
X15496603Y25094846D01*
X15485378Y25089860D01*
X15450490Y25074363D01*
X15423788Y25047614D01*
X15383567Y25007324D01*
X15383566Y25007322D01*
X15375350Y24999092D01*
X15370646Y24988452D01*
X15336177Y24910486D01*
X15336176Y24910483D01*
X15332345Y24901817D01*
X15329500Y24877415D01*
X15329501Y24522586D01*
X15332462Y24497690D01*
X15375637Y24400490D01*
X15383868Y24392273D01*
X15383869Y24392272D01*
X15397286Y24378879D01*
X15431366Y24316596D01*
X15426363Y24245776D01*
X15402711Y24206298D01*
X15377377Y24177612D01*
X15316447Y24047837D01*
X15294391Y23906177D01*
X15295555Y23897275D01*
X15295555Y23897272D01*
X15296814Y23887646D01*
X15312980Y23764021D01*
X15370720Y23632797D01*
X15376497Y23625924D01*
X15376498Y23625923D01*
X15383792Y23617246D01*
X15462970Y23523052D01*
X15582313Y23443610D01*
X15719157Y23400858D01*
X15728129Y23400694D01*
X15728132Y23400693D01*
X15793463Y23399496D01*
X15862499Y23398230D01*
X15871533Y23400693D01*
X15992158Y23433579D01*
X15992160Y23433580D01*
X16000817Y23435940D01*
X16122991Y23510955D01*
X16219200Y23617246D01*
X16281710Y23746267D01*
X16305496Y23887646D01*
X16305647Y23900000D01*
X16289951Y24009603D01*
X16286596Y24033032D01*
X16286595Y24033035D01*
X16285323Y24041918D01*
X16225984Y24172428D01*
X16215719Y24184341D01*
X16195996Y24207231D01*
X16166683Y24271893D01*
X16176982Y24342139D01*
X16202277Y24378496D01*
X16206050Y24382276D01*
X16224650Y24400908D01*
X16225201Y24402153D01*
X16275017Y24442837D01*
X16345556Y24450886D01*
X16409249Y24419522D01*
X16437097Y24382276D01*
X16484771Y24285176D01*
X16484773Y24285173D01*
X16489361Y24275829D01*
X16496727Y24268476D01*
X16496729Y24268473D01*
X16568991Y24196337D01*
X16576360Y24188981D01*
X16626946Y24164254D01*
X16677591Y24139498D01*
X16686801Y24134996D01*
X16696478Y24133584D01*
X16705817Y24130698D01*
X16705032Y24128157D01*
X16756207Y24104658D01*
X16794468Y24044854D01*
X16799500Y24009603D01*
X16799500Y22440950D01*
X16779498Y22372829D01*
X16762595Y22351855D01*
X16639735Y22228995D01*
X16577423Y22194969D01*
X16506608Y22200034D01*
X16490713Y22207253D01*
X16460002Y22223858D01*
X16460003Y22223858D01*
X16454585Y22226787D01*
X16425297Y22235853D01*
X16273039Y22282985D01*
X16273036Y22282986D01*
X16267152Y22284807D01*
X16261027Y22285451D01*
X16261026Y22285451D01*
X16078147Y22304673D01*
X16078146Y22304673D01*
X16072019Y22305317D01*
X15981895Y22297115D01*
X15882759Y22288093D01*
X15882758Y22288093D01*
X15876618Y22287534D01*
X15870704Y22285793D01*
X15870702Y22285793D01*
X15769017Y22255865D01*
X15688393Y22232136D01*
X15682928Y22229279D01*
X15519972Y22144088D01*
X15519968Y22144085D01*
X15514512Y22141233D01*
X15361600Y22018289D01*
X15235480Y21867984D01*
X15232516Y21862592D01*
X15232513Y21862588D01*
X15169406Y21747796D01*
X15140956Y21696046D01*
X15139095Y21690179D01*
X15139094Y21690177D01*
X15120349Y21631085D01*
X15081628Y21509022D01*
X15059757Y21314037D01*
X15076175Y21118517D01*
X15130258Y20929909D01*
X15133076Y20924426D01*
X15217123Y20760887D01*
X15217126Y20760883D01*
X15219944Y20755399D01*
X15341818Y20601631D01*
X15346511Y20597637D01*
X15346512Y20597636D01*
X15479560Y20484404D01*
X15491238Y20474465D01*
X15496616Y20471459D01*
X15496618Y20471458D01*
X15527625Y20454129D01*
X15662513Y20378743D01*
X15849118Y20318111D01*
X16043946Y20294879D01*
X16050081Y20295351D01*
X16050083Y20295351D01*
X16233434Y20309459D01*
X16233438Y20309460D01*
X16239576Y20309932D01*
X16428556Y20362697D01*
X16603689Y20451163D01*
X16610883Y20456783D01*
X16716615Y20539390D01*
X16758303Y20571960D01*
X16769620Y20585070D01*
X16882485Y20715827D01*
X16882485Y20715828D01*
X16886509Y20720489D01*
X16983425Y20891091D01*
X17007437Y20963273D01*
X17047919Y21021597D01*
X17113507Y21048776D01*
X17126995Y21049500D01*
X18033301Y21049500D01*
X18101422Y21029498D01*
X18147915Y20975842D01*
X18152789Y20960746D01*
X18155812Y20953449D01*
X18158233Y20941278D01*
X18165127Y20930960D01*
X18165128Y20930958D01*
X18165829Y20929909D01*
X18191496Y20891496D01*
X18201815Y20884601D01*
X18230958Y20865128D01*
X18230960Y20865127D01*
X18241278Y20858233D01*
X18285180Y20849500D01*
X19014820Y20849500D01*
X19058722Y20858233D01*
X19069040Y20865127D01*
X19069042Y20865128D01*
X19098185Y20884601D01*
X19108504Y20891496D01*
X19134171Y20929909D01*
X19134872Y20930958D01*
X19134873Y20930960D01*
X19141767Y20941278D01*
X19150500Y20985180D01*
X19150500Y21614820D01*
X19141767Y21658722D01*
X19134873Y21669040D01*
X19134872Y21669042D01*
X19115399Y21698185D01*
X19108504Y21708504D01*
X19094250Y21718028D01*
X19069042Y21734872D01*
X19069040Y21734873D01*
X19058722Y21741767D01*
X19014820Y21750500D01*
X18285180Y21750500D01*
X18241278Y21741767D01*
X18230960Y21734873D01*
X18230958Y21734872D01*
X18205750Y21718028D01*
X18191496Y21708504D01*
X18184601Y21698185D01*
X18165128Y21669042D01*
X18165127Y21669040D01*
X18158233Y21658722D01*
X18155812Y21646552D01*
X18151062Y21635084D01*
X18148605Y21636102D01*
X18123977Y21589014D01*
X18062284Y21553879D01*
X18033301Y21550500D01*
X17128096Y21550500D01*
X17059975Y21570502D01*
X17013482Y21624158D01*
X17007474Y21640081D01*
X17006071Y21644727D01*
X16994484Y21683106D01*
X16971563Y21726213D01*
X16957243Y21795748D01*
X16982791Y21861988D01*
X16993720Y21874460D01*
X17200902Y22081642D01*
X17219995Y22097312D01*
X17220284Y22097505D01*
X17220286Y22097507D01*
X17230601Y22104399D01*
X17270972Y22164820D01*
X17285966Y22187259D01*
X17288508Y22200034D01*
X17302987Y22272829D01*
X17305408Y22285000D01*
X17302921Y22297504D01*
X17300500Y22322085D01*
X17300500Y22391414D01*
X18150001Y22391414D01*
X18151209Y22379154D01*
X18156282Y22353648D01*
X18165599Y22331152D01*
X18184963Y22302172D01*
X18202172Y22284963D01*
X18231156Y22265596D01*
X18253642Y22256282D01*
X18279158Y22251207D01*
X18291412Y22250000D01*
X18377885Y22250000D01*
X18393124Y22254475D01*
X18394329Y22255865D01*
X18396000Y22263548D01*
X18396000Y22268116D01*
X18904000Y22268116D01*
X18908475Y22252877D01*
X18909865Y22251672D01*
X18917548Y22250001D01*
X19008586Y22250001D01*
X19020846Y22251209D01*
X19046352Y22256282D01*
X19068848Y22265599D01*
X19097828Y22284963D01*
X19115037Y22302172D01*
X19134404Y22331156D01*
X19143718Y22353642D01*
X19148793Y22379158D01*
X19150000Y22391412D01*
X19150000Y22427885D01*
X19145525Y22443124D01*
X19144135Y22444329D01*
X19136452Y22446000D01*
X18922115Y22446000D01*
X18906876Y22441525D01*
X18905671Y22440135D01*
X18904000Y22432452D01*
X18904000Y22268116D01*
X18396000Y22268116D01*
X18396000Y22427885D01*
X18391525Y22443124D01*
X18390135Y22444329D01*
X18382452Y22446000D01*
X18168116Y22446000D01*
X18152877Y22441525D01*
X18151672Y22440135D01*
X18150001Y22432452D01*
X18150001Y22391414D01*
X17300500Y22391414D01*
X17300500Y22972115D01*
X18150000Y22972115D01*
X18154475Y22956876D01*
X18155865Y22955671D01*
X18163548Y22954000D01*
X18377885Y22954000D01*
X18393124Y22958475D01*
X18394329Y22959865D01*
X18396000Y22967548D01*
X18396000Y22972115D01*
X18904000Y22972115D01*
X18908475Y22956876D01*
X18909865Y22955671D01*
X18917548Y22954000D01*
X19131884Y22954000D01*
X19147123Y22958475D01*
X19148328Y22959865D01*
X19149999Y22967548D01*
X19149999Y23008586D01*
X19148791Y23020846D01*
X19143718Y23046352D01*
X19134401Y23068848D01*
X19115037Y23097828D01*
X19097828Y23115037D01*
X19068844Y23134404D01*
X19046358Y23143718D01*
X19020842Y23148793D01*
X19008588Y23150000D01*
X18922115Y23150000D01*
X18906876Y23145525D01*
X18905671Y23144135D01*
X18904000Y23136452D01*
X18904000Y22972115D01*
X18396000Y22972115D01*
X18396000Y23131884D01*
X18391525Y23147123D01*
X18390135Y23148328D01*
X18382452Y23149999D01*
X18291414Y23149999D01*
X18279154Y23148791D01*
X18253648Y23143718D01*
X18231152Y23134401D01*
X18202172Y23115037D01*
X18184963Y23097828D01*
X18165596Y23068844D01*
X18156282Y23046358D01*
X18151207Y23020842D01*
X18150000Y23008588D01*
X18150000Y22972115D01*
X17300500Y22972115D01*
X17300500Y24009691D01*
X17320502Y24077812D01*
X17374158Y24124305D01*
X17394914Y24130437D01*
X17394785Y24130851D01*
X17404138Y24133757D01*
X17413825Y24135183D01*
X17422613Y24139498D01*
X17422614Y24139498D01*
X17503537Y24179230D01*
X17524171Y24189361D01*
X17531524Y24196727D01*
X17531527Y24196729D01*
X17603663Y24268991D01*
X17603664Y24268992D01*
X17611019Y24276360D01*
X17665004Y24386801D01*
X17666416Y24396478D01*
X17674840Y24454222D01*
X17674840Y24454228D01*
X17675500Y24458749D01*
X17675499Y24966250D01*
X17670421Y25000754D01*
X17666243Y25029138D01*
X17666243Y25029139D01*
X17664817Y25038825D01*
X17647369Y25074363D01*
X17615227Y25139826D01*
X17610639Y25149171D01*
X17603273Y25156524D01*
X17603271Y25156527D01*
X17531009Y25228663D01*
X17531008Y25228664D01*
X17523640Y25236019D01*
X17435060Y25279318D01*
X17421984Y25285710D01*
X17421983Y25285710D01*
X17413199Y25290004D01*
X17403524Y25291415D01*
X17403522Y25291416D01*
X17345778Y25299840D01*
X17345772Y25299840D01*
X17341251Y25300500D01*
X17051111Y25300500D01*
X16758750Y25300499D01*
X16754195Y25299829D01*
X16754187Y25299828D01*
X16731195Y25296444D01*
X16660888Y25306314D01*
X16632148Y25331050D01*
X16619918Y25279318D01*
X16584289Y25239793D01*
X16575829Y25235639D01*
X16568470Y25228267D01*
X16501891Y25161572D01*
X16488981Y25148640D01*
X16434996Y25038199D01*
X16434495Y25038444D01*
X16399312Y24985361D01*
X16334322Y24956783D01*
X16264197Y24967878D01*
X16225605Y25000754D01*
X16224363Y24999510D01*
X16157324Y25066433D01*
X16157322Y25066434D01*
X16149092Y25074650D01*
X16103596Y25094763D01*
X16049381Y25140601D01*
X16028554Y25208474D01*
X16047728Y25276833D01*
X16103397Y25325154D01*
X16138877Y25340914D01*
X16149510Y25345637D01*
X16224650Y25420908D01*
X16225000Y25420559D01*
X16272802Y25459594D01*
X16321773Y25469500D01*
X16445415Y25469500D01*
X16469996Y25467079D01*
X16470328Y25467013D01*
X16470329Y25467013D01*
X16482500Y25464592D01*
X16494671Y25467013D01*
X16507082Y25467013D01*
X16507082Y25463359D01*
X16556577Y25458925D01*
X16590334Y25432696D01*
X16606625Y25488869D01*
X16642847Y25525866D01*
X16663101Y25539399D01*
X16669993Y25549714D01*
X16669995Y25549716D01*
X16670188Y25550005D01*
X16685858Y25569098D01*
X16779355Y25662595D01*
X16841667Y25696621D01*
X16868450Y25699500D01*
X17298658Y25699501D01*
X17341250Y25699501D01*
X17367710Y25703396D01*
X17404138Y25708757D01*
X17404139Y25708757D01*
X17413825Y25710183D01*
X17422613Y25714498D01*
X17422614Y25714498D01*
X17514826Y25759773D01*
X17524171Y25764361D01*
X17531524Y25771727D01*
X17531527Y25771729D01*
X17603663Y25843991D01*
X17603664Y25843992D01*
X17611019Y25851360D01*
X17665004Y25961801D01*
X17666416Y25971478D01*
X17674840Y26029222D01*
X17674840Y26029228D01*
X17675500Y26033749D01*
X17675499Y26541250D01*
X17666334Y26603520D01*
X17666243Y26604138D01*
X17666243Y26604139D01*
X17664817Y26613825D01*
X17660502Y26622614D01*
X17657595Y26631969D01*
X17660077Y26632740D01*
X17650468Y26688424D01*
X17678137Y26753807D01*
X17736762Y26793852D01*
X17775640Y26800000D01*
X18215934Y26800000D01*
X18235318Y26798500D01*
X18261009Y26794500D01*
X18335940Y26794500D01*
X18377339Y26800429D01*
X18433032Y26808404D01*
X18433035Y26808405D01*
X18441918Y26809677D01*
X18454926Y26815591D01*
X18531268Y26850302D01*
X18572428Y26869016D01*
X18600192Y26892939D01*
X18674237Y26956740D01*
X18674240Y26956743D01*
X18681037Y26962600D01*
X18759015Y27082905D01*
X18761990Y27080977D01*
X18797533Y27121644D01*
X18865739Y27141355D01*
X18879309Y27140564D01*
X18930421Y27134805D01*
X18957928Y27128526D01*
X19068407Y27089868D01*
X19093820Y27077631D01*
X19192943Y27015349D01*
X19214998Y26997759D01*
X19297759Y26914998D01*
X19315349Y26892943D01*
X19377631Y26793820D01*
X19389868Y26768407D01*
X19428526Y26657928D01*
X19434805Y26630420D01*
X19447692Y26516043D01*
X19447830Y26513583D01*
X19444191Y26500000D01*
X19448484Y26483978D01*
X19448484Y26471315D01*
X19449500Y26463598D01*
X19449500Y18814789D01*
X19429498Y18746668D01*
X19375842Y18700175D01*
X19372667Y18698885D01*
X19371320Y18698524D01*
X19181795Y18612676D01*
X19177505Y18609810D01*
X19013074Y18499964D01*
X19013070Y18499961D01*
X19008786Y18497099D01*
X18954808Y18446551D01*
X18869109Y18366297D01*
X18856918Y18354881D01*
X18730247Y18189822D01*
X18632159Y18006332D01*
X18630503Y18001455D01*
X18630502Y18001452D01*
X18566931Y17814198D01*
X18565273Y17809314D01*
X18531377Y17604031D01*
X18531377Y17395969D01*
X18565273Y17190686D01*
X18566931Y17185803D01*
X18566931Y17185802D01*
X18629600Y17001207D01*
X18632159Y16993668D01*
X18730247Y16810178D01*
X18856918Y16645119D01*
X18860682Y16641595D01*
X18860683Y16641593D01*
X18924242Y16582073D01*
X19008786Y16502901D01*
X19013070Y16500039D01*
X19013074Y16500036D01*
X19124132Y16425845D01*
X19181795Y16387324D01*
X19186495Y16385195D01*
X19186497Y16385194D01*
X19371320Y16301476D01*
X19370793Y16300314D01*
X19423337Y16262078D01*
X19449046Y16195900D01*
X19449500Y16185211D01*
X19449500Y8536402D01*
X19448484Y8528685D01*
X19448484Y8516022D01*
X19444191Y8500000D01*
X19447830Y8486417D01*
X19447692Y8483957D01*
X19434805Y8369580D01*
X19428526Y8342072D01*
X19389868Y8231593D01*
X19377631Y8206180D01*
X19315349Y8107057D01*
X19297759Y8085002D01*
X19214998Y8002241D01*
X19192943Y7984651D01*
X19093820Y7922369D01*
X19068407Y7910132D01*
X18957928Y7871474D01*
X18930422Y7865195D01*
X18917798Y7863772D01*
X18878548Y7859350D01*
X18808618Y7871599D01*
X18757881Y7917322D01*
X18685070Y8032720D01*
X18577612Y8127623D01*
X18447837Y8188553D01*
X18338991Y8205500D01*
X18264060Y8205500D01*
X18236129Y8201500D01*
X18234544Y8201273D01*
X18216682Y8200000D01*
X17775532Y8200000D01*
X17707411Y8220002D01*
X17660918Y8273658D01*
X17650814Y8343932D01*
X17658379Y8368500D01*
X17657822Y8368672D01*
X17660710Y8378017D01*
X17665004Y8386801D01*
X17671355Y8430336D01*
X17674840Y8454222D01*
X17674840Y8454228D01*
X17675500Y8458749D01*
X17675499Y8966250D01*
X17664817Y9038825D01*
X17649980Y9069045D01*
X17615227Y9139826D01*
X17610639Y9149171D01*
X17603273Y9156524D01*
X17603271Y9156527D01*
X17531009Y9228663D01*
X17531008Y9228664D01*
X17523640Y9236019D01*
X17413199Y9290004D01*
X17403524Y9291415D01*
X17403522Y9291416D01*
X17345778Y9299840D01*
X17345772Y9299840D01*
X17341251Y9300500D01*
X17298956Y9300500D01*
X16868451Y9300499D01*
X16800330Y9320501D01*
X16779356Y9337404D01*
X16685858Y9430902D01*
X16670188Y9449995D01*
X16669995Y9450284D01*
X16669993Y9450286D01*
X16663101Y9460601D01*
X16642919Y9474086D01*
X16597391Y9528563D01*
X16592669Y9566152D01*
X16540072Y9535842D01*
X16507082Y9535169D01*
X16507082Y9532987D01*
X16494671Y9532987D01*
X16482500Y9535408D01*
X16470329Y9532987D01*
X16470328Y9532987D01*
X16469996Y9532921D01*
X16445415Y9530500D01*
X16321754Y9530500D01*
X16253633Y9550502D01*
X16224854Y9578406D01*
X16224363Y9579510D01*
X16162749Y9641017D01*
X16157324Y9646433D01*
X16157322Y9646434D01*
X16149092Y9654650D01*
X16103596Y9674763D01*
X16049381Y9720601D01*
X16028554Y9788474D01*
X16047728Y9856833D01*
X16103397Y9905154D01*
X16138877Y9920914D01*
X16149510Y9925637D01*
X16224650Y10000908D01*
X16226279Y9999281D01*
X16269186Y10034325D01*
X16339725Y10042377D01*
X16403419Y10011015D01*
X16435026Y9961098D01*
X16435183Y9961175D01*
X16439497Y9952389D01*
X16439497Y9952388D01*
X16456344Y9918075D01*
X16489361Y9850829D01*
X16496727Y9843476D01*
X16496729Y9843473D01*
X16568992Y9771336D01*
X16576360Y9763981D01*
X16584229Y9760135D01*
X16627477Y9705049D01*
X16630775Y9670211D01*
X16679584Y9700362D01*
X16731108Y9703532D01*
X16743739Y9701690D01*
X16758749Y9699500D01*
X17048889Y9699500D01*
X17341250Y9699501D01*
X17378944Y9705049D01*
X17404138Y9708757D01*
X17404139Y9708757D01*
X17413825Y9710183D01*
X17422613Y9714498D01*
X17422614Y9714498D01*
X17487318Y9746267D01*
X17524171Y9764361D01*
X17531524Y9771727D01*
X17531527Y9771729D01*
X17603663Y9843991D01*
X17603664Y9843992D01*
X17611019Y9851360D01*
X17665004Y9961801D01*
X17668476Y9985599D01*
X17674840Y10029222D01*
X17674840Y10029228D01*
X17675500Y10033749D01*
X17675499Y10541250D01*
X17667998Y10592214D01*
X17666243Y10604138D01*
X17666243Y10604139D01*
X17664817Y10613825D01*
X17644128Y10655964D01*
X17615781Y10713698D01*
X17610639Y10724171D01*
X17603273Y10731524D01*
X17603271Y10731527D01*
X17531009Y10803663D01*
X17531008Y10803664D01*
X17523640Y10811019D01*
X17457416Y10843390D01*
X17421984Y10860710D01*
X17421983Y10860710D01*
X17413199Y10865004D01*
X17403522Y10866416D01*
X17394183Y10869302D01*
X17394968Y10871843D01*
X17343793Y10895342D01*
X17305532Y10955146D01*
X17300500Y10990397D01*
X17300500Y11991414D01*
X18150001Y11991414D01*
X18151209Y11979154D01*
X18156282Y11953648D01*
X18165599Y11931152D01*
X18184963Y11902172D01*
X18202172Y11884963D01*
X18231156Y11865596D01*
X18253642Y11856282D01*
X18279158Y11851207D01*
X18291412Y11850000D01*
X18377885Y11850000D01*
X18393124Y11854475D01*
X18394329Y11855865D01*
X18396000Y11863548D01*
X18396000Y11868116D01*
X18904000Y11868116D01*
X18908475Y11852877D01*
X18909865Y11851672D01*
X18917548Y11850001D01*
X19008586Y11850001D01*
X19020846Y11851209D01*
X19046352Y11856282D01*
X19068848Y11865599D01*
X19097828Y11884963D01*
X19115037Y11902172D01*
X19134404Y11931156D01*
X19143718Y11953642D01*
X19148793Y11979158D01*
X19150000Y11991412D01*
X19150000Y12027885D01*
X19145525Y12043124D01*
X19144135Y12044329D01*
X19136452Y12046000D01*
X18922115Y12046000D01*
X18906876Y12041525D01*
X18905671Y12040135D01*
X18904000Y12032452D01*
X18904000Y11868116D01*
X18396000Y11868116D01*
X18396000Y12027885D01*
X18391525Y12043124D01*
X18390135Y12044329D01*
X18382452Y12046000D01*
X18168116Y12046000D01*
X18152877Y12041525D01*
X18151672Y12040135D01*
X18150001Y12032452D01*
X18150001Y11991414D01*
X17300500Y11991414D01*
X17300500Y12572115D01*
X18150000Y12572115D01*
X18154475Y12556876D01*
X18155865Y12555671D01*
X18163548Y12554000D01*
X18377885Y12554000D01*
X18393124Y12558475D01*
X18394329Y12559865D01*
X18396000Y12567548D01*
X18396000Y12572115D01*
X18904000Y12572115D01*
X18908475Y12556876D01*
X18909865Y12555671D01*
X18917548Y12554000D01*
X19131884Y12554000D01*
X19147123Y12558475D01*
X19148328Y12559865D01*
X19149999Y12567548D01*
X19149999Y12608586D01*
X19148791Y12620846D01*
X19143718Y12646352D01*
X19134401Y12668848D01*
X19115037Y12697828D01*
X19097828Y12715037D01*
X19068844Y12734404D01*
X19046358Y12743718D01*
X19020842Y12748793D01*
X19008588Y12750000D01*
X18922115Y12750000D01*
X18906876Y12745525D01*
X18905671Y12744135D01*
X18904000Y12736452D01*
X18904000Y12572115D01*
X18396000Y12572115D01*
X18396000Y12731884D01*
X18391525Y12747123D01*
X18390135Y12748328D01*
X18382452Y12749999D01*
X18291414Y12749999D01*
X18279154Y12748791D01*
X18253648Y12743718D01*
X18231152Y12734401D01*
X18202172Y12715037D01*
X18184963Y12697828D01*
X18165596Y12668844D01*
X18156282Y12646358D01*
X18151207Y12620842D01*
X18150000Y12608588D01*
X18150000Y12572115D01*
X17300500Y12572115D01*
X17300500Y12657915D01*
X17302921Y12682496D01*
X17302987Y12682828D01*
X17302987Y12682829D01*
X17305408Y12695000D01*
X17285966Y12792741D01*
X17260293Y12831163D01*
X17260292Y12831165D01*
X17237495Y12865284D01*
X17237493Y12865286D01*
X17230601Y12875601D01*
X17220286Y12882493D01*
X17220284Y12882495D01*
X17219995Y12882688D01*
X17200902Y12898358D01*
X16995052Y13104208D01*
X16961026Y13166520D01*
X16966091Y13237335D01*
X16974590Y13255539D01*
X16980380Y13265731D01*
X16983425Y13271091D01*
X17007437Y13343273D01*
X17047919Y13401597D01*
X17113507Y13428776D01*
X17126995Y13429500D01*
X18033301Y13429500D01*
X18101422Y13409498D01*
X18147915Y13355842D01*
X18152789Y13340746D01*
X18155812Y13333449D01*
X18158233Y13321278D01*
X18165127Y13310960D01*
X18165128Y13310958D01*
X18176431Y13294042D01*
X18191496Y13271496D01*
X18201815Y13264601D01*
X18230958Y13245128D01*
X18230960Y13245127D01*
X18241278Y13238233D01*
X18285180Y13229500D01*
X19014820Y13229500D01*
X19058722Y13238233D01*
X19069040Y13245127D01*
X19069042Y13245128D01*
X19098185Y13264601D01*
X19108504Y13271496D01*
X19123569Y13294042D01*
X19134872Y13310958D01*
X19134873Y13310960D01*
X19141767Y13321278D01*
X19150500Y13365180D01*
X19150500Y13994820D01*
X19141767Y14038722D01*
X19134873Y14049040D01*
X19134872Y14049042D01*
X19115399Y14078185D01*
X19108504Y14088504D01*
X19095337Y14097302D01*
X19069042Y14114872D01*
X19069040Y14114873D01*
X19058722Y14121767D01*
X19014820Y14130500D01*
X18285180Y14130500D01*
X18241278Y14121767D01*
X18230960Y14114873D01*
X18230958Y14114872D01*
X18204663Y14097302D01*
X18191496Y14088504D01*
X18184601Y14078185D01*
X18165128Y14049042D01*
X18165127Y14049040D01*
X18158233Y14038722D01*
X18155812Y14026552D01*
X18151062Y14015084D01*
X18148605Y14016102D01*
X18123977Y13969014D01*
X18062284Y13933879D01*
X18033301Y13930500D01*
X17128096Y13930500D01*
X17059975Y13950502D01*
X17013482Y14004158D01*
X17007474Y14020081D01*
X17005521Y14026551D01*
X16994484Y14063106D01*
X16902370Y14236347D01*
X16778361Y14388398D01*
X16627180Y14513465D01*
X16454585Y14606787D01*
X16342875Y14641367D01*
X16273039Y14662985D01*
X16273036Y14662986D01*
X16267152Y14664807D01*
X16261027Y14665451D01*
X16261026Y14665451D01*
X16078147Y14684673D01*
X16078146Y14684673D01*
X16072019Y14685317D01*
X15967907Y14675842D01*
X15882759Y14668093D01*
X15882758Y14668093D01*
X15876618Y14667534D01*
X15870704Y14665793D01*
X15870702Y14665793D01*
X15741734Y14627835D01*
X15688393Y14612136D01*
X15682928Y14609279D01*
X15519972Y14524088D01*
X15519968Y14524085D01*
X15514512Y14521233D01*
X15509712Y14517373D01*
X15509711Y14517373D01*
X15485413Y14497837D01*
X15361600Y14398289D01*
X15235480Y14247984D01*
X15232516Y14242592D01*
X15232513Y14242588D01*
X15207048Y14196267D01*
X15140956Y14076046D01*
X15139095Y14070179D01*
X15139094Y14070177D01*
X15118152Y14004158D01*
X15081628Y13889022D01*
X15059757Y13694037D01*
X15076175Y13498517D01*
X15130258Y13309909D01*
X15148076Y13275240D01*
X15217123Y13140887D01*
X15217126Y13140883D01*
X15219944Y13135399D01*
X15341818Y12981631D01*
X15346511Y12977637D01*
X15346512Y12977636D01*
X15478526Y12865284D01*
X15491238Y12854465D01*
X15496616Y12851459D01*
X15496618Y12851458D01*
X15532932Y12831163D01*
X15662513Y12758743D01*
X15849118Y12698111D01*
X16043946Y12674879D01*
X16050081Y12675351D01*
X16050083Y12675351D01*
X16233434Y12689459D01*
X16233438Y12689460D01*
X16239576Y12689932D01*
X16428556Y12742697D01*
X16486655Y12772045D01*
X16492970Y12775235D01*
X16562792Y12788095D01*
X16628483Y12761166D01*
X16638876Y12751864D01*
X16762595Y12628145D01*
X16796621Y12565833D01*
X16799500Y12539050D01*
X16799500Y10990309D01*
X16779498Y10922188D01*
X16725842Y10875695D01*
X16705086Y10869563D01*
X16705215Y10869149D01*
X16695862Y10866243D01*
X16686175Y10864817D01*
X16677387Y10860502D01*
X16677386Y10860502D01*
X16637701Y10841017D01*
X16575829Y10810639D01*
X16568476Y10803273D01*
X16568473Y10803271D01*
X16496854Y10731527D01*
X16488981Y10723640D01*
X16466838Y10678341D01*
X16437254Y10617819D01*
X16389368Y10565403D01*
X16320745Y10547196D01*
X16253173Y10568980D01*
X16225838Y10596189D01*
X16224363Y10599510D01*
X16203035Y10620801D01*
X16168956Y10683084D01*
X16173959Y10753904D01*
X16198638Y10794529D01*
X16219200Y10817246D01*
X16281710Y10946267D01*
X16305496Y11087646D01*
X16305647Y11100000D01*
X16285323Y11241918D01*
X16225984Y11372428D01*
X16207598Y11393766D01*
X16138260Y11474237D01*
X16138257Y11474240D01*
X16132400Y11481037D01*
X16012095Y11559015D01*
X15874739Y11600093D01*
X15865763Y11600148D01*
X15865762Y11600148D01*
X15805555Y11600516D01*
X15731376Y11600969D01*
X15593529Y11561572D01*
X15472280Y11485070D01*
X15377377Y11377612D01*
X15316447Y11247837D01*
X15294391Y11106177D01*
X15295555Y11097275D01*
X15295555Y11097272D01*
X15296814Y11087646D01*
X15312980Y10964021D01*
X15370720Y10832797D01*
X15403121Y10794252D01*
X15405191Y10791789D01*
X15433713Y10726773D01*
X15422557Y10656659D01*
X15397913Y10621695D01*
X15383569Y10607326D01*
X15383568Y10607324D01*
X15375350Y10599092D01*
X15370646Y10588452D01*
X15336177Y10510486D01*
X15336176Y10510483D01*
X15332345Y10501817D01*
X15329500Y10477415D01*
X15329501Y10122586D01*
X15329941Y10118889D01*
X15329941Y10118884D01*
X15330093Y10117609D01*
X15332462Y10097690D01*
X15375637Y10000490D01*
X15390554Y9985599D01*
X15442676Y9933567D01*
X15442678Y9933566D01*
X15450908Y9925350D01*
X15494277Y9906177D01*
X15496403Y9905237D01*
X15550619Y9859399D01*
X15571446Y9791526D01*
X15552272Y9723167D01*
X15496603Y9674846D01*
X15467563Y9661947D01*
X15450490Y9654363D01*
X15421501Y9625323D01*
X15383567Y9587324D01*
X15383566Y9587322D01*
X15375350Y9579092D01*
X15370646Y9568452D01*
X15336177Y9490486D01*
X15336176Y9490483D01*
X15332345Y9481817D01*
X15329500Y9457415D01*
X15329501Y9102586D01*
X15332462Y9077690D01*
X15375637Y8980490D01*
X15413235Y8942957D01*
X15442676Y8913567D01*
X15442678Y8913566D01*
X15450908Y8905350D01*
X15461548Y8900646D01*
X15539514Y8866177D01*
X15539517Y8866176D01*
X15548183Y8862345D01*
X15557594Y8861248D01*
X15557597Y8861247D01*
X15562862Y8860634D01*
X15572585Y8859500D01*
X15798061Y8859500D01*
X16027414Y8859501D01*
X16031111Y8859941D01*
X16031116Y8859941D01*
X16037257Y8860672D01*
X16052310Y8862462D01*
X16149510Y8905637D01*
X16209326Y8965558D01*
X16271610Y8999637D01*
X16342430Y8994634D01*
X16399303Y8952137D01*
X16424171Y8885638D01*
X16424500Y8876540D01*
X16424501Y8458750D01*
X16435183Y8386175D01*
X16439500Y8377383D01*
X16442139Y8368889D01*
X16443252Y8297901D01*
X16405809Y8237581D01*
X16341698Y8207079D01*
X16321814Y8205500D01*
X16264060Y8205500D01*
X16236129Y8201500D01*
X16234544Y8201273D01*
X16216682Y8200000D01*
X15384066Y8200000D01*
X15364682Y8201500D01*
X15343795Y8204752D01*
X15338991Y8205500D01*
X15264060Y8205500D01*
X15236129Y8201500D01*
X15234544Y8201273D01*
X15216682Y8200000D01*
X14384066Y8200000D01*
X14364682Y8201500D01*
X14343795Y8204752D01*
X14338991Y8205500D01*
X14264060Y8205500D01*
X14234544Y8201273D01*
X14166968Y8191596D01*
X14166965Y8191595D01*
X14158082Y8190323D01*
X14149914Y8186609D01*
X14149913Y8186609D01*
X14121451Y8173668D01*
X14027572Y8130984D01*
X14020768Y8125122D01*
X14020769Y8125122D01*
X13925763Y8043260D01*
X13925760Y8043257D01*
X13918963Y8037400D01*
X13840985Y7917095D01*
X13840155Y7917633D01*
X13798688Y7870202D01*
X13731036Y7850500D01*
X11114789Y7850500D01*
X11046668Y7870502D01*
X11000175Y7924158D01*
X10998885Y7927333D01*
X10998524Y7928680D01*
X10912676Y8118205D01*
X10888477Y8154429D01*
X10799964Y8286926D01*
X10799961Y8286930D01*
X10797099Y8291214D01*
X10654881Y8443082D01*
X10489822Y8569753D01*
X10306332Y8667841D01*
X10301455Y8669497D01*
X10301452Y8669498D01*
X10114198Y8733069D01*
X10114197Y8733069D01*
X10109314Y8734727D01*
X9904031Y8768623D01*
X9695969Y8768623D01*
X9490686Y8734727D01*
X9485803Y8733069D01*
X9485802Y8733069D01*
X9298548Y8669498D01*
X9298545Y8669497D01*
X9293668Y8667841D01*
X9110178Y8569753D01*
X8945119Y8443082D01*
X8802901Y8291214D01*
X8800039Y8286930D01*
X8800036Y8286926D01*
X8711523Y8154429D01*
X8687324Y8118205D01*
X8685195Y8113505D01*
X8685194Y8113503D01*
X8634796Y8002241D01*
X8601476Y7928680D01*
X8600314Y7929207D01*
X8562078Y7876663D01*
X8495900Y7850954D01*
X8485211Y7850500D01*
X5869121Y7850500D01*
X5801000Y7870502D01*
X5764297Y7913190D01*
X5761572Y7911471D01*
X5704301Y8002241D01*
X5685070Y8032720D01*
X5577612Y8127623D01*
X5447837Y8188553D01*
X5338991Y8205500D01*
X5264060Y8205500D01*
X5236129Y8201500D01*
X5234544Y8201273D01*
X5216682Y8200000D01*
X4384066Y8200000D01*
X4364682Y8201500D01*
X4343795Y8204752D01*
X4338991Y8205500D01*
X4264060Y8205500D01*
X4236129Y8201500D01*
X4234544Y8201273D01*
X4216682Y8200000D01*
X3384066Y8200000D01*
X3364682Y8201500D01*
X3343795Y8204752D01*
X3338991Y8205500D01*
X3264060Y8205500D01*
X3236129Y8201500D01*
X3234544Y8201273D01*
X3216682Y8200000D01*
X2384066Y8200000D01*
X2364682Y8201500D01*
X2343795Y8204752D01*
X2338991Y8205500D01*
X2264060Y8205500D01*
X2236129Y8201500D01*
X2234544Y8201273D01*
X2216682Y8200000D01*
X1384066Y8200000D01*
X1364682Y8201500D01*
X1343795Y8204752D01*
X1338991Y8205500D01*
X1264060Y8205500D01*
X1234544Y8201273D01*
X1166968Y8191596D01*
X1166965Y8191595D01*
X1158082Y8190323D01*
X1149914Y8186609D01*
X1149913Y8186609D01*
X1121451Y8173668D01*
X1027572Y8130984D01*
X1020768Y8125122D01*
X1020769Y8125122D01*
X925763Y8043260D01*
X925760Y8043257D01*
X918963Y8037400D01*
X840985Y7917095D01*
X838010Y7919023D01*
X802467Y7878356D01*
X734261Y7858645D01*
X720691Y7859436D01*
X669579Y7865195D01*
X642072Y7871474D01*
X531593Y7910132D01*
X506180Y7922369D01*
X407057Y7984651D01*
X385002Y8002241D01*
X302241Y8085002D01*
X284651Y8107057D01*
X222369Y8206180D01*
X210132Y8231593D01*
X171474Y8342072D01*
X165195Y8369580D01*
X152308Y8483957D01*
X152170Y8486417D01*
X155809Y8500000D01*
X151516Y8516022D01*
X151516Y8528685D01*
X150500Y8536402D01*
X150500Y10506177D01*
X794391Y10506177D01*
X812980Y10364021D01*
X870720Y10232797D01*
X962970Y10123052D01*
X1082313Y10043610D01*
X1219157Y10000858D01*
X1228129Y10000694D01*
X1228132Y10000693D01*
X1293463Y9999496D01*
X1362499Y9998230D01*
X1371533Y10000693D01*
X1492158Y10033579D01*
X1492160Y10033580D01*
X1500817Y10035940D01*
X1622991Y10110955D01*
X1633941Y10123052D01*
X1710881Y10208055D01*
X1771425Y10245136D01*
X1804297Y10249500D01*
X7844050Y10249500D01*
X7912171Y10229498D01*
X7933145Y10212595D01*
X8068699Y10077041D01*
X8102725Y10014729D01*
X8104104Y9968562D01*
X8095772Y9915051D01*
X8095772Y9915046D01*
X8094391Y9906177D01*
X8095555Y9897275D01*
X8095555Y9897272D01*
X8102590Y9843473D01*
X8112980Y9764021D01*
X8116597Y9755801D01*
X8159153Y9659086D01*
X8170720Y9632797D01*
X8176497Y9625924D01*
X8176498Y9625923D01*
X8254619Y9532987D01*
X8262970Y9523052D01*
X8382313Y9443610D01*
X8519157Y9400858D01*
X8528129Y9400694D01*
X8528132Y9400693D01*
X8593463Y9399496D01*
X8662499Y9398230D01*
X8671533Y9400693D01*
X8792158Y9433579D01*
X8792160Y9433580D01*
X8800817Y9435940D01*
X8922991Y9510955D01*
X8942874Y9532921D01*
X9013178Y9610593D01*
X9019200Y9617246D01*
X9064137Y9709996D01*
X9077795Y9738186D01*
X9077795Y9738187D01*
X9081710Y9746267D01*
X9105496Y9887646D01*
X9105647Y9900000D01*
X9095411Y9971478D01*
X9086596Y10033032D01*
X9086595Y10033035D01*
X9085323Y10041918D01*
X9025984Y10172428D01*
X8976809Y10229498D01*
X8938260Y10274237D01*
X8938257Y10274240D01*
X8932400Y10281037D01*
X8812095Y10359015D01*
X8674739Y10400093D01*
X8665763Y10400148D01*
X8665762Y10400148D01*
X8601730Y10400539D01*
X8531376Y10400969D01*
X8524756Y10399077D01*
X8455595Y10409490D01*
X8419601Y10434659D01*
X8203358Y10650902D01*
X8187688Y10669995D01*
X8187495Y10670284D01*
X8187493Y10670286D01*
X8180601Y10680601D01*
X8155798Y10697174D01*
X8125145Y10717655D01*
X8108057Y10729073D01*
X8097741Y10735966D01*
X8000000Y10755408D01*
X7987829Y10752987D01*
X7987828Y10752987D01*
X7987496Y10752921D01*
X7962915Y10750500D01*
X1802632Y10750500D01*
X1734511Y10770502D01*
X1707179Y10794252D01*
X1687366Y10817246D01*
X1632400Y10881037D01*
X1512095Y10959015D01*
X1374739Y11000093D01*
X1365763Y11000148D01*
X1365762Y11000148D01*
X1305555Y11000516D01*
X1231376Y11000969D01*
X1093529Y10961572D01*
X972280Y10885070D01*
X966338Y10878342D01*
X966337Y10878341D01*
X962713Y10874237D01*
X877377Y10777612D01*
X816447Y10647837D01*
X811054Y10613199D01*
X799852Y10541250D01*
X794391Y10506177D01*
X150500Y10506177D01*
X150500Y11641414D01*
X9250001Y11641414D01*
X9251209Y11629154D01*
X9256282Y11603648D01*
X9265599Y11581152D01*
X9284963Y11552172D01*
X9302172Y11534963D01*
X9331156Y11515596D01*
X9353642Y11506282D01*
X9379158Y11501207D01*
X9391412Y11500000D01*
X9427885Y11500000D01*
X9443124Y11504475D01*
X9444329Y11505865D01*
X9446000Y11513548D01*
X9446000Y11518116D01*
X9954000Y11518116D01*
X9958475Y11502877D01*
X9959865Y11501672D01*
X9967548Y11500001D01*
X10008586Y11500001D01*
X10020846Y11501209D01*
X10046352Y11506282D01*
X10068848Y11515599D01*
X10097828Y11534963D01*
X10115037Y11552172D01*
X10134404Y11581156D01*
X10143718Y11603642D01*
X10148793Y11629158D01*
X10150000Y11641412D01*
X10150000Y11727885D01*
X10145525Y11743124D01*
X10144135Y11744329D01*
X10136452Y11746000D01*
X9972115Y11746000D01*
X9956876Y11741525D01*
X9955671Y11740135D01*
X9954000Y11732452D01*
X9954000Y11518116D01*
X9446000Y11518116D01*
X9446000Y11727885D01*
X9441525Y11743124D01*
X9440135Y11744329D01*
X9432452Y11746000D01*
X9268116Y11746000D01*
X9252877Y11741525D01*
X9251672Y11740135D01*
X9250001Y11732452D01*
X9250001Y11641414D01*
X150500Y11641414D01*
X150500Y12581085D01*
X1800000Y12581085D01*
X1800369Y12574271D01*
X1805789Y12524379D01*
X1809414Y12509133D01*
X1853767Y12390823D01*
X1862299Y12375237D01*
X1937430Y12274991D01*
X1949991Y12262430D01*
X2050237Y12187299D01*
X2065823Y12178767D01*
X2184133Y12134414D01*
X2199379Y12130789D01*
X2249271Y12125369D01*
X2256085Y12125000D01*
X2677885Y12125000D01*
X2693124Y12129475D01*
X2694329Y12130865D01*
X2696000Y12138548D01*
X2696000Y12143115D01*
X3204000Y12143115D01*
X3208475Y12127876D01*
X3209865Y12126671D01*
X3217548Y12125000D01*
X3643915Y12125000D01*
X3650729Y12125369D01*
X3700621Y12130789D01*
X3715867Y12134414D01*
X3834177Y12178767D01*
X3849763Y12187299D01*
X3950009Y12262430D01*
X3962570Y12274991D01*
X4037701Y12375237D01*
X4046233Y12390823D01*
X4090586Y12509133D01*
X4094211Y12524379D01*
X4099631Y12574271D01*
X4100000Y12581085D01*
X4100000Y12702885D01*
X4095525Y12718124D01*
X4094135Y12719329D01*
X4086452Y12721000D01*
X3222115Y12721000D01*
X3206876Y12716525D01*
X3205671Y12715135D01*
X3204000Y12707452D01*
X3204000Y12143115D01*
X2696000Y12143115D01*
X2696000Y12702885D01*
X2691525Y12718124D01*
X2690135Y12719329D01*
X2682452Y12721000D01*
X1818115Y12721000D01*
X1802876Y12716525D01*
X1801671Y12715135D01*
X1800000Y12707452D01*
X1800000Y12581085D01*
X150500Y12581085D01*
X150500Y13247115D01*
X1800000Y13247115D01*
X1804475Y13231876D01*
X1805865Y13230671D01*
X1813548Y13229000D01*
X2677885Y13229000D01*
X2693124Y13233475D01*
X2694329Y13234865D01*
X2696000Y13242548D01*
X2696000Y13247115D01*
X3204000Y13247115D01*
X3208475Y13231876D01*
X3209865Y13230671D01*
X3217548Y13229000D01*
X4081885Y13229000D01*
X4097124Y13233475D01*
X4098329Y13234865D01*
X4100000Y13242548D01*
X4100000Y13368915D01*
X4099631Y13375729D01*
X4094211Y13425621D01*
X4090586Y13440867D01*
X4046233Y13559177D01*
X4037701Y13574763D01*
X3962570Y13675009D01*
X3950009Y13687570D01*
X3849763Y13762701D01*
X3834177Y13771233D01*
X3715867Y13815586D01*
X3700621Y13819211D01*
X3650729Y13824631D01*
X3643915Y13825000D01*
X3222115Y13825000D01*
X3206876Y13820525D01*
X3205671Y13819135D01*
X3204000Y13811452D01*
X3204000Y13247115D01*
X2696000Y13247115D01*
X2696000Y13806885D01*
X2691525Y13822124D01*
X2690135Y13823329D01*
X2682452Y13825000D01*
X2256085Y13825000D01*
X2249271Y13824631D01*
X2199379Y13819211D01*
X2184133Y13815586D01*
X2065823Y13771233D01*
X2050237Y13762701D01*
X1949991Y13687570D01*
X1937430Y13675009D01*
X1862299Y13574763D01*
X1853767Y13559177D01*
X1809414Y13440867D01*
X1805789Y13425621D01*
X1800369Y13375729D01*
X1800000Y13368915D01*
X1800000Y13247115D01*
X150500Y13247115D01*
X150500Y18400000D01*
X4374258Y18400000D01*
X4375809Y18390207D01*
X4378865Y18370913D01*
X4395095Y18268438D01*
X4455567Y18149755D01*
X4549755Y18055567D01*
X4586945Y18036618D01*
X4655962Y18001452D01*
X4668438Y17995095D01*
X4677430Y17993671D01*
X4735664Y17953853D01*
X4763301Y17888457D01*
X4751196Y17818500D01*
X4728354Y17786585D01*
X4719399Y17780601D01*
X4712507Y17770286D01*
X4712505Y17770284D01*
X4698149Y17748798D01*
X4698148Y17748796D01*
X4670927Y17708058D01*
X4670926Y17708056D01*
X4664034Y17697741D01*
X4644592Y17600000D01*
X4647013Y17587829D01*
X4647013Y17587828D01*
X4647079Y17587496D01*
X4649500Y17562915D01*
X4649500Y17503276D01*
X4629498Y17435155D01*
X4590734Y17396714D01*
X4579875Y17389863D01*
X4579871Y17389859D01*
X4572280Y17385070D01*
X4477377Y17277612D01*
X4416447Y17147837D01*
X4414142Y17133032D01*
X4395785Y17015128D01*
X4394391Y17006177D01*
X4395555Y16997275D01*
X4395555Y16997272D01*
X4396621Y16989121D01*
X4412980Y16864021D01*
X4434102Y16816017D01*
X4451558Y16776347D01*
X4470720Y16732797D01*
X4476497Y16725924D01*
X4476498Y16725923D01*
X4482396Y16718907D01*
X4562970Y16623052D01*
X4570447Y16618075D01*
X4570449Y16618073D01*
X4589220Y16605578D01*
X4634843Y16551181D01*
X4643815Y16480754D01*
X4613286Y16416656D01*
X4586640Y16394131D01*
X4579874Y16389862D01*
X4579871Y16389860D01*
X4572280Y16385070D01*
X4477377Y16277612D01*
X4416447Y16147837D01*
X4415066Y16138965D01*
X4398505Y16032597D01*
X4394391Y16006177D01*
X4395555Y15997275D01*
X4395555Y15997272D01*
X4400596Y15958722D01*
X4412980Y15864021D01*
X4470720Y15732797D01*
X4476497Y15725924D01*
X4476498Y15725923D01*
X4557190Y15629928D01*
X4562970Y15623052D01*
X4570447Y15618075D01*
X4665802Y15554601D01*
X4682313Y15543610D01*
X4819157Y15500858D01*
X4828129Y15500694D01*
X4828132Y15500693D01*
X4893228Y15499500D01*
X4962499Y15498230D01*
X4971163Y15500592D01*
X4975835Y15501174D01*
X5045906Y15489745D01*
X5080505Y15465235D01*
X5296642Y15249098D01*
X5312312Y15230005D01*
X5312505Y15229716D01*
X5312507Y15229714D01*
X5319399Y15219399D01*
X5329714Y15212507D01*
X5372464Y15183943D01*
X5372465Y15183942D01*
X5382238Y15177412D01*
X5402259Y15164034D01*
X5500000Y15144592D01*
X5512171Y15147013D01*
X5512172Y15147013D01*
X5512504Y15147079D01*
X5537085Y15149500D01*
X5840743Y15149500D01*
X5908864Y15129498D01*
X5955357Y15075842D01*
X5965461Y15005568D01*
X5940706Y14946799D01*
X5897302Y14890233D01*
X5839313Y14750236D01*
X5819534Y14600000D01*
X5700000Y14600000D01*
X5700000Y12100000D01*
X8600000Y12100000D01*
X8600000Y13510589D01*
X8604145Y13489752D01*
X8610961Y13455484D01*
X8611628Y13452129D01*
X8620477Y13422958D01*
X8639291Y13377537D01*
X8640745Y13374817D01*
X8640750Y13374806D01*
X8651663Y13354389D01*
X8653660Y13350653D01*
X8687036Y13300702D01*
X8687931Y13299495D01*
X8687946Y13299474D01*
X8694263Y13290958D01*
X8696129Y13288442D01*
X8697093Y13287268D01*
X8697098Y13287261D01*
X8710807Y13270557D01*
X8710819Y13270544D01*
X8711799Y13269349D01*
X8722045Y13258045D01*
X9208045Y12772045D01*
X9219349Y12761799D01*
X9220544Y12760819D01*
X9220557Y12760807D01*
X9236919Y12747379D01*
X9238442Y12746129D01*
X9239658Y12745227D01*
X9239662Y12745224D01*
X9249474Y12737946D01*
X9249495Y12737931D01*
X9250702Y12737036D01*
X9300653Y12703660D01*
X9303373Y12702206D01*
X9303385Y12702199D01*
X9314505Y12696256D01*
X9365155Y12646506D01*
X9380867Y12577270D01*
X9356654Y12510530D01*
X9325115Y12480367D01*
X9302172Y12465037D01*
X9284963Y12447828D01*
X9265596Y12418844D01*
X9256282Y12396358D01*
X9251207Y12370842D01*
X9250000Y12358588D01*
X9250000Y12272115D01*
X9254475Y12256876D01*
X9255865Y12255671D01*
X9263548Y12254000D01*
X10131884Y12254000D01*
X10147123Y12258475D01*
X10148328Y12259865D01*
X10149999Y12267548D01*
X10149999Y12358586D01*
X10148791Y12370846D01*
X10143718Y12396352D01*
X10134401Y12418848D01*
X10114589Y12448498D01*
X10093374Y12516251D01*
X10112157Y12584718D01*
X10164974Y12632161D01*
X10219354Y12644500D01*
X10580046Y12644500D01*
X10648167Y12624498D01*
X10694660Y12570842D01*
X10704764Y12500568D01*
X10684812Y12448501D01*
X10658233Y12408722D01*
X10649500Y12364820D01*
X10649500Y11635180D01*
X10658233Y11591278D01*
X10665127Y11580960D01*
X10665128Y11580958D01*
X10684601Y11551815D01*
X10691496Y11541496D01*
X10701815Y11534601D01*
X10730958Y11515128D01*
X10730960Y11515127D01*
X10741278Y11508233D01*
X10785180Y11499500D01*
X11414820Y11499500D01*
X11458722Y11508233D01*
X11469040Y11515127D01*
X11469042Y11515128D01*
X11498185Y11534601D01*
X11508504Y11541496D01*
X11515399Y11551815D01*
X11534872Y11580958D01*
X11534873Y11580960D01*
X11541767Y11591278D01*
X11550500Y11635180D01*
X11550500Y11637198D01*
X11576541Y11701684D01*
X11634496Y11742693D01*
X11675350Y11749500D01*
X11807915Y11749500D01*
X11832496Y11747079D01*
X11832828Y11747013D01*
X11832829Y11747013D01*
X11845000Y11744592D01*
X11857171Y11747013D01*
X11930570Y11761613D01*
X11942741Y11764034D01*
X11972536Y11783943D01*
X12025601Y11819399D01*
X12032493Y11829714D01*
X12032495Y11829716D01*
X12032688Y11830005D01*
X12048358Y11849098D01*
X12949600Y12750340D01*
X13011912Y12784366D01*
X13082727Y12779301D01*
X13100158Y12771237D01*
X13122513Y12758743D01*
X13187438Y12737647D01*
X13246042Y12697574D01*
X13273679Y12632178D01*
X13274500Y12617815D01*
X13274500Y11001500D01*
X13254498Y10933379D01*
X13200842Y10886886D01*
X13148500Y10875500D01*
X12776946Y10875499D01*
X12758750Y10875499D01*
X12733911Y10871843D01*
X12695862Y10866243D01*
X12695861Y10866243D01*
X12686175Y10864817D01*
X12677387Y10860502D01*
X12677386Y10860502D01*
X12637701Y10841017D01*
X12575829Y10810639D01*
X12568476Y10803273D01*
X12568473Y10803271D01*
X12496854Y10731527D01*
X12488981Y10723640D01*
X12466838Y10678341D01*
X12437254Y10617819D01*
X12389368Y10565403D01*
X12320745Y10547196D01*
X12253173Y10568980D01*
X12225838Y10596189D01*
X12224363Y10599510D01*
X12203035Y10620801D01*
X12157324Y10666433D01*
X12157322Y10666434D01*
X12149092Y10674650D01*
X12114688Y10689860D01*
X12060486Y10713823D01*
X12060483Y10713824D01*
X12051817Y10717655D01*
X12042406Y10718752D01*
X12042403Y10718753D01*
X12037138Y10719366D01*
X12027415Y10720500D01*
X11801939Y10720500D01*
X11572586Y10720499D01*
X11568889Y10720059D01*
X11568884Y10720059D01*
X11562743Y10719328D01*
X11547690Y10717538D01*
X11450490Y10674363D01*
X11448850Y10678054D01*
X11401970Y10662693D01*
X11329526Y10682900D01*
X11247655Y10735966D01*
X11212095Y10759015D01*
X11074739Y10800093D01*
X11065763Y10800148D01*
X11065762Y10800148D01*
X11005555Y10800516D01*
X10931376Y10800969D01*
X10793529Y10761572D01*
X10672280Y10685070D01*
X10666338Y10678342D01*
X10666337Y10678341D01*
X10658966Y10669995D01*
X10577377Y10577612D01*
X10516447Y10447837D01*
X10509150Y10400969D01*
X10504784Y10372926D01*
X10494391Y10306177D01*
X10495555Y10297275D01*
X10495555Y10297272D01*
X10501802Y10249500D01*
X10512980Y10164021D01*
X10570720Y10032797D01*
X10576497Y10025924D01*
X10576498Y10025923D01*
X10654131Y9933567D01*
X10662970Y9923052D01*
X10704900Y9895141D01*
X10762449Y9856833D01*
X10782313Y9843610D01*
X10919157Y9800858D01*
X10928129Y9800694D01*
X10928132Y9800693D01*
X10993463Y9799496D01*
X11062499Y9798230D01*
X11071533Y9800693D01*
X11192158Y9833579D01*
X11192160Y9833580D01*
X11200817Y9835940D01*
X11241165Y9860714D01*
X11315340Y9906257D01*
X11315341Y9906258D01*
X11322991Y9910955D01*
X11323206Y9910604D01*
X11382916Y9936369D01*
X11450818Y9925143D01*
X11450909Y9925350D01*
X11496403Y9905237D01*
X11550619Y9859399D01*
X11571446Y9791526D01*
X11552272Y9723167D01*
X11496603Y9674846D01*
X11467563Y9661947D01*
X11450490Y9654363D01*
X11421501Y9625323D01*
X11383567Y9587324D01*
X11383566Y9587322D01*
X11375350Y9579092D01*
X11370646Y9568452D01*
X11336177Y9490486D01*
X11336176Y9490483D01*
X11332345Y9481817D01*
X11329500Y9457415D01*
X11329501Y9102586D01*
X11332462Y9077690D01*
X11375637Y8980490D01*
X11413235Y8942957D01*
X11442676Y8913567D01*
X11442678Y8913566D01*
X11450908Y8905350D01*
X11461548Y8900646D01*
X11539514Y8866177D01*
X11539517Y8866176D01*
X11548183Y8862345D01*
X11557594Y8861248D01*
X11557597Y8861247D01*
X11562862Y8860634D01*
X11572585Y8859500D01*
X11798061Y8859500D01*
X12027414Y8859501D01*
X12031111Y8859941D01*
X12031116Y8859941D01*
X12037257Y8860672D01*
X12052310Y8862462D01*
X12149510Y8905637D01*
X12209326Y8965558D01*
X12271610Y8999637D01*
X12342430Y8994634D01*
X12399303Y8952137D01*
X12424171Y8885638D01*
X12424500Y8876540D01*
X12424501Y8458750D01*
X12425172Y8454192D01*
X12433667Y8396478D01*
X12435183Y8386175D01*
X12439498Y8377387D01*
X12439498Y8377386D01*
X12443861Y8368500D01*
X12489361Y8275829D01*
X12496727Y8268476D01*
X12496729Y8268473D01*
X12568991Y8196337D01*
X12576360Y8188981D01*
X12607687Y8173668D01*
X12677591Y8139498D01*
X12686801Y8134996D01*
X12696476Y8133585D01*
X12696478Y8133584D01*
X12754222Y8125160D01*
X12754228Y8125160D01*
X12758749Y8124500D01*
X13048889Y8124500D01*
X13341250Y8124501D01*
X13367710Y8128396D01*
X13404138Y8133757D01*
X13404139Y8133757D01*
X13413825Y8135183D01*
X13422613Y8139498D01*
X13422614Y8139498D01*
X13470006Y8162767D01*
X13524171Y8189361D01*
X13531524Y8196727D01*
X13531527Y8196729D01*
X13603663Y8268991D01*
X13603664Y8268992D01*
X13611019Y8276360D01*
X13644049Y8343932D01*
X13660710Y8378016D01*
X13660710Y8378017D01*
X13665004Y8386801D01*
X13671355Y8430336D01*
X13674840Y8454222D01*
X13674840Y8454228D01*
X13675500Y8458749D01*
X13675499Y8966250D01*
X13664817Y9038825D01*
X13649980Y9069045D01*
X13615227Y9139826D01*
X13610639Y9149171D01*
X13603273Y9156524D01*
X13603271Y9156527D01*
X13531009Y9228663D01*
X13531008Y9228664D01*
X13523640Y9236019D01*
X13413199Y9290004D01*
X13403524Y9291415D01*
X13403522Y9291416D01*
X13345778Y9299840D01*
X13345772Y9299840D01*
X13341251Y9300500D01*
X13298956Y9300500D01*
X12868451Y9300499D01*
X12800330Y9320501D01*
X12779356Y9337404D01*
X12685858Y9430902D01*
X12670188Y9449995D01*
X12669995Y9450284D01*
X12669993Y9450286D01*
X12663101Y9460601D01*
X12642919Y9474086D01*
X12597391Y9528563D01*
X12592669Y9566152D01*
X12540072Y9535842D01*
X12507082Y9535169D01*
X12507082Y9532987D01*
X12494671Y9532987D01*
X12482500Y9535408D01*
X12470329Y9532987D01*
X12470328Y9532987D01*
X12469996Y9532921D01*
X12445415Y9530500D01*
X12321754Y9530500D01*
X12253633Y9550502D01*
X12224854Y9578406D01*
X12224363Y9579510D01*
X12162749Y9641017D01*
X12157324Y9646433D01*
X12157322Y9646434D01*
X12149092Y9654650D01*
X12103596Y9674763D01*
X12049381Y9720601D01*
X12028554Y9788474D01*
X12047728Y9856833D01*
X12103397Y9905154D01*
X12138877Y9920914D01*
X12149510Y9925637D01*
X12224650Y10000908D01*
X12226279Y9999281D01*
X12269186Y10034325D01*
X12339725Y10042377D01*
X12403419Y10011015D01*
X12435026Y9961098D01*
X12435183Y9961175D01*
X12439497Y9952389D01*
X12439497Y9952388D01*
X12456344Y9918075D01*
X12489361Y9850829D01*
X12496727Y9843476D01*
X12496729Y9843473D01*
X12568992Y9771336D01*
X12576360Y9763981D01*
X12584229Y9760135D01*
X12627477Y9705049D01*
X12630775Y9670211D01*
X12679584Y9700362D01*
X12731108Y9703532D01*
X12743739Y9701690D01*
X12758749Y9699500D01*
X13048889Y9699500D01*
X13341250Y9699501D01*
X13378944Y9705049D01*
X13404138Y9708757D01*
X13404139Y9708757D01*
X13413825Y9710183D01*
X13422613Y9714498D01*
X13422614Y9714498D01*
X13487318Y9746267D01*
X13524171Y9764361D01*
X13531524Y9771727D01*
X13531527Y9771729D01*
X13603663Y9843991D01*
X13603664Y9843992D01*
X13611019Y9851360D01*
X13665004Y9961801D01*
X13668476Y9985599D01*
X13674840Y10029222D01*
X13674840Y10029228D01*
X13675500Y10033749D01*
X13675499Y10503030D01*
X13695501Y10571151D01*
X13702485Y10579817D01*
X13705601Y10581899D01*
X13760966Y10664760D01*
X13775500Y10737826D01*
X13775500Y10737827D01*
X13780408Y10762500D01*
X13777921Y10775003D01*
X13775500Y10799585D01*
X13775500Y12615492D01*
X13795502Y12683613D01*
X13849158Y12730106D01*
X13867612Y12736849D01*
X13888556Y12742697D01*
X14063689Y12831163D01*
X14093515Y12854465D01*
X14180424Y12922366D01*
X14218303Y12951960D01*
X14248084Y12986461D01*
X14342485Y13095827D01*
X14342485Y13095828D01*
X14346509Y13100489D01*
X14443425Y13271091D01*
X14505358Y13457268D01*
X14529949Y13651929D01*
X14530341Y13680000D01*
X14511194Y13875272D01*
X14509413Y13881171D01*
X14509412Y13881176D01*
X14456265Y14057207D01*
X14456264Y14057209D01*
X14454484Y14063106D01*
X14362370Y14236347D01*
X14238361Y14388398D01*
X14104061Y14499500D01*
X14091926Y14509539D01*
X14091925Y14509540D01*
X14087180Y14513465D01*
X14081763Y14516394D01*
X14077837Y14519042D01*
X14032548Y14573717D01*
X14024008Y14644198D01*
X14054928Y14708108D01*
X14115492Y14745155D01*
X14148296Y14749500D01*
X14807915Y14749500D01*
X14832496Y14747079D01*
X14832828Y14747013D01*
X14832829Y14747013D01*
X14845000Y14744592D01*
X14942741Y14764034D01*
X14953058Y14770928D01*
X14953061Y14770929D01*
X14974388Y14785179D01*
X15015282Y14812503D01*
X15015285Y14812506D01*
X15025601Y14819399D01*
X15032493Y14829714D01*
X15032495Y14829716D01*
X15032688Y14830005D01*
X15048358Y14849098D01*
X15489600Y15290340D01*
X15551912Y15324366D01*
X15622727Y15319301D01*
X15640158Y15311237D01*
X15662513Y15298743D01*
X15849118Y15238111D01*
X16043946Y15214879D01*
X16050081Y15215351D01*
X16050083Y15215351D01*
X16233434Y15229459D01*
X16233438Y15229460D01*
X16239576Y15229932D01*
X16428556Y15282697D01*
X16603689Y15371163D01*
X16633515Y15394465D01*
X16745488Y15481948D01*
X16758303Y15491960D01*
X16764200Y15498791D01*
X16882485Y15635827D01*
X16882485Y15635828D01*
X16886509Y15640489D01*
X16983425Y15811091D01*
X17045358Y15997268D01*
X17069949Y16191929D01*
X17070341Y16220000D01*
X17051194Y16415272D01*
X17049413Y16421171D01*
X17049412Y16421176D01*
X16996265Y16597207D01*
X16994484Y16603106D01*
X16902370Y16776347D01*
X16778361Y16928398D01*
X16627180Y17053465D01*
X16454585Y17146787D01*
X16360869Y17175797D01*
X16273039Y17202985D01*
X16273036Y17202986D01*
X16267152Y17204807D01*
X16261027Y17205451D01*
X16261026Y17205451D01*
X16078147Y17224673D01*
X16078146Y17224673D01*
X16072019Y17225317D01*
X15949383Y17214156D01*
X15882759Y17208093D01*
X15882758Y17208093D01*
X15876618Y17207534D01*
X15870704Y17205793D01*
X15870702Y17205793D01*
X15768398Y17175683D01*
X15688393Y17152136D01*
X15682928Y17149279D01*
X15519972Y17064088D01*
X15519968Y17064085D01*
X15514512Y17061233D01*
X15509712Y17057373D01*
X15509711Y17057373D01*
X15489964Y17041496D01*
X15361600Y16938289D01*
X15235480Y16787984D01*
X15232516Y16782592D01*
X15232513Y16782588D01*
X15197504Y16718907D01*
X15140956Y16616046D01*
X15139095Y16610179D01*
X15139094Y16610177D01*
X15120379Y16551181D01*
X15081628Y16429022D01*
X15059757Y16234037D01*
X15076175Y16038517D01*
X15130258Y15849909D01*
X15159682Y15792657D01*
X15173029Y15722930D01*
X15146559Y15657052D01*
X15136710Y15645970D01*
X14778145Y15287405D01*
X14715833Y15253379D01*
X14689050Y15250500D01*
X14275179Y15250500D01*
X14207058Y15270502D01*
X14160565Y15324158D01*
X14150461Y15394432D01*
X14179955Y15459012D01*
X14197606Y15475790D01*
X14205488Y15481948D01*
X14218303Y15491960D01*
X14224200Y15498791D01*
X14342485Y15635827D01*
X14342485Y15635828D01*
X14346509Y15640489D01*
X14443425Y15811091D01*
X14505358Y15997268D01*
X14529949Y16191929D01*
X14530341Y16220000D01*
X14511194Y16415272D01*
X14509413Y16421171D01*
X14509412Y16421176D01*
X14456265Y16597207D01*
X14454484Y16603106D01*
X14362370Y16776347D01*
X14238361Y16928398D01*
X14087180Y17053465D01*
X13914585Y17146787D01*
X13820869Y17175797D01*
X13733039Y17202985D01*
X13733036Y17202986D01*
X13727152Y17204807D01*
X13721027Y17205451D01*
X13721026Y17205451D01*
X13538147Y17224673D01*
X13538146Y17224673D01*
X13532019Y17225317D01*
X13409383Y17214156D01*
X13342759Y17208093D01*
X13342758Y17208093D01*
X13336618Y17207534D01*
X13228555Y17175729D01*
X13157560Y17175683D01*
X13103885Y17207507D01*
X12819988Y17491405D01*
X12505909Y17805484D01*
X12505895Y17805497D01*
X12483342Y17828050D01*
X12463746Y17838035D01*
X12446893Y17848361D01*
X12429090Y17861296D01*
X12408166Y17868095D01*
X12389906Y17875659D01*
X12379141Y17881144D01*
X12379137Y17881145D01*
X12370304Y17885646D01*
X12360513Y17887197D01*
X12360512Y17887197D01*
X12348578Y17889087D01*
X12329353Y17893703D01*
X12317868Y17897435D01*
X12317864Y17897436D01*
X12308433Y17900500D01*
X11614609Y17900500D01*
X11546488Y17920502D01*
X11525692Y17940928D01*
X11524174Y17939410D01*
X11515399Y17948185D01*
X11508504Y17958504D01*
X11498185Y17965399D01*
X11469042Y17984872D01*
X11469040Y17984873D01*
X11458722Y17991767D01*
X11414820Y18000500D01*
X10785180Y18000500D01*
X10741278Y17991767D01*
X10730960Y17984873D01*
X10730958Y17984872D01*
X10701815Y17965399D01*
X10691496Y17958504D01*
X10684601Y17948185D01*
X10665128Y17919042D01*
X10665127Y17919040D01*
X10658233Y17908722D01*
X10649500Y17864820D01*
X10649500Y17135180D01*
X10658233Y17091278D01*
X10665127Y17080960D01*
X10665128Y17080958D01*
X10684601Y17051815D01*
X10691496Y17041496D01*
X10701815Y17034601D01*
X10730958Y17015128D01*
X10730960Y17015127D01*
X10741278Y17008233D01*
X10785180Y16999500D01*
X11414820Y16999500D01*
X11458722Y17008233D01*
X11469040Y17015127D01*
X11469042Y17015128D01*
X11498185Y17034601D01*
X11508504Y17041496D01*
X11515399Y17051815D01*
X11524174Y17060590D01*
X11526958Y17057806D01*
X11564333Y17089035D01*
X11614609Y17099500D01*
X12026916Y17099500D01*
X12095037Y17079498D01*
X12116011Y17062596D01*
X12332341Y16846267D01*
X12537538Y16641070D01*
X12571563Y16578757D01*
X12568545Y16513875D01*
X12550931Y16458349D01*
X12541628Y16429022D01*
X12519757Y16234037D01*
X12536175Y16038517D01*
X12590258Y15849909D01*
X12593076Y15844426D01*
X12677123Y15680887D01*
X12677126Y15680883D01*
X12679944Y15675399D01*
X12801818Y15521631D01*
X12806511Y15517637D01*
X12806512Y15517636D01*
X12859601Y15472454D01*
X12898514Y15413071D01*
X12899145Y15342078D01*
X12861293Y15282013D01*
X12796977Y15251947D01*
X12777938Y15250500D01*
X11675350Y15250500D01*
X11607229Y15270502D01*
X11560736Y15324158D01*
X11550500Y15362133D01*
X11550500Y15364820D01*
X11541767Y15408722D01*
X11534873Y15419040D01*
X11534872Y15419042D01*
X11515399Y15448185D01*
X11508504Y15458504D01*
X11498185Y15465399D01*
X11469042Y15484872D01*
X11469040Y15484873D01*
X11458722Y15491767D01*
X11414820Y15500500D01*
X10785180Y15500500D01*
X10741278Y15491767D01*
X10730960Y15484873D01*
X10730958Y15484872D01*
X10701815Y15465399D01*
X10691496Y15458504D01*
X10684601Y15448185D01*
X10665128Y15419042D01*
X10665127Y15419040D01*
X10658233Y15408722D01*
X10649500Y15364820D01*
X10649500Y14635180D01*
X10658233Y14591278D01*
X10665127Y14580960D01*
X10665128Y14580958D01*
X10680151Y14558475D01*
X10691496Y14541496D01*
X10706810Y14531264D01*
X10752336Y14476789D01*
X10761185Y14406346D01*
X10730544Y14342302D01*
X10670143Y14304990D01*
X10636807Y14300500D01*
X10302632Y14300500D01*
X10234511Y14320502D01*
X10207179Y14344252D01*
X10139575Y14422710D01*
X10110261Y14487372D01*
X10120560Y14557618D01*
X10130264Y14574961D01*
X10134403Y14581156D01*
X10143718Y14603642D01*
X10148793Y14629158D01*
X10150000Y14641412D01*
X10150000Y14727885D01*
X10145525Y14743124D01*
X10144135Y14744329D01*
X10136452Y14746000D01*
X9572000Y14746000D01*
X9503879Y14766002D01*
X9457386Y14819658D01*
X9446000Y14872000D01*
X9446000Y15272115D01*
X9954000Y15272115D01*
X9958475Y15256876D01*
X9959865Y15255671D01*
X9967548Y15254000D01*
X10131884Y15254000D01*
X10147123Y15258475D01*
X10148328Y15259865D01*
X10149999Y15267548D01*
X10149999Y15358586D01*
X10148791Y15370846D01*
X10143718Y15396352D01*
X10134401Y15418848D01*
X10115037Y15447828D01*
X10097828Y15465037D01*
X10068844Y15484404D01*
X10046358Y15493718D01*
X10020842Y15498793D01*
X10008588Y15500000D01*
X9972115Y15500000D01*
X9956876Y15495525D01*
X9955671Y15494135D01*
X9954000Y15486452D01*
X9954000Y15272115D01*
X9446000Y15272115D01*
X9446000Y15481884D01*
X9441525Y15497123D01*
X9440135Y15498328D01*
X9432452Y15499999D01*
X9391414Y15499999D01*
X9379154Y15498791D01*
X9353648Y15493718D01*
X9325230Y15481948D01*
X9254640Y15474360D01*
X9208184Y15493121D01*
X9208129Y15493029D01*
X9207542Y15493381D01*
X9207004Y15493598D01*
X9205477Y15494619D01*
X9205469Y15494624D01*
X9202902Y15496339D01*
X9200175Y15497796D01*
X9200171Y15497799D01*
X9178739Y15509254D01*
X9176017Y15510709D01*
X9173168Y15511889D01*
X9173164Y15511891D01*
X9133449Y15528341D01*
X9130598Y15529522D01*
X9117962Y15533355D01*
X9104392Y15537472D01*
X9104384Y15537474D01*
X9101427Y15538371D01*
X9098398Y15538974D01*
X9098392Y15538975D01*
X9076869Y15543256D01*
X9042506Y15550091D01*
X9040966Y15550319D01*
X9040957Y15550321D01*
X9036168Y15551031D01*
X9027412Y15552330D01*
X9018014Y15553256D01*
X9004360Y15554601D01*
X9004340Y15554602D01*
X9002832Y15554751D01*
X8994414Y15555165D01*
X8989141Y15555424D01*
X8989132Y15555424D01*
X8987590Y15555500D01*
X8846500Y15555500D01*
X8778379Y15575502D01*
X8731886Y15629158D01*
X8720500Y15681500D01*
X8720500Y15914820D01*
X8711767Y15958722D01*
X8711181Y15959599D01*
X8704432Y16022370D01*
X8708586Y16036517D01*
X8711767Y16041278D01*
X8720500Y16085180D01*
X8720500Y16381071D01*
X8740502Y16449192D01*
X8796763Y16496839D01*
X8806235Y16500908D01*
X8806237Y16500909D01*
X8814404Y16504418D01*
X8819124Y16508295D01*
X8821315Y16510486D01*
X8823579Y16512539D01*
X8823771Y16512327D01*
X8830823Y16517902D01*
X8838612Y16524965D01*
X8848515Y16531069D01*
X8855555Y16540327D01*
X8855557Y16540329D01*
X8864353Y16551897D01*
X8875554Y16564725D01*
X9029736Y16718907D01*
X9031534Y16720459D01*
X9036204Y16722742D01*
X9068350Y16757396D01*
X9071630Y16760801D01*
X9084520Y16773691D01*
X9087180Y16777569D01*
X9089249Y16779925D01*
X9101893Y16793556D01*
X9109802Y16802082D01*
X9114112Y16812886D01*
X9117242Y16817837D01*
X9121241Y16825326D01*
X9123612Y16830677D01*
X9130192Y16840268D01*
X9135627Y16863169D01*
X9141185Y16880742D01*
X9149904Y16902598D01*
X9150500Y16908677D01*
X9150500Y16910332D01*
X9152875Y16920093D01*
X9154352Y16919734D01*
X9173626Y16975203D01*
X9229487Y17019022D01*
X9300171Y17025684D01*
X9324391Y17018399D01*
X9353644Y17006282D01*
X9379158Y17001207D01*
X9391412Y17000000D01*
X9427885Y17000000D01*
X9443124Y17004475D01*
X9444329Y17005865D01*
X9446000Y17013548D01*
X9446000Y17018116D01*
X9954000Y17018116D01*
X9958475Y17002877D01*
X9959865Y17001672D01*
X9967548Y17000001D01*
X10008586Y17000001D01*
X10020846Y17001209D01*
X10046352Y17006282D01*
X10068848Y17015599D01*
X10097828Y17034963D01*
X10115037Y17052172D01*
X10134404Y17081156D01*
X10143718Y17103642D01*
X10148793Y17129158D01*
X10150000Y17141412D01*
X10150000Y17227885D01*
X10145525Y17243124D01*
X10144135Y17244329D01*
X10136452Y17246000D01*
X9972115Y17246000D01*
X9956876Y17241525D01*
X9955671Y17240135D01*
X9954000Y17232452D01*
X9954000Y17018116D01*
X9446000Y17018116D01*
X9446000Y17772115D01*
X9954000Y17772115D01*
X9958475Y17756876D01*
X9959865Y17755671D01*
X9967548Y17754000D01*
X10131884Y17754000D01*
X10147123Y17758475D01*
X10148328Y17759865D01*
X10149999Y17767548D01*
X10149999Y17858586D01*
X10148791Y17870846D01*
X10143718Y17896352D01*
X10134401Y17918848D01*
X10115037Y17947828D01*
X10097828Y17965037D01*
X10068844Y17984404D01*
X10046358Y17993718D01*
X10020842Y17998793D01*
X10008588Y18000000D01*
X9972115Y18000000D01*
X9956876Y17995525D01*
X9955671Y17994135D01*
X9954000Y17986452D01*
X9954000Y17772115D01*
X9446000Y17772115D01*
X9446000Y17981884D01*
X9441525Y17997123D01*
X9440135Y17998328D01*
X9432452Y17999999D01*
X9391414Y17999999D01*
X9379154Y17998791D01*
X9353648Y17993718D01*
X9331152Y17984401D01*
X9302172Y17965037D01*
X9284963Y17947828D01*
X9265596Y17918844D01*
X9256282Y17896358D01*
X9251207Y17870841D01*
X9249415Y17852648D01*
X9222833Y17786816D01*
X9164879Y17745805D01*
X9093953Y17742637D01*
X9034927Y17775902D01*
X8891093Y17919736D01*
X8889541Y17921534D01*
X8887258Y17926204D01*
X8852604Y17958350D01*
X8849199Y17961630D01*
X8836309Y17974520D01*
X8832431Y17977180D01*
X8830075Y17979249D01*
X8816444Y17991893D01*
X8807918Y17999802D01*
X8797116Y18004111D01*
X8792156Y18007247D01*
X8776115Y18015813D01*
X8775210Y18016434D01*
X8730358Y18071469D01*
X8720500Y18120327D01*
X8720500Y18414820D01*
X8711767Y18458722D01*
X8711181Y18459599D01*
X8704432Y18522370D01*
X8708586Y18536517D01*
X8711767Y18541278D01*
X8720500Y18585180D01*
X8720500Y18914820D01*
X8711767Y18958722D01*
X8711181Y18959599D01*
X8704432Y19022370D01*
X8708586Y19036517D01*
X8711767Y19041278D01*
X8720500Y19085180D01*
X8720500Y19318500D01*
X8740502Y19386621D01*
X8794158Y19433114D01*
X8846500Y19444500D01*
X8987590Y19444500D01*
X8989132Y19444576D01*
X8989141Y19444576D01*
X8994414Y19444835D01*
X9002832Y19445249D01*
X9004340Y19445398D01*
X9004360Y19445399D01*
X9018014Y19446744D01*
X9027412Y19447670D01*
X9036168Y19448969D01*
X9040957Y19449679D01*
X9040966Y19449681D01*
X9042506Y19449909D01*
X9076869Y19456744D01*
X9098392Y19461025D01*
X9098398Y19461026D01*
X9101427Y19461629D01*
X9104384Y19462526D01*
X9104392Y19462528D01*
X9123741Y19468398D01*
X9130598Y19470478D01*
X9149456Y19478289D01*
X9173164Y19488109D01*
X9173168Y19488111D01*
X9176017Y19489291D01*
X9192741Y19498230D01*
X9200171Y19502201D01*
X9200175Y19502204D01*
X9202902Y19503661D01*
X9205469Y19505376D01*
X9205477Y19505381D01*
X9207004Y19506402D01*
X9207372Y19506517D01*
X9208129Y19506971D01*
X9208238Y19506789D01*
X9274755Y19527622D01*
X9325233Y19518050D01*
X9353642Y19506282D01*
X9379158Y19501207D01*
X9391412Y19500000D01*
X9427885Y19500000D01*
X9443124Y19504475D01*
X9444329Y19505865D01*
X9446000Y19513548D01*
X9446000Y19518116D01*
X9954000Y19518116D01*
X9958475Y19502877D01*
X9959865Y19501672D01*
X9967548Y19500001D01*
X10008586Y19500001D01*
X10020846Y19501209D01*
X10046352Y19506282D01*
X10068848Y19515599D01*
X10097828Y19534963D01*
X10115037Y19552172D01*
X10134404Y19581156D01*
X10143718Y19603642D01*
X10148793Y19629158D01*
X10150000Y19641412D01*
X10150000Y19727885D01*
X10145525Y19743124D01*
X10144135Y19744329D01*
X10136452Y19746000D01*
X9972115Y19746000D01*
X9956876Y19741525D01*
X9955671Y19740135D01*
X9954000Y19732452D01*
X9954000Y19518116D01*
X9446000Y19518116D01*
X9446000Y20272115D01*
X9954000Y20272115D01*
X9958475Y20256876D01*
X9959865Y20255671D01*
X9967548Y20254000D01*
X10131884Y20254000D01*
X10147123Y20258475D01*
X10148328Y20259865D01*
X10149999Y20267548D01*
X10149999Y20358586D01*
X10148791Y20370846D01*
X10143718Y20396352D01*
X10134401Y20418848D01*
X10115037Y20447828D01*
X10097828Y20465037D01*
X10068844Y20484404D01*
X10046358Y20493718D01*
X10020842Y20498793D01*
X10008588Y20500000D01*
X9972115Y20500000D01*
X9956876Y20495525D01*
X9955671Y20494135D01*
X9954000Y20486452D01*
X9954000Y20272115D01*
X9446000Y20272115D01*
X9446000Y20473900D01*
X9466002Y20542021D01*
X9482905Y20562995D01*
X9677505Y20757595D01*
X9739817Y20791621D01*
X9766600Y20794500D01*
X10887590Y20794500D01*
X10889132Y20794576D01*
X10889141Y20794576D01*
X10894414Y20794835D01*
X10902832Y20795249D01*
X10904340Y20795398D01*
X10904360Y20795399D01*
X10918014Y20796744D01*
X10927412Y20797670D01*
X10936168Y20798969D01*
X10940957Y20799679D01*
X10940966Y20799681D01*
X10942506Y20799909D01*
X10976869Y20806744D01*
X10998392Y20811025D01*
X10998398Y20811026D01*
X11001427Y20811629D01*
X11004384Y20812526D01*
X11004392Y20812528D01*
X11017962Y20816645D01*
X11030598Y20820478D01*
X11063333Y20834037D01*
X11073164Y20838109D01*
X11073168Y20838111D01*
X11076017Y20839291D01*
X11094704Y20849279D01*
X11100171Y20852201D01*
X11100175Y20852204D01*
X11102902Y20853661D01*
X11142331Y20880007D01*
X11165894Y20899345D01*
X11200655Y20934106D01*
X11219992Y20957668D01*
X11232938Y20977042D01*
X11244614Y20994516D01*
X11244616Y20994520D01*
X11246337Y20997095D01*
X11260708Y21023980D01*
X11279523Y21069403D01*
X11288372Y21098576D01*
X11300091Y21157495D01*
X11300318Y21159022D01*
X11300321Y21159042D01*
X11302100Y21171034D01*
X11302103Y21171055D01*
X11302330Y21172588D01*
X11304751Y21197168D01*
X11305500Y21212410D01*
X11305500Y21387590D01*
X11304751Y21402832D01*
X11302330Y21427412D01*
X11302103Y21428945D01*
X11302100Y21428966D01*
X11300321Y21440958D01*
X11300318Y21440978D01*
X11300091Y21442505D01*
X11288372Y21501424D01*
X11286068Y21509022D01*
X11280422Y21527634D01*
X11280420Y21527638D01*
X11279523Y21530597D01*
X11260708Y21576020D01*
X11246337Y21602905D01*
X11238376Y21614820D01*
X11221716Y21639752D01*
X11221715Y21639753D01*
X11219992Y21642332D01*
X11200655Y21665894D01*
X11165894Y21700655D01*
X11142331Y21719993D01*
X11102902Y21746339D01*
X11100175Y21747796D01*
X11100171Y21747799D01*
X11084084Y21756397D01*
X11076017Y21760709D01*
X11073168Y21761889D01*
X11073164Y21761891D01*
X11043478Y21774187D01*
X11030598Y21779522D01*
X11017962Y21783355D01*
X11004392Y21787472D01*
X11004384Y21787474D01*
X11001427Y21788371D01*
X10998398Y21788974D01*
X10998392Y21788975D01*
X10976869Y21793256D01*
X10942506Y21800091D01*
X10940966Y21800319D01*
X10940957Y21800321D01*
X10936168Y21801031D01*
X10927412Y21802330D01*
X10918014Y21803256D01*
X10904360Y21804601D01*
X10904340Y21804602D01*
X10902832Y21804751D01*
X10894414Y21805165D01*
X10889141Y21805424D01*
X10889132Y21805424D01*
X10887590Y21805500D01*
X9565963Y21805500D01*
X9564421Y21805424D01*
X9564412Y21805424D01*
X9552260Y21804827D01*
X9552245Y21804826D01*
X9550721Y21804751D01*
X9549196Y21804601D01*
X9549185Y21804600D01*
X9541369Y21803830D01*
X9526140Y21802330D01*
X9524639Y21802107D01*
X9524636Y21802107D01*
X9512553Y21800315D01*
X9512546Y21800314D01*
X9511044Y21800091D01*
X9452126Y21788371D01*
X9449178Y21787477D01*
X9449171Y21787475D01*
X9433126Y21782607D01*
X9422958Y21779523D01*
X9420108Y21778342D01*
X9420101Y21778340D01*
X9391577Y21766525D01*
X9377538Y21760710D01*
X9350653Y21746340D01*
X9300702Y21712964D01*
X9299495Y21712069D01*
X9299474Y21712054D01*
X9289662Y21704776D01*
X9288442Y21703871D01*
X9287268Y21702907D01*
X9287261Y21702902D01*
X9270557Y21689193D01*
X9270544Y21689181D01*
X9269349Y21688201D01*
X9258045Y21677955D01*
X8751868Y21171778D01*
X8689556Y21137752D01*
X8628902Y21143180D01*
X8628527Y21141297D01*
X8600000Y21146971D01*
X8600000Y22241414D01*
X9250001Y22241414D01*
X9251209Y22229154D01*
X9256282Y22203648D01*
X9265599Y22181152D01*
X9284963Y22152172D01*
X9302172Y22134963D01*
X9331156Y22115596D01*
X9353642Y22106282D01*
X9379158Y22101207D01*
X9391412Y22100000D01*
X9427885Y22100000D01*
X9443124Y22104475D01*
X9444329Y22105865D01*
X9446000Y22113548D01*
X9446000Y22118116D01*
X9954000Y22118116D01*
X9958475Y22102877D01*
X9959865Y22101672D01*
X9967548Y22100001D01*
X10008586Y22100001D01*
X10020846Y22101209D01*
X10046352Y22106282D01*
X10068848Y22115599D01*
X10097828Y22134963D01*
X10115037Y22152172D01*
X10134404Y22181156D01*
X10143718Y22203642D01*
X10148793Y22229158D01*
X10150000Y22241412D01*
X10150000Y22327885D01*
X10145525Y22343124D01*
X10144135Y22344329D01*
X10136452Y22346000D01*
X9972115Y22346000D01*
X9956876Y22341525D01*
X9955671Y22340135D01*
X9954000Y22332452D01*
X9954000Y22118116D01*
X9446000Y22118116D01*
X9446000Y22327885D01*
X9441525Y22343124D01*
X9440135Y22344329D01*
X9432452Y22346000D01*
X9268116Y22346000D01*
X9252877Y22341525D01*
X9251672Y22340135D01*
X9250001Y22332452D01*
X9250001Y22241414D01*
X8600000Y22241414D01*
X8600000Y22872115D01*
X9250000Y22872115D01*
X9254475Y22856876D01*
X9255865Y22855671D01*
X9263548Y22854000D01*
X9427885Y22854000D01*
X9443124Y22858475D01*
X9444329Y22859865D01*
X9446000Y22867548D01*
X9446000Y22872115D01*
X9954000Y22872115D01*
X9958475Y22856876D01*
X9959865Y22855671D01*
X9967548Y22854000D01*
X10131884Y22854000D01*
X10147123Y22858475D01*
X10148328Y22859865D01*
X10149999Y22867548D01*
X10149999Y22958586D01*
X10148791Y22970846D01*
X10143718Y22996352D01*
X10134401Y23018848D01*
X10115037Y23047828D01*
X10097828Y23065037D01*
X10068844Y23084404D01*
X10046358Y23093718D01*
X10020842Y23098793D01*
X10008588Y23100000D01*
X9972115Y23100000D01*
X9956876Y23095525D01*
X9955671Y23094135D01*
X9954000Y23086452D01*
X9954000Y22872115D01*
X9446000Y22872115D01*
X9446000Y23081884D01*
X9441525Y23097123D01*
X9440135Y23098328D01*
X9432452Y23099999D01*
X9391414Y23099999D01*
X9379154Y23098791D01*
X9353648Y23093718D01*
X9331152Y23084401D01*
X9302172Y23065037D01*
X9284963Y23047828D01*
X9265596Y23018844D01*
X9256282Y22996358D01*
X9251207Y22970842D01*
X9250000Y22958588D01*
X9250000Y22872115D01*
X8600000Y22872115D01*
X8600000Y22900000D01*
X5700000Y22900000D01*
X5700000Y20400000D01*
X5819534Y20400000D01*
X5820612Y20391812D01*
X5833278Y20295608D01*
X5839313Y20249764D01*
X5897302Y20109767D01*
X5989549Y19989549D01*
X6109767Y19897302D01*
X6249764Y19839313D01*
X6362280Y19824500D01*
X6437720Y19824500D01*
X6550236Y19839313D01*
X6690233Y19897302D01*
X6742936Y19937742D01*
X6809152Y19963342D01*
X6878701Y19949078D01*
X6929498Y19899477D01*
X6945246Y19847229D01*
X6945249Y19847168D01*
X6945399Y19845647D01*
X6945400Y19845631D01*
X6946941Y19829991D01*
X6947670Y19822588D01*
X6947897Y19821055D01*
X6947900Y19821034D01*
X6949679Y19809042D01*
X6949682Y19809022D01*
X6949909Y19807495D01*
X6961628Y19748576D01*
X6963282Y19743124D01*
X6964075Y19740510D01*
X6969500Y19703935D01*
X6969500Y19585180D01*
X6978233Y19541278D01*
X6978819Y19540401D01*
X6985568Y19477630D01*
X6981414Y19463483D01*
X6978233Y19458722D01*
X6969500Y19414820D01*
X6969500Y19126500D01*
X6949498Y19058379D01*
X6895842Y19011886D01*
X6843500Y19000500D01*
X6087085Y19000500D01*
X6062504Y19002921D01*
X6062172Y19002987D01*
X6062171Y19002987D01*
X6050000Y19005408D01*
X6037829Y19002987D01*
X6037828Y19002987D01*
X5960291Y18987564D01*
X5889577Y18993892D01*
X5833510Y19037446D01*
X5811261Y19091432D01*
X5806456Y19121770D01*
X5806456Y19121771D01*
X5804905Y19131562D01*
X5744433Y19250245D01*
X5650245Y19344433D01*
X5594400Y19372887D01*
X5540396Y19400404D01*
X5540395Y19400404D01*
X5531562Y19404905D01*
X5400000Y19425742D01*
X5350564Y19417912D01*
X5280154Y19427012D01*
X5225840Y19472733D01*
X5204867Y19540562D01*
X5223894Y19608961D01*
X5237438Y19626916D01*
X5297626Y19693411D01*
X5319200Y19717246D01*
X5381710Y19846267D01*
X5405496Y19987646D01*
X5405647Y20000000D01*
X5390866Y20103214D01*
X5386596Y20133032D01*
X5386595Y20133035D01*
X5385323Y20141918D01*
X5325984Y20272428D01*
X5266471Y20341496D01*
X5238260Y20374237D01*
X5238257Y20374240D01*
X5232400Y20381037D01*
X5112095Y20459015D01*
X4974739Y20500093D01*
X4965763Y20500148D01*
X4965762Y20500148D01*
X4905555Y20500516D01*
X4831376Y20500969D01*
X4693529Y20461572D01*
X4572280Y20385070D01*
X4566338Y20378342D01*
X4566337Y20378341D01*
X4549145Y20358874D01*
X4477377Y20277612D01*
X4416447Y20147837D01*
X4415066Y20138965D01*
X4399375Y20038186D01*
X4394391Y20006177D01*
X4395555Y19997275D01*
X4395555Y19997272D01*
X4403340Y19937741D01*
X4412980Y19864021D01*
X4416597Y19855801D01*
X4466880Y19741525D01*
X4470720Y19732797D01*
X4476497Y19725924D01*
X4476498Y19725923D01*
X4507691Y19688814D01*
X4562970Y19623052D01*
X4592129Y19603642D01*
X4615013Y19588409D01*
X4660636Y19534011D01*
X4669607Y19463584D01*
X4639077Y19399486D01*
X4602396Y19371255D01*
X4558589Y19348935D01*
X4558585Y19348932D01*
X4549755Y19344433D01*
X4455567Y19250245D01*
X4395095Y19131562D01*
X4393544Y19121770D01*
X4393544Y19121769D01*
X4376141Y19011886D01*
X4374258Y19000000D01*
X4395095Y18868438D01*
X4399596Y18859605D01*
X4399596Y18859604D01*
X4451772Y18757203D01*
X4464876Y18687426D01*
X4451772Y18642797D01*
X4400046Y18541278D01*
X4395095Y18531562D01*
X4374258Y18400000D01*
X150500Y18400000D01*
X150500Y21631085D01*
X1800000Y21631085D01*
X1800369Y21624271D01*
X1805789Y21574379D01*
X1809414Y21559133D01*
X1853767Y21440823D01*
X1862299Y21425237D01*
X1937430Y21324991D01*
X1949991Y21312430D01*
X2050237Y21237299D01*
X2065823Y21228767D01*
X2184133Y21184414D01*
X2199379Y21180789D01*
X2249271Y21175369D01*
X2256085Y21175000D01*
X2677885Y21175000D01*
X2693124Y21179475D01*
X2694329Y21180865D01*
X2696000Y21188548D01*
X2696000Y21193115D01*
X3204000Y21193115D01*
X3208475Y21177876D01*
X3209865Y21176671D01*
X3217548Y21175000D01*
X3643915Y21175000D01*
X3650729Y21175369D01*
X3700621Y21180789D01*
X3715867Y21184414D01*
X3834177Y21228767D01*
X3849763Y21237299D01*
X3950009Y21312430D01*
X3962570Y21324991D01*
X4037701Y21425237D01*
X4046233Y21440823D01*
X4090586Y21559133D01*
X4094211Y21574379D01*
X4099631Y21624271D01*
X4100000Y21631085D01*
X4100000Y21752885D01*
X4095525Y21768124D01*
X4094135Y21769329D01*
X4086452Y21771000D01*
X3222115Y21771000D01*
X3206876Y21766525D01*
X3205671Y21765135D01*
X3204000Y21757452D01*
X3204000Y21193115D01*
X2696000Y21193115D01*
X2696000Y21752885D01*
X2691525Y21768124D01*
X2690135Y21769329D01*
X2682452Y21771000D01*
X1818115Y21771000D01*
X1802876Y21766525D01*
X1801671Y21765135D01*
X1800000Y21757452D01*
X1800000Y21631085D01*
X150500Y21631085D01*
X150500Y22297115D01*
X1800000Y22297115D01*
X1804475Y22281876D01*
X1805865Y22280671D01*
X1813548Y22279000D01*
X2677885Y22279000D01*
X2693124Y22283475D01*
X2694329Y22284865D01*
X2696000Y22292548D01*
X2696000Y22297115D01*
X3204000Y22297115D01*
X3208475Y22281876D01*
X3209865Y22280671D01*
X3217548Y22279000D01*
X4081885Y22279000D01*
X4097124Y22283475D01*
X4098329Y22284865D01*
X4100000Y22292548D01*
X4100000Y22418915D01*
X4099631Y22425729D01*
X4094211Y22475621D01*
X4090586Y22490867D01*
X4046233Y22609177D01*
X4037701Y22624763D01*
X3962570Y22725009D01*
X3950009Y22737570D01*
X3849763Y22812701D01*
X3834177Y22821233D01*
X3715867Y22865586D01*
X3700621Y22869211D01*
X3650729Y22874631D01*
X3643915Y22875000D01*
X3222115Y22875000D01*
X3206876Y22870525D01*
X3205671Y22869135D01*
X3204000Y22861452D01*
X3204000Y22297115D01*
X2696000Y22297115D01*
X2696000Y22856885D01*
X2691525Y22872124D01*
X2690135Y22873329D01*
X2682452Y22875000D01*
X2256085Y22875000D01*
X2249271Y22874631D01*
X2199379Y22869211D01*
X2184133Y22865586D01*
X2065823Y22821233D01*
X2050237Y22812701D01*
X1949991Y22737570D01*
X1937430Y22725009D01*
X1862299Y22624763D01*
X1853767Y22609177D01*
X1809414Y22490867D01*
X1805789Y22475621D01*
X1800369Y22425729D01*
X1800000Y22418915D01*
X1800000Y22297115D01*
X150500Y22297115D01*
X150500Y24706177D01*
X10494391Y24706177D01*
X10512980Y24564021D01*
X10570720Y24432797D01*
X10576497Y24425924D01*
X10576498Y24425923D01*
X10657190Y24329928D01*
X10662970Y24323052D01*
X10718178Y24286302D01*
X10741216Y24270967D01*
X10782313Y24243610D01*
X10919157Y24200858D01*
X10928129Y24200694D01*
X10928132Y24200693D01*
X10993463Y24199496D01*
X11062499Y24198230D01*
X11071533Y24200693D01*
X11192158Y24233579D01*
X11192160Y24233580D01*
X11200817Y24235940D01*
X11265783Y24275829D01*
X11315340Y24306257D01*
X11315341Y24306258D01*
X11322991Y24310955D01*
X11323206Y24310604D01*
X11382916Y24336369D01*
X11450817Y24325144D01*
X11450908Y24325350D01*
X11451708Y24324996D01*
X11451709Y24324996D01*
X11460940Y24320915D01*
X11539514Y24286177D01*
X11539517Y24286176D01*
X11548183Y24282345D01*
X11557594Y24281248D01*
X11557597Y24281247D01*
X11562862Y24280634D01*
X11572585Y24279500D01*
X11798061Y24279500D01*
X12027414Y24279501D01*
X12031111Y24279941D01*
X12031116Y24279941D01*
X12037257Y24280672D01*
X12052310Y24282462D01*
X12149510Y24325637D01*
X12224650Y24400908D01*
X12225201Y24402153D01*
X12275017Y24442837D01*
X12345556Y24450886D01*
X12409249Y24419522D01*
X12437097Y24382276D01*
X12484771Y24285176D01*
X12484773Y24285173D01*
X12489361Y24275829D01*
X12496727Y24268476D01*
X12496729Y24268473D01*
X12568991Y24196337D01*
X12576360Y24188981D01*
X12626946Y24164254D01*
X12677591Y24139498D01*
X12686801Y24134996D01*
X12696476Y24133585D01*
X12696478Y24133584D01*
X12754222Y24125160D01*
X12754228Y24125160D01*
X12758749Y24124500D01*
X12776812Y24124500D01*
X13148501Y24124501D01*
X13216620Y24104499D01*
X13263113Y24050844D01*
X13274500Y23998501D01*
X13274500Y22426500D01*
X13254498Y22358379D01*
X13200842Y22311886D01*
X13148500Y22300500D01*
X12930950Y22300500D01*
X12862829Y22320502D01*
X12841855Y22337405D01*
X12428358Y22750902D01*
X12412688Y22769995D01*
X12412495Y22770284D01*
X12412493Y22770286D01*
X12405601Y22780601D01*
X12352536Y22816057D01*
X12322741Y22835966D01*
X12225000Y22855408D01*
X12212829Y22852987D01*
X12212828Y22852987D01*
X12212496Y22852921D01*
X12187915Y22850500D01*
X11675350Y22850500D01*
X11607229Y22870502D01*
X11560736Y22924158D01*
X11550500Y22962133D01*
X11550500Y22964820D01*
X11541767Y23008722D01*
X11534873Y23019040D01*
X11534872Y23019042D01*
X11515399Y23048185D01*
X11508504Y23058504D01*
X11493023Y23068848D01*
X11469042Y23084872D01*
X11469040Y23084873D01*
X11458722Y23091767D01*
X11414820Y23100500D01*
X10785180Y23100500D01*
X10741278Y23091767D01*
X10730960Y23084873D01*
X10730958Y23084872D01*
X10706977Y23068848D01*
X10691496Y23058504D01*
X10684601Y23048185D01*
X10665128Y23019042D01*
X10665127Y23019040D01*
X10658233Y23008722D01*
X10649500Y22964820D01*
X10649500Y22235180D01*
X10658233Y22191278D01*
X10665127Y22180960D01*
X10665128Y22180958D01*
X10684601Y22151815D01*
X10691496Y22141496D01*
X10701815Y22134601D01*
X10730958Y22115128D01*
X10730960Y22115127D01*
X10741278Y22108233D01*
X10785180Y22099500D01*
X11414820Y22099500D01*
X11458722Y22108233D01*
X11469040Y22115127D01*
X11469042Y22115128D01*
X11498185Y22134601D01*
X11508504Y22141496D01*
X11515399Y22151815D01*
X11534872Y22180958D01*
X11534873Y22180960D01*
X11541767Y22191278D01*
X11548248Y22223858D01*
X11549293Y22229112D01*
X11549293Y22229113D01*
X11550500Y22235180D01*
X11550500Y22237198D01*
X11576541Y22301684D01*
X11634496Y22342693D01*
X11675350Y22349500D01*
X12069050Y22349500D01*
X12137171Y22329498D01*
X12158145Y22312595D01*
X12487595Y21983145D01*
X12521621Y21920833D01*
X12524500Y21894050D01*
X12524500Y20639323D01*
X12504498Y20571202D01*
X12450842Y20524709D01*
X12380568Y20514605D01*
X12315988Y20544099D01*
X12303047Y20557075D01*
X12302366Y20557865D01*
X12282400Y20581037D01*
X12162095Y20659015D01*
X12024739Y20700093D01*
X12015763Y20700148D01*
X12015762Y20700148D01*
X11955555Y20700516D01*
X11881376Y20700969D01*
X11743529Y20661572D01*
X11622280Y20585070D01*
X11616338Y20578342D01*
X11612713Y20574237D01*
X11575713Y20532342D01*
X11515629Y20494524D01*
X11456691Y20492171D01*
X11414820Y20500500D01*
X10785180Y20500500D01*
X10741278Y20491767D01*
X10730960Y20484873D01*
X10730958Y20484872D01*
X10701815Y20465399D01*
X10691496Y20458504D01*
X10684601Y20448185D01*
X10665128Y20419042D01*
X10665127Y20419040D01*
X10658233Y20408722D01*
X10649500Y20364820D01*
X10649500Y19635180D01*
X10658233Y19591278D01*
X10665127Y19580960D01*
X10665128Y19580958D01*
X10684601Y19551815D01*
X10691496Y19541496D01*
X10701815Y19534601D01*
X10730958Y19515128D01*
X10730960Y19515127D01*
X10741278Y19508233D01*
X10785180Y19499500D01*
X10971256Y19499500D01*
X11039377Y19479498D01*
X11060351Y19462595D01*
X12068430Y18454516D01*
X12068434Y18454513D01*
X12090997Y18431950D01*
X12099837Y18427446D01*
X12110594Y18421965D01*
X12127446Y18411639D01*
X12145249Y18398704D01*
X12166173Y18391905D01*
X12184433Y18384341D01*
X12195198Y18378856D01*
X12195202Y18378855D01*
X12204035Y18374354D01*
X12213826Y18372803D01*
X12213827Y18372803D01*
X12225761Y18370913D01*
X12244986Y18366297D01*
X12256471Y18362565D01*
X12256475Y18362564D01*
X12265906Y18359500D01*
X12528976Y18359500D01*
X12597097Y18339498D01*
X12641042Y18291094D01*
X12677123Y18220887D01*
X12677126Y18220883D01*
X12679944Y18215399D01*
X12801818Y18061631D01*
X12806511Y18057637D01*
X12806512Y18057636D01*
X12945428Y17939410D01*
X12951238Y17934465D01*
X12956616Y17931459D01*
X12956618Y17931458D01*
X12992932Y17911163D01*
X13122513Y17838743D01*
X13309118Y17778111D01*
X13503946Y17754879D01*
X13510081Y17755351D01*
X13510083Y17755351D01*
X13693434Y17769459D01*
X13693438Y17769460D01*
X13699576Y17769932D01*
X13888556Y17822697D01*
X14063689Y17911163D01*
X14073521Y17918844D01*
X14177142Y17999802D01*
X14218303Y18031960D01*
X14248084Y18066461D01*
X14342485Y18175827D01*
X14342485Y18175828D01*
X14346509Y18180489D01*
X14354135Y18193912D01*
X14396471Y18268438D01*
X14443425Y18351091D01*
X14490973Y18494025D01*
X15100923Y18494025D01*
X15129025Y18396020D01*
X15133543Y18384608D01*
X15217546Y18221156D01*
X15224196Y18210838D01*
X15338350Y18066811D01*
X15346873Y18057985D01*
X15486833Y17938871D01*
X15496905Y17931870D01*
X15657334Y17842210D01*
X15668574Y17837299D01*
X15793769Y17796621D01*
X15807867Y17796218D01*
X15811000Y17802590D01*
X15811000Y17810742D01*
X16319000Y17810742D01*
X16322973Y17797211D01*
X16331188Y17796030D01*
X16422430Y17821505D01*
X16433881Y17825947D01*
X16597919Y17908807D01*
X16608276Y17915380D01*
X16753100Y18028530D01*
X16761986Y18036991D01*
X16882070Y18176110D01*
X16889144Y18186138D01*
X16979919Y18345932D01*
X16984913Y18357148D01*
X17028712Y18488811D01*
X17029213Y18502903D01*
X17023024Y18506000D01*
X16337115Y18506000D01*
X16321876Y18501525D01*
X16320671Y18500135D01*
X16319000Y18492452D01*
X16319000Y17810742D01*
X15811000Y17810742D01*
X15811000Y18487885D01*
X15806525Y18503124D01*
X15805135Y18504329D01*
X15797452Y18506000D01*
X15115604Y18506000D01*
X15102073Y18502027D01*
X15100923Y18494025D01*
X14490973Y18494025D01*
X14505358Y18537268D01*
X14529949Y18731929D01*
X14530341Y18760000D01*
X14511194Y18955272D01*
X14509413Y18961171D01*
X14509412Y18961176D01*
X14492507Y19017168D01*
X15101594Y19017168D01*
X15108153Y19014000D01*
X15792885Y19014000D01*
X15808124Y19018475D01*
X15809329Y19019865D01*
X15811000Y19027548D01*
X15811000Y19032115D01*
X16319000Y19032115D01*
X16323475Y19016876D01*
X16324865Y19015671D01*
X16332548Y19014000D01*
X17014826Y19014000D01*
X17028357Y19017973D01*
X17029449Y19025567D01*
X16995801Y19137015D01*
X16991126Y19148356D01*
X16904846Y19310627D01*
X16898059Y19320843D01*
X16781899Y19463269D01*
X16773255Y19471973D01*
X16631649Y19589120D01*
X16621478Y19595980D01*
X16459809Y19683394D01*
X16448504Y19688146D01*
X16336308Y19722876D01*
X16322205Y19723082D01*
X16319000Y19716327D01*
X16319000Y19032115D01*
X15811000Y19032115D01*
X15811000Y19709586D01*
X15807027Y19723117D01*
X15799232Y19724237D01*
X15694496Y19693411D01*
X15683119Y19688814D01*
X15520247Y19603667D01*
X15509986Y19596953D01*
X15366751Y19481789D01*
X15357992Y19473211D01*
X15239853Y19332419D01*
X15232927Y19322305D01*
X15144383Y19161243D01*
X15139555Y19149979D01*
X15101898Y19031269D01*
X15101594Y19017168D01*
X14492507Y19017168D01*
X14456265Y19137207D01*
X14454484Y19143106D01*
X14362370Y19316347D01*
X14238361Y19468398D01*
X14087180Y19593465D01*
X13914585Y19686787D01*
X13798000Y19722876D01*
X13733039Y19742985D01*
X13733036Y19742986D01*
X13727152Y19744807D01*
X13721027Y19745451D01*
X13721026Y19745451D01*
X13538147Y19764673D01*
X13538146Y19764673D01*
X13532019Y19765317D01*
X13409383Y19754156D01*
X13342759Y19748093D01*
X13342758Y19748093D01*
X13336618Y19747534D01*
X13330704Y19745793D01*
X13330702Y19745793D01*
X13241038Y19719403D01*
X13148393Y19692136D01*
X13142928Y19689279D01*
X12979972Y19604088D01*
X12979968Y19604085D01*
X12974512Y19601233D01*
X12969712Y19597373D01*
X12969711Y19597373D01*
X12959446Y19589120D01*
X12821600Y19478289D01*
X12695480Y19327984D01*
X12692516Y19322592D01*
X12692513Y19322588D01*
X12645878Y19237758D01*
X12595532Y19187700D01*
X12526116Y19172806D01*
X12459666Y19197807D01*
X12446368Y19209364D01*
X12119702Y19536030D01*
X12085676Y19598342D01*
X12090741Y19669157D01*
X12133288Y19725993D01*
X12150106Y19735746D01*
X12150817Y19735940D01*
X12272991Y19810955D01*
X12297684Y19838235D01*
X12363178Y19910593D01*
X12369200Y19917246D01*
X12431710Y20046267D01*
X12455496Y20187646D01*
X12455555Y20192508D01*
X12455991Y20197363D01*
X12457618Y20197217D01*
X12476369Y20258289D01*
X12530593Y20304118D01*
X12600986Y20313356D01*
X12614144Y20309659D01*
X12616278Y20308233D01*
X12660180Y20299500D01*
X14389820Y20299500D01*
X14433722Y20308233D01*
X14444040Y20315127D01*
X14444042Y20315128D01*
X14473185Y20334601D01*
X14483504Y20341496D01*
X14492861Y20355500D01*
X14509872Y20380958D01*
X14509873Y20380960D01*
X14516767Y20391278D01*
X14525500Y20435180D01*
X14525500Y22164820D01*
X14516767Y22208722D01*
X14509873Y22219040D01*
X14509872Y22219042D01*
X14490399Y22248185D01*
X14483504Y22258504D01*
X14472890Y22265596D01*
X14444042Y22284872D01*
X14444040Y22284873D01*
X14433722Y22291767D01*
X14389820Y22300500D01*
X13901500Y22300500D01*
X13833379Y22320502D01*
X13786886Y22374158D01*
X13775500Y22426500D01*
X13775500Y24200415D01*
X13777921Y24224998D01*
X13777987Y24225330D01*
X13780408Y24237500D01*
X13773751Y24270967D01*
X13770818Y24285714D01*
X13763387Y24323070D01*
X13763387Y24323071D01*
X13760966Y24335240D01*
X13732385Y24378016D01*
X13712493Y24407786D01*
X13705601Y24418101D01*
X13706494Y24418698D01*
X13678379Y24470186D01*
X13675500Y24496969D01*
X13675499Y24961642D01*
X13675499Y24966250D01*
X13670421Y25000754D01*
X13666243Y25029138D01*
X13666243Y25029139D01*
X13664817Y25038825D01*
X13647369Y25074363D01*
X13615227Y25139826D01*
X13610639Y25149171D01*
X13603273Y25156524D01*
X13603271Y25156527D01*
X13531009Y25228663D01*
X13531008Y25228664D01*
X13523640Y25236019D01*
X13435060Y25279318D01*
X13421984Y25285710D01*
X13421983Y25285710D01*
X13413199Y25290004D01*
X13403524Y25291415D01*
X13403522Y25291416D01*
X13345778Y25299840D01*
X13345772Y25299840D01*
X13341251Y25300500D01*
X13051111Y25300500D01*
X12758750Y25300499D01*
X12754195Y25299829D01*
X12754187Y25299828D01*
X12731195Y25296444D01*
X12660888Y25306314D01*
X12632148Y25331050D01*
X12619918Y25279318D01*
X12584289Y25239793D01*
X12575829Y25235639D01*
X12568470Y25228267D01*
X12501891Y25161572D01*
X12488981Y25148640D01*
X12434996Y25038199D01*
X12434495Y25038444D01*
X12399312Y24985361D01*
X12334322Y24956783D01*
X12264197Y24967878D01*
X12225605Y25000754D01*
X12224363Y24999510D01*
X12157324Y25066433D01*
X12157322Y25066434D01*
X12149092Y25074650D01*
X12103596Y25094763D01*
X12049381Y25140601D01*
X12028554Y25208474D01*
X12047728Y25276833D01*
X12103397Y25325154D01*
X12138877Y25340914D01*
X12149510Y25345637D01*
X12224650Y25420908D01*
X12225000Y25420559D01*
X12272802Y25459594D01*
X12321773Y25469500D01*
X12445415Y25469500D01*
X12469996Y25467079D01*
X12470328Y25467013D01*
X12470329Y25467013D01*
X12482500Y25464592D01*
X12494671Y25467013D01*
X12507082Y25467013D01*
X12507082Y25463359D01*
X12556577Y25458925D01*
X12590334Y25432696D01*
X12606625Y25488869D01*
X12642847Y25525866D01*
X12663101Y25539399D01*
X12669993Y25549714D01*
X12669995Y25549716D01*
X12670188Y25550005D01*
X12685858Y25569098D01*
X12779355Y25662595D01*
X12841667Y25696621D01*
X12868450Y25699500D01*
X13298658Y25699501D01*
X13341250Y25699501D01*
X13367710Y25703396D01*
X13404138Y25708757D01*
X13404139Y25708757D01*
X13413825Y25710183D01*
X13422613Y25714498D01*
X13422614Y25714498D01*
X13514826Y25759773D01*
X13524171Y25764361D01*
X13531524Y25771727D01*
X13531527Y25771729D01*
X13603663Y25843991D01*
X13603664Y25843992D01*
X13611019Y25851360D01*
X13665004Y25961801D01*
X13666416Y25971478D01*
X13674840Y26029222D01*
X13674840Y26029228D01*
X13675500Y26033749D01*
X13675499Y26541250D01*
X13666334Y26603520D01*
X13666243Y26604138D01*
X13666243Y26604139D01*
X13664817Y26613825D01*
X13610639Y26724171D01*
X13603273Y26731524D01*
X13603271Y26731527D01*
X13531009Y26803663D01*
X13531008Y26803664D01*
X13523640Y26811019D01*
X13443276Y26850302D01*
X13421984Y26860710D01*
X13421983Y26860710D01*
X13413199Y26865004D01*
X13403524Y26866415D01*
X13403522Y26866416D01*
X13345778Y26874840D01*
X13345772Y26874840D01*
X13341251Y26875500D01*
X13051111Y26875500D01*
X12758750Y26875499D01*
X12737539Y26872377D01*
X12695862Y26866243D01*
X12695861Y26866243D01*
X12686175Y26864817D01*
X12677387Y26860502D01*
X12677386Y26860502D01*
X12656612Y26850302D01*
X12575829Y26810639D01*
X12568476Y26803273D01*
X12568473Y26803271D01*
X12496854Y26731527D01*
X12488981Y26723640D01*
X12471767Y26688424D01*
X12450310Y26644527D01*
X12434996Y26613199D01*
X12433585Y26603524D01*
X12433584Y26603522D01*
X12425165Y26545808D01*
X12424500Y26541251D01*
X12424500Y26536678D01*
X12424501Y26123537D01*
X12404499Y26055417D01*
X12350844Y26008923D01*
X12280570Y25998819D01*
X12215989Y26028312D01*
X12209483Y26034364D01*
X12157324Y26086433D01*
X12157322Y26086434D01*
X12149092Y26094650D01*
X12138452Y26099354D01*
X12060486Y26133823D01*
X12060483Y26133824D01*
X12051817Y26137655D01*
X12042406Y26138752D01*
X12042403Y26138753D01*
X12037138Y26139366D01*
X12027415Y26140500D01*
X11801939Y26140500D01*
X11572586Y26140499D01*
X11568889Y26140059D01*
X11568884Y26140059D01*
X11562743Y26139328D01*
X11547690Y26137538D01*
X11450490Y26094363D01*
X11412957Y26056765D01*
X11383567Y26027324D01*
X11383566Y26027322D01*
X11375350Y26019092D01*
X11370646Y26008452D01*
X11336177Y25930486D01*
X11336176Y25930483D01*
X11332345Y25921817D01*
X11329500Y25897415D01*
X11329501Y25542586D01*
X11332462Y25517690D01*
X11375637Y25420490D01*
X11413235Y25382957D01*
X11442676Y25353567D01*
X11442678Y25353566D01*
X11450908Y25345350D01*
X11461546Y25340647D01*
X11496403Y25325237D01*
X11550619Y25279399D01*
X11571446Y25211526D01*
X11552272Y25143167D01*
X11496603Y25094846D01*
X11450489Y25074363D01*
X11448849Y25078054D01*
X11401970Y25062693D01*
X11329526Y25082900D01*
X11236545Y25143167D01*
X11212095Y25159015D01*
X11074739Y25200093D01*
X11065763Y25200148D01*
X11065762Y25200148D01*
X11005555Y25200516D01*
X10931376Y25200969D01*
X10793529Y25161572D01*
X10672280Y25085070D01*
X10666338Y25078342D01*
X10666337Y25078341D01*
X10631438Y25038825D01*
X10577377Y24977612D01*
X10516447Y24847837D01*
X10494391Y24706177D01*
X150500Y24706177D01*
X150500Y26463598D01*
X151516Y26471315D01*
X151516Y26483978D01*
X155809Y26500000D01*
X152170Y26513583D01*
X152308Y26516043D01*
X165195Y26630420D01*
X171474Y26657928D01*
X210132Y26768407D01*
X222369Y26793820D01*
X284651Y26892943D01*
X302241Y26914998D01*
X385002Y26997759D01*
X407057Y27015349D01*
X506180Y27077631D01*
X531593Y27089868D01*
X642072Y27128526D01*
X669578Y27134805D01*
X682202Y27136228D01*
X721452Y27140650D01*
X791382Y27128401D01*
X842119Y27082678D01*
X914930Y26967280D01*
X1022388Y26872377D01*
X1152163Y26811447D01*
X1261009Y26794500D01*
X1335940Y26794500D01*
X1365456Y26798727D01*
X1383318Y26800000D01*
X2215934Y26800000D01*
X2235318Y26798500D01*
X2261009Y26794500D01*
X2335940Y26794500D01*
X2365456Y26798727D01*
X2383318Y26800000D01*
X3215934Y26800000D01*
X3235318Y26798500D01*
X3261009Y26794500D01*
X3335940Y26794500D01*
X3365456Y26798727D01*
X3383318Y26800000D01*
X4215934Y26800000D01*
X4235318Y26798500D01*
X4261009Y26794500D01*
X4335940Y26794500D01*
X4365456Y26798727D01*
X4383318Y26800000D01*
X5215934Y26800000D01*
X5235318Y26798500D01*
X5261009Y26794500D01*
X5335940Y26794500D01*
X5377339Y26800429D01*
X5433032Y26808404D01*
X5433035Y26808405D01*
X5441918Y26809677D01*
X5454926Y26815591D01*
X5531268Y26850302D01*
X5572428Y26869016D01*
X5600192Y26892939D01*
X5674237Y26956740D01*
X5674240Y26956743D01*
X5681037Y26962600D01*
X5759015Y27082905D01*
X5759845Y27082367D01*
X5801312Y27129798D01*
X5868964Y27149500D01*
X8485211Y27149500D01*
X8553332Y27129498D01*
G37*
%TD.AperFunction*%
%TA.AperFunction,Conductor*%
G36*
X5709702Y17951276D02*
G01*
X5766538Y17908729D01*
X5790606Y17849557D01*
X5798522Y17789021D01*
X5856262Y17657797D01*
X5865850Y17646391D01*
X5921085Y17580680D01*
X5949606Y17515664D01*
X5938450Y17445550D01*
X5919075Y17416198D01*
X5882017Y17374237D01*
X5862919Y17352612D01*
X5801989Y17222837D01*
X5794647Y17175683D01*
X5781506Y17091278D01*
X5779933Y17081177D01*
X5781097Y17072275D01*
X5781097Y17072272D01*
X5788061Y17019022D01*
X5798522Y16939021D01*
X5809025Y16915151D01*
X5842891Y16838186D01*
X5856262Y16807797D01*
X5862039Y16800924D01*
X5862040Y16800923D01*
X5932378Y16717246D01*
X5948512Y16698052D01*
X6067855Y16618610D01*
X6204699Y16575858D01*
X6213671Y16575694D01*
X6213674Y16575693D01*
X6291161Y16574273D01*
X6326181Y16573631D01*
X6393923Y16552384D01*
X6412966Y16536747D01*
X6424233Y16525480D01*
X6428111Y16522820D01*
X6430467Y16520751D01*
X6437880Y16513875D01*
X6452624Y16500198D01*
X6463428Y16495887D01*
X6468383Y16492755D01*
X6475873Y16488756D01*
X6481217Y16486388D01*
X6490809Y16479808D01*
X6502126Y16477122D01*
X6502127Y16477122D01*
X6513696Y16474377D01*
X6531294Y16468812D01*
X6553140Y16460096D01*
X6559219Y16459500D01*
X6562296Y16459500D01*
X6565371Y16459350D01*
X6565357Y16459065D01*
X6574276Y16458022D01*
X6584782Y16457508D01*
X6596105Y16454821D01*
X6607634Y16456390D01*
X6607636Y16456390D01*
X6622029Y16458349D01*
X6639020Y16459500D01*
X6843500Y16459500D01*
X6911621Y16439498D01*
X6958114Y16385842D01*
X6969500Y16333500D01*
X6969500Y16126500D01*
X6949498Y16058379D01*
X6895842Y16011886D01*
X6843500Y16000500D01*
X6837090Y16000500D01*
X6812507Y16002921D01*
X6800000Y16005409D01*
X6702260Y15985966D01*
X6647684Y15949500D01*
X6619399Y15930601D01*
X6612507Y15920286D01*
X6612505Y15920284D01*
X6612316Y15920001D01*
X6596647Y15900908D01*
X6488400Y15792660D01*
X6383145Y15687405D01*
X6320833Y15653380D01*
X6294049Y15650500D01*
X5655950Y15650500D01*
X5587829Y15670502D01*
X5566855Y15687405D01*
X5431432Y15822828D01*
X5397406Y15885140D01*
X5396273Y15932828D01*
X5399078Y15949500D01*
X5405496Y15987646D01*
X5405647Y16000000D01*
X5394317Y16079113D01*
X5386596Y16133032D01*
X5386595Y16133035D01*
X5385323Y16141918D01*
X5325984Y16272428D01*
X5240076Y16372129D01*
X5238260Y16374237D01*
X5238257Y16374240D01*
X5232400Y16381037D01*
X5213235Y16393459D01*
X5166952Y16447294D01*
X5157122Y16517607D01*
X5186867Y16582073D01*
X5208543Y16600396D01*
X5208436Y16600525D01*
X5215342Y16606259D01*
X5222991Y16610955D01*
X5232483Y16621441D01*
X5313178Y16710593D01*
X5319200Y16717246D01*
X5360303Y16802082D01*
X5377795Y16838186D01*
X5377795Y16838187D01*
X5381710Y16846267D01*
X5405496Y16987646D01*
X5405647Y17000000D01*
X5394022Y17081177D01*
X5386596Y17133032D01*
X5386595Y17133035D01*
X5385323Y17141918D01*
X5325984Y17272428D01*
X5232400Y17381037D01*
X5227138Y17384447D01*
X5189686Y17443152D01*
X5189921Y17514148D01*
X5221604Y17567344D01*
X5576575Y17922315D01*
X5638887Y17956341D01*
X5709702Y17951276D01*
G37*
%TD.AperFunction*%
%TD*%
M02*
