M48
; DRILL file {KiCad 6.0.7+dfsg-1~bpo11+1} date Wed Oct 12 07:12:05 2022
; FORMAT={-:-/ absolute / metric / decimal}
; #@! TF.CreationDate,2022-10-12T07:12:05+00:00
; #@! TF.GenerationSoftware,Kicad,Pcbnew,6.0.7+dfsg-1~bpo11+1
; #@! TF.FileFunction,Plated,1,4,PTH
FMAT,2
METRIC
; #@! TA.AperFunction,Plated,PTH,ViaDrill
T1C0.300
; #@! TA.AperFunction,Plated,PTH,ViaDrill
T2C0.400
; #@! TA.AperFunction,Plated,PTH,ComponentDrill
T3C0.600
; #@! TA.AperFunction,Plated,PTH,ComponentDrill
T4C1.000
%
G90
G05
T1
X0.55Y23.5
X0.55Y20.5
X0.55Y17.5
X0.55Y14.5
X0.55Y11.5
X2.3Y19.0
X2.3Y18.0
X4.8Y19.0
X4.8Y18.4
X5.4Y19.0
X5.6Y16.5
X6.2Y16.1
X7.55Y26.75
X8.8Y23.75
X9.1Y18.4
X9.6Y21.3
X9.6Y13.15
X9.7Y10.5
X9.8Y23.75
X10.2Y21.3
X10.2Y13.15
X10.7Y18.4
X10.7Y16.6
X10.8Y21.3
X10.8Y13.15
X11.8Y26.5
X11.8Y23.75
X11.8Y8.5
X12.65Y11.55
X14.3Y23.0
X14.8Y14.5
X14.8Y11.75
X15.3Y23.0
X15.8Y26.5
X15.8Y8.5
X16.55Y11.5
X16.8Y15.0
X19.05Y23.75
X19.05Y20.25
X19.05Y19.25
X19.05Y15.75
X19.05Y14.75
X19.05Y11.25
T2
X1.3Y10.5
X4.9Y20.0
X4.9Y17.0
X4.9Y16.0
X6.286Y17.925
X6.286Y17.075
X8.6Y9.9
X9.8Y14.05
X11.0Y24.7
X11.0Y10.3
X11.95Y20.2
X12.05Y14.35
X15.8Y23.9
X15.8Y11.1
T4
X13.525Y21.3
X13.525Y18.76
X13.525Y16.22
X13.525Y13.68
X16.065Y21.3
X16.065Y18.76
X16.065Y16.22
X16.065Y13.68
T3
G00X3.05Y21.825
M15
G01X2.45Y21.825
M16
G05
G00X3.05Y13.175
M15
G01X2.45Y13.175
M16
G05
G00X7.48Y21.825
M15
G01X6.38Y21.825
M16
G05
G00X7.48Y13.175
M15
G01X6.38Y13.175
M16
G05
T0
M30
