%TF.GenerationSoftware,KiCad,Pcbnew,6.0.7+dfsg-1~bpo11+1*%
%TF.CreationDate,2022-10-12T02:23:59+00:00*%
%TF.ProjectId,0101-SERIAL-CP2102N,30313031-2d53-4455-9249-414c2d435032,V1.1*%
%TF.SameCoordinates,Original*%
%TF.FileFunction,Paste,Bot*%
%TF.FilePolarity,Positive*%
%FSLAX46Y46*%
G04 Gerber Fmt 4.6, Leading zero omitted, Abs format (unit mm)*
G04 Created by KiCad (PCBNEW 6.0.7+dfsg-1~bpo11+1) date 2022-10-12 02:23:59*
%MOMM*%
%LPD*%
G01*
G04 APERTURE LIST*
G04 Aperture macros list*
%AMRoundRect*
0 Rectangle with rounded corners*
0 $1 Rounding radius*
0 $2 $3 $4 $5 $6 $7 $8 $9 X,Y pos of 4 corners*
0 Add a 4 corners polygon primitive as box body*
4,1,4,$2,$3,$4,$5,$6,$7,$8,$9,$2,$3,0*
0 Add four circle primitives for the rounded corners*
1,1,$1+$1,$2,$3*
1,1,$1+$1,$4,$5*
1,1,$1+$1,$6,$7*
1,1,$1+$1,$8,$9*
0 Add four rect primitives between the rounded corners*
20,1,$1+$1,$2,$3,$4,$5,0*
20,1,$1+$1,$4,$5,$6,$7,0*
20,1,$1+$1,$6,$7,$8,$9,0*
20,1,$1+$1,$8,$9,$2,$3,0*%
G04 Aperture macros list end*
%ADD10RoundRect,0.140000X0.170000X-0.140000X0.170000X0.140000X-0.170000X0.140000X-0.170000X-0.140000X0*%
%ADD11RoundRect,0.200000X0.275000X-0.200000X0.275000X0.200000X-0.275000X0.200000X-0.275000X-0.200000X0*%
%ADD12RoundRect,0.135000X0.135000X0.185000X-0.135000X0.185000X-0.135000X-0.185000X0.135000X-0.185000X0*%
%ADD13RoundRect,0.135000X-0.135000X-0.185000X0.135000X-0.185000X0.135000X0.185000X-0.135000X0.185000X0*%
%ADD14R,0.650000X0.400000*%
%ADD15RoundRect,0.140000X0.140000X0.170000X-0.140000X0.170000X-0.140000X-0.170000X0.140000X-0.170000X0*%
%ADD16RoundRect,0.135000X0.185000X-0.135000X0.185000X0.135000X-0.185000X0.135000X-0.185000X-0.135000X0*%
%ADD17RoundRect,0.250000X-0.275000X-0.275000X0.275000X-0.275000X0.275000X0.275000X-0.275000X0.275000X0*%
%ADD18RoundRect,0.062500X-0.350000X-0.062500X0.350000X-0.062500X0.350000X0.062500X-0.350000X0.062500X0*%
%ADD19RoundRect,0.062500X-0.062500X-0.350000X0.062500X-0.350000X0.062500X0.350000X-0.062500X0.350000X0*%
%ADD20RoundRect,0.200000X-0.275000X0.200000X-0.275000X-0.200000X0.275000X-0.200000X0.275000X0.200000X0*%
G04 APERTURE END LIST*
D10*
%TO.C,C4*%
X8800000Y22000000D03*
X8800000Y22960000D03*
%TD*%
D11*
%TO.C,R9*%
X2450000Y9175000D03*
X2450000Y10825000D03*
%TD*%
D12*
%TO.C,R4*%
X4010000Y17000000D03*
X2990000Y17000000D03*
%TD*%
%TO.C,R5*%
X4010000Y16000000D03*
X2990000Y16000000D03*
%TD*%
D13*
%TO.C,R3*%
X2990000Y20000000D03*
X4010000Y20000000D03*
%TD*%
D14*
%TO.C,Q1*%
X5750000Y10650000D03*
X5750000Y10000000D03*
X5750000Y9350000D03*
X3850000Y9350000D03*
X3850000Y10000000D03*
X3850000Y10650000D03*
%TD*%
D10*
%TO.C,C2*%
X9800000Y22000000D03*
X9800000Y22960000D03*
%TD*%
D15*
%TO.C,C1*%
X3980000Y19000000D03*
X3020000Y19000000D03*
%TD*%
D16*
%TO.C,R1*%
X10800000Y22000000D03*
X10800000Y23020000D03*
%TD*%
D17*
%TO.C,U1*%
X9150000Y18150000D03*
X10450000Y18150000D03*
X9150000Y16850000D03*
X10450000Y16850000D03*
D18*
X7862500Y16250000D03*
X7862500Y16750000D03*
X7862500Y17250000D03*
X7862500Y17750000D03*
X7862500Y18250000D03*
X7862500Y18750000D03*
D19*
X8550000Y19437500D03*
X9050000Y19437500D03*
X9550000Y19437500D03*
X10050000Y19437500D03*
X10550000Y19437500D03*
X11050000Y19437500D03*
D18*
X11737500Y18750000D03*
X11737500Y18250000D03*
X11737500Y17750000D03*
X11737500Y17250000D03*
X11737500Y16750000D03*
X11737500Y16250000D03*
D19*
X11050000Y15562500D03*
X10550000Y15562500D03*
X10050000Y15562500D03*
X9550000Y15562500D03*
X9050000Y15562500D03*
X8550000Y15562500D03*
%TD*%
D20*
%TO.C,R8*%
X7150000Y10825000D03*
X7150000Y9175000D03*
%TD*%
D15*
%TO.C,C3*%
X3980000Y18000000D03*
X3020000Y18000000D03*
%TD*%
D16*
%TO.C,R2*%
X11800000Y22000000D03*
X11800000Y23020000D03*
%TD*%
M02*
