%TF.GenerationSoftware,KiCad,Pcbnew,6.0.7+dfsg-1~bpo11+1*%
%TF.CreationDate,2022-10-03T02:59:32+00:00*%
%TF.ProjectId,0101-SERIAL-CP2102N,30313031-2d53-4455-9249-414c2d435032,V1.0*%
%TF.SameCoordinates,Original*%
%TF.FileFunction,Paste,Top*%
%TF.FilePolarity,Positive*%
%FSLAX46Y46*%
G04 Gerber Fmt 4.6, Leading zero omitted, Abs format (unit mm)*
G04 Created by KiCad (PCBNEW 6.0.7+dfsg-1~bpo11+1) date 2022-10-03 02:59:32*
%MOMM*%
%LPD*%
G01*
G04 APERTURE LIST*
G04 Aperture macros list*
%AMRoundRect*
0 Rectangle with rounded corners*
0 $1 Rounding radius*
0 $2 $3 $4 $5 $6 $7 $8 $9 X,Y pos of 4 corners*
0 Add a 4 corners polygon primitive as box body*
4,1,4,$2,$3,$4,$5,$6,$7,$8,$9,$2,$3,0*
0 Add four circle primitives for the rounded corners*
1,1,$1+$1,$2,$3*
1,1,$1+$1,$4,$5*
1,1,$1+$1,$6,$7*
1,1,$1+$1,$8,$9*
0 Add four rect primitives between the rounded corners*
20,1,$1+$1,$2,$3,$4,$5,0*
20,1,$1+$1,$4,$5,$6,$7,0*
20,1,$1+$1,$6,$7,$8,$9,0*
20,1,$1+$1,$8,$9,$2,$3,0*%
G04 Aperture macros list end*
%ADD10RoundRect,0.218750X-0.256250X0.218750X-0.256250X-0.218750X0.256250X-0.218750X0.256250X0.218750X0*%
%ADD11RoundRect,0.135000X0.185000X-0.135000X0.185000X0.135000X-0.185000X0.135000X-0.185000X-0.135000X0*%
%ADD12R,0.600000X0.700000*%
%ADD13R,1.450000X0.600000*%
%ADD14R,1.450000X0.300000*%
%ADD15RoundRect,0.135000X-0.135000X-0.185000X0.135000X-0.185000X0.135000X0.185000X-0.135000X0.185000X0*%
%ADD16RoundRect,0.218750X0.256250X-0.218750X0.256250X0.218750X-0.256250X0.218750X-0.256250X-0.218750X0*%
%ADD17RoundRect,0.135000X-0.185000X0.135000X-0.185000X-0.135000X0.185000X-0.135000X0.185000X0.135000X0*%
%ADD18R,0.700000X0.600000*%
G04 APERTURE END LIST*
D10*
%TO.C,D1*%
X17300000Y2587500D03*
X17300000Y1012500D03*
%TD*%
D11*
%TO.C,R15*%
X16050000Y16800000D03*
X16050000Y17820000D03*
%TD*%
D12*
%TO.C,D6*%
X9700000Y9800000D03*
X11100000Y9800000D03*
%TD*%
D13*
%TO.C,J1*%
X7845000Y13000000D03*
X7845000Y12200000D03*
D14*
X7845000Y11050000D03*
X7845000Y10050000D03*
X7845000Y9550000D03*
X7845000Y8550000D03*
D13*
X7845000Y7400000D03*
X7845000Y6600000D03*
X7845000Y6600000D03*
X7845000Y7400000D03*
D14*
X7845000Y8050000D03*
X7845000Y9050000D03*
X7845000Y10550000D03*
X7845000Y11550000D03*
D13*
X7845000Y12200000D03*
X7845000Y13000000D03*
%TD*%
D15*
%TO.C,R4*%
X9800000Y11050000D03*
X10820000Y11050000D03*
%TD*%
D12*
%TO.C,D8*%
X9700000Y4200000D03*
X11100000Y4200000D03*
%TD*%
D16*
%TO.C,D3*%
X13300000Y17012500D03*
X13300000Y18587500D03*
%TD*%
D15*
%TO.C,R5*%
X9800000Y8550000D03*
X10820000Y8550000D03*
%TD*%
D16*
%TO.C,D4*%
X17300000Y17012500D03*
X17300000Y18587500D03*
%TD*%
D17*
%TO.C,R12*%
X16050000Y2800000D03*
X16050000Y1780000D03*
%TD*%
D12*
%TO.C,D5*%
X9700000Y12300000D03*
X11100000Y12300000D03*
%TD*%
D18*
%TO.C,D10*%
X18650000Y15000000D03*
X18650000Y13600000D03*
%TD*%
D10*
%TO.C,D2*%
X13300000Y2587500D03*
X13300000Y1012500D03*
%TD*%
D17*
%TO.C,R13*%
X12050000Y2800000D03*
X12050000Y1780000D03*
%TD*%
D12*
%TO.C,D11*%
X9700000Y7300000D03*
X11100000Y7300000D03*
%TD*%
%TO.C,D9*%
X9700000Y14900000D03*
X11100000Y14900000D03*
%TD*%
D18*
%TO.C,D7*%
X18650000Y4600000D03*
X18650000Y5980000D03*
%TD*%
D11*
%TO.C,R14*%
X12050000Y16800000D03*
X12050000Y17820000D03*
%TD*%
M02*
