M48
; DRILL file {KiCad 6.0.7+dfsg-1~bpo11+1} date Mon Oct  3 02:59:32 2022
; FORMAT={-:-/ absolute / metric / decimal}
; #@! TF.CreationDate,2022-10-03T02:59:32+00:00
; #@! TF.GenerationSoftware,Kicad,Pcbnew,6.0.7+dfsg-1~bpo11+1
; #@! TF.FileFunction,Plated,1,4,PTH
FMAT,2
METRIC
; #@! TA.AperFunction,Plated,PTH,ViaDrill
T1C0.300
; #@! TA.AperFunction,Plated,PTH,ViaDrill
T2C0.400
; #@! TA.AperFunction,Plated,PTH,ComponentDrill
T3C0.600
; #@! TA.AperFunction,Plated,PTH,ComponentDrill
T4C1.000
%
G90
G05
T1
X1.8Y11.8
X1.8Y10.8
X1.8Y9.8
X1.8Y8.8
X1.8Y7.8
X3.05Y11.3
X3.05Y10.3
X3.8Y0.55
X4.8Y0.55
X4.85Y9.4
X4.85Y8.8
X5.45Y9.4
X5.45Y8.8
X5.8Y7.85
X5.8Y0.55
X6.55Y8.3
X7.55Y19.05
X7.55Y0.55
X8.8Y16.05
X9.35Y6.0
X9.6Y13.6
X9.8Y16.05
X9.95Y6.0
X10.2Y13.6
X10.55Y6.0
X10.8Y13.6
X11.8Y16.05
X12.05Y19.05
X12.05Y0.55
X12.3Y3.8
X14.3Y15.3
X14.55Y3.55
X14.8Y6.8
X15.3Y15.3
X15.55Y4.45
X16.05Y19.05
X16.05Y0.55
X16.55Y4.45
X16.8Y7.3
X19.05Y16.05
X19.05Y12.55
X19.05Y11.55
X19.05Y8.05
X19.05Y7.05
X19.05Y3.55
T2
X1.3Y2.8
X5.8Y11.8
X6.286Y10.225
X6.286Y9.375
X9.3Y2.8
X11.05Y17.8
X11.05Y1.8
X11.15Y5.3
X11.95Y12.5
X12.05Y6.65
X16.05Y16.05
X16.05Y3.55
T4
X13.525Y13.6
X13.525Y11.06
X13.525Y8.52
X13.525Y5.98
X16.065Y13.6
X16.065Y11.06
X16.065Y8.52
X16.065Y5.98
T3
G00X3.05Y14.125
M15
G01X2.45Y14.125
M16
G05
G00X3.05Y5.475
M15
G01X2.45Y5.475
M16
G05
G00X7.48Y14.125
M15
G01X6.38Y14.125
M16
G05
G00X7.48Y5.475
M15
G01X6.38Y5.475
M16
G05
T0
M30
