%TF.GenerationSoftware,KiCad,Pcbnew,6.0.7+dfsg-1~bpo11+1*%
%TF.CreationDate,2022-10-03T05:52:26+00:00*%
%TF.ProjectId,0101-SERIAL-CP2102N,30313031-2d53-4455-9249-414c2d435032,V1.0*%
%TF.SameCoordinates,Original*%
%TF.FileFunction,Legend,Top*%
%TF.FilePolarity,Positive*%
%FSLAX46Y46*%
G04 Gerber Fmt 4.6, Leading zero omitted, Abs format (unit mm)*
G04 Created by KiCad (PCBNEW 6.0.7+dfsg-1~bpo11+1) date 2022-10-03 05:52:26*
%MOMM*%
%LPD*%
G01*
G04 APERTURE LIST*
%ADD10C,0.120000*%
%ADD11C,0.150000*%
G04 APERTURE END LIST*
D10*
X18335714Y15781905D02*
X18373809Y15743810D01*
X18411904Y15629524D01*
X18411904Y15553334D01*
X18373809Y15439048D01*
X18297619Y15362858D01*
X18221428Y15324762D01*
X18069047Y15286667D01*
X17954761Y15286667D01*
X17802380Y15324762D01*
X17726190Y15362858D01*
X17650000Y15439048D01*
X17611904Y15553334D01*
X17611904Y15629524D01*
X17650000Y15743810D01*
X17688095Y15781905D01*
X17611904Y16010477D02*
X17611904Y16467620D01*
X18411904Y16239048D02*
X17611904Y16239048D01*
X18373809Y16696191D02*
X18411904Y16810477D01*
X18411904Y17000953D01*
X18373809Y17077143D01*
X18335714Y17115239D01*
X18259523Y17153334D01*
X18183333Y17153334D01*
X18107142Y17115239D01*
X18069047Y17077143D01*
X18030952Y17000953D01*
X17992857Y16848572D01*
X17954761Y16772381D01*
X17916666Y16734286D01*
X17840476Y16696191D01*
X17764285Y16696191D01*
X17688095Y16734286D01*
X17650000Y16772381D01*
X17611904Y16848572D01*
X17611904Y17039048D01*
X17650000Y17153334D01*
D11*
X1707023Y24142858D02*
X1659404Y24095239D01*
X1516547Y24047620D01*
X1421309Y24047620D01*
X1278452Y24095239D01*
X1183214Y24190477D01*
X1135595Y24285715D01*
X1087976Y24476191D01*
X1087976Y24619048D01*
X1135595Y24809524D01*
X1183214Y24904762D01*
X1278452Y25000000D01*
X1421309Y25047620D01*
X1516547Y25047620D01*
X1659404Y25000000D01*
X1707023Y24952381D01*
X2135595Y24047620D02*
X2135595Y25047620D01*
X2516547Y25047620D01*
X2611785Y25000000D01*
X2659404Y24952381D01*
X2707023Y24857143D01*
X2707023Y24714286D01*
X2659404Y24619048D01*
X2611785Y24571429D01*
X2516547Y24523810D01*
X2135595Y24523810D01*
X3087976Y24952381D02*
X3135595Y25000000D01*
X3230833Y25047620D01*
X3468928Y25047620D01*
X3564166Y25000000D01*
X3611785Y24952381D01*
X3659404Y24857143D01*
X3659404Y24761905D01*
X3611785Y24619048D01*
X3040357Y24047620D01*
X3659404Y24047620D01*
X4611785Y24047620D02*
X4040357Y24047620D01*
X4326071Y24047620D02*
X4326071Y25047620D01*
X4230833Y24904762D01*
X4135595Y24809524D01*
X4040357Y24761905D01*
X5230833Y25047620D02*
X5326071Y25047620D01*
X5421309Y25000000D01*
X5468928Y24952381D01*
X5516547Y24857143D01*
X5564166Y24666667D01*
X5564166Y24428572D01*
X5516547Y24238096D01*
X5468928Y24142858D01*
X5421309Y24095239D01*
X5326071Y24047620D01*
X5230833Y24047620D01*
X5135595Y24095239D01*
X5087976Y24142858D01*
X5040357Y24238096D01*
X4992738Y24428572D01*
X4992738Y24666667D01*
X5040357Y24857143D01*
X5087976Y24952381D01*
X5135595Y25000000D01*
X5230833Y25047620D01*
X5945119Y24952381D02*
X5992738Y25000000D01*
X6087976Y25047620D01*
X6326071Y25047620D01*
X6421309Y25000000D01*
X6468928Y24952381D01*
X6516547Y24857143D01*
X6516547Y24761905D01*
X6468928Y24619048D01*
X5897500Y24047620D01*
X6516547Y24047620D01*
X6945119Y24047620D02*
X6945119Y25047620D01*
X7516547Y24047620D01*
X7516547Y25047620D01*
D10*
X11881523Y19198096D02*
X11500571Y19198096D01*
X11462476Y18817143D01*
X11500571Y18855239D01*
X11576761Y18893334D01*
X11767238Y18893334D01*
X11843428Y18855239D01*
X11881523Y18817143D01*
X11919619Y18740953D01*
X11919619Y18550477D01*
X11881523Y18474286D01*
X11843428Y18436191D01*
X11767238Y18398096D01*
X11576761Y18398096D01*
X11500571Y18436191D01*
X11462476Y18474286D01*
X17650000Y18150477D02*
X17611904Y18074286D01*
X17611904Y17960000D01*
X17650000Y17845715D01*
X17726190Y17769524D01*
X17802380Y17731429D01*
X17954761Y17693334D01*
X18069047Y17693334D01*
X18221428Y17731429D01*
X18297619Y17769524D01*
X18373809Y17845715D01*
X18411904Y17960000D01*
X18411904Y18036191D01*
X18373809Y18150477D01*
X18335714Y18188572D01*
X18069047Y18188572D01*
X18069047Y18036191D01*
X18411904Y18531429D02*
X17611904Y18531429D01*
X18411904Y18988572D01*
X17611904Y18988572D01*
X18411904Y19369524D02*
X17611904Y19369524D01*
X17611904Y19560000D01*
X17650000Y19674286D01*
X17726190Y19750477D01*
X17802380Y19788572D01*
X17954761Y19826667D01*
X18069047Y19826667D01*
X18221428Y19788572D01*
X18297619Y19750477D01*
X18373809Y19674286D01*
X18411904Y19560000D01*
X18411904Y19369524D01*
X11424380Y16658096D02*
X11919619Y16658096D01*
X11652952Y16353334D01*
X11767238Y16353334D01*
X11843428Y16315239D01*
X11881523Y16277143D01*
X11919619Y16200953D01*
X11919619Y16010477D01*
X11881523Y15934286D01*
X11843428Y15896191D01*
X11767238Y15858096D01*
X11538666Y15858096D01*
X11462476Y15896191D01*
X11424380Y15934286D01*
X6104761Y2938096D02*
X6104761Y2366667D01*
X6066666Y2252381D01*
X5990476Y2176191D01*
X5876190Y2138096D01*
X5800000Y2138096D01*
X6866666Y2138096D02*
X6485714Y2138096D01*
X6485714Y2938096D01*
X7590476Y2214286D02*
X7552380Y2176191D01*
X7438095Y2138096D01*
X7361904Y2138096D01*
X7247619Y2176191D01*
X7171428Y2252381D01*
X7133333Y2328572D01*
X7095238Y2480953D01*
X7095238Y2595239D01*
X7133333Y2747620D01*
X7171428Y2823810D01*
X7247619Y2900000D01*
X7361904Y2938096D01*
X7438095Y2938096D01*
X7552380Y2900000D01*
X7590476Y2861905D01*
X8161904Y2938096D02*
X8161904Y2366667D01*
X8123809Y2252381D01*
X8047619Y2176191D01*
X7933333Y2138096D01*
X7857142Y2138096D01*
X8923809Y2138096D02*
X8542857Y2138096D01*
X8542857Y2938096D01*
X9647619Y2214286D02*
X9609523Y2176191D01*
X9495238Y2138096D01*
X9419047Y2138096D01*
X9304761Y2176191D01*
X9228571Y2252381D01*
X9190476Y2328572D01*
X9152380Y2480953D01*
X9152380Y2595239D01*
X9190476Y2747620D01*
X9228571Y2823810D01*
X9304761Y2900000D01*
X9419047Y2938096D01*
X9495238Y2938096D01*
X9609523Y2900000D01*
X9647619Y2861905D01*
X10219047Y2938096D02*
X10219047Y2366667D01*
X10180952Y2252381D01*
X10104761Y2176191D01*
X9990476Y2138096D01*
X9914285Y2138096D01*
X10980952Y2138096D02*
X10600000Y2138096D01*
X10600000Y2938096D01*
X11704761Y2214286D02*
X11666666Y2176191D01*
X11552380Y2138096D01*
X11476190Y2138096D01*
X11361904Y2176191D01*
X11285714Y2252381D01*
X11247619Y2328572D01*
X11209523Y2480953D01*
X11209523Y2595239D01*
X11247619Y2747620D01*
X11285714Y2823810D01*
X11361904Y2900000D01*
X11476190Y2938096D01*
X11552380Y2938096D01*
X11666666Y2900000D01*
X11704761Y2861905D01*
X12276190Y2938096D02*
X12276190Y2366667D01*
X12238095Y2252381D01*
X12161904Y2176191D01*
X12047619Y2138096D01*
X11971428Y2138096D01*
X13038095Y2138096D02*
X12657142Y2138096D01*
X12657142Y2938096D01*
X13761904Y2214286D02*
X13723809Y2176191D01*
X13609523Y2138096D01*
X13533333Y2138096D01*
X13419047Y2176191D01*
X13342857Y2252381D01*
X13304761Y2328572D01*
X13266666Y2480953D01*
X13266666Y2595239D01*
X13304761Y2747620D01*
X13342857Y2823810D01*
X13419047Y2900000D01*
X13533333Y2938096D01*
X13609523Y2938096D01*
X13723809Y2900000D01*
X13761904Y2861905D01*
%TO.C,kibuzzard-63395349*%
G36*
X14503883Y9248302D02*
G01*
X14524302Y9207463D01*
X14531109Y9147178D01*
X14531109Y9117174D01*
X14324416Y9117174D01*
X14321638Y9139399D01*
X14321083Y9158291D01*
X14327472Y9207463D01*
X14346641Y9246079D01*
X14379423Y9271083D01*
X14426651Y9279417D01*
X14503883Y9248302D01*
G37*
G36*
X15034384Y8932690D02*
G01*
X15027375Y8885442D01*
X15015769Y8839108D01*
X14999678Y8794135D01*
X14979255Y8750956D01*
X14954699Y8709987D01*
X14926245Y8671621D01*
X14894168Y8636230D01*
X14858777Y8604153D01*
X14820411Y8575699D01*
X14779442Y8551143D01*
X14736263Y8530720D01*
X14691290Y8514629D01*
X14644956Y8503023D01*
X14597708Y8496014D01*
X14550000Y8493671D01*
X14502292Y8496014D01*
X14455044Y8503023D01*
X14408710Y8514629D01*
X14363737Y8530720D01*
X14320558Y8551143D01*
X14279589Y8575699D01*
X14241223Y8604153D01*
X14205832Y8636230D01*
X14173755Y8671621D01*
X14145301Y8709987D01*
X14120745Y8750956D01*
X14100322Y8794135D01*
X14084231Y8839108D01*
X14072625Y8885442D01*
X14065616Y8932690D01*
X14063272Y8980398D01*
X14063272Y9158291D01*
X14202179Y9158291D01*
X14203290Y9119397D01*
X14206068Y9072724D01*
X14211624Y9024385D01*
X14219959Y8980491D01*
X14897821Y8980491D01*
X14897821Y9117174D01*
X14644456Y9117174D01*
X14644456Y9188294D01*
X14707381Y9225938D01*
X14769472Y9261081D01*
X14832396Y9292891D01*
X14897821Y9320533D01*
X14897821Y9463884D01*
X14825034Y9432214D01*
X14748358Y9393876D01*
X14675016Y9352759D01*
X14611119Y9312754D01*
X14579726Y9361372D01*
X14536665Y9393876D01*
X14484992Y9412211D01*
X14427762Y9418323D01*
X14373728Y9413739D01*
X14327194Y9399988D01*
X14256630Y9347203D01*
X14232460Y9309421D01*
X14215514Y9264971D01*
X14205512Y9214409D01*
X14202179Y9158291D01*
X14063272Y9158291D01*
X14063272Y9499444D01*
X14209958Y9499444D01*
X14534443Y9679467D01*
X14583199Y9652241D01*
X14633899Y9623904D01*
X14684878Y9595706D01*
X14734468Y9568898D01*
X14781696Y9543894D01*
X14825590Y9521114D01*
X14897821Y9488332D01*
X14897821Y9636128D01*
X14837675Y9661687D01*
X14770583Y9691691D01*
X14701269Y9723917D01*
X14634455Y9756143D01*
X14703353Y9788786D01*
X14772250Y9820040D01*
X14838092Y9848238D01*
X14897821Y9871713D01*
X14897821Y10019509D01*
X14825034Y9989506D01*
X14780584Y9969086D01*
X14732801Y9945611D01*
X14682655Y9919636D01*
X14631121Y9891716D01*
X14580004Y9862545D01*
X14531109Y9832819D01*
X14209958Y10008397D01*
X14209958Y9870602D01*
X14429985Y9756143D01*
X14209958Y9647241D01*
X14209958Y9499444D01*
X14063272Y9499444D01*
X14063272Y10019602D01*
X14063273Y10019602D01*
X14065616Y10067310D01*
X14072625Y10114558D01*
X14084231Y10160892D01*
X14100322Y10205865D01*
X14120745Y10249044D01*
X14145301Y10290013D01*
X14173755Y10328379D01*
X14205832Y10363770D01*
X14241223Y10395847D01*
X14279589Y10424301D01*
X14320558Y10448857D01*
X14363737Y10469280D01*
X14408710Y10485371D01*
X14455044Y10496977D01*
X14502292Y10503986D01*
X14550000Y10506329D01*
X14597708Y10503986D01*
X14644956Y10496977D01*
X14691290Y10485371D01*
X14736263Y10469280D01*
X14779442Y10448857D01*
X14820411Y10424301D01*
X14858777Y10395847D01*
X14894168Y10363770D01*
X14926245Y10328379D01*
X14954699Y10290013D01*
X14979255Y10249044D01*
X14999678Y10205865D01*
X15015769Y10160892D01*
X15027375Y10114558D01*
X15034384Y10067310D01*
X15036727Y10019602D01*
X15036728Y10019602D01*
X15036728Y8980398D01*
X15034384Y8932690D01*
G37*
%TO.C,D1*%
X17785000Y10985000D02*
X16315000Y10985000D01*
X16315000Y10985000D02*
X16315000Y8700000D01*
X17785000Y8700000D02*
X17785000Y10985000D01*
%TO.C,R15*%
X15420000Y24856359D02*
X15420000Y25163641D01*
X16180000Y24856359D02*
X16180000Y25163641D01*
%TO.C,D6*%
X11100000Y16900000D02*
X9250000Y16900000D01*
X11100000Y18100000D02*
X9250000Y18100000D01*
X9250000Y18100000D02*
X9250000Y16900000D01*
%TO.C,J1*%
X5700000Y12800000D02*
X4100000Y12800000D01*
X5700000Y22200000D02*
X4100000Y22200000D01*
%TO.C,R4*%
X10156359Y18370000D02*
X10463641Y18370000D01*
X10156359Y19130000D02*
X10463641Y19130000D01*
%TO.C,D8*%
X11100000Y12500000D02*
X9250000Y12500000D01*
X9250000Y12500000D02*
X9250000Y11300000D01*
X11100000Y11300000D02*
X9250000Y11300000D01*
%TO.C,D3*%
X12315000Y26300000D02*
X12315000Y24015000D01*
X12315000Y24015000D02*
X13785000Y24015000D01*
X13785000Y24015000D02*
X13785000Y26300000D01*
%TO.C,R5*%
X10156359Y16630000D02*
X10463641Y16630000D01*
X10156359Y15870000D02*
X10463641Y15870000D01*
%TO.C,kibuzzard-6339534D*%
G36*
X19030513Y8916958D02*
G01*
X19023561Y8870088D01*
X19012047Y8824124D01*
X18996084Y8779511D01*
X18975825Y8736677D01*
X18951465Y8696034D01*
X18923239Y8657976D01*
X18891418Y8622867D01*
X18856309Y8591046D01*
X18818250Y8562820D01*
X18777608Y8538460D01*
X18734774Y8518201D01*
X18690161Y8502238D01*
X18644197Y8490724D01*
X18597326Y8483772D01*
X18550000Y8481447D01*
X18502674Y8483772D01*
X18455803Y8490724D01*
X18409839Y8502238D01*
X18365226Y8518201D01*
X18322392Y8538460D01*
X18281750Y8562820D01*
X18243691Y8591046D01*
X18208582Y8622867D01*
X18176761Y8657976D01*
X18148535Y8696034D01*
X18124175Y8736677D01*
X18103916Y8779511D01*
X18087953Y8824124D01*
X18076439Y8870088D01*
X18069487Y8916958D01*
X18067162Y8964285D01*
X18067162Y8964378D01*
X18206068Y8964378D01*
X18319416Y8964378D01*
X18319416Y9145511D01*
X18893932Y9145511D01*
X18893932Y9283306D01*
X18319416Y9283306D01*
X18319416Y9464440D01*
X18206068Y9464440D01*
X18206068Y8964378D01*
X18067162Y8964378D01*
X18067162Y9515558D01*
X18206068Y9515558D01*
X18530553Y9695580D01*
X18579309Y9668354D01*
X18630010Y9640018D01*
X18680989Y9611820D01*
X18730578Y9585011D01*
X18777806Y9560008D01*
X18821701Y9537227D01*
X18893932Y9504445D01*
X18893932Y9652241D01*
X18833785Y9677800D01*
X18766694Y9707804D01*
X18697380Y9740030D01*
X18630566Y9772256D01*
X18699463Y9804899D01*
X18768361Y9836153D01*
X18834202Y9864351D01*
X18893932Y9887826D01*
X18893932Y10035623D01*
X18821145Y10005619D01*
X18776695Y9985200D01*
X18728911Y9961724D01*
X18678766Y9935749D01*
X18627232Y9907829D01*
X18576114Y9878658D01*
X18527219Y9848933D01*
X18206068Y10024510D01*
X18206068Y9886715D01*
X18426096Y9772256D01*
X18206068Y9663354D01*
X18206068Y9515558D01*
X18067162Y9515558D01*
X18067162Y10035715D01*
X18069487Y10083042D01*
X18076439Y10129912D01*
X18087953Y10175876D01*
X18103916Y10220489D01*
X18124175Y10263323D01*
X18148535Y10303966D01*
X18176761Y10342024D01*
X18208582Y10377133D01*
X18243691Y10408954D01*
X18281750Y10437180D01*
X18322392Y10461540D01*
X18365226Y10481799D01*
X18409839Y10497762D01*
X18455803Y10509276D01*
X18502674Y10516228D01*
X18550000Y10518553D01*
X18597326Y10516228D01*
X18644197Y10509276D01*
X18690161Y10497762D01*
X18734774Y10481799D01*
X18777608Y10461540D01*
X18818250Y10437180D01*
X18856309Y10408954D01*
X18891418Y10377133D01*
X18923239Y10342024D01*
X18951465Y10303966D01*
X18975825Y10263323D01*
X18996084Y10220489D01*
X19012047Y10175876D01*
X19023561Y10129912D01*
X19030513Y10083042D01*
X19032838Y10035715D01*
X19032838Y8964285D01*
X19030513Y8916958D01*
G37*
%TO.C,J2*%
X17395000Y22630000D02*
X17395000Y12350000D01*
X12195000Y22630000D02*
X13525000Y22630000D01*
X12195000Y12350000D02*
X17395000Y12350000D01*
X12195000Y21300000D02*
X12195000Y22630000D01*
X12195000Y20030000D02*
X12195000Y12350000D01*
X14795000Y22630000D02*
X17395000Y22630000D01*
X12195000Y20030000D02*
X14795000Y20030000D01*
X14795000Y20030000D02*
X14795000Y22630000D01*
%TO.C,D4*%
X16315000Y26300000D02*
X16315000Y24015000D01*
X17785000Y24015000D02*
X17785000Y26300000D01*
X16315000Y24015000D02*
X17785000Y24015000D01*
%TO.C,R12*%
X16180000Y10143641D02*
X16180000Y9836359D01*
X15420000Y10143641D02*
X15420000Y9836359D01*
%TO.C,D5*%
X11100000Y20600000D02*
X9250000Y20600000D01*
X9250000Y20600000D02*
X9250000Y19400000D01*
X11100000Y19400000D02*
X9250000Y19400000D01*
%TO.C,kibuzzard-63353A37*%
G36*
X19038807Y24654442D02*
G01*
X19031735Y24606763D01*
X19020023Y24560006D01*
X19003784Y24514622D01*
X18983175Y24471048D01*
X18958395Y24429705D01*
X18929681Y24390989D01*
X18897311Y24355274D01*
X18861597Y24322904D01*
X18822881Y24294191D01*
X18781537Y24269410D01*
X18737964Y24248801D01*
X18692580Y24232563D01*
X18645823Y24220851D01*
X18598143Y24213778D01*
X18550000Y24211413D01*
X18501857Y24213778D01*
X18454177Y24220851D01*
X18407420Y24232563D01*
X18362036Y24248801D01*
X18318463Y24269410D01*
X18277119Y24294191D01*
X18238403Y24322904D01*
X18202689Y24355274D01*
X18170319Y24390989D01*
X18141605Y24429705D01*
X18116825Y24471048D01*
X18096216Y24514622D01*
X18079977Y24560006D01*
X18068265Y24606763D01*
X18061193Y24654442D01*
X18058827Y24702586D01*
X18058827Y24867143D01*
X18197734Y24867143D01*
X18201067Y24790467D01*
X18214402Y24702678D01*
X18885598Y24702678D01*
X18898377Y24777688D01*
X18902266Y24849363D01*
X18897405Y24916455D01*
X18882819Y24977713D01*
X18857677Y25032025D01*
X18821145Y25078281D01*
X18772667Y25115924D01*
X18711687Y25144400D01*
X18637372Y25162319D01*
X18548889Y25168292D01*
X18462350Y25162875D01*
X18389424Y25146623D01*
X18329139Y25120647D01*
X18280522Y25086059D01*
X18243434Y25042860D01*
X18217736Y24991048D01*
X18202734Y24932012D01*
X18197734Y24867143D01*
X18058827Y24867143D01*
X18058827Y25226077D01*
X18205512Y25226077D01*
X18318860Y25226077D01*
X18318860Y25407211D01*
X18893376Y25407211D01*
X18893376Y25545006D01*
X18318860Y25545006D01*
X18318860Y25726139D01*
X18205512Y25726139D01*
X18205512Y25226077D01*
X18058827Y25226077D01*
X18058827Y25991728D01*
X18197734Y25991728D01*
X18198845Y25952834D01*
X18201623Y25906162D01*
X18207179Y25857823D01*
X18215514Y25813928D01*
X18893376Y25813928D01*
X18893376Y25950612D01*
X18640011Y25950612D01*
X18640011Y26021732D01*
X18702936Y26059375D01*
X18765027Y26094519D01*
X18827951Y26126328D01*
X18893376Y26153971D01*
X18893376Y26297322D01*
X18820589Y26265651D01*
X18743913Y26227313D01*
X18670571Y26186197D01*
X18606674Y26146192D01*
X18575281Y26194809D01*
X18532220Y26227313D01*
X18480547Y26245649D01*
X18423317Y26251761D01*
X18369283Y26247177D01*
X18322749Y26233425D01*
X18252185Y26180641D01*
X18228015Y26142858D01*
X18211069Y26098408D01*
X18201067Y26047846D01*
X18197734Y25991728D01*
X18058827Y25991728D01*
X18058827Y26297414D01*
X18058828Y26297414D01*
X18061193Y26345558D01*
X18068265Y26393237D01*
X18079977Y26439994D01*
X18096216Y26485378D01*
X18116825Y26528952D01*
X18141605Y26570295D01*
X18170319Y26609011D01*
X18202689Y26644726D01*
X18238403Y26677096D01*
X18277119Y26705809D01*
X18318463Y26730590D01*
X18362036Y26751199D01*
X18407420Y26767437D01*
X18454177Y26779149D01*
X18501857Y26786222D01*
X18550000Y26788587D01*
X18598143Y26786222D01*
X18645823Y26779149D01*
X18692580Y26767437D01*
X18737964Y26751199D01*
X18781537Y26730590D01*
X18822881Y26705809D01*
X18861597Y26677096D01*
X18897311Y26644726D01*
X18929681Y26609011D01*
X18958395Y26570295D01*
X18983175Y26528952D01*
X19003784Y26485378D01*
X19020023Y26439994D01*
X19031735Y26393237D01*
X19038807Y26345558D01*
X19041172Y26297414D01*
X19041173Y26297414D01*
X19041173Y24702586D01*
X19038807Y24654442D01*
G37*
G36*
X18499438Y26081739D02*
G01*
X18519857Y26040901D01*
X18526664Y25980616D01*
X18526664Y25950612D01*
X18319971Y25950612D01*
X18317193Y25972837D01*
X18316638Y25991728D01*
X18323027Y26040901D01*
X18342196Y26079517D01*
X18374978Y26104520D01*
X18422206Y26112854D01*
X18499438Y26081739D01*
G37*
G36*
X18597923Y25027302D02*
G01*
X18642789Y25021051D01*
X18716688Y24993270D01*
X18765582Y24942153D01*
X18783362Y24863809D01*
X18783362Y24851586D01*
X18782251Y24839362D01*
X18319971Y24839362D01*
X18317193Y24859364D01*
X18316638Y24879367D01*
X18336084Y24953821D01*
X18387758Y24999382D01*
X18462211Y25022718D01*
X18548889Y25029386D01*
X18597923Y25027302D01*
G37*
%TO.C,D10*%
X19250000Y23150000D02*
X18050000Y23150000D01*
X18050000Y21300000D02*
X18050000Y23150000D01*
X19250000Y21300000D02*
X19250000Y23150000D01*
%TO.C,D2*%
X12315000Y10985000D02*
X12315000Y8700000D01*
X13785000Y10985000D02*
X12315000Y10985000D01*
X13785000Y8700000D02*
X13785000Y10985000D01*
%TO.C,R13*%
X12180000Y10143641D02*
X12180000Y9836359D01*
X11420000Y10143641D02*
X11420000Y9836359D01*
%TO.C,D11*%
X11100000Y14400000D02*
X9250000Y14400000D01*
X9250000Y15600000D02*
X9250000Y14400000D01*
X11100000Y15600000D02*
X9250000Y15600000D01*
%TO.C,D9*%
X11100000Y22000000D02*
X9250000Y22000000D01*
X11100000Y23200000D02*
X9250000Y23200000D01*
X9250000Y23200000D02*
X9250000Y22000000D01*
%TO.C,D7*%
X19250000Y13700000D02*
X19250000Y11850000D01*
X18050000Y11850000D02*
X19250000Y11850000D01*
X18050000Y13700000D02*
X18050000Y11850000D01*
%TO.C,R14*%
X11420000Y24856359D02*
X11420000Y25163641D01*
X12180000Y24856359D02*
X12180000Y25163641D01*
%TO.C,kibuzzard-63351A9D*%
G36*
X3145661Y8758859D02*
G01*
X3096488Y8774277D01*
X3060095Y8820533D01*
X3043426Y8868008D01*
X3033425Y8928201D01*
X3030091Y9001111D01*
X3030604Y9012224D01*
X3084543Y9012224D01*
X3101211Y8960551D01*
X3146773Y8938881D01*
X3190667Y8960551D01*
X3207891Y9012224D01*
X3190667Y9064452D01*
X3146773Y9086677D01*
X3101211Y9064452D01*
X3084543Y9012224D01*
X3030604Y9012224D01*
X3033425Y9073404D01*
X3043426Y9133227D01*
X3060095Y9180578D01*
X3096488Y9226834D01*
X3145661Y9242252D01*
X3195529Y9226834D01*
X3231783Y9180578D01*
X3248143Y9133227D01*
X3257959Y9073404D01*
X3261231Y9001111D01*
X3257959Y8928201D01*
X3248143Y8868008D01*
X3231783Y8820533D01*
X3195529Y8774277D01*
X3146773Y8759202D01*
X3145661Y8758859D01*
G37*
G36*
X1166531Y8504557D02*
G01*
X1118204Y8511726D01*
X1070812Y8523597D01*
X1024812Y8540056D01*
X980647Y8560944D01*
X938742Y8586061D01*
X899501Y8615164D01*
X863301Y8647974D01*
X830492Y8684174D01*
X801389Y8723415D01*
X776272Y8765320D01*
X755383Y8809485D01*
X738924Y8855485D01*
X727053Y8902876D01*
X719885Y8951203D01*
X717487Y9000000D01*
X719885Y9048797D01*
X727053Y9097124D01*
X738924Y9144515D01*
X755383Y9190515D01*
X776272Y9234680D01*
X801389Y9276585D01*
X830492Y9315826D01*
X855461Y9343376D01*
X1215420Y9343376D01*
X1228199Y9281146D01*
X1246535Y9203359D01*
X1261228Y9145142D01*
X1277156Y9084578D01*
X1294319Y9021669D01*
X1312469Y8957526D01*
X1331360Y8893258D01*
X1350993Y8828867D01*
X1380163Y8737189D01*
X1407666Y8655512D01*
X1548795Y8655512D01*
X1570032Y8714717D01*
X1590776Y8775281D01*
X1611025Y8837202D01*
X1630472Y8899432D01*
X1648808Y8960921D01*
X1666032Y9021669D01*
X1689646Y9110153D01*
X1710482Y9194469D01*
X1711753Y9200025D01*
X1809939Y9200025D01*
X1854389Y9086677D01*
X1922175Y9113903D01*
X1993295Y9153352D01*
X1993295Y8768860D01*
X1848833Y8768860D01*
X1848833Y8655512D01*
X2266663Y8655512D01*
X2266663Y8743301D01*
X2491135Y8743301D01*
X2499469Y8700518D01*
X2521694Y8669403D01*
X2553365Y8649956D01*
X2591148Y8643289D01*
X2660045Y8668847D01*
X2690049Y8743301D01*
X2660045Y8815532D01*
X2591148Y8841091D01*
X2553365Y8834424D01*
X2521694Y8815532D01*
X2499469Y8784973D01*
X2491135Y8743301D01*
X2266663Y8743301D01*
X2266663Y8768860D01*
X2129979Y8768860D01*
X2129979Y9001111D01*
X2906743Y9001111D01*
X2910562Y8915823D01*
X2922022Y8842202D01*
X2941122Y8780250D01*
X2967861Y8729966D01*
X3014781Y8680577D01*
X3074047Y8650944D01*
X3145661Y8641066D01*
X3217275Y8650944D01*
X3276542Y8680577D01*
X3323461Y8729966D01*
X3350201Y8780250D01*
X3369300Y8842202D01*
X3380760Y8915823D01*
X3384580Y9001111D01*
X3380760Y9085879D01*
X3369300Y9159048D01*
X3350201Y9220618D01*
X3323461Y9270589D01*
X3276542Y9319670D01*
X3217275Y9349118D01*
X3145661Y9358934D01*
X3075159Y9349056D01*
X3016262Y9319423D01*
X2968973Y9270034D01*
X2941747Y9219889D01*
X2922300Y9158353D01*
X2910632Y9085427D01*
X2906743Y9001111D01*
X2129979Y9001111D01*
X2129979Y9343376D01*
X2036634Y9343376D01*
X1988850Y9300037D01*
X1929954Y9260033D01*
X1867724Y9225584D01*
X1809939Y9200025D01*
X1711753Y9200025D01*
X1728401Y9272812D01*
X1743264Y9343376D01*
X1599913Y9343376D01*
X1589911Y9285591D01*
X1577688Y9218916D01*
X1563797Y9146824D01*
X1548795Y9072787D01*
X1532682Y8998333D01*
X1515458Y8924991D01*
X1497678Y8856232D01*
X1479898Y8795530D01*
X1461979Y8857065D01*
X1443782Y8926102D01*
X1426002Y8999444D01*
X1409333Y9073898D01*
X1393915Y9147796D01*
X1379885Y9219472D01*
X1368217Y9285730D01*
X1359883Y9343376D01*
X1215420Y9343376D01*
X855461Y9343376D01*
X863301Y9352026D01*
X899501Y9384836D01*
X938742Y9413939D01*
X980647Y9439056D01*
X1024812Y9459944D01*
X1070812Y9476403D01*
X1118204Y9488274D01*
X1166531Y9495443D01*
X1215327Y9497840D01*
X3384673Y9497840D01*
X3433469Y9495443D01*
X3481796Y9488274D01*
X3529188Y9476403D01*
X3575188Y9459944D01*
X3619353Y9439056D01*
X3661258Y9413939D01*
X3700499Y9384836D01*
X3736699Y9352026D01*
X3769508Y9315826D01*
X3798611Y9276585D01*
X3823728Y9234680D01*
X3844617Y9190515D01*
X3861076Y9144515D01*
X3872947Y9097124D01*
X3880115Y9048797D01*
X3882513Y9000000D01*
X3880115Y8951203D01*
X3872947Y8902876D01*
X3861076Y8855485D01*
X3844617Y8809485D01*
X3823728Y8765320D01*
X3798611Y8723415D01*
X3769508Y8684174D01*
X3736699Y8647974D01*
X3700499Y8615164D01*
X3661258Y8586061D01*
X3619353Y8560944D01*
X3575188Y8540056D01*
X3529188Y8523597D01*
X3481796Y8511726D01*
X3433469Y8504557D01*
X3384673Y8502160D01*
X1215327Y8502160D01*
X1166531Y8504557D01*
G37*
%TO.C,kibuzzard-63353A29*%
G36*
X15045443Y24669902D02*
G01*
X15038274Y24621575D01*
X15026403Y24574183D01*
X15009944Y24528184D01*
X14989056Y24484019D01*
X14963939Y24442114D01*
X14934836Y24402872D01*
X14902026Y24366673D01*
X14865826Y24333863D01*
X14826585Y24304760D01*
X14784680Y24279643D01*
X14740515Y24258754D01*
X14694515Y24242295D01*
X14647124Y24230425D01*
X14598797Y24223256D01*
X14550000Y24220859D01*
X14501203Y24223256D01*
X14452876Y24230425D01*
X14405485Y24242295D01*
X14359485Y24258754D01*
X14315320Y24279643D01*
X14273415Y24304760D01*
X14234174Y24333863D01*
X14197974Y24366673D01*
X14165164Y24402872D01*
X14136061Y24442114D01*
X14110944Y24484019D01*
X14090056Y24528184D01*
X14073597Y24574183D01*
X14061726Y24621575D01*
X14054557Y24669902D01*
X14052160Y24718699D01*
X14052160Y24896591D01*
X14198845Y24896591D01*
X14199956Y24857698D01*
X14202734Y24811025D01*
X14208291Y24762686D01*
X14216625Y24718791D01*
X14894488Y24718791D01*
X14894488Y24855475D01*
X14641123Y24855475D01*
X14641123Y24926595D01*
X14704047Y24964239D01*
X14766138Y24999382D01*
X14829063Y25031191D01*
X14894488Y25058834D01*
X14894488Y25202185D01*
X14821701Y25170514D01*
X14745024Y25132176D01*
X14671682Y25091060D01*
X14607785Y25051055D01*
X14576392Y25099672D01*
X14533331Y25132176D01*
X14481658Y25150512D01*
X14424429Y25156624D01*
X14370394Y25152040D01*
X14323861Y25138288D01*
X14253296Y25085504D01*
X14229127Y25047721D01*
X14212180Y25003271D01*
X14202179Y24952709D01*
X14198845Y24896591D01*
X14052160Y24896591D01*
X14052160Y25242190D01*
X14206624Y25242190D01*
X14319971Y25242190D01*
X14319971Y25423324D01*
X14894488Y25423324D01*
X14894488Y25561119D01*
X14319971Y25561119D01*
X14319971Y25742253D01*
X14206624Y25742253D01*
X14206624Y25242190D01*
X14052160Y25242190D01*
X14052160Y26060070D01*
X14191066Y26060070D01*
X14197116Y25991975D01*
X14215267Y25934375D01*
X14245518Y25887271D01*
X14310526Y25840181D01*
X14396648Y25824485D01*
X14478324Y25842265D01*
X14533331Y25887271D01*
X14570003Y25947834D01*
X14595561Y26012286D01*
X14615008Y26058959D01*
X14638344Y26101186D01*
X14667793Y26132301D01*
X14705575Y26144525D01*
X14738357Y26139524D01*
X14767249Y26121189D01*
X14787252Y26085073D01*
X14794475Y26027844D01*
X14790586Y25972420D01*
X14778918Y25926164D01*
X14745580Y25854489D01*
X14856705Y25814484D01*
X14890598Y25891160D01*
X14904350Y25950890D01*
X14908934Y26027844D01*
X14903069Y26105816D01*
X14885474Y26169343D01*
X14856149Y26218423D01*
X14792391Y26265512D01*
X14706686Y26281209D01*
X14654874Y26276486D01*
X14612786Y26262318D01*
X14550556Y26213978D01*
X14510551Y26149526D01*
X14483325Y26082295D01*
X14466656Y26039512D01*
X14446098Y26000618D01*
X14419428Y25972281D01*
X14384424Y25961169D01*
X14340591Y25973269D01*
X14314292Y26009570D01*
X14305525Y26070071D01*
X14316638Y26148414D01*
X14343308Y26210089D01*
X14237739Y26250094D01*
X14205512Y26170639D01*
X14194678Y26119383D01*
X14191066Y26060070D01*
X14052160Y26060070D01*
X14052160Y26281301D01*
X14054557Y26330098D01*
X14061726Y26378425D01*
X14073597Y26425817D01*
X14090056Y26471816D01*
X14110944Y26515982D01*
X14136061Y26557886D01*
X14165164Y26597128D01*
X14197974Y26633327D01*
X14234174Y26666137D01*
X14273415Y26695240D01*
X14315320Y26720357D01*
X14359485Y26741246D01*
X14405485Y26757705D01*
X14452876Y26769575D01*
X14501203Y26776744D01*
X14550000Y26779141D01*
X14598797Y26776744D01*
X14647124Y26769575D01*
X14694515Y26757705D01*
X14740515Y26741246D01*
X14784680Y26720357D01*
X14826585Y26695240D01*
X14865826Y26666137D01*
X14902026Y26633327D01*
X14934836Y26597128D01*
X14963939Y26557886D01*
X14989056Y26515982D01*
X15009944Y26471816D01*
X15026403Y26425817D01*
X15038274Y26378425D01*
X15045443Y26330098D01*
X15047840Y26281301D01*
X15047840Y24718699D01*
X15045443Y24669902D01*
G37*
G36*
X14500549Y24986603D02*
G01*
X14520969Y24945764D01*
X14527775Y24885479D01*
X14527775Y24855475D01*
X14321083Y24855475D01*
X14318304Y24877700D01*
X14317749Y24896591D01*
X14324138Y24945764D01*
X14343308Y24984380D01*
X14376089Y25009383D01*
X14423318Y25017718D01*
X14500549Y24986603D01*
G37*
%TO.C,kibuzzard-63351A8A*%
G36*
X1238003Y25363002D02*
G01*
X1175869Y25372219D01*
X1114937Y25387482D01*
X1055794Y25408643D01*
X999011Y25435500D01*
X945133Y25467793D01*
X894680Y25505211D01*
X848137Y25547395D01*
X805954Y25593938D01*
X768535Y25644391D01*
X736242Y25698268D01*
X709385Y25755052D01*
X702002Y25775686D01*
X1556211Y25775686D01*
X1641936Y25775686D01*
X1600502Y25557087D01*
X1746234Y25557087D01*
X1786239Y25775686D01*
X1900539Y25775686D01*
X1859106Y25557087D01*
X2004838Y25557087D01*
X2046272Y25775686D01*
X2220579Y25775686D01*
X2220579Y25921419D01*
X2073418Y25921419D01*
X2088693Y26001429D01*
X2294874Y26001429D01*
X2299786Y25891772D01*
X2314520Y25797117D01*
X2339076Y25717465D01*
X2373456Y25652814D01*
X2433781Y25589314D01*
X2509981Y25551214D01*
X2602056Y25538514D01*
X2694131Y25551214D01*
X2770331Y25589314D01*
X2830656Y25652814D01*
X2865035Y25717465D01*
X2889592Y25797117D01*
X2904326Y25891772D01*
X2909237Y26001429D01*
X2904326Y26110416D01*
X2889592Y26204490D01*
X2873248Y26257175D01*
X3027823Y26257175D01*
X3084973Y26111442D01*
X3172127Y26146447D01*
X3263567Y26197167D01*
X3263567Y25702820D01*
X3077829Y25702820D01*
X3077829Y25557087D01*
X3615039Y25557087D01*
X3615039Y25702820D01*
X3439303Y25702820D01*
X3439303Y26001429D01*
X3723624Y26001429D01*
X3728536Y25891772D01*
X3743270Y25797117D01*
X3767826Y25717465D01*
X3802206Y25652814D01*
X3862531Y25589314D01*
X3938731Y25551214D01*
X4030806Y25538514D01*
X4122881Y25551214D01*
X4199081Y25589314D01*
X4259406Y25652814D01*
X4293785Y25717465D01*
X4318342Y25797117D01*
X4333076Y25891772D01*
X4337987Y26001429D01*
X4333076Y26110416D01*
X4318342Y26204490D01*
X4301998Y26257175D01*
X4456573Y26257175D01*
X4513723Y26111442D01*
X4600877Y26146447D01*
X4692317Y26197167D01*
X4692317Y25702820D01*
X4506579Y25702820D01*
X4506579Y25557087D01*
X5043789Y25557087D01*
X5043789Y25702820D01*
X4868053Y25702820D01*
X4868053Y26441484D01*
X4748038Y26441484D01*
X4686602Y26385762D01*
X4610878Y26334328D01*
X4530868Y26290036D01*
X4456573Y26257175D01*
X4301998Y26257175D01*
X4293785Y26283652D01*
X4259406Y26347901D01*
X4199081Y26411004D01*
X4122881Y26448866D01*
X4030806Y26461486D01*
X3940159Y26448786D01*
X3864436Y26410686D01*
X3803634Y26347186D01*
X3768630Y26282714D01*
X3743627Y26203597D01*
X3728625Y26109835D01*
X3723624Y26001429D01*
X3439303Y26001429D01*
X3439303Y26441484D01*
X3319288Y26441484D01*
X3257852Y26385762D01*
X3182128Y26334328D01*
X3102118Y26290036D01*
X3027823Y26257175D01*
X2873248Y26257175D01*
X2865035Y26283652D01*
X2830656Y26347901D01*
X2770331Y26411004D01*
X2694131Y26448866D01*
X2602056Y26461486D01*
X2511409Y26448786D01*
X2435686Y26410686D01*
X2374884Y26347186D01*
X2339880Y26282714D01*
X2314877Y26203597D01*
X2299875Y26109835D01*
X2294874Y26001429D01*
X2088693Y26001429D01*
X2103422Y26078581D01*
X2220579Y26078581D01*
X2220579Y26224314D01*
X2131997Y26224314D01*
X2173431Y26441484D01*
X2027698Y26441484D01*
X1986264Y26224314D01*
X1871964Y26224314D01*
X1914827Y26441484D01*
X1769094Y26441484D01*
X1727661Y26224314D01*
X1556211Y26224314D01*
X1556211Y26078581D01*
X1699086Y26078581D01*
X1669082Y25921419D01*
X1556211Y25921419D01*
X1556211Y25775686D01*
X702002Y25775686D01*
X688224Y25814195D01*
X672961Y25875127D01*
X663744Y25937261D01*
X660662Y26000000D01*
X663744Y26062739D01*
X672961Y26124873D01*
X688224Y26185805D01*
X709385Y26244948D01*
X736242Y26301732D01*
X768535Y26355609D01*
X805954Y26406062D01*
X848137Y26452605D01*
X894680Y26494789D01*
X945133Y26532207D01*
X999011Y26564500D01*
X1055794Y26591357D01*
X1114937Y26612518D01*
X1175869Y26627781D01*
X1238003Y26636998D01*
X1300742Y26640080D01*
X5299258Y26640080D01*
X5361997Y26636998D01*
X5424131Y26627781D01*
X5485063Y26612518D01*
X5544206Y26591357D01*
X5600989Y26564500D01*
X5654867Y26532207D01*
X5705320Y26494789D01*
X5751863Y26452605D01*
X5794046Y26406062D01*
X5831465Y26355609D01*
X5863758Y26301732D01*
X5890615Y26244948D01*
X5911776Y26185805D01*
X5927039Y26124873D01*
X5936256Y26062739D01*
X5939338Y26000000D01*
X5936256Y25937261D01*
X5927039Y25875127D01*
X5911776Y25814195D01*
X5890615Y25755052D01*
X5863758Y25698268D01*
X5831465Y25644391D01*
X5794046Y25593938D01*
X5751863Y25547395D01*
X5705320Y25505211D01*
X5654867Y25467793D01*
X5600989Y25435500D01*
X5544206Y25408643D01*
X5485063Y25387482D01*
X5424131Y25372219D01*
X5361997Y25363002D01*
X5299258Y25359920D01*
X1300742Y25359920D01*
X1238003Y25363002D01*
G37*
G36*
X2602056Y25689961D02*
G01*
X2538833Y25709785D01*
X2492042Y25769257D01*
X2470611Y25830296D01*
X2457752Y25907687D01*
X2453466Y26001429D01*
X2454125Y26015716D01*
X2523474Y26015716D01*
X2544906Y25949279D01*
X2603484Y25921419D01*
X2659920Y25949279D01*
X2682066Y26015716D01*
X2659920Y26082867D01*
X2603484Y26111442D01*
X2544906Y26082867D01*
X2523474Y26015716D01*
X2454125Y26015716D01*
X2457752Y26094377D01*
X2470611Y26171291D01*
X2492042Y26232172D01*
X2538833Y26291644D01*
X2602056Y26311467D01*
X2666171Y26291644D01*
X2712784Y26232172D01*
X2733818Y26171291D01*
X2746439Y26094377D01*
X2750646Y26001429D01*
X2746439Y25907687D01*
X2733818Y25830296D01*
X2712784Y25769257D01*
X2666171Y25709785D01*
X2603484Y25690403D01*
X2602056Y25689961D01*
G37*
G36*
X1929114Y25921419D02*
G01*
X1814814Y25921419D01*
X1844818Y26078581D01*
X1957689Y26078581D01*
X1929114Y25921419D01*
G37*
G36*
X4030806Y25689961D02*
G01*
X3967583Y25709785D01*
X3920792Y25769257D01*
X3899361Y25830296D01*
X3886502Y25907687D01*
X3882216Y26001429D01*
X3882875Y26015716D01*
X3952224Y26015716D01*
X3973656Y25949279D01*
X4032234Y25921419D01*
X4088670Y25949279D01*
X4110816Y26015716D01*
X4088670Y26082867D01*
X4032234Y26111442D01*
X3973656Y26082867D01*
X3952224Y26015716D01*
X3882875Y26015716D01*
X3886502Y26094377D01*
X3899361Y26171291D01*
X3920792Y26232172D01*
X3967583Y26291644D01*
X4030806Y26311467D01*
X4094921Y26291644D01*
X4141534Y26232172D01*
X4162568Y26171291D01*
X4175189Y26094377D01*
X4179396Y26001429D01*
X4175189Y25907687D01*
X4162568Y25830296D01*
X4141534Y25769257D01*
X4094921Y25709785D01*
X4032234Y25690403D01*
X4030806Y25689961D01*
G37*
%TD*%
M02*
